<?xml version="1.0" standalone="no"?>
<!DOCTYPE svg PUBLIC "-//W3C//DTD SVG 1.1//EN" "http://www.w3.org/Graphics/SVG/1.1/DTD/svg11.dtd" >
<svg xmlns="http://www.w3.org/2000/svg" xmlns:xlink="http://www.w3.org/1999/xlink" version="1.1">
<metadata>
Created by FontForge 20170104 at Tue Nov 16 05:22:29 2004
 By myTaste
4.1 (c)1986-92 by Richard A. Ware. All Rights Reserved.
</metadata>
<defs>
<font id="BodoniFLF-BoldItalic" horiz-adv-x="376" >
  <font-face 
    font-family="BodoniFLF"
    font-weight="700"
    font-style="italic"
    font-stretch="normal"
    units-per-em="1000"
    panose-1="2 0 8 3 9 0 0 9 0 3"
    ascent="800"
    descent="-200"
    x-height="437"
    cap-height="672"
    bbox="-210.571 -270 1352 862"
    underline-thickness="25"
    underline-position="-178"
    slope="-12"
    unicode-range="U+0005-E011"
  />
<missing-glyph horiz-adv-x="500" 
 />
    <glyph glyph-name=".notdef" horiz-adv-x="500" 
 />
    <glyph glyph-name="breve" horiz-adv-x="414" 
d="M216 532q34 0 67.5 11.5t56.5 31.5q6 5 7.5 8t1.5 6q0 5 -3.5 8.5t-8.5 3.5q-2 0 -4.5 -1t-7.5 -6q-18 -14 -47.5 -22.5t-59.5 -8.5q-26 0 -48.5 7.5t-33.5 21.5q-4 5 -5.5 6.5t-3.5 1.5q-5 0 -9.5 -4.5t-4.5 -10.5q0 -2 0.5 -3.5t4.5 -6.5q14 -21 40 -32t58 -11z" />
    <glyph glyph-name="dotaccent" horiz-adv-x="414" 
d="M321 584q0 28 -19 50t-58 22q-22 0 -38.5 -7.5t-27.5 -19t-16.5 -26.5t-5.5 -30q0 -28 19 -50t58 -22q22 0 38.5 7.5t27.5 19t16.5 26.5t5.5 30z" />
    <glyph glyph-name="ring" horiz-adv-x="313" 
d="M256 579q0 31 -22 53t-53 22t-53 -22t-22 -53t22 -53t53 -22t53 22t22 53zM125 579q0 23 16.5 39.5t39.5 16.5t39.5 -16.5t16.5 -39.5t-16.5 -39.5t-39.5 -16.5t-39.5 16.5t-16.5 39.5z" />
    <glyph glyph-name="hungarumlaut" unicode="&#xa;" horiz-adv-x="484" 
d="M166 698l-37 -181l22 -12l100 193h-85zM289 698l-36 -181l21 -12l100 193h-85z" />
    <glyph glyph-name="ogonek" horiz-adv-x="312" 
d="M130 -96q0 34 13.5 54.5t30.5 41.5h-18q-11 -9 -23 -20t-22 -24t-17 -27.5t-7 -30.5q0 -27 14 -40t37 -13q20 0 33.5 4.5t26.5 12.5q8 4 8 9q0 3 -6 3q-4 0 -7 -1q-15 -6 -29 -6q-15 0 -24.5 8.5t-9.5 28.5z" />
    <glyph glyph-name="caron" horiz-adv-x="403" 
d="M94 657l88 -133h43l134 133l-10 10l-138 -77l-108 75z" />
    <glyph glyph-name="dotlessi" unicode="&#xd;" horiz-adv-x="335" 
d="M217 60q0 5 1 12.5t6 24.5l99 365l-213 -32l-5 -17l57 7l-85 -311q-6 -24 -6 -42q0 -39 23 -59t62 -20q66 0 105 36.5t67 97.5q3 6 3 12q0 9 -7 9t-11 -9q-25 -50 -46.5 -72.5t-35.5 -22.5t-14 21z" />
    <glyph glyph-name="fraction" horiz-adv-x="919" 
d="M168 -4l736 687h-47l-737 -687h48z" />
    <glyph glyph-name="fi" horiz-adv-x="589" 
d="M472 92l100 370l-216 -35h-70l18 67q9 33 10 60.5t4 48t13.5 34t39.5 19.5q26 6 57 6.5t55.5 -1t36.5 -4t0 -3.5q-22 -2 -39 -18t-26 -37t-8 -42.5t16 -34.5q21 -20 49 -24t53.5 6t42 32.5t15.5 55.5q-2 23 -12 41t-34 29.5t-64.5 16t-102.5 0.5q-76 -5 -125 -31.5
t-78.5 -61t-43.5 -69.5t-20 -57l-10 -33h-76l-4 -17h78l-121 -445q-18 -67 -44.5 -113t-55.5 -56q-6 -2 -13.5 -1.5t-13 2.5t-6.5 5.5t6 6.5t15.5 7.5t13.5 12.5t5 20q0 11 -9 28q-8 14 -22.5 19t-28.5 0.5t-26 -18t-16 -34.5q-2 -10 3 -21.5t14.5 -21t23 -15.5t29.5 -6
q60 0 109 25t86.5 62.5t62 81t34.5 81.5l106 380h70l59 10l-81 -297q-6 -23 -6 -39q0 -15 3 -26t8.5 -18.5t12.5 -13.5q18 -17 47 -23t61 3.5t64 38t56 81.5q4 7 -1 11t-8 -4q-20 -38 -40.5 -59.5t-35 -26.5t-21 6t0.5 39z" />
    <glyph glyph-name="fl" horiz-adv-x="568" 
d="M407 660q-13 -5 -23.5 -14.5t-15.5 -20.5t-4.5 -22t9.5 -19q16 -15 33 -12t27 11t11 9l-135 -479q-16 -59 3 -92t64 -33q46 0 79 18.5t55.5 42t35 46l17.5 31.5q3 6 0 11.5t-6 -2.5q-24 -45 -46 -69t-37 -31t-21.5 2.5t-0.5 32.5l169 622l-172 -27q-10 4 -16.5 7
t-12.5 4.5t-14 2.5t-21 0q-76 -5 -125 -31.5t-78.5 -61t-43.5 -69.5t-20 -57l-10 -33h-76l-4 -17h78l-121 -445q-18 -67 -44.5 -113t-55.5 -56q-6 -2 -14 -1.5t-13 2.5t-6 5.5t6 6.5t15.5 7.5t13.5 12.5t5 20q0 11 -10 28q-8 14 -22 19t-28 0.5t-26 -18t-16 -34.5
q-2 -10 3 -21.5t14.5 -21t23 -15.5t29.5 -6q60 0 109 25.5t86.5 63.5t62 81.5t34.5 79.5l106 380h79l5 17h-81l18 67q9 33 12.5 62t7 50.5t10 35t21.5 16.5q26 6 42.5 7t25 0.5t10.5 -2.5t-1 -3z" />
    <glyph glyph-name="Lslash" horiz-adv-x="551" 
d="M121 278l-89 -64l-13 -43l91 66l-59 -221h-54l-5 -16h476q14 0 23 9t13 23l37 141q0 9 2 13.5l2 4.5q0 11 -7 11q-10 0 -17 -20q-11 -31 -28 -61t-40 -53t-52.5 -37.5t-65.5 -14.5h-123l90 334l121 87l13 43l-123 -88l71 264h54l3 16h-269l-3 -16h54z" />
    <glyph glyph-name="lslash" horiz-adv-x="328" 
d="M120 275l-13 -9.5t-28.5 -21t-29 -21l-13.5 -9.5l-13 -43l86 63l-27 -99q-5 -17 -7.5 -30t-2.5 -27q0 -23 8.5 -40t22 -28t31.5 -16.5t37 -5.5q36 0 62.5 9.5t48 27t38.5 42.5t34 57q3 6 3.5 8t0.5 3q0 8 -8 8q-5 0 -7 -5q-31 -60 -59 -85.5t-48 -25.5q-22 0 -22 28
q0 5 1 11t4 18l71 261l115 82l13 43l-116 -83l85 311l-215 -35l-4 -17l58 9z" />
    <glyph glyph-name="Zcaron" horiz-adv-x="581" 
d="M11 26l-7 -26h508l54 202h-18q-40 -94 -93.5 -140t-135.5 -46h-151l509 632l6 24h-494l-46 -174h14q16 48 40 78.5t53 48.5t63.5 24.5t72.5 6.5h131zM314 852l88 -133h43l134 133l-10 10l-138 -77l-108 75z" />
    <glyph glyph-name="zcaron" horiz-adv-x="505" 
d="M70 276q4 0 7 6q10 20 16 31l12 22q22 -5 72 -5q28 0 62 2t69 8.5t68.5 18.5t62.5 32q-23 -26 -67.5 -53t-96.5 -58q-51 -30 -100.5 -64t-84.5 -72q-14 -15 -27 -32t-24 -33.5t-17.5 -32.5t-6.5 -28q0 -9 3.5 -15.5t11.5 -6.5q14 0 22 14.5t13 32.5q32 0 56 -9t54 -20
q25 -8 56.5 -14t78.5 -6q51 0 88.5 18t63 46.5t38 63t12.5 67.5q0 34 -15 48.5t-41 14.5t-39 -16.5t-13 -39.5t16 -35.5t38 -12.5q15 0 32 11q-1 -6 -2.5 -14t-4.5 -15t-7.5 -12t-10.5 -5t-11 4q-34 26 -80 35t-94 9q-49 0 -92.5 -6.5t-71.5 -11.5q35 35 79 63.5t89 55.5
q52 31 100.5 63t85.5 77q26 18 38 34.5t12 21.5q0 8 -6 8t-12 -3q-12 -7 -21 -18t-14 -19q-39 2 -88 5t-97.5 7t-90.5 8.5t-67 9.5q-4 -16 -11.5 -40t-15.5 -49t-16 -47.5t-14 -35.5q-1 -1 -1 -4q0 -4 4 -4zM214 657l88 -133h43l134 133l-10 10l-138 -77l-108 75z" />
    <glyph glyph-name="space" unicode=" " horiz-adv-x="269" 
 />
    <glyph glyph-name="exclam" unicode="!" horiz-adv-x="263" 
d="M210 72q0 28 -19 50t-58 22q-22 0 -38.5 -7.5t-27.5 -19t-16.5 -26.5t-5.5 -30q0 -28 19 -50t58 -22q22 0 38.5 7.5t27.5 19t16.5 26.5t5.5 30zM265 684q-25 0 -41 -13q-19 -15 -28.5 -45.5t-14 -69t-6.5 -79t-5 -74.5q-3 -38 -10.5 -89t-17.5 -95l32 -7q6 21 14.5 44
t17.5 46t18.5 44t17.5 38q14 27 30 57.5t30 60.5t23 59t9 53q0 22 -7.5 36t-18 21.5t-22.5 10t-21 2.5z" />
    <glyph glyph-name="quotedbl" unicode="&#x22;" horiz-adv-x="382" 
d="M303 657q0 24 -13.5 35t-30.5 11t-28.5 -7t-19 -17.5t-11 -23t-3.5 -24.5q0 -21 3.5 -41t3.5 -46q0 -18 -2.5 -38t-7.5 -39q-3 -11 -3.5 -14.5t-0.5 -5.5q0 -8 4.5 -11.5t10.5 -3.5q5 0 10.5 4t7.5 12q8 44 18.5 73t21.5 49t20 32.5t12 23.5q5 13 6.5 19.5t1.5 11.5z
M471 657q0 24 -13.5 35t-30.5 11t-28.5 -7t-19 -17.5t-11 -23t-3.5 -24.5q0 -21 3.5 -41t3.5 -46q0 -18 -2.5 -38t-7.5 -39q-3 -11 -3.5 -14.5t-0.5 -5.5q0 -8 4.5 -11.5t10.5 -3.5q5 0 10.5 4t7.5 12q8 44 18.5 73t21.5 49t20 32.5t12 23.5q5 13 6.5 19.5t1.5 11.5z" />
    <glyph glyph-name="numbersign" unicode="#" horiz-adv-x="624" 
d="M373 471l70 132h-84l-69 -132h-118l-15 -26h119l-63 -120h-104l-17 -26h108l-70 -133h84l69 133h114l-73 -138h80l72 138h113l16 26h-116l64 120h106l15 26h-107l70 132h-81l-70 -132h-113zM297 325l63 120h113l-63 -120h-113z" />
    <glyph glyph-name="dollar" unicode="$" horiz-adv-x="568" 
d="M410 662l-57 -210q-42 9 -62.5 36.5t-20.5 59.5q0 21 8 41t25 35.5t43.5 26t63.5 11.5zM305 277l-71 -266q-61 5 -96 24t-35 30q0 2 3 2q5 -1 9 -1h8q31 0 46 17.5t15 38.5q0 16 -6.5 28t-16.5 19t-21 10.5t-20 3.5q-27 0 -45 -20t-18 -49t15 -50t39.5 -35t55.5 -22
t63 -11l-21 -84h21l22 83h16q58 0 108 18.5t87 51.5t57.5 77.5t20.5 96.5q0 72 -42 126.5t-127 79.5l59 217q28 -2 50.5 -7.5t38.5 -12.5t24 -14t8 -11t-8 -4h-3h-7q-24 0 -37 -16t-13 -36q0 -15 5.5 -25.5t14.5 -16.5t19.5 -9t19.5 -3q23 0 42 15t19 44q0 27 -14.5 47
t-38.5 33.5t-54.5 21.5t-61.5 11l16 59h-22l-15 -59q-63 -1 -111 -21.5t-80.5 -53t-49.5 -74t-17 -84.5q0 -63 38.5 -106.5t110.5 -62.5zM256 10l70 262q52 -17 79.5 -48.5t27.5 -78.5q0 -57 -44.5 -95t-132.5 -40z" />
    <glyph glyph-name="percent" unicode="%" horiz-adv-x="912" 
d="M122 450q0 -68 37.5 -111t118.5 -43q60 0 106.5 22.5t79 57t49.5 74.5t17 75t-9 64t-27.5 50t-47.5 32.5t-69 11.5q-60 0 -107.5 -23t-80 -57.5t-50 -75.5t-17.5 -77zM272 489q9 34 17.5 66.5t19 58t26 41t39.5 15.5q21 0 29 -11t8 -31q0 -26 -10 -62.5t-21 -76.5
t-20 -73t-19.5 -57t-24 -37t-34.5 -13q-23 0 -32 12.5t-9 32.5q0 26 10 61t21 74zM227 -4l629 687h-47l-629 -687h47zM508 154q0 -68 37.5 -111t118.5 -43q60 0 106.5 22.5t79 57t49.5 74.5t17 75t-9 64t-27.5 50t-47.5 32.5t-69 11.5q-60 0 -107.5 -23t-80 -57.5t-50 -75.5
t-17.5 -77zM658 193q9 34 17.5 66.5t19 58t26 41t39.5 15.5q21 0 29 -11t8 -31q0 -26 -10 -62.5t-21 -76.5t-20 -73t-19.5 -57t-24 -37t-34.5 -13q-23 0 -32 12.5t-9 32.5q0 26 10 61t21 74z" />
    <glyph glyph-name="ampersand" unicode="&#x26;" horiz-adv-x="761" 
d="M527 634q0 -5 -10 -5q-20 0 -38 -5t-32.5 -15.5t-23 -26.5t-8.5 -37q0 -31 22.5 -47.5t60.5 -16.5q36 0 59.5 28.5t23.5 70.5q0 19 -7.5 37.5t-25 32.5t-46 23t-69.5 9q-71 0 -121.5 -18t-82.5 -46t-47 -62t-15 -67q0 -29 11.5 -51.5t29.5 -38.5t39.5 -24.5t41.5 -8.5
q-77 -14 -126 -39t-76.5 -56t-38 -65t-10.5 -65q0 -38 16.5 -66t45 -46.5t68 -28t86.5 -9.5q70 0 125.5 21.5t98 57.5t72 83t48.5 98q57 4 99 22.5t70 47.5t41.5 68t13.5 84q0 37 -14.5 62t-46.5 25q-24 0 -42.5 -14.5t-18.5 -40.5q0 -21 16 -34t36 -13q14 0 26.5 6.5
t20.5 20.5q-2 -32 -13 -54.5t-35.5 -36.5t-65 -21t-101.5 -7q-72 0 -124 -16t-85.5 -43t-49.5 -63.5t-16 -76.5q0 -34 17 -48t36 -14q26 0 40 17.5t14 37.5t-14 34t-35 14q-14 0 -27 -6q0 20 15 32q14 11 37 15t50 4q30 0 61.5 -2.5t54.5 -2.5q13 0 18 1q-15 -42 -43 -85
t-67.5 -77t-91 -55.5t-114.5 -21.5q-42 0 -59.5 26.5t-17.5 67.5q0 59 18.5 106t45.5 80t56.5 50.5t51.5 17.5h30q8 0 12.5 3.5t4.5 7.5q0 8 -12 8h-30q-31 0 -52 24.5t-21 68.5q0 37 12 71.5t32 61.5t46.5 43.5t56.5 16.5q44 0 68.5 -11t24.5 -18z" />
    <glyph glyph-name="quotesingle" unicode="'" horiz-adv-x="215" 
d="M303 657q0 24 -13.5 35t-30.5 11t-28.5 -7t-19 -17.5t-11 -23t-3.5 -24.5q0 -21 3.5 -41t3.5 -46q0 -18 -2.5 -38t-7.5 -39q-3 -11 -3.5 -14.5t-0.5 -5.5q0 -8 4.5 -11.5t10.5 -3.5q5 0 10.5 4t7.5 12q8 44 18.5 73t21.5 49t20 32.5t12 23.5q5 13 6.5 19.5t1.5 11.5z" />
    <glyph glyph-name="parenleft" unicode="(" horiz-adv-x="462" 
d="M331 453q35 115 83 169t99 54q36 0 55 1.5t19 12.5q0 9 -16.5 10.5t-51.5 1.5q-69 0 -130 -24t-112.5 -64t-92.5 -93.5t-69.5 -112t-43.5 -119t-15 -115.5q0 -62 14 -114t44 -90t76.5 -59.5t110.5 -21.5q45 0 68.5 1.5t23.5 15.5q0 13 -21.5 14.5t-66.5 1.5q-12 0 -25 7
t-23.5 22t-17 37.5t-6.5 53.5q0 20 6 54t15.5 75t21 84.5t22 82.5t20 69.5t13.5 45.5z" />
    <glyph glyph-name="parenright" unicode=")" horiz-adv-x="462" 
d="M231 137q-35 -115 -83 -169t-99 -54q-36 0 -55 -1.5t-19 -12.5q0 -9 16.5 -10.5t51.5 -1.5q69 0 130 24t112.5 64t92.5 93.5t69.5 112t43.5 119t15 115.5q0 62 -14 114t-44 90t-76.5 59.5t-110.5 21.5q-45 0 -68.5 -1.5t-23.5 -15.5q0 -13 21.5 -14.5t66.5 -1.5
q12 0 25 -7t23.5 -22t17 -37.5t6.5 -53.5q0 -20 -6 -54t-15.5 -75t-21 -84.5t-22 -82.5t-19.5 -69.5t-14 -45.5z" />
    <glyph glyph-name="asterisk" unicode="*" horiz-adv-x="409" 
d="M161 605q0 -9 6.5 -18t22.5 -16q44 -19 69 -41t33 -31q-16 -5 -39 -8.5t-49 -3.5q-9 0 -21.5 1.5t-23.5 1.5q-20 0 -28.5 -9.5t-8.5 -20.5q0 -13 9 -23.5t24 -10.5q6 0 14 3t22 13q28 20 58 30t47 15q-2 -9 -6.5 -22.5t-10.5 -28t-13 -28t-14 -23.5q-9 -12 -14.5 -19.5
t-5.5 -21.5t10 -22t22 -8q13 0 23 9.5t10 30.5q0 11 -1 22t-1 19q0 30 4 49.5t9 39.5q13 -12 33 -35.5t37 -66.5q7 -16 16 -22.5t18 -6.5q13 0 23 10t10 24q0 22 -28 35q-39 17 -64 38t-38 34q18 5 39 9t53 4q10 0 21.5 -1t25.5 -1q16 0 24 10t8 22t-8 22t-22 10
q-15 0 -30 -11q-32 -24 -63.5 -35.5t-49.5 -16.5q5 17 15.5 46.5t37.5 66.5q11 15 11 29q0 15 -10.5 23.5t-23.5 8.5q-11 0 -21 -8.5t-10 -28.5q0 -11 1.5 -22.5t1.5 -21.5q0 -28 -4.5 -51t-9.5 -40q-9 9 -31 34t-41 68q-7 15 -16 21.5t-18 6.5q-14 0 -24 -10t-10 -23z" />
    <glyph glyph-name="plus" unicode="+" horiz-adv-x="344" 
d="M172 339h-129l-14 -54h129l-36 -134h53l37 134h129l14 54h-129l36 134h-53z" />
    <glyph glyph-name="comma" unicode="," horiz-adv-x="269" 
d="M234 41q1 6 1 11v9q0 37 -26.5 64.5t-71.5 27.5q-22 0 -37 -7t-24 -18t-13 -24.5t-4 -26.5q0 -30 21 -49t46 -19q48 0 62 38q1 2 2 6t4 4q7 0 7 -14t-2 -19q-3 -17 -14 -37t-30.5 -39t-46.5 -35t-61 -24q-8 -3 -8 -7q0 -5 6 -5q4 0 8 2q42 9 74 27t54 40.5t35 47t18 47.5
z" />
    <glyph glyph-name="hyphen" unicode="-" horiz-adv-x="280" 
d="M255 333h-180l-14 -53h180z" />
    <glyph glyph-name="period" unicode="." horiz-adv-x="269" 
d="M219 72q0 28 -19 50t-58 22q-22 0 -38.5 -7.5t-27.5 -19t-16.5 -26.5t-5.5 -30q0 -28 19 -50t58 -22q22 0 38.5 7.5t27.5 19t16.5 26.5t5.5 30z" />
    <glyph glyph-name="slash" unicode="/" horiz-adv-x="312" 
d="M426 726l-486 -791h43l480 791h-37z" />
    <glyph glyph-name="zero" unicode="0" horiz-adv-x="591" 
d="M-1 216q0 -47 11.5 -87.5t36 -71.5t62.5 -48.5t92 -17.5t103 20.5t90 56t74.5 82t56.5 98.5t35.5 106.5t12.5 104.5q0 46 -11.5 87t-35.5 71.5t-62 48t-91 17.5q-55 0 -104 -20.5t-90.5 -55.5t-74.5 -81.5t-56.5 -98.5t-36 -106t-12.5 -105zM402 472q-18 -69 -36.5 -138
t-39.5 -146q-9 -34 -18 -66.5t-21.5 -57.5t-32 -40t-50.5 -15q-36 0 -49 17t-13 44q0 25 7.5 55.5t15.5 61.5q18 69 37 142t39 145q9 30 18 63.5t23 62t34.5 47t52.5 18.5q33 0 44.5 -18.5t11.5 -47.5t-7.5 -63t-15.5 -64z" />
    <glyph glyph-name="one" unicode="1" horiz-adv-x="591" 
d="M182 528q7 0 12 1q43 8 79 23t65 32l-152 -568h-54l-4 -16h258l4 16h-53l175 656h-85q-25 -16 -53.5 -35.5t-59 -37.5t-62 -33t-61.5 -22q-19 -5 -19 -12q0 -4 10 -4z" />
    <glyph glyph-name="two" unicode="2" horiz-adv-x="591" 
d="M317 520q0 22 -8.5 36.5t-22.5 23.5t-31.5 12.5t-36.5 3.5q8 10 21.5 21t31.5 20t40 15t46 6q34 0 55.5 -26t21.5 -92q0 -53 -11 -93t-30 -72t-43 -56.5t-49 -45.5q-26 -22 -66.5 -50.5t-81 -60.5t-73 -66.5t-42.5 -68.5l-8 -27h383l94 183q3 7 5.5 13.5t2.5 11.5t-4 5
q-6 0 -15 -17q-6 -11 -15 -24.5t-22 -25.5t-32 -20.5t-44 -8.5h-235q18 15 40 27t45.5 22.5t46.5 19.5t43 20q50 20 95.5 49t80.5 67.5t56 86.5t21 105q0 40 -14.5 71.5t-40 53t-60.5 32.5t-75 11q-51 0 -95.5 -14.5t-77.5 -38.5t-52 -54.5t-19 -61.5q0 -21 8 -37t20 -26
t27.5 -15t30.5 -5q35 0 62 22.5t27 67.5z" />
    <glyph glyph-name="three" unicode="3" horiz-adv-x="591" 
d="M183 553q0 -37 20 -54.5t55 -17.5q32 0 55.5 21t23.5 63q0 27 -15 45.5t-38 18.5q-8 0 -8 3t8 8.5t21 10.5t30.5 8.5t36.5 3.5q36 0 49 -19.5t13 -59.5q0 -24 -7 -59.5t-24 -68.5t-45.5 -56t-71.5 -23h-88q-15 0 -15 -11q0 -8 13 -8h85q37 0 56 -23t19 -66
q0 -31 -7.5 -75.5t-25 -85t-46 -69.5t-69.5 -29q-31 0 -52.5 5.5t-34.5 13.5t-19 16.5t-6 14.5t6 6h2q9 -3 21 -3q16 0 31.5 4t27.5 12.5t19.5 22t7.5 32.5q0 37 -23 55.5t-52 18.5q-22 0 -38.5 -8.5t-28 -22t-17 -30.5t-5.5 -34q0 -25 10.5 -47t30.5 -38.5t49.5 -26.5
t67.5 -10q94 0 152 25.5t89 61t41.5 73t10.5 60.5q0 36 -10.5 62.5t-28.5 45t-41 30t-48 17.5q48 4 86 20t64 40t39.5 54.5t13.5 63.5q0 30 -10.5 55t-32.5 43.5t-55 29t-79 10.5q-51 0 -91 -11.5t-67 -30t-41 -41.5t-14 -46z" />
    <glyph glyph-name="four" unicode="4" horiz-adv-x="591" 
d="M561 672h-98q-39 -41 -92 -99t-109 -122t-109 -127.5t-91 -115.5l-6 -22h225l-46 -169h-53l-5 -18h258l5 18h-54l45 169h93l16 60h-93zM297 246h-180q28 36 62.5 77.5t70 82t68.5 76.5t59 62z" />
    <glyph glyph-name="five" unicode="5" horiz-adv-x="591" 
d="M503 673h-240q-16 0 -22.5 -7.5t-8.5 -19.5q-4 -19 -12.5 -56.5t-19 -78t-22.5 -77.5t-24 -55q-4 -5 -4 -10t5 -5t13 6q19 15 45 24t53 9q20 0 38.5 -6t32.5 -18.5t22.5 -33.5t8.5 -51q0 -40 -10 -88t-31.5 -90t-55 -70.5t-80.5 -28.5q-39 0 -60 12.5t-29 25.5
q11 -4 21 -4q35 0 58 16t23 56q0 32 -20 47t-45 15q-14 0 -27.5 -5t-24.5 -15.5t-18 -26.5t-7 -37q0 -23 10 -42t26.5 -33t39 -22t48.5 -8q75 0 137.5 18.5t107.5 53t69.5 83t24.5 107.5q0 46 -19 78.5t-50 53t-69 30t-77 9.5t-74 -8.5t-58 -25.5q14 29 24.5 65.5t21.5 78.5
h234q29 0 51 19.5t37 45.5t22.5 51t7.5 36q0 7 -3 7q-5 0 -13 -11q-5 -8 -22.5 -11t-34.5 -3z" />
    <glyph glyph-name="six" unicode="6" horiz-adv-x="591" 
d="M183 82q0 16 7.5 47.5t18 68.5t22 74t19.5 63q3 9 11.5 19.5t20.5 20t26 15.5t28 6q26 0 35.5 -18t9.5 -43q0 -8 -1.5 -18t-5 -28t-10.5 -46t-19 -72q-8 -31 -17.5 -59.5t-22.5 -51t-30.5 -36t-40.5 -13.5q-29 0 -40 21t-11 50zM588 583q0 42 -32.5 71.5t-98.5 29.5
q-54 0 -105.5 -19t-97.5 -52.5t-84.5 -79.5t-66.5 -98.5t-43.5 -110.5t-15.5 -116q0 -52 15 -92.5t41 -68.5t60.5 -42.5t73.5 -14.5q60 0 116 17t99 51t69 83t26 114q0 43 -14.5 74t-39 51t-57 30t-68.5 10q-39 0 -63 -12.5t-40 -27.5l34 120q12 41 30.5 72t40 52t45 31.5
t45.5 10.5q38 0 55 -10t17 -17q0 -4 -6 -4h-4q-37 0 -56 -21t-19 -54q0 -32 19.5 -50.5t49.5 -18.5q42 0 58.5 26t16.5 66z" />
    <glyph glyph-name="seven" unicode="7" horiz-adv-x="591" 
d="M76 468h14q13 24 23 39.5t19.5 24.5t21 12.5t28.5 3.5h319q-65 -61 -129 -125.5t-121.5 -133t-105 -140.5t-78.5 -149h175q13 48 32 102.5t44.5 111.5t58.5 116t75 116l157 211l-8 16h-426z" />
    <glyph glyph-name="eight" unicode="8" horiz-adv-x="591" 
d="M344 363q0 3 8 3q100 8 154.5 53t54.5 114q0 31 -10 57.5t-31 46t-53 31t-75 11.5q-61 0 -105.5 -16.5t-73.5 -43t-43 -58.5t-14 -62q0 -40 16 -65.5t37.5 -40t43.5 -20.5t34 -7q9 0 9 -2t-10 -2q-41 -2 -83 -16.5t-76.5 -41.5t-56 -66t-21.5 -88q0 -76 46.5 -118
t132.5 -42q60 0 108.5 15t83 42.5t53 65.5t18.5 85q0 49 -18 80.5t-41.5 49.5t-47 25.5t-33.5 8.5q-4 0 -5.5 0.5zM303 505q11 43 20.5 74t20 50t23.5 28t32 9q20 0 27.5 -10.5t7.5 -30.5q0 -22 -7 -52t-16 -68q-9 -36 -17.5 -61t-18.5 -40.5t-22.5 -22.5t-30.5 -7
q-20 0 -28.5 9t-8.5 28q0 17 5 40t13 54zM210 176q13 48 24 81.5t23 55t26 31.5t33 10q37 0 37 -45q0 -21 -6.5 -53.5t-18.5 -77.5q-13 -48 -22.5 -81t-21 -53.5t-25.5 -29.5t-36 -9q-40 0 -40 41q0 20 7 52t20 78z" />
    <glyph glyph-name="nine" unicode="9" horiz-adv-x="591" 
d="M449 604q0 -12 -2.5 -27t-9.5 -42.5t-20 -73t-34 -117.5q-14 -25 -39.5 -45t-51.5 -20t-35.5 16.5t-9.5 41.5q0 8 1 18.5t5 28.5t12 47t21 75q9 31 17.5 60t21 52t29.5 37t42 14q30 0 41.5 -19t11.5 -46zM39 93q0 -22 9 -41t25.5 -33t39 -22t49.5 -8q67 0 123.5 21
t102.5 57.5t81.5 84.5t59 102t35.5 110.5t12 109.5q0 51 -14 90t-39 65.5t-59 40t-74 13.5q-53 0 -105.5 -18t-95.5 -54t-69.5 -88.5t-26.5 -121.5q0 -38 12.5 -66t34.5 -47t52.5 -28t65.5 -9q41 0 67 13t46 34l-38 -125q-25 -81 -72.5 -123.5t-96.5 -42.5q-26 0 -42.5 7.5
t-16.5 12.5q0 4 9 4q18 0 31.5 6.5t22 16.5t13 22t4.5 24q0 38 -19 57t-51 19q-35 0 -55.5 -24t-20.5 -59z" />
    <glyph glyph-name="colon" unicode=":" horiz-adv-x="314" 
d="M219 72q0 28 -19 50t-58 22q-22 0 -38.5 -7.5t-27.5 -19t-16.5 -26.5t-5.5 -30q0 -28 19 -50t58 -22q22 0 38.5 7.5t27.5 19t16.5 26.5t5.5 30zM277 361q0 28 -19 50t-58 22q-22 0 -38.5 -7.5t-27.5 -19t-16.5 -26.5t-5.5 -30q0 -28 19 -50t58 -22q22 0 38.5 7.5t27.5 19
t16.5 26.5t5.5 30z" />
    <glyph glyph-name="semicolon" unicode=";" horiz-adv-x="284" 
d="M219 41q1 6 1 11v9q0 37 -26.5 64.5t-71.5 27.5q-22 0 -37 -7t-24 -18t-13 -24.5t-4 -26.5q0 -30 21 -49t46 -19q48 0 62 38q1 2 2 6t4 4q7 0 7 -14t-2 -19q-3 -17 -14 -37t-30.5 -39t-46.5 -35t-61 -24q-8 -3 -8 -7q0 -5 6 -5q4 0 8 2q42 9 74 27t54 40.5t35 47t18 47.5
zM277 361q0 28 -19 50t-58 22q-22 0 -38.5 -7.5t-27.5 -19t-16.5 -26.5t-5.5 -30q0 -28 19 -50t58 -22q22 0 38.5 7.5t27.5 19t16.5 26.5t5.5 30z" />
    <glyph glyph-name="less" unicode="&#x3c;" 
d="M402 473l-306 -161l235 -178l15 48l-173 126l214 111z" />
    <glyph glyph-name="equal" unicode="=" horiz-adv-x="323" 
d="M297 261h-246l-16 -53h247zM332 396h-246l-14 -54h246z" />
    <glyph glyph-name="greater" unicode="&#x3e;" 
d="M94 206l-16 -55l308 161l-220 161l-13 -49l151 -110z" />
    <glyph glyph-name="question" unicode="?" horiz-adv-x="398" 
d="M465 529q0 69 -38.5 103.5t-99.5 34.5q-42 0 -72 -10t-49 -25t-28 -33.5t-9 -34.5q0 -31 17 -48.5t46 -17.5q35 0 52.5 20t17.5 45q0 23 -13.5 42.5t-40.5 21.5q11 8 30.5 15t48.5 7q26 0 44.5 -17t18.5 -53q0 -24 -5.5 -41t-15.5 -29.5t-24 -23t-32 -21.5
q-15 -9 -30.5 -18.5t-29 -22.5t-24.5 -30.5t-17 -41.5l-41 -157h16l13 47q5 19 22 34.5t40.5 29.5t50.5 27.5t53 30.5q36 24 56 46.5t29.5 43.5t11.5 40t2 36zM245 72q0 28 -19 50t-58 22q-22 0 -38.5 -7.5t-27.5 -19t-16.5 -26.5t-5.5 -30q0 -28 19 -50t58 -22
q22 0 38.5 7.5t27.5 19t16.5 26.5t5.5 30z" />
    <glyph glyph-name="at" unicode="@" horiz-adv-x="737" 
d="M543 47q20 8 28 14t8 15q0 14 -13 14q-5 0 -14.5 -4.5t-23.5 -9.5q-35 -14 -75 -25.5t-91 -11.5t-94.5 16.5t-75 46t-49 70t-17.5 89.5q0 73 32 137.5t82.5 113t113 76.5t123.5 28q47 0 91 -13.5t78 -40.5t54.5 -67t20.5 -93t-14 -93.5t-39.5 -68.5t-61 -42.5
t-78.5 -14.5q-15 0 -24 5.5t-9 18.5q0 11 9 31l131 264h-86l-16 -30q-8 15 -24 28t-51 13q-63 0 -111.5 -26t-80.5 -64.5t-48.5 -83t-16.5 -82.5q0 -45 23.5 -74.5t68.5 -29.5q3 0 15 2t28.5 7.5t34.5 16.5t33 29q0 -15 9 -26t23 -17.5t32.5 -10t36.5 -3.5q122 0 184.5 68
t62.5 184q0 58 -22 103t-59.5 75.5t-87.5 46.5t-106 16q-66 0 -134 -28.5t-123 -79.5t-90 -121.5t-35 -155.5q0 -58 20.5 -104.5t56 -79t83.5 -50t103 -17.5q56 0 103 12t82 27zM517 447q0 -3 -2 -9l-93 -175q-8 -15 -20 -29t-26.5 -25.5t-31 -18t-34.5 -6.5q-14 0 -20 9
t-6 23q0 42 18 90.5t45 90t59 68.5t59 27q21 0 36.5 -15.5t15.5 -29.5z" />
    <glyph glyph-name="A" unicode="A" horiz-adv-x="675" 
d="M537 681h-70l-367 -613q-7 -11 -17 -20.5t-23 -17.5q-8 -5 -20 -8.5t-20 -4.5t-9 -1l-5 -16h151l4 16q-1 0 -9 1t-19 4.5t-15 11.5t-2.5 18t6.5 18l81 140h200l13 -193h-90l-4 -16h339l5 16h-87zM383 511l19 -286h-190z" />
    <glyph glyph-name="B" unicode="B" horiz-adv-x="591" 
d="M649 532q0 69 -50 104.5t-152 35.5h-266l-5 -16h54l-171 -640h-54l-4 -16h312q81 0 134 18.5t83.5 48.5t42.5 67.5t12 75.5q0 68 -41.5 108t-113.5 51q114 8 166.5 51.5t52.5 111.5zM220 16l91 343h70q32 0 45 -19t13 -49q0 -18 -5 -44t-11.5 -51t-12.5 -45t-8 -27
q-17 -51 -39.5 -79.5t-72.5 -28.5h-70zM316 375l75 281h51q40 0 55.5 -20t15.5 -47q0 -15 -3.5 -33.5t-8.5 -35.5t-10 -31t-7 -21q-6 -17 -15.5 -33.5t-23 -30t-31 -21.5t-39.5 -8h-59z" />
    <glyph glyph-name="C" unicode="C" horiz-adv-x="648" 
d="M653 633q-23 19 -58.5 35t-90.5 16q-103 0 -184 -41.5t-137.5 -106t-86 -143.5t-29.5 -154q0 -52 15 -98.5t45.5 -81.5t78 -55.5t112.5 -20.5q36 0 67 8.5t55 19.5t40.5 23t23.5 18l29 -52q6 -9 12 -9q8 0 11 12l50 199q1 3 1 7q0 9 -7 9t-13 -9q-6 -10 -19 -29.5
t-32 -42.5t-42.5 -47t-50.5 -44t-57 -32.5t-61 -12.5q-57 0 -82 22t-25 70q0 24 5.5 55t16.5 70q14 51 29 108.5t32 114.5t33.5 99.5t39 70.5t54.5 42t81 14q34 0 60.5 -15t45 -40t28 -57t9.5 -66q0 -16 9 -16q7 0 10 11l46 172q1 4 1 10q0 9 -6 9t-17 -7z" />
    <glyph glyph-name="D" unicode="D" horiz-adv-x="634" 
d="M474 672h-277l-5 -16h54l-169 -640h-53l-7 -16h291q90 0 158.5 38t114 98t68.5 133.5t23 144.5q0 52 -12 98.5t-37 82t-62 56.5t-87 21zM237 16l171 640h50q17 0 32.5 -6t27.5 -19t19 -35t7 -53q0 -21 -6 -53.5t-15.5 -72.5t-22.5 -86t-26 -94q-18 -64 -39.5 -106.5
t-45.5 -68t-49 -36t-50 -10.5h-53z" />
    <glyph glyph-name="E" unicode="E" horiz-adv-x="604" 
d="M608 482q7 0 11 15l34 126q3 11 4.5 17.5t1.5 12.5q0 19 -25 19h-445l-4 -16h55l-171 -640h-54l-4 -16h475q14 0 23 9t13 23l37 141q4 16 4 18q0 11 -7 11q-10 0 -17 -20q-11 -31 -28 -61t-40 -53t-52.5 -37.5t-65.5 -14.5h-123l88 330h72q27 0 37 -23t10 -57
q0 -8 -0.5 -16.5t-0.5 -16.5q0 -14 9 -14q6 0 9 11l54 217q1 5 1 6v2q0 9 -7 9t-11 -9q-18 -37 -41 -65t-55 -28h-72l78 294h93q31 0 52 -14t33.5 -34.5t17.5 -44.5t5 -45q0 -8 -0.5 -14t-0.5 -10q0 -12 7 -12z" />
    <glyph glyph-name="F" unicode="F" horiz-adv-x="567" 
d="M651 653q0 19 -25 19h-445l-5 -16h55l-171 -640h-54l-4 -16h269l4 16h-53l88 330h72q27 0 37 -23t10 -57q0 -8 -0.5 -16t-0.5 -17q0 -14 8 -14q7 0 10 11l52 210q3 12 3 15q0 9 -7 9q-8 0 -11 -9q-18 -37 -41 -65t-55 -28h-72l78 294h95q31 0 51.5 -14t32.5 -34.5
t17 -44.5t5 -45q0 -7 -0.5 -12.5t-0.5 -11.5q0 -12 7 -12t11 15l36 131q3 12 3.5 17t0.5 8z" />
    <glyph glyph-name="G" unicode="G" horiz-adv-x="662" 
d="M705 667q-5 0 -15 -7l-43 -28q-22 21 -58.5 36t-100.5 15q-69 0 -128 -19t-107 -51t-85 -75.5t-62 -92t-38 -100.5t-13 -102q0 -53 14.5 -100t45.5 -82t77.5 -56t111.5 -21q63 0 112 13t86.5 32.5t64.5 41.5t47 40l31 116h54l4 17h-269l-4 -17h54l-24 -93
q-35 -132 -150 -132q-45 0 -65 28.5t-20 80.5q0 16 4 42t11 57t15 64.5t16.5 65.5t16 59.5t12.5 46.5q29 106 73 162.5t119 56.5q72 0 106.5 -33.5t49.5 -109.5q4 -20 10 -20t11 16l36 134l2 6t1 5q0 4 -3 4z" />
    <glyph glyph-name="H" unicode="H" horiz-adv-x="697" 
d="M443 672h-269l-4 -16h54l-171 -640h-54l-4 -16h268l5 16h-54l89 333h188l-89 -333h-54l-4 -16h273l6 16h-58l169 640h54l4 16h-269l-5 -16h55l-77 -290h-188l77 290h54z" />
    <glyph glyph-name="I" unicode="I" horiz-adv-x="404" 
d="M473 656l4 16h-268l-5 -16h54l-171 -640h-54l-4 -16h273l4 16h-58l171 640h54z" />
    <glyph glyph-name="J" unicode="J" horiz-adv-x="435" 
d="M557 672h-269l-4 -16h54l-168 -628q-13 -47 -35.5 -77.5t-56.5 -30.5q-17 0 -27.5 3.5t-18.5 9.5h8q35 0 52.5 21.5t17.5 47.5q0 25 -16 45t-48 20q-34 0 -51 -22.5t-17 -51.5q0 -17 6 -33t18 -29t31 -21t45 -8q54 0 99.5 18.5t81.5 50t61.5 74t38.5 90.5l140 521h54z
" />
    <glyph glyph-name="K" unicode="K" horiz-adv-x="675" 
d="M437 656l4 16h-269l-4 -16h54l-171 -640h-54l-5 -16h269l5 16h-54l171 640h54zM659 656l-342 -293l88 -347h-53l-5 -16h284l4 16h-53l-129 438l236 202h54l4 16h-137l-5 -16h54z" />
    <glyph glyph-name="L" unicode="L" horiz-adv-x="551" 
d="M-8 0h476q14 0 23 9t13 23l37 141q4 16 4 18q0 11 -7 11q-10 0 -17 -20q-11 -31 -28 -61t-40 -53t-52.5 -37.5t-65.5 -14.5h-123l172 640h54l3 16h-269l-3 -16h54l-172 -640h-54z" />
    <glyph glyph-name="M" unicode="M" horiz-adv-x="844" 
d="M-3 16l-5 -16h125l5 16q-22 0 -32 10.5t-10 26.5q0 5 2 15l152 571l52 -639h29l400 643l-168 -627h-53l-5 -16h269l4 16h-53l171 640h53l5 16h-224l-284 -450l-43 450h-215l-4 -16h54l-157 -588q-8 -27 -26 -39.5t-42 -12.5z" />
    <glyph glyph-name="N" unicode="N" horiz-adv-x="606" 
d="M654 622q0 -8 -2 -18l-94 -349l-178 417h-195l-4 -16l42 -77l-137 -511q-8 -27 -26 -39.5t-42 -12.5l-5 -16h125l5 16q-22 0 -32 10.5t-10 26.5q0 5 2 15l128 481l238 -557h34l165 612q8 27 26 39.5t42 12.5l5 16h-125l-5 -16q43 0 43 -34z" />
    <glyph glyph-name="O" unicode="O" horiz-adv-x="701" 
d="M67 234q0 -51 14.5 -96.5t45 -79.5t77.5 -54t112 -20q102 0 180.5 42t132 107t81 145t27.5 155q0 51 -14.5 96.5t-45 79.5t-78 54t-112.5 20q-68 0 -126 -19.5t-104.5 -52.5t-82 -77t-59.5 -94t-36 -103t-12 -103zM581 568q0 -25 -5.5 -53.5t-13.5 -60.5l-65 -244
q-10 -36 -22 -73t-32 -67t-49.5 -49t-74.5 -19q-59 0 -80 27.5t-21 67.5q0 26 6 54t13 55l65 241q12 43 26 82.5t35 69.5t50 48t71 18q54 0 75.5 -26t21.5 -71z" />
    <glyph glyph-name="P" unicode="P" horiz-adv-x="585" 
d="M475 672h-304l-4 -16h53l-171 -640h-52l-5 -17h268l5 17h-54l78 292h98q67 0 116.5 16t81 43.5t47 63.5t15.5 77q0 43 -13.5 74.5t-37 51t-55 29t-66.5 9.5zM360 324h-66l88 332h35q38 0 62 -24t24 -82q0 -24 -9 -62.5t-26.5 -74.5t-44.5 -62.5t-63 -26.5z" />
    <glyph glyph-name="Q" unicode="Q" horiz-adv-x="694" 
d="M346 -122q0 12 3.5 29t8 33.5t9 29.5t7.5 18q88 12 156 56.5t114 107.5t69.5 137t23.5 144q0 51 -14.5 96.5t-45 79.5t-78 54t-112.5 20q-68 0 -126 -19.5t-104.5 -52.5t-82 -77t-59.5 -94t-36 -103t-12 -103q0 -44 10.5 -84t33 -72t57 -55t82.5 -33q-4 -7 -10 -24.5
t-6 -46.5q0 -42 17 -71.5t45 -47.5t62.5 -26t70.5 -8q28 0 44 7l4 13h-7q-22 0 -44 6t-40 18t-29 29t-11 39zM581 568q0 -25 -5.5 -53.5t-13.5 -60.5l-65 -244q-10 -36 -22 -73t-32 -67t-49.5 -49t-74.5 -19q-59 0 -80 27.5t-21 67.5q0 26 6 54t13 55l65 241q12 43 26 82.5
t35 69.5t50 48t71 18q54 0 75.5 -26t21.5 -71z" />
    <glyph glyph-name="R" unicode="R" horiz-adv-x="662" 
d="M545 141q5 20 10 42t5 44q0 34 -14 55.5t-35 34.5t-45 18t-44 7q50 3 93 16t74 36t48.5 56.5t17.5 78.5q0 66 -48.5 104.5t-127.5 38.5h-310l-4 -16h53l-170 -639h-53l-6 -17h269l5 17h-53l86 326q21 0 40 -4t34 -13t23.5 -24.5t8.5 -39.5q0 -5 -1 -14t-3 -20t-4.5 -23
t-5.5 -22q-8 -29 -14 -56.5t-6 -51.5q0 -43 28 -65.5t73 -22.5q44 0 90.5 23.5t79.5 70.5q5 6 5 12t-5 6q-6 0 -15 -10q-23 -26 -41 -37.5t-31 -11.5q-18 0 -20.5 10t-2.5 18q0 14 5 32.5t11 40.5zM354 359h-54l80 296h36q42 0 66 -18.5t24 -65.5q0 -16 -4.5 -51t-20.5 -71
t-46 -63t-81 -27z" />
    <glyph glyph-name="S" unicode="S" horiz-adv-x="557" 
d="M590 665l-36 -35q-9 9 -21 18.5t-28.5 17t-37.5 12.5t-49 5q-74 0 -127.5 -18t-88 -48t-51 -68.5t-16.5 -79.5q0 -45 21 -86t61 -67q31 -20 53 -33t40 -23.5t35.5 -21t40.5 -25.5q21 -14 31.5 -34.5t10.5 -43.5t-10.5 -45t-30.5 -40t-49.5 -29t-67.5 -11q-78 0 -120 46
t-52 128q-2 14 -5 18.5t-8 4.5q-7 0 -13 -22l-41 -154q-5 -18 -5 -24q0 -8 9 -8q5 0 9.5 4t11.5 11l50 48q10 -12 24 -24.5t33 -22.5t45 -16.5t62 -6.5q79 0 135 19t92 50t52.5 70.5t16.5 81.5q0 67 -29.5 111.5t-87.5 76.5q-31 17 -63 36.5t-70 41.5q-23 13 -35 35.5
t-12 47.5q0 19 8 37.5t25.5 33t45 23.5t66.5 9q33 0 58 -10.5t42.5 -27.5t27 -39t12.5 -45q2 -13 4 -19t8 -6q5 0 7 3.5t4 11.5l34 122q2 6 2 8v5q0 8 -5 8t-9.5 -3.5t-8.5 -7.5z" />
    <glyph glyph-name="T" unicode="T" horiz-adv-x="615" 
d="M683 474l27 162q1 4 2 9.5t1 9.5q0 17 -19 17h-482q-15 0 -21.5 -5t-11.5 -18l-59 -168h21q35 85 90 130t118 45h18l-171 -640h-54l-4 -16h268l5 16h-54l171 640h40q17 0 34 -9.5t31 -28.5t22.5 -47t8.5 -65q0 -8 -0.5 -16t-1.5 -16h21z" />
    <glyph glyph-name="U" unicode="U" horiz-adv-x="626" 
d="M658 622q0 -9 -2 -17l-108 -391q-23 -86 -75.5 -136.5t-119.5 -50.5q-49 0 -77 23t-28 72q0 18 4 41.5t13 55.5l117 437h53l5 16h-269l-4 -16h53l-114 -430q-6 -23 -8.5 -45t-2.5 -36q0 -74 56 -114.5t149 -40.5q98 0 167.5 53t98.5 162l107 399q8 27 25.5 39.5
t41.5 12.5l5 16h-125l-5 -16q43 0 43 -34z" />
    <glyph glyph-name="V" unicode="V" horiz-adv-x="624" 
d="M338 -14l338 619q17 30 37.5 40.5t44.5 10.5l4 16h-142l-4 -16q26 0 37 -8.5t11 -18.5q0 -11 -5 -21l-249 -454l-28 502h53l5 16h-269l-4 -16h53l37 -670h81z" />
    <glyph glyph-name="W" unicode="W" horiz-adv-x="890" 
d="M964 624q0 -10 -4 -18l-218 -409l-36 458h54l5 17h-256l-5 -17h40l17 -211l-145 -264l-33 475h50l5 17h-267l-4 -17h55l50 -665h65l226 420l32 -420h62l323 616q17 29 38 40t43 11l5 16h-142l-5 -16q24 0 34.5 -10t10.5 -23z" />
    <glyph glyph-name="X" unicode="X" horiz-adv-x="671" 
d="M234 656l100 -356l-229 -233q-17 -17 -43.5 -32.5t-55.5 -18.5l-4 -16h142l4 16q-37 0 -37 18q0 8 6 16.5t15 18.5l209 211l73 -264h-55l-4 -16h272l4 16h-55l-108 384l194 200q21 23 46.5 39.5t55.5 16.5l4 16h-151l-4 -16q37 0 37 -22q0 -17 -22 -39l-167 -170l-64 231
h56l4 16h-269l-4 -16h50z" />
    <glyph glyph-name="Y" unicode="Y" horiz-adv-x="671" 
d="M646 673l-4 -16q39 0 39 -24q0 -14 -14 -34l-199 -265l-78 322h54l4 16h-277l-4 -16h53l98 -360l-75 -280h-54l-4 -16h269l4 16h-54l82 306l206 274q23 29 50 45t59 16l4 16h-159z" />
    <glyph glyph-name="Z" unicode="Z" horiz-adv-x="581" 
d="M11 26l-7 -26h508l54 202h-18q-40 -94 -93.5 -140t-135.5 -46h-151l509 632l6 24h-494l-46 -174h14q16 48 40 78.5t53 48.5t63.5 24.5t72.5 6.5h131z" />
    <glyph glyph-name="bracketleft" unicode="[" horiz-adv-x="253" 
d="M163 -70l6 21h-60l204 762h64l6 21h-172l-215 -804h167z" />
    <glyph glyph-name="backslash" unicode="\" horiz-adv-x="312" 
d="M165 726l62 -791h38l-63 791h-37z" />
    <glyph glyph-name="bracketright" unicode="]" horiz-adv-x="253" 
d="M268 713l-205 -762h-60l-5 -21h168l215 804h-172l-6 -21h65z" />
    <glyph glyph-name="asciicircum" unicode="^" horiz-adv-x="339" 
d="M342 326l-60 274h-43l-165 -271l9 -9l164 202l83 -200z" />
    <glyph glyph-name="underscore" unicode="_" horiz-adv-x="291" 
d="M-1 -3l-3 -13h300l3 13h-300z" />
    <glyph glyph-name="grave" unicode="`" 
d="M162 660l124 -155l17 5l-58 150h-83z" />
    <glyph glyph-name="a" unicode="a" horiz-adv-x="649" 
d="M615 430h-158l-19 -67q-18 45 -50.5 60t-66.5 15q-49 0 -96 -19t-83.5 -52.5t-58.5 -80.5t-22 -104q0 -45 14 -80.5t37.5 -59.5t52.5 -37t59 -13t53.5 8.5t41.5 21.5t30.5 26.5t20.5 24.5q2 -14 9.5 -29t21.5 -27.5t35.5 -20.5t53.5 -8q39 0 67 14.5t47.5 35.5t32 44.5
t20.5 41.5q1 2 1 5q0 8 -8 8q-5 0 -8 -6q-25 -52 -50.5 -76t-43.5 -24q-24 0 -24 34q0 14 4 29zM240 313q13 46 36.5 75t63.5 29q21 0 37.5 -10.5t28 -25.5t17 -30t5.5 -24q0 -2 -0.5 -5t-3.5 -13l-54 -195q-3 -12 -16.5 -29t-32.5 -33t-40.5 -27.5t-42.5 -11.5
q-24 0 -40.5 15t-16.5 47q0 14 2.5 28t6.5 28z" />
    <glyph glyph-name="b" unicode="b" horiz-adv-x="525" 
d="M202 103l59 211q5 17 15 34.5t24 32t30.5 23.5t34.5 9q36 0 36 -41q0 -20 -7 -45l-68 -252q-11 -37 -28 -50.5t-48 -13.5q-25 0 -39.5 15t-14.5 39q0 18 6 38zM142 645l56 11l-113 -413q-13 -45 -13 -85q0 -85 56.5 -126.5t152.5 -41.5q60 0 108 28t82.5 71.5t53 95.5
t18.5 101q0 31 -8.5 59t-25.5 49t-43.5 33t-63.5 12q-27 0 -46.5 -5t-33.5 -12.5t-23.5 -17.5t-18.5 -20l80 314l-214 -37z" />
    <glyph glyph-name="c" unicode="c" horiz-adv-x="475" 
d="M218 313q10 30 20 50.5t23.5 33t31.5 18t42 5.5q29 0 46 -4t17 -8q0 -3 -8 -4q-19 -2 -30.5 -18t-11.5 -36q0 -27 19 -41.5t44 -14.5q22 0 42 14t20 46q0 24 -12.5 39.5t-32 25t-43.5 13.5t-48 4q-73 0 -129 -23.5t-94.5 -61t-58 -83.5t-19.5 -92q0 -44 16.5 -78
t44.5 -58t63.5 -36.5t73.5 -12.5q42 0 76 12.5t59.5 31t43.5 41t30 42.5q4 7 4 12q0 8 -8 8q-6 0 -10 -7q-17 -31 -39 -53.5t-46 -37t-48.5 -21.5t-46.5 -7q-27 0 -43.5 8t-24.5 20t-10.5 25t-2.5 24q0 16 5 44.5t12.5 61t16.5 64.5t16 54z" />
    <glyph glyph-name="d" unicode="d" horiz-adv-x="596" 
d="M263 317q13 43 27.5 66t44.5 23q15 0 26 -6t19.5 -15.5t14 -20.5t8.5 -20l-69 -246q-11 -38 -37.5 -59t-54.5 -21q-21 0 -31.5 13.5t-10.5 34.5q0 9 6.5 39t16.5 67.5t21 77t19 67.5zM435 661l-4 -16l56 11l-74 -276q-11 21 -34.5 37t-66.5 16q-62 0 -112 -25.5
t-84.5 -64.5t-53 -86t-18.5 -89q0 -39 9.5 -71.5t30 -56.5t51.5 -37.5t74 -13.5q47 0 77 16t54 47q1 -11 6.5 -22t16.5 -20.5t28.5 -15.5t43.5 -6q31 0 59 13t51.5 33t42.5 44t34 46q2 3 2 7q0 10 -9 10q-7 0 -11 -7q-36 -52 -63.5 -74t-43.5 -22q-21 0 -21 28q0 11 2 18.5
t5 19.5l159 592z" />
    <glyph glyph-name="e" unicode="e" horiz-adv-x="482" 
d="M498 318q0 22 -9.5 44t-29 38.5t-49 27t-70.5 10.5q-69 0 -123 -24.5t-90.5 -63.5t-55.5 -87t-19 -95q0 -36 11.5 -68.5t35 -57t59.5 -39.5t85 -15q39 0 73 10t62.5 27t51 38.5t39.5 45.5q4 5 5 9t1 7q0 9 -7 9q-6 0 -12 -8q-38 -54 -91.5 -85.5t-117.5 -31.5
q-27 0 -49 15.5t-22 44.5q0 17 2 29.5t7 33.5l16 68q19 -6 46 -10.5t57 -4.5q42 0 78 9t61.5 26t40 41.5t14.5 56.5zM232 314q6 21 14 40.5t19.5 34.5t27 24t35.5 9q26 0 37 -16.5t11 -42.5q0 -76 -35.5 -114.5t-90.5 -38.5q-12 0 -23 2l-22 4z" />
    <glyph glyph-name="f" unicode="f" horiz-adv-x="312" 
d="M-76 -220q56 0 103 22.5t83 58.5t61 80.5t37 88.5l104 380h80l5 17h-81l18 67q9 33 13 61.5t8 50t10.5 35.5t21.5 19q11 4 23 4q9 0 15 -2t6 -5t-5 -4q-36 -9 -36 -48q0 -21 15 -32.5t38 -11.5q26 0 39.5 18.5t13.5 41.5q0 10 -4 20t-13 18.5t-24 14t-37 5.5
q-48 0 -87 -19t-69.5 -49.5t-52.5 -70t-34 -80.5l-10 -33h-78l-4 -17h78l-121 -445q-22 -82 -50.5 -125.5t-65.5 -43.5q-17 0 -17 4t9 6t20.5 11.5t11.5 29.5q0 19 -13 35.5t-37 16.5q-20 0 -36.5 -14t-16.5 -41q0 -33 22 -48.5t57 -15.5z" />
    <glyph glyph-name="g" unicode="g" horiz-adv-x="481" 
d="M241 212q0 7 3.5 23t8.5 35.5l10 39t8 31.5q10 38 22.5 60t39.5 22q18 0 25.5 -8.5t7.5 -23.5q0 -6 -3 -21.5t-8 -36t-11 -43t-11 -42.5q-4 -15 -7.5 -27.5t-9.5 -21t-16 -13.5t-25 -5q-19 0 -26.5 8.5t-7.5 22.5zM225 167q11 -2 24 -3.5t33 -1.5q58 0 97 17t63 41t34 51
t10 47q0 19 -1.5 32t-4.5 22t-6.5 15t-6.5 11q-11 23 -14.5 40t-3.5 28q0 14 3 20.5t7 8.5q16 -20 40 -20q17 0 29 11t12 29q0 19 -12.5 30t-31.5 11q-14 0 -25.5 -7.5t-19.5 -19.5t-12 -27.5t-4 -31.5q0 -15 4 -32t9 -29q-6 3 -13 8t-20.5 9.5t-35 7.5t-54.5 3
q-50 0 -88.5 -13.5t-64.5 -35t-39.5 -49.5t-13.5 -57q0 -21 7 -38.5t17.5 -31t23.5 -23t25 -15.5q-34 -6 -63 -15.5t-50 -26.5t-32.5 -42t-11.5 -61q0 -34 20 -52.5t46 -22.5q-32 -6 -55 -19t-38 -30t-22 -35.5t-7 -35.5q0 -26 14.5 -44t38.5 -29t54.5 -16t62.5 -5
q45 0 91 12.5t85 38.5q31 21 49.5 49t28.5 56.5t12.5 54t2.5 40.5q0 58 -40 84t-138 26h-64q-19 0 -36.5 3t-17.5 16q0 19 27.5 29t75.5 18zM362 -117q0 -31 -20.5 -54.5t-50.5 -39t-64 -23t-61 -7.5q-38 0 -64 6t-41.5 16.5t-22.5 24.5t-7 29q0 21 10.5 42t26.5 38.5
t35.5 28.5t36.5 11h78q46 0 74 -7t43.5 -17.5t21 -23.5t5.5 -24z" />
    <glyph glyph-name="h" unicode="h" horiz-adv-x="604" 
d="M449 438q-29 0 -50.5 -4t-38 -11t-30 -17.5t-27.5 -22.5l83 308l-212 -30l-4 -15l56 9l-177 -655h151l85 325q3 12 15 28t28.5 29.5t35.5 23t36 9.5t25 -14.5t8 -34.5q0 -16 -5 -34l-56 -209q-7 -22 -7 -45q0 -39 21.5 -59.5t55.5 -20.5q39 0 66.5 11t47.5 30t35 44
t29 52q2 4 2 7q0 8 -8 8q-4 0 -7 -4q-26 -51 -46.5 -71.5t-33.5 -20.5q-15 0 -15 22q0 9 3 21l50 183q4 15 6 28t2 25q0 53 -33.5 79t-90.5 26z" />
    <glyph glyph-name="i" unicode="i" horiz-adv-x="335" 
d="M217 60q0 5 1 12.5t6 24.5l99 365l-213 -32l-5 -17l57 7l-85 -311q-6 -24 -6 -42q0 -39 23 -59t62 -20q66 0 105 36.5t67 97.5q3 6 3 12q0 9 -7 9t-11 -9q-25 -50 -46.5 -72.5t-35.5 -22.5t-14 21zM352 585q0 27 -18 48.5t-56 21.5q-21 0 -37.5 -7.5t-28 -19.5t-17 -27.5
t-5.5 -31.5q0 -27 17.5 -48t54.5 -21q22 0 39 7.5t28 19.5t17 27.5t6 30.5z" />
    <glyph glyph-name="j" unicode="j" horiz-adv-x="284" 
d="M110 414l56 9l-161 -598q-9 -32 -27.5 -45t-36.5 -13q-10 0 -17 4q20 0 34 11.5t14 36.5q0 20 -12 38t-43 18q-26 0 -42.5 -17t-16.5 -46q0 -30 23.5 -49t65.5 -19q43 0 82 14.5t70 40.5t54 63t35 82l139 518l-213 -32zM352 585q0 27 -18 48.5t-56 21.5q-21 0 -37.5 -7.5
t-28 -19.5t-17 -27.5t-5.5 -31.5q0 -27 17.5 -48t54.5 -21q22 0 39 7.5t28 19.5t17 27.5t6 30.5z" />
    <glyph glyph-name="k" unicode="k" horiz-adv-x="618" 
d="M369 298q15 8 26.5 20t24.5 32q14 21 26.5 40t22.5 22q-2 -4 -3 -8t-1 -10q0 -27 18.5 -40.5t37.5 -13.5q20 0 37.5 14t17.5 43q0 27 -17 42t-49 15q-19 0 -34 -8t-27.5 -21t-23.5 -29t-21 -32q-17 -25 -34 -44t-43 -19h-46l104 395l-212 -35l-4 -16l55 11l-176 -656h153
l75 285q7 0 17.5 -0.5t22.5 -3.5q14 -4 24 -24.5t18 -48.5q5 -20 9 -42t7.5 -42t7 -37t6.5 -27q15 -44 44.5 -58t78.5 -14q30 0 52.5 10.5t40 27.5t30.5 39.5t25 45.5q1 2 1 5q0 7 -5 7t-7 -5q-23 -44 -44 -66t-37 -22q-18 0 -25 26q-3 12 -7 31t-8.5 41.5t-10 45.5
t-12.5 43q-8 27 -22.5 43t-33 24.5t-39 11t-40.5 2.5z" />
    <glyph glyph-name="l" unicode="l" horiz-adv-x="328" 
d="M168 646l58 9l-144 -520q-5 -17 -7.5 -30t-2.5 -27q0 -23 8.5 -40t22 -28t31.5 -16.5t37 -5.5q36 0 62.5 9.5t48 27t38.5 42.5t34 57q3 6 3.5 8t0.5 3q0 8 -8 8q-5 0 -7 -5q-31 -60 -59 -85.5t-48 -25.5q-22 0 -22 28q0 5 1 11t4 18l168 614l-215 -35z" />
    <glyph glyph-name="m" unicode="m" horiz-adv-x="875" 
d="M700 378q0 -16 -4 -36t-9 -40l-50 -189q-5 -20 -5 -35q0 -35 19.5 -59t57.5 -24q63 0 108 39.5t72 104.5q2 4 2 7q0 7 -7 7q-5 0 -9 -7q-26 -49 -47 -70.5t-34 -21.5q-15 0 -15 23q0 13 4 28l50 182q7 24 7 50q0 45 -29.5 74t-96.5 29q-53 0 -88.5 -23.5t-58.5 -55.5
q-5 42 -38.5 61t-85.5 19q-46 0 -83 -17.5t-61 -50.5l17 80l-213 -35l-4 -17l55 9l-110 -410h151l82 300q6 22 21 43t32.5 36.5t35 25t29.5 9.5q14 0 20 -10t6 -24q0 -40 -10 -74l-83 -306h148l79 294q4 15 16.5 35.5t30 39t37.5 31.5t39 13q22 0 22 -35z" />
    <glyph glyph-name="n" unicode="n" horiz-adv-x="572" 
d="M579 151q-6 0 -11 -8q-28 -48 -47 -69.5t-31 -21.5q-16 0 -16 26q0 6 2 15t7 29l43 158q5 17 6.5 30t1.5 21q0 45 -28.5 78t-81.5 33q-55 0 -90.5 -21t-61.5 -52l24 82l-214 -33l-5 -17l57 11l-110 -412h148l81 299q7 26 22 47t32 35.5t33.5 22.5t27.5 8q16 0 22 -11.5
t6 -28.5q0 -19 -10 -58l-48 -179q-8 -30 -8 -53q0 -40 20 -63.5t59 -23.5q61 0 104.5 40t69.5 101q2 6 2 9q0 6 -6 6z" />
    <glyph glyph-name="o" unicode="o" horiz-adv-x="512" 
d="M56 175q0 -40 11.5 -74t35.5 -59t60 -39.5t85 -14.5q57 0 106 19.5t85 54t56.5 81.5t20.5 103q0 89 -52.5 140t-147.5 51q-51 0 -98 -20.5t-83 -55.5t-57.5 -83t-21.5 -103zM385 361q0 -10 -2 -22.5t-7.5 -37t-16 -65t-28.5 -105.5q-6 -22 -13 -44.5t-17.5 -40.5
t-24.5 -29.5t-35 -11.5q-32 0 -44 20.5t-12 47.5q0 9 1.5 20t6.5 32.5t14 58.5t25 98q7 27 15 51.5t20 43.5t28 30.5t40 11.5q29 0 39.5 -16.5t10.5 -41.5z" />
    <glyph glyph-name="p" unicode="p" horiz-adv-x="569" 
d="M113 430l-8 -16l57 9l-184 -676h-55l-5 -16h276l4 16h-65l80 300q8 -21 26.5 -37t60.5 -16q64 0 114.5 26.5t85.5 68t53 92t18 98.5q0 33 -9 62.5t-27 51t-45.5 34.5t-64.5 13q-44 0 -73 -20t-51 -43l23 85zM233 124l50 188q3 10 14 27t27.5 33t36 27.5t39.5 11.5
q29 0 29 -39q0 -14 -6.5 -43.5t-16 -66t-20 -75.5t-19.5 -71q-14 -54 -31 -76t-44 -22q-29 0 -46.5 20.5t-17.5 53.5q0 5 0.5 11.5t4.5 20.5z" />
    <glyph glyph-name="q" unicode="q" horiz-adv-x="533" 
d="M439 -254h-54l184 684h-151l-16 -53q-10 23 -33 43t-70 20q-59 0 -105.5 -26t-78.5 -67.5t-49 -91.5t-17 -98q0 -33 8.5 -63t26.5 -52.5t46 -36t66 -13.5q47 0 75 18t45 38l-82 -302h-64l-4 -16h268zM245 295q6 19 13 40t16 38.5t21.5 28.5t29.5 11q15 0 27.5 -8
t20.5 -20t12.5 -25t4.5 -22q0 -2 -1 -5t-4 -14l-50 -200q-3 -14 -14 -31.5t-26 -33t-33 -26.5t-36 -11q-19 0 -26.5 13.5t-7.5 35.5q0 17 5.5 47t14 63t17.5 65t16 54z" />
    <glyph glyph-name="r" unicode="r" horiz-adv-x="443" 
d="M298 379l20 75l-212 -35l-4 -16l55 9l-112 -412h151l86 317q11 41 42 66.5t66 32.5q-17 -5 -27.5 -21t-10.5 -37q0 -27 19.5 -47.5t53.5 -20.5q29 0 52.5 17.5t23.5 52.5q0 36 -22 55.5t-55 19.5q-45 0 -76 -17t-50 -39z" />
    <glyph glyph-name="s" unicode="s" horiz-adv-x="415" 
d="M442 353q0 16 -9.5 31.5t-29 28t-49 20t-69.5 7.5q-38 0 -71.5 -9.5t-58 -27.5t-39 -44.5t-14.5 -59.5q0 -31 20 -60t65 -54q44 -24 62.5 -51.5t18.5 -53.5q0 -40 -23.5 -58t-61.5 -18q-24 0 -44.5 5.5t-35.5 12.5t-24 14.5t-9 12.5q0 3 6 5q21 3 36.5 16.5t15.5 34.5
q0 26 -17.5 40t-39.5 14q-26 0 -41 -17.5t-15 -41.5q0 -19 11 -39t32.5 -36t53.5 -26.5t73 -10.5q52 0 91 12.5t65 34t39 50t13 61.5q0 94 -96 144q-45 23 -62 42t-17 40q0 28 23 40t48 12q43 0 67.5 -10t24.5 -18q0 -4 -7 -7q-15 -6 -21.5 -16.5t-6.5 -22.5
q0 -22 14.5 -33.5t34.5 -11.5q23 0 35 14.5t12 33.5z" />
    <glyph glyph-name="t" unicode="t" horiz-adv-x="353" 
d="M341 598q-19 -38 -39 -65t-42 -46t-47 -32.5t-55 -24.5l-10 -38h-72l-4 -16h72l-54 -201q-11 -41 -7 -75t21 -59t46.5 -39t68.5 -14q51 0 88.5 27t54.5 66q2 5 0.5 8.5t-4.5 5t-6.5 0t-5.5 -5.5q-18 -35 -39.5 -51t-41.5 -16q-28 0 -40.5 19.5t-0.5 64.5l70 270h86l4 16
h-86l56 206h-13z" />
    <glyph glyph-name="u" unicode="u" horiz-adv-x="598" 
d="M101 202q-13 -49 -13 -89t11 -65t27 -38.5t35 -18t35 -4.5q37 0 64 9t46 23t31.5 31t21.5 33q0 -18 3.5 -34.5t13 -30t26 -21.5t41.5 -8q36 0 62.5 9.5t48 27t39 43t34.5 58.5q1 2 1 6q0 10 -8 10q-6 0 -10 -10q-29 -56 -53.5 -77.5t-41.5 -21.5q-10 0 -16 7.5t-6 18.5
q0 3 0.5 6t1.5 7l95 357h-149l-75 -279q-10 -38 -25.5 -62.5t-32 -39.5t-31.5 -21t-24 -6q-13 0 -20.5 10.5t-7.5 36.5q0 15 3 36.5t11 49.5l76 291l-209 -26l-4 -16l56 7z" />
    <glyph glyph-name="v" unicode="v" horiz-adv-x="586" 
d="M59 284q7 0 12 11q9 18 20.5 37.5t25 35.5t27.5 26.5t27 10.5q25 0 25 -28q0 -26 -6.5 -50t-19.5 -58q-16 -43 -27 -79.5t-11 -81.5q0 -31 12 -53.5t32 -37.5t46 -22t55 -7q41 0 81.5 20.5t78 53t70 73t56.5 81t37.5 77t13.5 60.5q0 44 -24 69t-66 25q-39 0 -65 -24
t-26 -62q0 -37 25.5 -60t60.5 -23q25 0 46 11q2 1 4 1q3 0 3 -4q0 -9 -12 -32.5t-32.5 -54t-47.5 -63.5t-57 -60.5t-61.5 -45t-60.5 -17.5q-20 0 -28.5 12.5t-8.5 33.5q0 27 9.5 64t22.5 77q11 33 23 68.5t12 59.5q0 54 -28.5 79.5t-91.5 25.5q-34 0 -59 -13.5t-44 -33
t-32 -43t-23 -42.5q-2 -4 -2 -9q0 -8 8 -8z" />
    <glyph glyph-name="w" unicode="w" horiz-adv-x="865" 
d="M840 286q0 -19 -12 -46t-32 -57t-46.5 -60t-54.5 -53.5t-56.5 -38.5t-52.5 -15q-19 0 -31 14t-12 44q0 27 10 61l88 295h-131l-82 -256q-9 -28 -24.5 -56.5t-33 -52t-35.5 -38t-32 -14.5q-22 0 -30.5 12.5t-8.5 33.5q0 27 9.5 64t22.5 77q11 33 23 68.5t12 59.5
q0 54 -28.5 79.5t-91.5 25.5q-34 0 -59 -13.5t-44 -33t-32 -43t-23 -42.5q-2 -4 -2 -9q0 -8 8 -8q7 0 12 11q9 18 20.5 37.5t25 35.5t27.5 26.5t27 10.5q25 0 25 -28q0 -26 -6.5 -50t-19.5 -58q-16 -43 -27 -79.5t-11 -81.5q0 -31 12 -53.5t32 -37.5t46 -22t55 -7
q15 0 32 4.5t34 16.5t35.5 32.5t36.5 52.5q0 -56 32 -83t94 -27q49 0 93 20.5t82 53.5t68.5 74t52.5 82t33.5 78t11.5 61q0 44 -24 69t-66 25q-39 0 -65 -24t-26 -62q0 -37 25.5 -60t60.5 -23q25 0 46 11q2 1 4 1q3 0 3 -4z" />
    <glyph glyph-name="x" unicode="x" horiz-adv-x="558" 
d="M155 405q17 0 32.5 -28t28 -68t22.5 -83.5t16 -74.5q-14 -28 -29.5 -53t-32 -44.5t-32.5 -31t-31 -11.5q7 5 12 13.5t5 21.5q0 23 -15 41.5t-44 18.5q-20 0 -37.5 -13.5t-17.5 -40.5q0 -32 19.5 -46.5t53.5 -14.5q29 0 51.5 11.5t41 30.5t33.5 43.5t29 50.5
q15 -66 55 -101.5t104 -35.5q36 0 61 9t42 25t27.5 38.5t18.5 48.5q0 1 0.5 2t0.5 2q0 8 -8 8q-7 0 -8 -7q-3 -13 -9.5 -27.5t-15.5 -26.5t-20 -20t-23 -8q-23 0 -37 22.5t-25 53.5q-8 23 -16 49.5t-14.5 53.5t-12.5 52t-10 45q7 15 20.5 33.5t30 35t34.5 28t33 11.5
q2 0 3.5 -0.5t3.5 -0.5q-7 -8 -12 -17.5t-5 -23.5q0 -16 5.5 -27t14.5 -17.5t19 -9.5t19 -3q20 0 37.5 13t17.5 39q0 35 -22 49t-61 14q-25 0 -45.5 -9t-38 -23.5t-32 -33t-26.5 -37.5q-11 33 -24 54t-31.5 33t-44 16.5t-60.5 4.5q-32 0 -55 -7.5t-40 -20.5t-30.5 -30.5
t-26.5 -36.5q-3 -5 -3 -9q0 -6 5 -6q6 0 12 8q23 34 43 51t44 17z" />
    <glyph glyph-name="y" unicode="y" horiz-adv-x="597" 
d="M185 303l77 -365q-8 -18 -29 -48.5t-48 -60t-56.5 -51t-53.5 -21.5q14 6 27 21t13 38q0 27 -17.5 45.5t-47.5 18.5q-18 0 -31 -6.5t-21.5 -16.5t-12.5 -23t-4 -25q0 -32 23.5 -53.5t58.5 -21.5q39 0 77 24.5t74.5 68t71.5 102t67 126.5q21 43 42.5 94t41 95t34.5 73
t22 29q2 0 4 -3q8 -22 24.5 -32t34.5 -10q25 0 45.5 17.5t20.5 46.5q0 32 -16.5 49.5t-45.5 17.5q-27 0 -45 -13q-15 -11 -33 -40t-36.5 -68t-37 -82.5t-34.5 -82.5l-50 223q-9 40 -36.5 56t-72.5 16q-34 0 -63 -14.5t-53 -35.5t-43 -45.5t-34 -44.5q-3 -3 -3 -7q0 -9 8 -9
q5 0 8 6q10 15 24 31t28 29.5t28 22.5t24 9q11 0 18 -4t11.5 -13.5t8 -25t8.5 -37.5z" />
    <glyph glyph-name="z" unicode="z" horiz-adv-x="505" 
d="M70 276q4 0 7 6q10 20 16 31l12 22q22 -5 72 -5q28 0 62 2t69 8.5t68.5 18.5t62.5 32q-23 -26 -67.5 -53t-96.5 -58q-51 -30 -100.5 -64t-84.5 -72q-14 -15 -27 -32t-24 -33.5t-17.5 -32.5t-6.5 -28q0 -9 3.5 -15.5t11.5 -6.5q14 0 22 14.5t13 32.5q32 0 56 -9t54 -20
q25 -8 56.5 -14t78.5 -6q51 0 88.5 18t63 46.5t38 63t12.5 67.5q0 34 -15 48.5t-41 14.5t-39 -16.5t-13 -39.5t16 -35.5t38 -12.5q15 0 32 11q-1 -6 -2.5 -14t-4.5 -15t-7.5 -12t-10.5 -5t-11 4q-34 26 -80 35t-94 9q-49 0 -92.5 -6.5t-71.5 -11.5q35 35 79 63.5t89 55.5
q52 31 100.5 63t85.5 77q26 18 38 34.5t12 21.5q0 8 -6 8t-12 -3q-12 -7 -21 -18t-14 -19q-39 2 -88 5t-97.5 7t-90.5 8.5t-67 9.5q-4 -16 -11.5 -40t-15.5 -49t-16 -47.5t-14 -35.5q-1 -1 -1 -4q0 -4 4 -4z" />
    <glyph glyph-name="braceleft" unicode="{" horiz-adv-x="333" 
d="M141 310v-9q0 -3 -2 -8l-47 -181q-5 -19 -7 -35.5t-2 -31.5q0 -35 11 -59.5t29 -40.5t41 -23.5t47 -7.5q30 0 42.5 1.5t12.5 8.5q0 6 -7.5 7t-21.5 1q-21 0 -33.5 14.5t-12.5 45.5q0 20 6 49l44 191q4 17 5 30.5t1 20.5q0 27 -19.5 44.5t-52.5 28.5q30 7 51.5 16.5
t36.5 22.5t25 31.5t18 45.5l36 120q20 66 44 94t55 28q20 0 30.5 1t10.5 7t-12.5 7t-40.5 1q-35 0 -68.5 -9t-62 -26.5t-49.5 -44t-30 -61.5l-42 -154q-10 -36 -28.5 -52.5t-52.5 -26.5q19 -5 32 -15.5t13 -30.5z" />
    <glyph glyph-name="bar" unicode="|" horiz-adv-x="194" 
d="M228 699l-191 -714h53l192 714h-54z" />
    <glyph glyph-name="braceright" unicode="}" horiz-adv-x="333" 
d="M332 394v8q0 4 2 9l32 121q5 19 7 35.5t2 31.5q0 34 -11 59t-29 41t-41 23.5t-47 7.5q-30 0 -42.5 -1.5t-12.5 -8.5q0 -6 7.5 -7t21.5 -1q21 0 33.5 -14.5t12.5 -45.5q0 -21 -6 -49l-29 -131q-4 -17 -5 -30.5t-1 -20.5q0 -27 19.5 -44.5t52.5 -28.5q-30 -8 -51.5 -17
t-36.5 -22t-25.5 -31.5t-17.5 -45.5l-51 -180q-19 -66 -43.5 -94t-55.5 -28q-20 0 -30.5 -1t-10.5 -7t12.5 -7t40.5 -1q35 0 68.5 9t62 26.5t49.5 44t30 61.5l57 214q5 18 11.5 30.5t16.5 21.5t23 15.5t30 11.5q-19 5 -32 15.5t-13 30.5z" />
    <glyph glyph-name="asciitilde" unicode="~" horiz-adv-x="486" 
d="M304 409q-24 11 -49.5 18t-51.5 7q-36 0 -60.5 -10.5t-39.5 -25t-21.5 -29.5t-6.5 -24q0 -13 10 -13t15 15q5 18 20 29t35 11q17 0 31.5 -9t34.5 -18q28 -13 52.5 -18t61.5 -5q27 0 48 8.5t35.5 21t21.5 27.5t7 28q0 11 -9 11q-12 0 -17 -16q-3 -12 -11.5 -21.5
t-34.5 -9.5q-18 0 -36 7.5t-35 15.5z" />
    <glyph glyph-name="quotesinglbase" unicode="&#x201a;" horiz-adv-x="269" 
d="M354 108q1 6 1 11v9q0 37 -26.5 64.5t-71.5 27.5q-22 0 -37 -7t-24 -18t-13 -24.5t-4 -26.5q0 -30 21 -49t46 -19q48 0 62 38q1 2 2 6t4 4q7 0 7 -14t-2 -19q-3 -17 -14 -37t-30.5 -39t-46.5 -35t-61 -24q-8 -3 -8 -7q0 -5 6 -5q4 0 8 2q42 9 74 27t54 40.5t35 47
t18 47.5z" />
    <glyph glyph-name="florin" unicode="&#x192;" horiz-adv-x="726" 
d="M689 516h-516l-121 -516h516z" />
    <glyph glyph-name="quotedblbase" unicode="&#x201e;" horiz-adv-x="468" 
d="M549 108q1 6 1 11v9q0 37 -26.5 64.5t-71.5 27.5q-22 0 -37 -7t-24 -18t-13 -24.5t-4 -26.5q0 -30 21 -49t46 -19q48 0 62 38q1 2 2 6t4 4q7 0 7 -14t-2 -19q-3 -17 -14 -37t-30.5 -39t-46.5 -35t-61 -24q-8 -3 -8 -7q0 -5 6 -5q4 0 8 2q42 9 74 27t54 40.5t35 47
t18 47.5zM330 108q1 6 1 11v9q0 37 -26.5 64.5t-71.5 27.5q-22 0 -37 -7t-24 -18t-13 -24.5t-4 -26.5q0 -30 21 -49t46 -19q48 0 62 38q1 2 2 6t4 4q7 0 7 -14t-2 -19q-3 -17 -14 -37t-30.5 -39t-46.5 -35t-61 -24q-8 -3 -8 -7q0 -5 6 -5q4 0 8 2q42 9 74 27t54 40.5t35 47
t18 47.5z" />
    <glyph glyph-name="ellipsis" unicode="&#x2026;" horiz-adv-x="812" 
d="M219 72q0 28 -19 50t-58 22q-22 0 -38.5 -7.5t-27.5 -19t-16.5 -26.5t-5.5 -30q0 -28 19 -50t58 -22q22 0 38.5 7.5t27.5 19t16.5 26.5t5.5 30zM487 72q0 28 -19 50t-58 22q-22 0 -38.5 -7.5t-27.5 -19t-16.5 -26.5t-5.5 -30q0 -28 19 -50t58 -22q22 0 38.5 7.5t27.5 19
t16.5 26.5t5.5 30zM755 72q0 28 -19 50t-58 22q-22 0 -38.5 -7.5t-27.5 -19t-16.5 -26.5t-5.5 -30q0 -28 19 -50t58 -22q22 0 38.5 7.5t27.5 19t16.5 26.5t5.5 30z" />
    <glyph glyph-name="dagger" unicode="&#x2020;" horiz-adv-x="360" 
d="M187 488l-70 -328h27l70 328h64l6 27h-65l7 29q2 11 8 20t12 19q5 9 9 19.5t4 24.5q0 18 -1.5 32.5t-1.5 34.5q0 12 -11 12q-8 0 -14 -12q-9 -20 -15 -33t-11 -24q-7 -14 -8.5 -21.5t-1.5 -13.5q0 -13 2.5 -24.5t2.5 -22.5q0 -2 -0.5 -6t-2.5 -15l-4 -19h-65l-5 -27h64z
" />
    <glyph glyph-name="daggerdbl" unicode="&#x2021;" horiz-adv-x="305" 
d="M58 199h65l-13 -58q-2 -11 -9 -21t-13 -21q-5 -9 -8.5 -18.5t-3.5 -21.5q0 -18 2 -32.5t2 -35.5q0 -5 2.5 -8.5t7.5 -3.5q8 0 14 12q9 20 15 33t11 25q8 14 9 21t1 13q0 14 -2 25t-2 23v9t2 11l11 48h65l6 27h-65l49 213h64l7 27h-65l13 58q2 11 8.5 21t12.5 21
q5 8 8.5 18t3.5 23q0 18 -1.5 32.5t-1.5 34.5q0 12 -11 12q-8 0 -14 -12q-9 -20 -15 -33t-11 -24q-7 -14 -8.5 -21.5t-1.5 -13.5q0 -13 2.5 -24.5t2.5 -22.5q0 -2 -0.5 -6t-2.5 -15l-11 -48h-64l-7 -27h65l-49 -213h-64z" />
    <glyph glyph-name="circumflex" unicode="&#x2c6;" horiz-adv-x="403" 
d="M346 518l-88 134h-43l-134 -134l9 -9l139 76l108 -74z" />
    <glyph glyph-name="perthousand" unicode="&#x2030;" horiz-adv-x="1360" 
d="M168 -4l736 687h-47l-737 -687h48zM122 450q0 -68 37.5 -111t118.5 -43q60 0 106.5 22.5t79 57t49.5 74.5t17 75t-9 64t-27.5 50t-47.5 32.5t-69 11.5q-60 0 -107.5 -23t-80 -57.5t-50 -75.5t-17.5 -77zM272 489q9 34 17.5 66.5t19 58t26 41t39.5 15.5q21 0 29 -11t8 -31
q0 -26 -10 -62.5t-21 -76.5t-20 -73t-19.5 -57t-24 -37t-34.5 -13q-23 0 -32 12.5t-9 32.5q0 26 10 61t21 74zM508 154q0 -68 37.5 -111t118.5 -43q60 0 106.5 22.5t79 57t49.5 74.5t17 75t-9 64t-27.5 50t-47.5 32.5t-69 11.5q-60 0 -107.5 -23t-80 -57.5t-50 -75.5
t-17.5 -77zM658 193q9 34 17.5 66.5t19 58t26 41t39.5 15.5q21 0 29 -11t8 -31q0 -26 -10 -62.5t-21 -76.5t-20 -73t-19.5 -57t-24 -37t-34.5 -13q-23 0 -32 12.5t-9 32.5q0 26 10 61t21 74zM944 154q0 -68 37.5 -111t118.5 -43q60 0 106.5 22.5t79 57t49.5 74.5t17 75
t-9 64t-27.5 50t-47.5 32.5t-69 11.5q-60 0 -107.5 -23t-80 -57.5t-50 -75.5t-17.5 -77zM1094 193q9 34 17.5 66.5t19 58t26 41t39.5 15.5q21 0 29 -11t8 -31q0 -26 -10 -62.5t-21 -76.5t-20 -73t-19.5 -57t-24 -37t-34.5 -13q-23 0 -32 12.5t-9 32.5q0 26 10 61t21 74z" />
    <glyph glyph-name="Scaron" unicode="&#x160;" horiz-adv-x="557" 
d="M590 665l-36 -35q-9 9 -21 18.5t-28.5 17t-37.5 12.5t-49 5q-74 0 -127.5 -18t-88 -48t-51 -68.5t-16.5 -79.5q0 -45 21 -86t61 -67q31 -20 53 -33t40 -23.5t35.5 -21t40.5 -25.5q21 -14 31.5 -34.5t10.5 -43.5t-10.5 -45t-30.5 -40t-49.5 -29t-67.5 -11q-78 0 -120 46
t-52 128q-2 14 -5 18.5t-8 4.5q-7 0 -13 -22l-41 -154q-5 -18 -5 -24q0 -8 9 -8q5 0 9.5 4t11.5 11l50 48q10 -12 24 -24.5t33 -22.5t45 -16.5t62 -6.5q79 0 135 19t92 50t52.5 70.5t16.5 81.5q0 67 -29.5 111.5t-87.5 76.5q-31 17 -63 36.5t-70 41.5q-23 13 -35 35.5
t-12 47.5q0 19 8 37.5t25.5 33t45 23.5t66.5 9q33 0 58 -10.5t42.5 -27.5t27 -39t12.5 -45q2 -13 4 -19t8 -6q5 0 7 3.5t4 11.5l34 122q2 6 2 8v5q0 8 -5 8t-9.5 -3.5t-8.5 -7.5zM304 852l88 -133h43l134 133l-10 10l-138 -77l-108 75z" />
    <glyph glyph-name="guilsinglleft" unicode="&#x2039;" horiz-adv-x="339" 
d="M281 425l-211 -156l127 -156h17l-80 156l164 156h-17z" />
    <glyph glyph-name="OE" unicode="&#x152;" horiz-adv-x="1018" 
d="M634 672l-6 -23q-57 34 -141 34q-68 0 -126 -19.5t-104.5 -52.5t-82 -77t-59.5 -94t-36 -103t-12 -103q0 -51 14.5 -96.5t45 -79.5t77.5 -54t112 -20q38 0 73 6.5t67 17.5l-2 -8h408q14 0 23 9t13 23l37 141q4 16 4 18q0 11 -7 11q-10 0 -17 -20q-11 -31 -28 -61t-40 -53
t-52.5 -37.5t-65.5 -14.5h-123l88 330h72q27 0 37 -23t10 -57q0 -8 -0.5 -16.5t-0.5 -16.5q0 -14 9 -14q6 0 9 11l54 217q1 5 1 6v2q0 9 -7 9t-11 -9q-18 -37 -41 -65t-55 -28h-72l78 294h93q31 0 52 -14t33.5 -34.5t17.5 -44.5t5 -45q0 -8 -0.5 -14t-0.5 -10q0 -12 7 -12
t11 15l34 126q3 11 4.5 17.5t1.5 12.5q0 19 -25 19h-376zM581 568q0 -25 -5.5 -53.5t-13.5 -60.5l-65 -244q-10 -36 -22 -73t-32 -67t-49.5 -49t-74.5 -19q-59 0 -80 27.5t-21 67.5q0 26 6 54t13 55l65 241q12 43 26 82.5t35 69.5t50 48t71 18q54 0 75.5 -26t21.5 -71z" />
    <glyph glyph-name="quoteleft" unicode="&#x2018;" horiz-adv-x="253" 
d="M148 565q-1 -6 -1 -11v-9q0 -37 26.5 -64.5t71.5 -27.5q22 0 37 7t24 18t13 24.5t4 26.5q0 30 -21 49t-46 19q-48 0 -62 -38q-1 -2 -2 -6t-4 -4q-7 0 -7 14t2 19q3 16 14 36.5t30.5 39.5t46 35t61.5 24q8 3 8 7q0 5 -6 5q-4 0 -8 -2q-42 -9 -74 -27t-54 -40.5
t-35.5 -47.5t-17.5 -47z" />
    <glyph glyph-name="quoteright" unicode="&#x2019;" horiz-adv-x="269" 
d="M364 602q1 6 1 11v9q0 37 -26.5 64.5t-71.5 27.5q-22 0 -37 -7t-24 -18t-13 -24.5t-4 -26.5q0 -30 21 -49t46 -19q48 0 62 38q1 2 2 6t4 4q7 0 7 -14t-2 -19q-3 -17 -14 -37t-30.5 -39t-46.5 -35t-61 -24q-8 -3 -8 -7q0 -5 6 -5q4 0 8 2q42 9 74 27t54 40.5t35 47
t18 47.5z" />
    <glyph glyph-name="quotedblleft" unicode="&#x201c;" horiz-adv-x="468" 
d="M94 565q-1 -6 -1 -11v-9q0 -37 26.5 -64.5t71.5 -27.5q22 0 37 7t24 18t13 24.5t4 26.5q0 30 -21 49t-46 19q-48 0 -62 -38q-1 -2 -2 -6t-4 -4q-7 0 -7 14t2 19q3 16 14 36.5t30.5 39.5t46 35t61.5 24q8 3 8 7q0 5 -6 5q-4 0 -8 -2q-42 -9 -74 -27t-54 -40.5t-35.5 -47.5
t-17.5 -47zM313 565q-1 -6 -1 -11v-9q0 -37 26.5 -64.5t71.5 -27.5q22 0 37 7t24 18t13 24.5t4 26.5q0 30 -21 49t-46 19q-48 0 -62 -38q-1 -2 -2 -6t-4 -4q-7 0 -7 14t2 19q3 16 14 36.5t30.5 39.5t46 35t61.5 24q8 3 8 7q0 5 -6 5q-4 0 -8 -2q-42 -9 -74 -27t-54 -40.5
t-35.5 -47.5t-17.5 -47z" />
    <glyph glyph-name="quotedblright" unicode="&#x201d;" horiz-adv-x="468" 
d="M577 602q1 6 1 11v9q0 37 -26.5 64.5t-71.5 27.5q-22 0 -37 -7t-24 -18t-13 -24.5t-4 -26.5q0 -30 21 -49t46 -19q48 0 62 38q1 2 2 6t4 4q7 0 7 -14t-2 -19q-3 -17 -14 -37t-30.5 -39t-46.5 -35t-61 -24q-8 -3 -8 -7q0 -5 6 -5q4 0 8 2q42 9 74 27t54 40.5t35 47
t18 47.5zM358 602q1 6 1 11v9q0 37 -26.5 64.5t-71.5 27.5q-22 0 -37 -7t-24 -18t-13 -24.5t-4 -26.5q0 -30 21 -49t46 -19q48 0 62 38q1 2 2 6t4 4q7 0 7 -14t-2 -19q-3 -17 -14 -37t-30.5 -39t-46.5 -35t-61 -24q-8 -3 -8 -7q0 -5 6 -5q4 0 8 2q42 9 74 27t54 40.5t35 47
t18 47.5z" />
    <glyph glyph-name="bullet" unicode="&#x2022;" horiz-adv-x="457" 
d="M79 219q0 -26 9 -50t27.5 -42.5t46.5 -29.5t66 -11q45 0 79 15t57.5 39t35.5 54t12 60q0 26 -9 50t-27.5 42.5t-46.5 29.5t-66 11q-45 0 -79 -15t-57.5 -39t-35.5 -54t-12 -60z" />
    <glyph glyph-name="endash" unicode="&#x2013;" horiz-adv-x="366" 
d="M340 319h-260l-12 -43h260z" />
    <glyph glyph-name="emdash" unicode="&#x2014;" horiz-adv-x="694" 
d="M698 319h-588l-12 -43h588z" />
    <glyph glyph-name="tilde" unicode="&#x2dc;" horiz-adv-x="462" 
d="M274 606q-21 10 -42.5 16.5t-43.5 6.5q-31 0 -52 -9.5t-33.5 -23t-18 -27t-5.5 -20.5q0 -12 8 -12q9 0 13 14q4 16 17 26t30 10q14 0 26.5 -8.5t29.5 -16.5q23 -11 44 -15.5t53 -4.5q23 0 41 7.5t30 19t18 24.5t6 25q0 10 -8 10q-9 0 -14 -14q-2 -11 -9.5 -19.5
t-29.5 -8.5q-16 0 -31 6.5t-29 13.5z" />
    <glyph glyph-name="trademark" unicode="&#x2122;" horiz-adv-x="495" 
d="M367 631h9l6 41h-159l-14 -40h9q6 15 14 22.5t26 7.5h26l-45 -170h-27l-3 -9h86l3 9h-28l45 170h27q26 0 26 -20q0 -7 -1 -11zM367 491l-2 -8h65l2 8h-28l40 149l17 -157h6l100 168l-43 -160h-28l-2 -8h85l2 8h-27l47 175h27l1 6h-59l-85 -143l-16 143h-54l-1 -6h28
l-47 -175h-28z" />
    <glyph glyph-name="scaron" unicode="&#x161;" horiz-adv-x="415" 
d="M442 353q0 16 -9.5 31.5t-29 28t-49 20t-69.5 7.5q-38 0 -71.5 -9.5t-58 -27.5t-39 -44.5t-14.5 -59.5q0 -31 20 -60t65 -54q44 -24 62.5 -51.5t18.5 -53.5q0 -40 -23.5 -58t-61.5 -18q-24 0 -44.5 5.5t-35.5 12.5t-24 14.5t-9 12.5q0 3 6 5q21 3 36.5 16.5t15.5 34.5
q0 26 -17.5 40t-39.5 14q-26 0 -41 -17.5t-15 -41.5q0 -19 11 -39t32.5 -36t53.5 -26.5t73 -10.5q52 0 91 12.5t65 34t39 50t13 61.5q0 94 -96 144q-45 23 -62 42t-17 40q0 28 23 40t48 12q43 0 67.5 -10t24.5 -18q0 -4 -7 -7q-15 -6 -21.5 -16.5t-6.5 -22.5
q0 -22 14.5 -33.5t34.5 -11.5q23 0 35 14.5t12 33.5zM204 657l88 -133h43l134 133l-10 10l-138 -77l-108 75z" />
    <glyph glyph-name="guilsinglright" unicode="&#x203a;" horiz-adv-x="312" 
d="M41 113h17l211 156l-127 156h-17l79 -156z" />
    <glyph glyph-name="oe" unicode="&#x153;" horiz-adv-x="771" 
d="M644 438q-54 0 -98 -15t-79 -41q-26 26 -64 40.5t-87 14.5q-51 0 -98 -20.5t-83 -55.5t-57.5 -83t-21.5 -103q0 -40 11.5 -74t35.5 -59t60 -39.5t85 -14.5q47 0 87.5 13t72.5 36q24 -23 58.5 -36t80.5 -13q39 0 73 10t62.5 27t51 38.5t39.5 45.5q4 5 5 9t1 7q0 9 -7 9
q-6 0 -12 -8q-38 -54 -91.5 -85.5t-117.5 -31.5q-27 0 -49 15.5t-22 44.5q0 17 2 29.5t7 33.5l16 68q19 -6 46 -10.5t57 -4.5q42 0 78 9t61.5 26t40 41.5t14.5 56.5q0 22 -9.5 44t-29 38.5t-49 27t-70.5 10.5zM385 361q0 -10 -2 -22.5t-7.5 -37t-16 -65t-28.5 -105.5
q-6 -22 -13 -44.5t-17.5 -40.5t-24.5 -29.5t-35 -11.5q-32 0 -44 20.5t-12 47.5q0 9 1.5 20t6.5 32.5t14 58.5t25 98q7 27 15 51.5t20 43.5t28 30.5t40 11.5q29 0 39.5 -16.5t10.5 -41.5zM536 314q6 21 14 40.5t19.5 34.5t27 24t35.5 9q26 0 37 -16.5t11 -42.5
q0 -76 -35.5 -114.5t-90.5 -38.5q-12 0 -23 2l-22 4z" />
    <glyph glyph-name="Ydieresis" unicode="&#x178;" horiz-adv-x="671" 
d="M488 797q0 23 -15 40.5t-46 17.5q-35 0 -52.5 -21.5t-17.5 -45.5q0 -23 14 -40t45 -17q36 0 54 21t18 45zM674 797q0 23 -14.5 40.5t-46.5 17.5q-35 0 -52.5 -21.5t-17.5 -45.5q0 -23 14.5 -40t44.5 -17q36 0 54 21t18 45zM646 673l-4 -16q39 0 39 -24q0 -14 -14 -34
l-199 -265l-78 322h54l4 16h-277l-4 -16h53l98 -360l-75 -280h-54l-4 -16h269l4 16h-54l82 306l206 274q23 29 50 45t59 16l4 16h-159z" />
    <glyph glyph-name="exclamdown" unicode="&#xa1;" horiz-adv-x="263" 
d="M79 474q0 -28 19 -50t58 -22q22 0 38.5 7.5t27.5 19t16.5 26.5t5.5 30q0 28 -19 50t-58 22q-22 0 -38.5 -7.5t-27.5 -19t-16.5 -26.5t-5.5 -30zM24 -138q25 0 41 13q19 15 28.5 45.5t14 69t6.5 79t5 74.5q3 38 10.5 89t17.5 95l-32 7q-6 -21 -14.5 -44t-17.5 -46
t-18.5 -44.5t-17.5 -37.5q-14 -27 -30 -57.5t-30 -60.5t-23 -59t-9 -53q0 -22 7.5 -36t18 -21.5t22.5 -10t21 -2.5z" />
    <glyph glyph-name="cent" unicode="&#xa2;" horiz-adv-x="422" 
d="M234 98l97 364q22 0 40.5 -7t18.5 -13q0 -5 -10 -8q-12 -3 -20 -14t-8 -25t10 -26t31 -12q20 0 31.5 14t11.5 34q0 16 -9.5 29t-24 22t-32.5 14t-35 6l17 64h-21l-17 -64q-61 -2 -107 -24.5t-77.5 -57t-47.5 -76.5t-16 -82q0 -30 8.5 -57t26.5 -48t45 -34t63 -15l-21 -76
h22l20 77q32 1 59 11t48.5 26t38 36.5t28.5 41.5q2 4 2 7q0 7 -7 7q-5 0 -9 -7q-21 -41 -61.5 -72t-94.5 -35zM164 169q0 16 5 42.5t12 53.5t14 51t11 36q17 54 44.5 80t59.5 30l-97 -364q-26 3 -37.5 22.5t-11.5 48.5z" />
    <glyph glyph-name="sterling" unicode="&#xa3;" horiz-adv-x="559" 
d="M614 576q0 19 -7 38t-26.5 35t-53.5 26t-88 10q-90 0 -147 -21t-90 -53t-45.5 -70t-12.5 -72q0 -29 6.5 -56t15.5 -53h-48l-5 -18h58q5 -13 11.5 -30t13.5 -35l14 -36t13 -33q-11 3 -23 3q-30 0 -61 -13t-56.5 -35t-42 -49.5t-16.5 -55.5q0 -30 18 -46.5t55 -16.5
q24 0 41.5 5.5t30.5 13.5t22 17.5t17 17.5q23 -33 55.5 -46.5t80.5 -13.5q41 0 74.5 25.5t59.5 61.5t45 74t33 63q4 8 4 14t-5 6q-7 0 -11 -9q-17 -30 -30 -48.5t-28 -29t-34 -14t-48 -3.5q-24 0 -45 8.5t-40 19.5q-18 11 -34.5 22t-30.5 16l39 147h78l5 18h-78l42 167
q10 40 27 66t36.5 41t40.5 20.5t39 5.5q43 0 70 -17t27 -46q-8 5 -17 9.5t-22 4.5q-19 0 -37.5 -12.5t-18.5 -43.5q0 -29 19 -44t42 -15q35 0 51.5 22.5t16.5 57.5zM99 14q-30 0 -41.5 13t-11.5 31q0 13 5 26t14 23t22 16.5t28 6.5q24 0 43 -15.5t36 -45.5
q-17 -23 -40.5 -39t-54.5 -16z" />
    <glyph glyph-name="yen" unicode="&#xa5;" horiz-adv-x="671" 
d="M665 595l-197 -262l-78 323h54l4 16h-277l-4 -16h53l98 -359h-96l-5 -16h97l-11 -41h-97l-5 -17h97l-55 -207h-54l-4 -16h269l4 16h-54l55 207h97l5 17h-96l10 41h97l4 16h-96l6 22l206 276q24 33 48.5 47t59.5 14l4 16h-159l-4 -16q28 0 35.5 -7t7.5 -18q0 -14 -19 -36z
" />
    <glyph glyph-name="brokenbar" unicode="&#xa6;" horiz-adv-x="148" 
d="M100 270h-54v-270h54v270zM46 377h54v297h-54v-297z" />
    <glyph glyph-name="section" unicode="&#xa7;" horiz-adv-x="474" 
d="M494 617q0 19 -10 33.5t-27.5 24.5t-39.5 15t-46 5q-51 0 -89 -13.5t-63 -37t-37.5 -54.5t-12.5 -66q0 -32 17 -61.5t54 -42.5q-52 -18 -87 -56.5t-35 -99.5q0 -42 22.5 -74t87.5 -50q54 -15 78 -38.5t24 -62.5q0 -42 -34 -68.5t-98 -26.5q-31 0 -53.5 7t-37 16.5
t-21.5 20t-7 17.5q0 3 1 4t8 1q21 0 32.5 11t11.5 25q0 35 -32 35q-22 0 -32.5 -16t-10.5 -40q0 -40 37 -68.5t100 -28.5q103 0 154.5 49.5t51.5 130.5q0 37 -14.5 68.5t-50.5 46.5q57 21 89 61t32 101q0 51 -30 85.5t-104 47.5q-43 8 -65 23.5t-22 44.5q0 44 33 69t99 25
q26 0 44.5 -5t30.5 -11t17.5 -12t5.5 -9q0 -1 -3 -1q-20 -1 -30 -14t-10 -27q0 -33 34 -33q16 0 27 12t11 37zM314 231q-30 9 -56 18.5t-45 20t-30 24t-11 31.5q0 32 25 53t72 34q24 -2 49 -9.5t44.5 -19.5t32 -27t12.5 -32q0 -35 -24.5 -55.5t-68.5 -37.5z" />
    <glyph glyph-name="dieresis" unicode="&#xa8;" horiz-adv-x="438" 
d="M197 599q0 25 -16.5 44.5t-51.5 19.5q-38 0 -58 -24t-20 -51q0 -25 16 -44t50 -19q40 0 60 23.5t20 50.5zM404 599q0 25 -16.5 44.5t-51.5 19.5q-38 0 -58 -24t-20 -51q0 -25 16 -44t50 -19q40 0 60 23.5t20 50.5z" />
    <glyph glyph-name="copyright" unicode="&#xa9;" horiz-adv-x="619" 
d="M324 387q3 19 13 38t25.5 34t36.5 24t47 9q38 0 55 -9.5t30 -20.5l12 33q-14 10 -34.5 20t-60.5 10q-35 0 -62.5 -11.5t-48 -31t-33.5 -44t-17 -50.5q-5 -26 -0.5 -51t18 -44.5t37 -31.5t57.5 -12q45 0 69 11.5t37 21.5l1 37q-6 -6 -14 -12.5t-19 -12t-26.5 -9.5
t-37.5 -4q-26 0 -44 9t-28.5 24t-13.5 34t1 39zM697 372q10 57 -3 107.5t-43.5 88t-77.5 59.5t-104 22t-111.5 -22t-99 -59.5t-75 -88t-40.5 -107.5t3 -107.5t43.5 -88t77.5 -59.5t104 -22t111.5 22t98.5 59.5t75 88t41 107.5zM176 373q9 51 36 95.5t66 77.5t87 52.5
t99 19.5t92 -19.5t68.5 -52.5t39 -77.5t2.5 -95.5t-36 -95.5t-66 -77.5t-87 -52.5t-99 -19.5t-92 19.5t-68.5 52.5t-39 77.5t-2.5 95.5z" />
    <glyph glyph-name="ordfeminine" unicode="&#xaa;" horiz-adv-x="457" 
d="M94 294l-4 -26h308l3 26h-307zM430 606h-94l-12 -41q-11 27 -30.5 36.5t-39.5 9.5q-30 0 -58 -11.5t-49.5 -32t-35 -49t-13.5 -62.5q0 -27 8.5 -48t22.5 -36t31.5 -22.5t35.5 -7.5t32 5.5t25 13t18 16t12 14.5q3 -17 18.5 -34t53.5 -17q24 0 40.5 8.5t28.5 21.5t19.5 27
t12.5 25v3q0 4 -5 4q-3 0 -4 -3q-15 -32 -30.5 -46t-26.5 -14q-14 0 -14 20v8q0 5 2 10zM205 535q8 28 22 45.5t38 17.5q13 0 22.5 -6.5t16.5 -15.5t10.5 -18t3.5 -14v-4q0 -1 -2 -7l-33 -117q-2 -7 -10 -17.5t-19 -20t-24.5 -16.5t-25.5 -7q-14 0 -24 8.5t-10 28.5
q0 16 5 34z" />
    <glyph glyph-name="guillemotleft" unicode="&#xab;" horiz-adv-x="425" 
d="M235 425l-210 -156l127 -156h17l-80 156l164 156h-18zM392 425l-210 -156l127 -156h17l-80 156l164 156h-18z" />
    <glyph glyph-name="logicalnot" unicode="&#xac;" horiz-adv-x="386" 
d="M81 382l-4 -19h299l4 19h-299zM190 165q6 0 19.5 3.5t29 10.5t29 19.5t18.5 30.5q8 30 -12 55t-60 25q-45 0 -75.5 -22.5t-37.5 -57.5q-3 -20 4 -32t17 -19t21.5 -9.5t17.5 -3.5q5 0 5 -1t-5 -1q-7 0 -22 -4t-31.5 -14t-31.5 -26.5t-22 -42.5q-9 -34 12.5 -59.5
t63.5 -25.5q22 0 42 7t36.5 19t28 28.5t16.5 34.5q6 24 -1 39.5t-19 25t-24.5 14t-18.5 4.5q-3 0 -3 1t3 1zM218 671q3 0 5 1q38 7 65 25l-68 -256h-25l-1 -7h116l1 7h-23l78 295h-38q-23 -14 -51 -32t-55 -25q-9 -4 -9 -6t5 -2zM126 77q11 44 21 63t27 19q18 0 18.5 -18
t-12.5 -63q-11 -45 -19.5 -62.5t-29.5 -17.5q-19 0 -18 17t13 62zM169 229q8 33 17 53.5t27 20.5q10 0 13.5 -5.5t3 -15t-4 -23.5l-7.5 -30q-7 -30 -15.5 -45t-25.5 -15t-16.5 14.5t8.5 45.5z" />
    <glyph glyph-name="registered" unicode="&#xae;" horiz-adv-x="466" 
d="M366 552q0 22 -12.5 34.5t-31.5 12.5h-83l-35 -203h17l16 94h16l66 -94h23l-68 94h30q32 0 47 19.5t15 42.5zM350 552q0 -17 -10 -31.5t-34 -14.5h-66l14 77h66q14 0 22 -8.5t8 -22.5zM120 466q0 45 16.5 80t43 60t60.5 38t69 13q32 0 58 -10t45 -28t29 -42.5t10 -52.5
q0 -39 -14.5 -73.5t-39.5 -60.5t-59.5 -41.5t-73.5 -15.5q-33 0 -59.5 10t-45 28t-29 42t-10.5 53zM472 524q0 34 -11.5 62.5t-32.5 49t-51 32t-66 11.5q-42 0 -80.5 -15t-68 -42.5t-47 -67t-17.5 -87.5q0 -34 11.5 -62.5t33 -49.5t52 -32.5t68.5 -11.5q44 0 82.5 17
t66.5 46t44 67.5t16 82.5z" />
    <glyph glyph-name="macron" unicode="&#xaf;" horiz-adv-x="452" 
d="M88 587l-3 -26h291l4 26h-292z" />
    <glyph glyph-name="degree" unicode="&#xb0;" horiz-adv-x="252" 
d="M236 598q0 31 -22 53t-53 22t-53 -22t-22 -53t22 -53t53 -22t53 22t22 53zM105 598q0 23 16.5 39.5t39.5 16.5t39.5 -16.5t16.5 -39.5t-16.5 -39.5t-39.5 -16.5t-39.5 16.5t-16.5 39.5z" />
    <glyph glyph-name="plusminus" unicode="&#xb1;" horiz-adv-x="366" 
d="M198 414h-129l-14 -54h129l-37 -134h54l37 134h129l14 54h-129l36 134h-54zM292 204h-232l-18 -45h232z" />
    <glyph glyph-name="twosuperior" unicode="&#xb2;" 
d="M245 658q0 20 -13.5 27t-30.5 7q7 9 23.5 18.5t38.5 9.5q16 0 25.5 -12t9.5 -41q0 -47 -18.5 -74.5t-41.5 -46.5q-12 -10 -30 -22.5t-36 -27t-33 -30t-19 -30.5l-4 -12h172l43 82q3 6 3 11q0 2 -1 2q-3 0 -7 -7q-5 -10 -16.5 -23t-34.5 -13h-106q17 14 39 22.5t40 17.5
q22 9 43 22t36.5 30.5t25 39t9.5 47.5q0 36 -25 55.5t-61 19.5q-23 0 -43 -6.5t-34.5 -17t-23 -24.5t-8.5 -28q0 -19 12 -28t26 -9q16 0 28 10.5t12 30.5z" />
    <glyph glyph-name="threesuperior" unicode="&#xb3;" 
d="M193 667q0 -33 34 -33q14 0 24.5 9.5t10.5 28.5q0 12 -6.5 20.5t-17.5 8.5q-3 0 -3 1q0 3 13 8.5t30 5.5q16 0 22 -9t6 -26q0 -11 -3 -27t-11 -31t-21 -25.5t-32 -10.5h-39q-7 0 -7 -5q0 -3 6 -3h38q34 0 34 -40q0 -14 -3.5 -34t-11.5 -38.5t-20.5 -31.5t-31.5 -13
q-28 0 -39 9t-11 14q0 3 2 3h1q6 -2 10 -2q14 0 26 7.5t12 24.5t-10 25t-23 8q-20 0 -30 -13.5t-10 -28.5q0 -23 18 -39t53 -16q42 0 68 11.5t40.5 27.5t19 32.5t4.5 27.5q0 32 -17.5 48t-40.5 21q44 5 67.5 28t23.5 53q0 26 -18.5 44t-60.5 18q-47 0 -71.5 -19t-24.5 -39z
" />
    <glyph glyph-name="acute" unicode="&#xb4;" horiz-adv-x="414" 
d="M258 660l-112 -154l22 -11l191 165h-101z" />
    <glyph glyph-name="mu" unicode="&#xb5;" 
d="M77 379l-3 -18h292l3 18h-292zM214 665q3 0 5 1q38 7 65 25l-68 -256h-25l-1 -7h116l1 7h-23l78 295h-38q-23 -14 -51 -32t-55 -25q-9 -4 -9 -6t5 -2zM174 234q0 20 -13.5 27t-30.5 7q7 9 23.5 18.5t38.5 9.5q16 0 25.5 -12t9.5 -41q0 -47 -18.5 -74.5t-41.5 -46.5
q-12 -10 -30 -22.5t-36 -27t-33 -30t-19 -30.5l-4 -12h172l43 82q3 6 3 11q0 2 -1 2q-3 0 -7 -7q-5 -10 -16.5 -23t-34.5 -13h-106q17 14 39 22.5t40 17.5q22 9 43 22t36.5 30.5t25 39t9.5 47.5q0 36 -25 55.5t-61 19.5q-23 0 -43 -6.5t-34.5 -17t-23 -24.5t-8.5 -28
q0 -19 12 -28t26 -9q16 0 28 10.5t12 30.5z" />
    <glyph glyph-name="paragraph" unicode="&#xb6;" horiz-adv-x="694" 
d="M530 656l-203 -764h90l203 764h86l5 16h-373q-81 0 -133 -20.5t-82 -52t-42 -68.5t-12 -69q0 -80 48.5 -117t130.5 -37h50l-111 -416h90l204 764h49z" />
    <glyph glyph-name="periodcentered" unicode="&#xb7;" horiz-adv-x="349" 
d="M269 327q0 28 -19 50t-58 22q-22 0 -38.5 -7.5t-27.5 -19t-16.5 -26.5t-5.5 -30q0 -28 19 -50t58 -22q22 0 38.5 7.5t27.5 19t16.5 26.5t5.5 30z" />
    <glyph glyph-name="periodcentered" unicode="&#x2219;" horiz-adv-x="349" 
d="M269 327q0 28 -19 50t-58 22q-22 0 -38.5 -7.5t-27.5 -19t-16.5 -26.5t-5.5 -30q0 -28 19 -50t58 -22q22 0 38.5 7.5t27.5 19t16.5 26.5t5.5 30z" />
    <glyph glyph-name="cedilla" unicode="&#xb8;" horiz-adv-x="301" 
d="M197 0h-23l-22 -51q8 -3 14.5 -11.5t6.5 -21.5q0 -22 -15 -34t-34 -12q-10 0 -19.5 4.5t-15.5 15.5q-5 9 -9 9t-4 -7v-4q0 -3 1 -6q5 -18 22 -28.5t38 -10.5q20 0 34.5 6.5t23.5 16.5t13.5 21.5t4.5 22.5q0 19 -11 30.5t-22 15.5z" />
    <glyph glyph-name="onesuperior" unicode="&#xb9;" 
d="M196 664q3 0 5 1q38 7 65 25l-68 -256h-25l-1 -7h116l1 7h-23l78 295h-38q-23 -14 -51 -32t-55 -25q-9 -4 -9 -6t5 -2z" />
    <glyph glyph-name="ordmasculine" unicode="&#xba;" horiz-adv-x="455" 
d="M103 294l-3 -26h308l3 26h-308zM154 451q0 -48 28 -80t87 -32q34 0 63.5 11.5t51 32.5t34 49.5t12.5 61.5q0 54 -31.5 84.5t-88.5 30.5q-30 0 -58.5 -12t-50 -33.5t-34.5 -50.5t-13 -62zM351 563q0 -6 -1 -13.5t-4.5 -22.5t-10 -39t-16.5 -63q-4 -13 -8 -26.5t-10 -24.5
t-15 -18t-21 -7q-20 0 -27 12t-7 29q0 5 1 11.5t4 20t8.5 35.5t14.5 59q4 16 9 30.5t12 26t17 18.5t24 7q17 0 23.5 -10t6.5 -25z" />
    <glyph glyph-name="guillemotright" unicode="&#xbb;" horiz-adv-x="414" 
d="M41 113h17l211 156l-127 156h-17l79 -156zM191 113h18l210 156l-127 156h-17l80 -156z" />
    <glyph glyph-name="onequarter" unicode="&#xbc;" 
d="M62 379l-3 -18h292l3 18h-292zM196 664q3 0 5 1q38 7 65 25l-68 -256h-25l-1 -7h116l1 7h-23l78 295h-38q-23 -14 -51 -32t-55 -25q-9 -4 -9 -6t5 -2zM268 303h-44q-18 -18 -42 -44.5t-49 -55t-49 -57.5t-41 -52l-2 -10h101l-21 -76h-24l-2 -8h116l2 8h-24l20 76h42l7 27
h-41zM149 111h-81q12 16 27.5 34.5t31.5 37t31 34.5t27 28z" />
    <glyph glyph-name="onehalf" unicode="&#xbd;" 
d="M77 379l-3 -18h292l3 18h-292zM214 665q3 0 5 1q38 7 65 25l-68 -256h-25l-1 -7h116l1 7h-23l78 295h-38q-23 -14 -51 -32t-55 -25q-9 -4 -9 -6t5 -2zM174 234q0 20 -13.5 27t-30.5 7q7 9 23.5 18.5t38.5 9.5q16 0 25.5 -12t9.5 -41q0 -47 -18.5 -74.5t-41.5 -46.5
q-12 -10 -30 -22.5t-36 -27t-33 -30t-19 -30.5l-4 -12h172l43 82q3 6 3 11q0 2 -1 2q-3 0 -7 -7q-5 -10 -16.5 -23t-34.5 -13h-106q17 14 39 22.5t40 17.5q22 9 43 22t36.5 30.5t25 39t9.5 47.5q0 36 -25 55.5t-61 19.5q-23 0 -43 -6.5t-34.5 -17t-23 -24.5t-8.5 -28
q0 -19 12 -28t26 -9q16 0 28 10.5t12 30.5z" />
    <glyph glyph-name="threequarters" unicode="&#xbe;" 
d="M55 368l-3 -17h291l3 17h-291zM193 667q0 -33 34 -33q14 0 24.5 9.5t10.5 28.5q0 12 -6.5 20.5t-17.5 8.5q-3 0 -3 1q0 3 13 8.5t30 5.5q16 0 22 -9t6 -26q0 -11 -3 -27t-11 -31t-21 -25.5t-32 -10.5h-39q-7 0 -7 -5q0 -3 6 -3h38q34 0 34 -40q0 -14 -3.5 -34
t-11.5 -38.5t-20.5 -31.5t-31.5 -13q-28 0 -39 9t-11 14q0 3 2 3h1q6 -2 10 -2q14 0 26 7.5t12 24.5t-10 25t-23 8q-20 0 -30 -13.5t-10 -28.5q0 -23 18 -39t53 -16q42 0 68 11.5t40.5 27.5t19 32.5t4.5 27.5q0 32 -17.5 48t-40.5 21q44 5 67.5 28t23.5 53q0 26 -18.5 44
t-60.5 18q-47 0 -71.5 -19t-24.5 -39zM260 303h-44q-18 -18 -42 -44.5t-49 -55t-49 -57.5t-41 -52l-2 -10h101l-21 -76h-24l-2 -8h116l2 8h-24l20 76h42l7 27h-41zM141 111h-81q12 16 27.5 34.5t31.5 37t31 34.5t27 28z" />
    <glyph glyph-name="questiondown" unicode="&#xbf;" horiz-adv-x="398" 
d="M-6 4q0 -69 38.5 -103.5t99.5 -34.5q42 0 72 10t49 25t28 33t9 35q0 31 -17 48.5t-46 17.5q-35 0 -52.5 -20t-17.5 -45q0 -23 13.5 -42.5t40.5 -21.5q-11 -8 -30.5 -15t-48.5 -7q-26 0 -44.5 17t-18.5 53q0 24 5.5 41t15.5 29.5t24 23t32 21.5q15 9 30.5 18.5t29 22.5
t24.5 30.5t17 41.5l41 157h-16l-13 -47q-5 -19 -22 -34.5t-40.5 -29.5t-50.5 -28t-53 -30q-36 -24 -56 -46.5t-29.5 -43.5t-11.5 -40t-2 -36zM214 461q0 -28 19 -50t58 -22q22 0 38.5 7.5t27.5 19t16.5 26.5t5.5 30q0 28 -19 50t-58 22q-22 0 -38.5 -7.5t-27.5 -19
t-16.5 -26.5t-5.5 -30z" />
    <glyph glyph-name="Agrave" unicode="&#xc0;" horiz-adv-x="675" 
d="M388 848l124 -154l17 4l-58 150h-83zM537 681h-70l-367 -613q-7 -11 -17 -20.5t-23 -17.5q-8 -5 -20 -8.5t-20 -4.5t-9 -1l-5 -16h151l4 16q-1 0 -9 1t-19 4.5t-15 11.5t-2.5 18t6.5 18l81 140h200l13 -193h-90l-4 -16h339l5 16h-87zM383 511l19 -286h-190z" />
    <glyph glyph-name="Aacute" unicode="&#xc1;" horiz-adv-x="675" 
d="M599 848l-98 -137l21 -12l168 149h-91zM537 681h-70l-367 -613q-7 -11 -17 -20.5t-23 -17.5q-8 -5 -20 -8.5t-20 -4.5t-9 -1l-5 -16h151l4 16q-1 0 -9 1t-19 4.5t-15 11.5t-2.5 18t6.5 18l81 140h200l13 -193h-90l-4 -16h339l5 16h-87zM383 511l19 -286h-190z" />
    <glyph glyph-name="Acircumflex" unicode="&#xc2;" horiz-adv-x="675" 
d="M629 711l-80 119h-38l-121 -119l9 -9l125 68l96 -67zM537 681h-70l-367 -613q-7 -11 -17 -20.5t-23 -17.5q-8 -5 -20 -8.5t-20 -4.5t-9 -1l-5 -16h151l4 16q-1 0 -9 1t-19 4.5t-15 11.5t-2.5 18t6.5 18l81 140h200l13 -193h-90l-4 -16h339l5 16h-87zM383 511l19 -286
h-190z" />
    <glyph glyph-name="Atilde" unicode="&#xc3;" horiz-adv-x="675" 
d="M544 814q-21 10 -42.5 16.5t-43.5 6.5q-31 0 -52 -9.5t-33.5 -23t-18 -27t-5.5 -20.5q0 -12 8 -12q9 0 13 14q4 16 17 26t30 10q14 0 26.5 -8.5t29.5 -16.5q23 -11 44 -15.5t53 -4.5q23 0 41 7.5t30 19t18 24.5t6 25q0 10 -8 10q-9 0 -14 -14q-2 -11 -9.5 -19.5
t-29.5 -8.5q-16 0 -31 6.5t-29 13.5zM537 681h-70l-367 -613q-7 -11 -17 -20.5t-23 -17.5q-8 -5 -20 -8.5t-20 -4.5t-9 -1l-5 -16h151l4 16q-1 0 -9 1t-19 4.5t-15 11.5t-2.5 18t6.5 18l81 140h200l13 -193h-90l-4 -16h339l5 16h-87zM383 511l19 -286h-190z" />
    <glyph glyph-name="Adieresis" unicode="&#xc4;" horiz-adv-x="675" 
d="M483 797q0 23 -15 40.5t-46 17.5q-35 0 -52.5 -21.5t-17.5 -45.5q0 -23 14 -40t45 -17q36 0 54 21t18 45zM669 797q0 23 -14.5 40.5t-46.5 17.5q-35 0 -52.5 -21.5t-17.5 -45.5q0 -23 14.5 -40t44.5 -17q36 0 54 21t18 45zM537 681h-70l-367 -613q-7 -11 -17 -20.5
t-23 -17.5q-8 -5 -20 -8.5t-20 -4.5t-9 -1l-5 -16h151l4 16q-1 0 -9 1t-19 4.5t-15 11.5t-2.5 18t6.5 18l81 140h200l13 -193h-90l-4 -16h339l5 16h-87zM383 511l19 -286h-190z" />
    <glyph glyph-name="Aring" unicode="&#xc5;" horiz-adv-x="675" 
d="M580 777q0 28 -20 48t-48 20t-48 -20t-20 -48t20 -48t48 -20t48 20t20 48zM462 777q0 21 14.5 35.5t35.5 14.5t35.5 -14.5t14.5 -35.5t-14.5 -35.5t-35.5 -14.5t-35.5 14.5t-14.5 35.5zM537 681h-70l-367 -613q-7 -11 -17 -20.5t-23 -17.5q-8 -5 -20 -8.5t-20 -4.5t-9 -1
l-5 -16h151l4 16q-1 0 -9 1t-19 4.5t-15 11.5t-2.5 18t6.5 18l81 140h200l13 -193h-90l-4 -16h339l5 16h-87zM383 511l19 -286h-190z" />
    <glyph glyph-name="AE" unicode="&#xc6;" horiz-adv-x="1043" 
d="M366 301l316 317l-85 -317h-231zM460 0h476q14 0 23 9t13 23l37 141q4 16 4 18q0 11 -7 11q-10 0 -17 -20q-11 -31 -28 -61t-40 -53t-52.5 -37.5t-65.5 -14.5h-123l88 330h72q27 0 37 -23t10 -57q0 -8 -0.5 -16.5t-0.5 -16.5q0 -14 9 -14q6 0 9 11l54 217q1 5 1 6v2
q0 9 -7 9t-11 -9q-18 -37 -41 -65t-55 -28h-72l78 294h93q31 0 52 -14t33.5 -34.5t17.5 -44.5t5 -45q0 -8 -0.5 -14t-0.5 -10q0 -12 7 -12t11 15l34 126q3 11 4.5 17.5t1.5 12.5q0 19 -25 19h-442l-4 -16h56l-588 -588q-9 -12 -19 -20.5t-24 -15.5q-14 -6 -25 -10.5
t-27 -5.5l-5 -16h168l4 16l-8.5 -0.5t-18.5 1t-19 5.5t-12 12q-1 6 2.5 14.5t7 14t4.5 6.5l217 216h241l-69 -270h-58z" />
    <glyph glyph-name="Ccedilla" unicode="&#xc7;" horiz-adv-x="648" 
d="M296 -60l22 43q36 0 67 8.5t55 19.5t40.5 23t23.5 18l29 -52q6 -9 12 -9q8 0 11 12l50 199q1 3 1 7q0 9 -7 9t-13 -9q-6 -10 -19 -29.5t-32 -42.5t-42.5 -47t-50.5 -44t-57 -32.5t-61 -12.5q-57 0 -82 22t-25 70q0 24 5.5 55t16.5 70q14 51 29 108.5t32 114.5t33.5 99.5
t39 70.5t54.5 42t81 14q34 0 60.5 -15t45 -40t28 -57t9.5 -66q0 -16 9 -16q7 0 10 11l46 172q1 4 1 10q0 9 -6 9t-17 -7l-42 -35q-23 19 -58.5 35t-90.5 16q-103 0 -184 -41.5t-137.5 -106t-86 -143.5t-29.5 -154q0 -50 13.5 -94.5t41.5 -79t70.5 -56t101.5 -25.5l-26 -51
q8 -3 14.5 -11t6.5 -21q0 -19 -11.5 -32.5t-31.5 -13.5q-14 0 -24 5.5t-16 13.5q-6 9 -10 9t-4 -6t3.5 -15t11 -17.5t19 -14t26.5 -5.5q29 0 52 15.5t23 49.5q0 21 -11.5 33.5t-19.5 16.5z" />
    <glyph glyph-name="Egrave" unicode="&#xc8;" horiz-adv-x="604" 
d="M354 848l123 -154l18 4l-58 150h-83zM608 482q7 0 11 15l34 126q3 11 4.5 17.5t1.5 12.5q0 19 -25 19h-445l-4 -16h55l-171 -640h-54l-4 -16h475q14 0 23 9t13 23l37 141q4 16 4 18q0 11 -7 11q-10 0 -17 -20q-11 -31 -28 -61t-40 -53t-52.5 -37.5t-65.5 -14.5h-123
l88 330h72q27 0 37 -23t10 -57q0 -8 -0.5 -16.5t-0.5 -16.5q0 -14 9 -14q6 0 9 11l54 217q1 5 1 6v2q0 9 -7 9t-11 -9q-18 -37 -41 -65t-55 -28h-72l78 294h93q31 0 52 -14t33.5 -34.5t17.5 -44.5t5 -45q0 -8 -0.5 -14t-0.5 -10q0 -12 7 -12z" />
    <glyph glyph-name="Eacute" unicode="&#xc9;" horiz-adv-x="604" 
d="M535 848l-104 -146l21 -12l175 158h-92zM608 482q7 0 11 15l34 126q3 11 4.5 17.5t1.5 12.5q0 19 -25 19h-445l-4 -16h55l-171 -640h-54l-4 -16h475q14 0 23 9t13 23l37 141q4 16 4 18q0 11 -7 11q-10 0 -17 -20q-11 -31 -28 -61t-40 -53t-52.5 -37.5t-65.5 -14.5h-123
l88 330h72q27 0 37 -23t10 -57q0 -8 -0.5 -16.5t-0.5 -16.5q0 -14 9 -14q6 0 9 11l54 217q1 5 1 6v2q0 9 -7 9t-11 -9q-18 -37 -41 -65t-55 -28h-72l78 294h93q31 0 52 -14t33.5 -34.5t17.5 -44.5t5 -45q0 -8 -0.5 -14t-0.5 -10q0 -12 7 -12z" />
    <glyph glyph-name="Ecircumflex" unicode="&#xca;" horiz-adv-x="604" 
d="M580 711l-80 119h-39l-120 -119l8 -9l125 68l97 -67zM608 482q7 0 11 15l34 126q3 11 4.5 17.5t1.5 12.5q0 19 -25 19h-445l-4 -16h55l-171 -640h-54l-4 -16h475q14 0 23 9t13 23l37 141q4 16 4 18q0 11 -7 11q-10 0 -17 -20q-11 -31 -28 -61t-40 -53t-52.5 -37.5
t-65.5 -14.5h-123l88 330h72q27 0 37 -23t10 -57q0 -8 -0.5 -16.5t-0.5 -16.5q0 -14 9 -14q6 0 9 11l54 217q1 5 1 6v2q0 9 -7 9t-11 -9q-18 -37 -41 -65t-55 -28h-72l78 294h93q31 0 52 -14t33.5 -34.5t17.5 -44.5t5 -45q0 -8 -0.5 -14t-0.5 -10q0 -12 7 -12z" />
    <glyph glyph-name="Edieresis" unicode="&#xcb;" horiz-adv-x="604" 
d="M429 797q0 23 -15 40.5t-46 17.5q-35 0 -52.5 -21.5t-17.5 -45.5q0 -23 14 -40t45 -17q36 0 54 21t18 45zM615 797q0 23 -14.5 40.5t-46.5 17.5q-35 0 -52.5 -21.5t-17.5 -45.5q0 -23 14.5 -40t44.5 -17q36 0 54 21t18 45zM608 482q7 0 11 15l34 126q3 11 4.5 17.5
t1.5 12.5q0 19 -25 19h-445l-4 -16h55l-171 -640h-54l-4 -16h475q14 0 23 9t13 23l37 141q4 16 4 18q0 11 -7 11q-10 0 -17 -20q-11 -31 -28 -61t-40 -53t-52.5 -37.5t-65.5 -14.5h-123l88 330h72q27 0 37 -23t10 -57q0 -8 -0.5 -16.5t-0.5 -16.5q0 -14 9 -14q6 0 9 11
l54 217q1 5 1 6v2q0 9 -7 9t-11 -9q-18 -37 -41 -65t-55 -28h-72l78 294h93q31 0 52 -14t33.5 -34.5t17.5 -44.5t5 -45q0 -8 -0.5 -14t-0.5 -10q0 -12 7 -12z" />
    <glyph glyph-name="Igrave" unicode="&#xcc;" horiz-adv-x="404" 
d="M205 848l124 -154l17 4l-58 150h-83zM473 656l4 16h-268l-5 -16h54l-171 -640h-54l-4 -16h273l4 16h-58l171 640h54z" />
    <glyph glyph-name="Iacute" unicode="&#xcd;" horiz-adv-x="404" 
d="M444 848l-104 -146l20 -12l175 158h-91zM473 656l4 16h-268l-5 -16h54l-171 -640h-54l-4 -16h273l4 16h-58l171 640h54z" />
    <glyph glyph-name="Icircumflex" unicode="&#xce;" horiz-adv-x="404" 
d="M470 725l-80 105h-38l-121 -105l9 -9l125 54l96 -53zM473 656l4 16h-268l-5 -16h54l-171 -640h-54l-4 -16h273l4 16h-58l171 640h54z" />
    <glyph glyph-name="Idieresis" unicode="&#xcf;" horiz-adv-x="404" 
d="M339 797q0 23 -15 40.5t-46 17.5q-35 0 -52.5 -21.5t-17.5 -45.5q0 -23 14 -40t45 -17q36 0 54 21t18 45zM525 797q0 23 -14.5 40.5t-46.5 17.5q-35 0 -52.5 -21.5t-17.5 -45.5q0 -23 14.5 -40t44.5 -17q36 0 54 21t18 45zM473 656l4 16h-268l-5 -16h54l-171 -640h-54
l-4 -16h273l4 16h-58l171 640h54z" />
    <glyph glyph-name="Eth" unicode="&#xd0;" horiz-adv-x="634" 
d="M318 320h88l14 53h-88l76 283h50q17 0 32.5 -6t27.5 -19t19 -35t7 -53q0 -21 -6 -53.5t-15.5 -72.5t-22.5 -86t-26 -94q-18 -64 -39.5 -106.5t-45.5 -68t-49 -36t-50 -10.5h-53zM157 320l-80 -304h-53l-7 -16h291q90 0 158.5 38t114 98t68.5 133.5t23 144.5
q0 52 -12 98.5t-37 82t-62 56.5t-87 21h-277l-5 -16h54l-75 -283h-71l-14 -53h71z" />
    <glyph glyph-name="Ntilde" unicode="&#xd1;" horiz-adv-x="606" 
d="M526 814q-21 10 -42.5 16.5t-43.5 6.5q-31 0 -52 -9.5t-33.5 -23t-18 -27t-5.5 -20.5q0 -12 8 -12q9 0 13 14q4 16 17 26t30 10q14 0 26.5 -8.5t29.5 -16.5q23 -11 44 -15.5t53 -4.5q23 0 41 7.5t30 19t18 24.5t6 25q0 10 -8 10q-9 0 -14 -14q-2 -11 -9.5 -19.5
t-29.5 -8.5q-16 0 -31 6.5t-29 13.5zM654 622q0 -8 -2 -18l-94 -349l-178 417h-195l-4 -16l42 -77l-137 -511q-8 -27 -26 -39.5t-42 -12.5l-5 -16h125l5 16q-22 0 -32 10.5t-10 26.5q0 5 2 15l128 481l238 -557h34l165 612q8 27 26 39.5t42 12.5l5 16h-125l-5 -16
q43 0 43 -34z" />
    <glyph glyph-name="Ograve" unicode="&#xd2;" horiz-adv-x="701" 
d="M371 848l124 -154l17 4l-58 150h-83zM67 234q0 -51 14.5 -96.5t45 -79.5t77.5 -54t112 -20q102 0 180.5 42t132 107t81 145t27.5 155q0 51 -14.5 96.5t-45 79.5t-78 54t-112.5 20q-68 0 -126 -19.5t-104.5 -52.5t-82 -77t-59.5 -94t-36 -103t-12 -103zM581 568
q0 -25 -5.5 -53.5t-13.5 -60.5l-65 -244q-10 -36 -22 -73t-32 -67t-49.5 -49t-74.5 -19q-59 0 -80 27.5t-21 67.5q0 26 6 54t13 55l65 241q12 43 26 82.5t35 69.5t50 48t71 18q54 0 75.5 -26t21.5 -71z" />
    <glyph glyph-name="Oacute" unicode="&#xd3;" horiz-adv-x="701" 
d="M585 848l-104 -146l20 -12l175 158h-91zM67 234q0 -51 14.5 -96.5t45 -79.5t77.5 -54t112 -20q102 0 180.5 42t132 107t81 145t27.5 155q0 51 -14.5 96.5t-45 79.5t-78 54t-112.5 20q-68 0 -126 -19.5t-104.5 -52.5t-82 -77t-59.5 -94t-36 -103t-12 -103zM581 568
q0 -25 -5.5 -53.5t-13.5 -60.5l-65 -244q-10 -36 -22 -73t-32 -67t-49.5 -49t-74.5 -19q-59 0 -80 27.5t-21 67.5q0 26 6 54t13 55l65 241q12 43 26 82.5t35 69.5t50 48t71 18q54 0 75.5 -26t21.5 -71z" />
    <glyph glyph-name="Ocircumflex" unicode="&#xd4;" horiz-adv-x="701" 
d="M629 725l-80 105h-38l-121 -105l9 -9l125 54l96 -53zM67 234q0 -51 14.5 -96.5t45 -79.5t77.5 -54t112 -20q102 0 180.5 42t132 107t81 145t27.5 155q0 51 -14.5 96.5t-45 79.5t-78 54t-112.5 20q-68 0 -126 -19.5t-104.5 -52.5t-82 -77t-59.5 -94t-36 -103t-12 -103z
M581 568q0 -25 -5.5 -53.5t-13.5 -60.5l-65 -244q-10 -36 -22 -73t-32 -67t-49.5 -49t-74.5 -19q-59 0 -80 27.5t-21 67.5q0 26 6 54t13 55l65 241q12 43 26 82.5t35 69.5t50 48t71 18q54 0 75.5 -26t21.5 -71z" />
    <glyph glyph-name="Otilde" unicode="&#xd5;" horiz-adv-x="701" 
d="M571 814q-21 10 -42.5 16.5t-43.5 6.5q-31 0 -52 -9.5t-33.5 -23t-18 -27t-5.5 -20.5q0 -12 8 -12q9 0 13 14q4 16 17 26t30 10q14 0 26.5 -8.5t29.5 -16.5q23 -11 44 -15.5t53 -4.5q23 0 41 7.5t30 19t18 24.5t6 25q0 10 -8 10q-9 0 -14 -14q-2 -11 -9.5 -19.5
t-29.5 -8.5q-16 0 -31 6.5t-29 13.5zM67 234q0 -51 14.5 -96.5t45 -79.5t77.5 -54t112 -20q102 0 180.5 42t132 107t81 145t27.5 155q0 51 -14.5 96.5t-45 79.5t-78 54t-112.5 20q-68 0 -126 -19.5t-104.5 -52.5t-82 -77t-59.5 -94t-36 -103t-12 -103zM581 568
q0 -25 -5.5 -53.5t-13.5 -60.5l-65 -244q-10 -36 -22 -73t-32 -67t-49.5 -49t-74.5 -19q-59 0 -80 27.5t-21 67.5q0 26 6 54t13 55l65 241q12 43 26 82.5t35 69.5t50 48t71 18q54 0 75.5 -26t21.5 -71z" />
    <glyph glyph-name="Odieresis" unicode="&#xd6;" horiz-adv-x="701" 
d="M487 797q0 23 -15 40.5t-46 17.5q-35 0 -52.5 -21.5t-17.5 -45.5q0 -23 14 -40t45 -17q36 0 54 21t18 45zM673 797q0 23 -14.5 40.5t-46.5 17.5q-35 0 -52.5 -21.5t-17.5 -45.5q0 -23 14.5 -40t44.5 -17q36 0 54 21t18 45zM67 234q0 -51 14.5 -96.5t45 -79.5t77.5 -54
t112 -20q102 0 180.5 42t132 107t81 145t27.5 155q0 51 -14.5 96.5t-45 79.5t-78 54t-112.5 20q-68 0 -126 -19.5t-104.5 -52.5t-82 -77t-59.5 -94t-36 -103t-12 -103zM581 568q0 -25 -5.5 -53.5t-13.5 -60.5l-65 -244q-10 -36 -22 -73t-32 -67t-49.5 -49t-74.5 -19
q-59 0 -80 27.5t-21 67.5q0 26 6 54t13 55l65 241q12 43 26 82.5t35 69.5t50 48t71 18q54 0 75.5 -26t21.5 -71z" />
    <glyph glyph-name="multiply" unicode="&#xd7;" horiz-adv-x="564" 
d="M38 449l196 -196l-196 -197l48 -48l196 197l197 -197l48 48l-197 197l197 196l-48 48l-197 -197l-196 197z" />
    <glyph glyph-name="Oslash" unicode="&#xd8;" horiz-adv-x="701" 
d="M737 433q0 75 -31 135.5t-97 90.5l37 61l-16 10l-39 -64q-46 17 -104 17q-68 0 -126 -19.5t-104.5 -52.5t-82 -77t-59.5 -94t-36 -103t-12 -103q0 -73 29 -132.5t92 -90.5l-46 -76l18 -11l48 79q45 -19 108 -19q102 0 180.5 42t132 107t81 145t27.5 155zM231 40l345 566
q3 -8 4 -17.5t1 -20.5q0 -25 -5.5 -53.5t-13.5 -60.5l-65 -244q-10 -36 -22 -73t-32 -67t-49.5 -49t-74.5 -19q-35 0 -56 10.5t-32 27.5zM484 665q32 0 52 -9.5t31 -27.5l-346 -564q-3 18 -3 33q0 26 6 54t13 55l65 241q12 43 26 82.5t35 69.5t50 48t71 18z" />
    <glyph glyph-name="Ugrave" unicode="&#xd9;" horiz-adv-x="626" 
d="M362 848l124 -154l17 4l-58 150h-83zM658 622q0 -9 -2 -17l-108 -391q-23 -86 -75.5 -136.5t-119.5 -50.5q-49 0 -77 23t-28 72q0 18 4 41.5t13 55.5l117 437h53l5 16h-269l-4 -16h53l-114 -430q-6 -23 -8.5 -45t-2.5 -36q0 -74 56 -114.5t149 -40.5q98 0 167.5 53
t98.5 162l107 399q8 27 25.5 39.5t41.5 12.5l5 16h-125l-5 -16q43 0 43 -34z" />
    <glyph glyph-name="Uacute" unicode="&#xda;" horiz-adv-x="626" 
d="M561 848l-104 -146l20 -12l176 158h-92zM658 622q0 -9 -2 -17l-108 -391q-23 -86 -75.5 -136.5t-119.5 -50.5q-49 0 -77 23t-28 72q0 18 4 41.5t13 55.5l117 437h53l5 16h-269l-4 -16h53l-114 -430q-6 -23 -8.5 -45t-2.5 -36q0 -74 56 -114.5t149 -40.5q98 0 167.5 53
t98.5 162l107 399q8 27 25.5 39.5t41.5 12.5l5 16h-125l-5 -16q43 0 43 -34z" />
    <glyph glyph-name="Ucircumflex" unicode="&#xdb;" horiz-adv-x="626" 
d="M608 725l-80 105h-39l-120 -105l8 -9l125 54l97 -53zM658 622q0 -9 -2 -17l-108 -391q-23 -86 -75.5 -136.5t-119.5 -50.5q-49 0 -77 23t-28 72q0 18 4 41.5t13 55.5l117 437h53l5 16h-269l-4 -16h53l-114 -430q-6 -23 -8.5 -45t-2.5 -36q0 -74 56 -114.5t149 -40.5
q98 0 167.5 53t98.5 162l107 399q8 27 25.5 39.5t41.5 12.5l5 16h-125l-5 -16q43 0 43 -34z" />
    <glyph glyph-name="Udieresis" unicode="&#xdc;" horiz-adv-x="626" 
d="M463 797q0 23 -15 40.5t-46 17.5q-35 0 -52.5 -21.5t-17.5 -45.5q0 -23 14 -40t45 -17q36 0 54 21t18 45zM649 797q0 23 -14.5 40.5t-46.5 17.5q-35 0 -52.5 -21.5t-17.5 -45.5q0 -23 14.5 -40t44.5 -17q36 0 54 21t18 45zM658 622q0 -9 -2 -17l-108 -391
q-23 -86 -75.5 -136.5t-119.5 -50.5q-49 0 -77 23t-28 72q0 18 4 41.5t13 55.5l117 437h53l5 16h-269l-4 -16h53l-114 -430q-6 -23 -8.5 -45t-2.5 -36q0 -74 56 -114.5t149 -40.5q98 0 167.5 53t98.5 162l107 399q8 27 25.5 39.5t41.5 12.5l5 16h-125l-5 -16q43 0 43 -34z
" />
    <glyph glyph-name="Yacute" unicode="&#xdd;" horiz-adv-x="671" 
d="M646 673l-4 -16q39 0 39 -24q0 -14 -14 -34l-199 -265l-78 322h54l4 16h-277l-4 -16h53l98 -360l-75 -280h-54l-4 -16h269l4 16h-54l82 306l206 274q23 29 50 45t59 16l4 16h-159zM605 848l-104 -146l21 -12l175 158h-92z" />
    <glyph glyph-name="Thorn" unicode="&#xde;" horiz-adv-x="585" 
d="M325 194h-66l88 332h35q38 0 62 -24t24 -82q0 -24 -9 -62.5t-26.5 -74.5t-44.5 -62.5t-63 -26.5zM352 542l30 114h52l5 16h-268l-4 -16h53l-171 -640h-52l-5 -17h268l5 17h-54l43 162h98q67 0 116.5 16t81 43.5t47 63.5t15.5 77q0 43 -13.5 74.5t-37 51t-55 29t-66.5 9.5
h-88z" />
    <glyph glyph-name="germandbls" unicode="&#xdf;" horiz-adv-x="585" 
d="M-71 -220q31 0 71.5 13.5t80 44t72.5 80.5t50 122q15 61 22 125t13.5 127.5t14.5 123.5t24 113q13 42 32.5 66.5t41 37.5t43 16.5t38.5 3.5q35 0 58 -23t23 -65q0 -43 -13.5 -75t-34 -56t-43.5 -42t-41 -33q-29 -24 -42 -39.5t-13 -31.5q0 -17 7 -27t26 -18
q21 -9 43 -26.5t40 -38t30 -42.5t12 -40q0 -21 -12.5 -37t-33 -27t-46 -17t-52.5 -6q-20 0 -20 2q0 3 6 5q8 4 14.5 13t6.5 29q0 23 -13 33.5t-31 10.5q-22 0 -35 -13.5t-13 -36.5q0 -35 24 -48.5t65 -13.5q57 0 97 17t65.5 45.5t37.5 65t12 76.5q0 27 -8.5 51.5t-23.5 44.5
t-34 35.5t-40 23.5q-19 7 -19 18q0 7 8 13q24 18 45 36.5t36.5 39t24.5 44.5t9 55q0 52 -36 86.5t-96 34.5q-50 0 -94.5 -11.5t-82.5 -36.5t-68 -64t-49 -94q-15 -42 -22 -90.5t-11.5 -100.5t-9.5 -105t-15 -103q-13 -63 -26.5 -113.5t-30.5 -86t-37.5 -54.5t-46.5 -19
q-6 0 -9 1q8 4 18.5 12.5t10.5 30.5q0 17 -11.5 34.5t-39.5 17.5q-24 0 -38 -15.5t-14 -37.5q0 -33 25.5 -47t57.5 -14z" />
    <glyph glyph-name="agrave" unicode="&#xe0;" horiz-adv-x="649" 
d="M200 660l124 -155l17 5l-58 150h-83zM615 430h-158l-19 -67q-18 45 -50.5 60t-66.5 15q-49 0 -96 -19t-83.5 -52.5t-58.5 -80.5t-22 -104q0 -45 14 -80.5t37.5 -59.5t52.5 -37t59 -13t53.5 8.5t41.5 21.5t30.5 26.5t20.5 24.5q2 -14 9.5 -29t21.5 -27.5t35.5 -20.5
t53.5 -8q39 0 67 14.5t47.5 35.5t32 44.5t20.5 41.5q1 2 1 5q0 8 -8 8q-5 0 -8 -6q-25 -52 -50.5 -76t-43.5 -24q-24 0 -24 34q0 14 4 29zM240 313q13 46 36.5 75t63.5 29q21 0 37.5 -10.5t28 -25.5t17 -30t5.5 -24q0 -2 -0.5 -5t-3.5 -13l-54 -195q-3 -12 -16.5 -29
t-32.5 -33t-40.5 -27.5t-42.5 -11.5q-24 0 -40.5 15t-16.5 47q0 14 2.5 28t6.5 28z" />
    <glyph glyph-name="aacute" unicode="&#xe1;" horiz-adv-x="649" 
d="M419 660l-111 -154l21 -11l191 165h-101zM615 430h-158l-19 -67q-18 45 -50.5 60t-66.5 15q-49 0 -96 -19t-83.5 -52.5t-58.5 -80.5t-22 -104q0 -45 14 -80.5t37.5 -59.5t52.5 -37t59 -13t53.5 8.5t41.5 21.5t30.5 26.5t20.5 24.5q2 -14 9.5 -29t21.5 -27.5t35.5 -20.5
t53.5 -8q39 0 67 14.5t47.5 35.5t32 44.5t20.5 41.5q1 2 1 5q0 8 -8 8q-5 0 -8 -6q-25 -52 -50.5 -76t-43.5 -24q-24 0 -24 34q0 14 4 29zM240 313q13 46 36.5 75t63.5 29q21 0 37.5 -10.5t28 -25.5t17 -30t5.5 -24q0 -2 -0.5 -5t-3.5 -13l-54 -195q-3 -12 -16.5 -29
t-32.5 -33t-40.5 -27.5t-42.5 -11.5q-24 0 -40.5 15t-16.5 47q0 14 2.5 28t6.5 28z" />
    <glyph glyph-name="acircumflex" unicode="&#xe2;" horiz-adv-x="649" 
d="M481 518l-89 134h-43l-134 -134l10 -9l138 76l108 -74zM615 430h-158l-19 -67q-18 45 -50.5 60t-66.5 15q-49 0 -96 -19t-83.5 -52.5t-58.5 -80.5t-22 -104q0 -45 14 -80.5t37.5 -59.5t52.5 -37t59 -13t53.5 8.5t41.5 21.5t30.5 26.5t20.5 24.5q2 -14 9.5 -29t21.5 -27.5
t35.5 -20.5t53.5 -8q39 0 67 14.5t47.5 35.5t32 44.5t20.5 41.5q1 2 1 5q0 8 -8 8q-5 0 -8 -6q-25 -52 -50.5 -76t-43.5 -24q-24 0 -24 34q0 14 4 29zM240 313q13 46 36.5 75t63.5 29q21 0 37.5 -10.5t28 -25.5t17 -30t5.5 -24q0 -2 -0.5 -5t-3.5 -13l-54 -195
q-3 -12 -16.5 -29t-32.5 -33t-40.5 -27.5t-42.5 -11.5q-24 0 -40.5 15t-16.5 47q0 14 2.5 28t6.5 28z" />
    <glyph glyph-name="atilde" unicode="&#xe3;" horiz-adv-x="649" 
d="M395 606q-21 10 -42.5 16.5t-43.5 6.5q-31 0 -52 -9.5t-33.5 -23t-18 -27t-5.5 -20.5q0 -12 8 -12q9 0 13 14q4 16 17 26t30 10q14 0 26.5 -8.5t29.5 -16.5q23 -11 44 -15.5t53 -4.5q23 0 41 7.5t30 19t18 24.5t6 25q0 10 -8 10q-9 0 -14 -14q-2 -11 -9.5 -19.5
t-29.5 -8.5q-16 0 -31 6.5t-29 13.5zM615 430h-158l-19 -67q-18 45 -50.5 60t-66.5 15q-49 0 -96 -19t-83.5 -52.5t-58.5 -80.5t-22 -104q0 -45 14 -80.5t37.5 -59.5t52.5 -37t59 -13t53.5 8.5t41.5 21.5t30.5 26.5t20.5 24.5q2 -14 9.5 -29t21.5 -27.5t35.5 -20.5t53.5 -8
q39 0 67 14.5t47.5 35.5t32 44.5t20.5 41.5q1 2 1 5q0 8 -8 8q-5 0 -8 -6q-25 -52 -50.5 -76t-43.5 -24q-24 0 -24 34q0 14 4 29zM240 313q13 46 36.5 75t63.5 29q21 0 37.5 -10.5t28 -25.5t17 -30t5.5 -24q0 -2 -0.5 -5t-3.5 -13l-54 -195q-3 -12 -16.5 -29t-32.5 -33
t-40.5 -27.5t-42.5 -11.5q-24 0 -40.5 15t-16.5 47q0 14 2.5 28t6.5 28z" />
    <glyph glyph-name="adieresis" unicode="&#xe4;" horiz-adv-x="649" 
d="M333 599q0 25 -16.5 44.5t-51.5 19.5q-38 0 -58 -24t-20 -51q0 -25 16 -44t50 -19q40 0 60 23.5t20 50.5zM540 599q0 25 -16.5 44.5t-51.5 19.5q-38 0 -58 -24t-20 -51q0 -25 16 -44t50 -19q40 0 60 23.5t20 50.5zM615 430h-158l-19 -67q-18 45 -50.5 60t-66.5 15
q-49 0 -96 -19t-83.5 -52.5t-58.5 -80.5t-22 -104q0 -45 14 -80.5t37.5 -59.5t52.5 -37t59 -13t53.5 8.5t41.5 21.5t30.5 26.5t20.5 24.5q2 -14 9.5 -29t21.5 -27.5t35.5 -20.5t53.5 -8q39 0 67 14.5t47.5 35.5t32 44.5t20.5 41.5q1 2 1 5q0 8 -8 8q-5 0 -8 -6
q-25 -52 -50.5 -76t-43.5 -24q-24 0 -24 34q0 14 4 29zM240 313q13 46 36.5 75t63.5 29q21 0 37.5 -10.5t28 -25.5t17 -30t5.5 -24q0 -2 -0.5 -5t-3.5 -13l-54 -195q-3 -12 -16.5 -29t-32.5 -33t-40.5 -27.5t-42.5 -11.5q-24 0 -40.5 15t-16.5 47q0 14 2.5 28t6.5 28z" />
    <glyph glyph-name="aring" unicode="&#xe5;" horiz-adv-x="649" 
d="M427 579q0 31 -22 53t-53 22t-53 -22t-22 -53t22 -53t53 -22t53 22t22 53zM296 579q0 23 16.5 39.5t39.5 16.5t39.5 -16.5t16.5 -39.5t-16.5 -39.5t-39.5 -16.5t-39.5 16.5t-16.5 39.5zM615 430h-158l-19 -67q-18 45 -50.5 60t-66.5 15q-49 0 -96 -19t-83.5 -52.5
t-58.5 -80.5t-22 -104q0 -45 14 -80.5t37.5 -59.5t52.5 -37t59 -13t53.5 8.5t41.5 21.5t30.5 26.5t20.5 24.5q2 -14 9.5 -29t21.5 -27.5t35.5 -20.5t53.5 -8q39 0 67 14.5t47.5 35.5t32 44.5t20.5 41.5q1 2 1 5q0 8 -8 8q-5 0 -8 -6q-25 -52 -50.5 -76t-43.5 -24
q-24 0 -24 34q0 14 4 29zM240 313q13 46 36.5 75t63.5 29q21 0 37.5 -10.5t28 -25.5t17 -30t5.5 -24q0 -2 -0.5 -5t-3.5 -13l-54 -195q-3 -12 -16.5 -29t-32.5 -33t-40.5 -27.5t-42.5 -11.5q-24 0 -40.5 15t-16.5 47q0 14 2.5 28t6.5 28z" />
    <glyph glyph-name="ae" unicode="&#xe6;" horiz-adv-x="751" 
d="M280 87q-9 -32 -33 -48.5t-46 -16.5q-31 0 -31 53q0 30 9.5 61t24.5 55.5t32.5 40.5t34.5 16q34 0 52 -6zM480 224l22 90q5 22 12.5 42t19 35t27 23.5t36.5 8.5q25 0 34.5 -17t9.5 -40q0 -66 -29 -108t-80 -42q-15 0 -28 3t-24 5zM454 132l21 77q16 -7 41.5 -11t55.5 -4
q98 0 145 35t47 87q0 25 -11 47.5t-32 39t-51.5 26.5t-70.5 10q-29 0 -50.5 -5t-38 -12.5t-29.5 -16.5t-24 -17q-18 21 -50.5 35t-92.5 14q-46 0 -78.5 -7.5t-53.5 -20t-30.5 -28.5t-9.5 -32q0 -26 15.5 -37t37.5 -11q29 0 43.5 16.5t14.5 35.5q0 12 -5.5 22t-16.5 15
q-4 1 -4 5q0 8 21 16t55 8q24 0 35.5 -15t11.5 -39q0 -8 -1.5 -16.5t-5.5 -25.5l-14 -61q-21 3 -55 3q-66 0 -114 -13t-79 -35.5t-46 -53t-15 -64.5q0 -48 33 -79.5t92 -31.5q33 0 56.5 5.5t40.5 14t28 18.5t19 18q11 -13 25.5 -23t38 -17.5t60 -11.5t91.5 -4
q71 0 125.5 37.5t92.5 93.5q7 10 7 17q0 6 -5 6q-7 0 -13 -9q-18 -26 -41.5 -48.5t-50 -39.5t-55 -27t-55.5 -10q-29 0 -46.5 14.5t-17.5 51.5q0 23 9 58z" />
    <glyph glyph-name="ccedilla" unicode="&#xe7;" horiz-adv-x="475" 
d="M235 -39l12 30q39 2 70.5 15t55.5 31.5t41.5 40t28.5 40.5q4 7 4 12q0 8 -8 8q-6 0 -10 -7q-17 -31 -39 -53.5t-46 -37t-48.5 -21.5t-46.5 -7q-27 0 -43.5 8t-24.5 20t-10.5 25t-2.5 24q0 16 5 44.5t12.5 61t16.5 64.5t16 54q10 30 20 50.5t23.5 33t31.5 18t42 5.5
q29 0 46 -4t17 -8q0 -3 -8 -4q-19 -2 -30.5 -18t-11.5 -36q0 -27 19 -41.5t44 -14.5q22 0 42 14t20 46q0 24 -12.5 39.5t-32 25t-43.5 13.5t-48 4q-73 0 -129 -23.5t-94.5 -61t-58 -83.5t-19.5 -92q0 -42 15.5 -75.5t41.5 -57t60 -37t70 -15.5l-16 -37q8 -3 14.5 -11.5
t6.5 -21.5q0 -22 -15 -34t-34 -12q-10 0 -19.5 4.5t-15.5 15.5q-5 9 -9 9t-4 -7v-4q0 -3 1 -6q5 -18 22 -28.5t38 -10.5q20 0 34.5 6.5t23.5 16.5t13.5 21.5t4.5 22.5q0 19 -11 30.5t-22 15.5z" />
    <glyph glyph-name="egrave" unicode="&#xe8;" horiz-adv-x="482" 
d="M211 660l123 -155l18 5l-58 150h-83zM498 318q0 22 -9.5 44t-29 38.5t-49 27t-70.5 10.5q-69 0 -123 -24.5t-90.5 -63.5t-55.5 -87t-19 -95q0 -36 11.5 -68.5t35 -57t59.5 -39.5t85 -15q39 0 73 10t62.5 27t51 38.5t39.5 45.5q4 5 5 9t1 7q0 9 -7 9q-6 0 -12 -8
q-38 -54 -91.5 -85.5t-117.5 -31.5q-27 0 -49 15.5t-22 44.5q0 17 2 29.5t7 33.5l16 68q19 -6 46 -10.5t57 -4.5q42 0 78 9t61.5 26t40 41.5t14.5 56.5zM232 314q6 21 14 40.5t19.5 34.5t27 24t35.5 9q26 0 37 -16.5t11 -42.5q0 -76 -35.5 -114.5t-90.5 -38.5q-12 0 -23 2
l-22 4z" />
    <glyph glyph-name="eacute" unicode="&#xe9;" horiz-adv-x="482" 
d="M414 660l-112 -154l22 -11l191 165h-101zM498 318q0 22 -9.5 44t-29 38.5t-49 27t-70.5 10.5q-69 0 -123 -24.5t-90.5 -63.5t-55.5 -87t-19 -95q0 -36 11.5 -68.5t35 -57t59.5 -39.5t85 -15q39 0 73 10t62.5 27t51 38.5t39.5 45.5q4 5 5 9t1 7q0 9 -7 9q-6 0 -12 -8
q-38 -54 -91.5 -85.5t-117.5 -31.5q-27 0 -49 15.5t-22 44.5q0 17 2 29.5t7 33.5l16 68q19 -6 46 -10.5t57 -4.5q42 0 78 9t61.5 26t40 41.5t14.5 56.5zM232 314q6 21 14 40.5t19.5 34.5t27 24t35.5 9q26 0 37 -16.5t11 -42.5q0 -76 -35.5 -114.5t-90.5 -38.5q-12 0 -23 2
l-22 4z" />
    <glyph glyph-name="ecircumflex" unicode="&#xea;" horiz-adv-x="482" 
d="M466 518l-89 134h-43l-134 -134l10 -9l138 76l108 -74zM498 318q0 22 -9.5 44t-29 38.5t-49 27t-70.5 10.5q-69 0 -123 -24.5t-90.5 -63.5t-55.5 -87t-19 -95q0 -36 11.5 -68.5t35 -57t59.5 -39.5t85 -15q39 0 73 10t62.5 27t51 38.5t39.5 45.5q4 5 5 9t1 7q0 9 -7 9
q-6 0 -12 -8q-38 -54 -91.5 -85.5t-117.5 -31.5q-27 0 -49 15.5t-22 44.5q0 17 2 29.5t7 33.5l16 68q19 -6 46 -10.5t57 -4.5q42 0 78 9t61.5 26t40 41.5t14.5 56.5zM232 314q6 21 14 40.5t19.5 34.5t27 24t35.5 9q26 0 37 -16.5t11 -42.5q0 -76 -35.5 -114.5t-90.5 -38.5
q-12 0 -23 2l-22 4z" />
    <glyph glyph-name="edieresis" unicode="&#xeb;" horiz-adv-x="482" 
d="M316 599q0 25 -16.5 44.5t-51.5 19.5q-38 0 -58 -24t-20 -51q0 -25 16 -44t50 -19q40 0 60 23.5t20 50.5zM523 599q0 25 -16.5 44.5t-51.5 19.5q-38 0 -58 -24t-20 -51q0 -25 16 -44t50 -19q40 0 60 23.5t20 50.5zM498 318q0 22 -9.5 44t-29 38.5t-49 27t-70.5 10.5
q-69 0 -123 -24.5t-90.5 -63.5t-55.5 -87t-19 -95q0 -36 11.5 -68.5t35 -57t59.5 -39.5t85 -15q39 0 73 10t62.5 27t51 38.5t39.5 45.5q4 5 5 9t1 7q0 9 -7 9q-6 0 -12 -8q-38 -54 -91.5 -85.5t-117.5 -31.5q-27 0 -49 15.5t-22 44.5q0 17 2 29.5t7 33.5l16 68
q19 -6 46 -10.5t57 -4.5q42 0 78 9t61.5 26t40 41.5t14.5 56.5zM232 314q6 21 14 40.5t19.5 34.5t27 24t35.5 9q26 0 37 -16.5t11 -42.5q0 -76 -35.5 -114.5t-90.5 -38.5q-12 0 -23 2l-22 4z" />
    <glyph glyph-name="igrave" unicode="&#xec;" horiz-adv-x="335" 
d="M135 660l124 -155l17 5l-58 150h-83zM217 60q0 5 1 12.5t6 24.5l99 365l-213 -32l-5 -17l57 7l-85 -311q-6 -24 -6 -42q0 -39 23 -59t62 -20q66 0 105 36.5t67 97.5q3 6 3 12q0 9 -7 9t-11 -9q-25 -50 -46.5 -72.5t-35.5 -22.5t-14 21z" />
    <glyph glyph-name="iacute" unicode="&#xed;" horiz-adv-x="335" 
d="M344 660l-112 -154l22 -11l191 165h-101zM217 60q0 5 1 12.5t6 24.5l99 365l-213 -32l-5 -17l57 7l-85 -311q-6 -24 -6 -42q0 -39 23 -59t62 -20q66 0 105 36.5t67 97.5q3 6 3 12q0 9 -7 9t-11 -9q-25 -50 -46.5 -72.5t-35.5 -22.5t-14 21z" />
    <glyph glyph-name="icircumflex" unicode="&#xee;" horiz-adv-x="335" 
d="M385 525l-88 133h-43l-135 -133l10 -10l139 76l107 -74zM217 60q0 5 1 12.5t6 24.5l99 365l-213 -32l-5 -17l57 7l-85 -311q-6 -24 -6 -42q0 -39 23 -59t62 -20q66 0 105 36.5t67 97.5q3 6 3 12q0 9 -7 9t-11 -9q-25 -50 -46.5 -72.5t-35.5 -22.5t-14 21z" />
    <glyph glyph-name="idieresis" unicode="&#xef;" horiz-adv-x="335" 
d="M217 60q0 5 1 12.5t6 24.5l99 365l-213 -32l-5 -17l57 7l-85 -311q-6 -24 -6 -42q0 -39 23 -59t62 -20q66 0 105 36.5t67 97.5q3 6 3 12q0 9 -7 9t-11 -9q-25 -50 -46.5 -72.5t-35.5 -22.5t-14 21zM244 599q0 25 -16.5 44.5t-51.5 19.5q-38 0 -58 -24t-20 -51
q0 -25 16 -44t50 -19q40 0 60 23.5t20 50.5zM451 599q0 25 -16.5 44.5t-51.5 19.5q-38 0 -58 -24t-20 -51q0 -25 16 -44t50 -19q40 0 60 23.5t20 50.5z" />
    <glyph glyph-name="eth" unicode="&#xf0;" horiz-adv-x="512" 
d="M385 361q0 -10 -2 -22.5t-7.5 -37t-16 -65t-28.5 -105.5q-6 -22 -13 -44.5t-17.5 -40.5t-24.5 -29.5t-35 -11.5q-32 0 -44 20.5t-12 47.5q0 9 1.5 20t6.5 32.5t14 58.5t25 98q7 27 15 51.5t20 43.5t28 30.5t40 11.5q29 0 39.5 -16.5t10.5 -41.5zM248 -12q57 0 106 22.5
t85 61.5t56.5 91t20.5 111q0 83 -17 139t-42.5 93t-55 59.5t-53.5 37.5l29 48l-32 20l-31 -50q-45 17 -97 17l-12 -33q25 0 46.5 -5.5t40.5 -15.5l-33 -53l32 -20l31 51q26 -24 41 -58.5t18 -73.5q-28 7 -65 7q-51 0 -98 -20.5t-83 -55.5t-57.5 -83t-21.5 -103
q0 -40 11.5 -74t35.5 -59t60 -39.5t85 -14.5z" />
    <glyph glyph-name="ntilde" unicode="&#xf1;" horiz-adv-x="572" 
d="M393 606q-21 10 -42.5 16.5t-43.5 6.5q-31 0 -52 -9.5t-33.5 -23t-18 -27t-5.5 -20.5q0 -12 8 -12q9 0 13 14q4 16 17 26t30 10q14 0 26.5 -8.5t29.5 -16.5q23 -11 44 -15.5t53 -4.5q23 0 41 7.5t30 19t18 24.5t6 25q0 10 -8 10q-9 0 -14 -14q-2 -11 -9.5 -19.5
t-29.5 -8.5q-16 0 -31 6.5t-29 13.5zM579 151q-6 0 -11 -8q-28 -48 -47 -69.5t-31 -21.5q-16 0 -16 26q0 6 2 15t7 29l43 158q5 17 6.5 30t1.5 21q0 45 -28.5 78t-81.5 33q-55 0 -90.5 -21t-61.5 -52l24 82l-214 -33l-5 -17l57 11l-110 -412h148l81 299q7 26 22 47t32 35.5
t33.5 22.5t27.5 8q16 0 22 -11.5t6 -28.5q0 -19 -10 -58l-48 -179q-8 -30 -8 -53q0 -40 20 -63.5t59 -23.5q61 0 104.5 40t69.5 101q2 6 2 9q0 6 -6 6z" />
    <glyph glyph-name="ograve" unicode="&#xf2;" horiz-adv-x="512" 
d="M222 660l123 -155l17 5l-58 150h-82zM56 175q0 -40 11.5 -74t35.5 -59t60 -39.5t85 -14.5q57 0 106 19.5t85 54t56.5 81.5t20.5 103q0 89 -52.5 140t-147.5 51q-51 0 -98 -20.5t-83 -55.5t-57.5 -83t-21.5 -103zM385 361q0 -10 -2 -22.5t-7.5 -37t-16 -65t-28.5 -105.5
q-6 -22 -13 -44.5t-17.5 -40.5t-24.5 -29.5t-35 -11.5q-32 0 -44 20.5t-12 47.5q0 9 1.5 20t6.5 32.5t14 58.5t25 98q7 27 15 51.5t20 43.5t28 30.5t40 11.5q29 0 39.5 -16.5t10.5 -41.5z" />
    <glyph glyph-name="oacute" unicode="&#xf3;" horiz-adv-x="512" 
d="M414 660l-112 -154l22 -11l191 165h-101zM56 175q0 -40 11.5 -74t35.5 -59t60 -39.5t85 -14.5q57 0 106 19.5t85 54t56.5 81.5t20.5 103q0 89 -52.5 140t-147.5 51q-51 0 -98 -20.5t-83 -55.5t-57.5 -83t-21.5 -103zM385 361q0 -10 -2 -22.5t-7.5 -37t-16 -65
t-28.5 -105.5q-6 -22 -13 -44.5t-17.5 -40.5t-24.5 -29.5t-35 -11.5q-32 0 -44 20.5t-12 47.5q0 9 1.5 20t6.5 32.5t14 58.5t25 98q7 27 15 51.5t20 43.5t28 30.5t40 11.5q29 0 39.5 -16.5t10.5 -41.5z" />
    <glyph glyph-name="ocircumflex" unicode="&#xf4;" horiz-adv-x="512" 
d="M474 518l-88 134h-43l-134 -134l9 -9l139 76l108 -74zM56 175q0 -40 11.5 -74t35.5 -59t60 -39.5t85 -14.5q57 0 106 19.5t85 54t56.5 81.5t20.5 103q0 89 -52.5 140t-147.5 51q-51 0 -98 -20.5t-83 -55.5t-57.5 -83t-21.5 -103zM385 361q0 -10 -2 -22.5t-7.5 -37
t-16 -65t-28.5 -105.5q-6 -22 -13 -44.5t-17.5 -40.5t-24.5 -29.5t-35 -11.5q-32 0 -44 20.5t-12 47.5q0 9 1.5 20t6.5 32.5t14 58.5t25 98q7 27 15 51.5t20 43.5t28 30.5t40 11.5q29 0 39.5 -16.5t10.5 -41.5z" />
    <glyph glyph-name="otilde" unicode="&#xf5;" horiz-adv-x="512" 
d="M385 606q-21 10 -42.5 16.5t-43.5 6.5q-31 0 -52 -9.5t-33.5 -23t-18 -27t-5.5 -20.5q0 -12 8 -12q9 0 13 14q4 16 17 26t30 10q14 0 26.5 -8.5t29.5 -16.5q23 -11 44 -15.5t53 -4.5q23 0 41 7.5t30 19t18 24.5t6 25q0 10 -8 10q-9 0 -14 -14q-2 -11 -9.5 -19.5
t-29.5 -8.5q-16 0 -31 6.5t-29 13.5zM56 175q0 -40 11.5 -74t35.5 -59t60 -39.5t85 -14.5q57 0 106 19.5t85 54t56.5 81.5t20.5 103q0 89 -52.5 140t-147.5 51q-51 0 -98 -20.5t-83 -55.5t-57.5 -83t-21.5 -103zM385 361q0 -10 -2 -22.5t-7.5 -37t-16 -65t-28.5 -105.5
q-6 -22 -13 -44.5t-17.5 -40.5t-24.5 -29.5t-35 -11.5q-32 0 -44 20.5t-12 47.5q0 9 1.5 20t6.5 32.5t14 58.5t25 98q7 27 15 51.5t20 43.5t28 30.5t40 11.5q29 0 39.5 -16.5t10.5 -41.5z" />
    <glyph glyph-name="odieresis" unicode="&#xf6;" horiz-adv-x="512" 
d="M323 599q0 25 -16.5 44.5t-51.5 19.5q-38 0 -58 -24t-20 -51q0 -25 16 -44t50 -19q40 0 60 23.5t20 50.5zM530 599q0 25 -16.5 44.5t-51.5 19.5q-38 0 -58 -24t-20 -51q0 -25 16 -44t50 -19q40 0 60 23.5t20 50.5zM56 175q0 -40 11.5 -74t35.5 -59t60 -39.5t85 -14.5
q57 0 106 19.5t85 54t56.5 81.5t20.5 103q0 89 -52.5 140t-147.5 51q-51 0 -98 -20.5t-83 -55.5t-57.5 -83t-21.5 -103zM385 361q0 -10 -2 -22.5t-7.5 -37t-16 -65t-28.5 -105.5q-6 -22 -13 -44.5t-17.5 -40.5t-24.5 -29.5t-35 -11.5q-32 0 -44 20.5t-12 47.5q0 9 1.5 20
t6.5 32.5t14 58.5t25 98q7 27 15 51.5t20 43.5t28 30.5t40 11.5q29 0 39.5 -16.5t10.5 -41.5z" />
    <glyph glyph-name="divide" unicode="&#xf7;" horiz-adv-x="371" 
d="M367 287h-266l-12 -43h266zM246 124q0 20 -13 35.5t-41 15.5q-30 0 -45.5 -19t-15.5 -39t13 -35.5t41 -15.5q30 0 45.5 18.5t15.5 39.5zM322 410q0 20 -13 35.5t-41 15.5q-30 0 -45.5 -19t-15.5 -39t13 -35.5t41 -15.5q30 0 45.5 18.5t15.5 39.5z" />
    <glyph glyph-name="oslash" unicode="&#xf8;" horiz-adv-x="515" 
d="M516 246q0 63 -26 106.5t-74 65.5l31 52l-18 9l-32 -54q-36 12 -81 12q-51 0 -98 -20.5t-83 -55.5t-57.5 -83t-21.5 -103q0 -57 22.5 -100.5t70.5 -66.5l-32 -53l18 -7l31 53q37 -13 82 -13q57 0 106 19.5t85 54t56.5 81.5t20.5 103zM190 40l195 326q0 -12 -2 -25.5
t-7.5 -38.5t-16 -65.5t-28.5 -105.5q-6 -22 -13 -44.5t-17.5 -40.5t-24.5 -29.5t-35 -11.5q-22 0 -34 9.5t-17 25.5zM335 419q33 0 44 -24l-194 -322q0 9 1.5 20t6.5 32.5t14 58.5t25 98q7 27 15 51.5t20 43.5t28 30.5t40 11.5z" />
    <glyph glyph-name="ugrave" unicode="&#xf9;" horiz-adv-x="598" 
d="M259 660l124 -155l17 5l-58 150h-83zM101 202q-13 -49 -13 -89t11 -65t27 -38.5t35 -18t35 -4.5q37 0 64 9t46 23t31.5 31t21.5 33q0 -18 3.5 -34.5t13 -30t26 -21.5t41.5 -8q36 0 62.5 9.5t48 27t39 43t34.5 58.5q1 2 1 6q0 10 -8 10q-6 0 -10 -10q-29 -56 -53.5 -77.5
t-41.5 -21.5q-10 0 -16 7.5t-6 18.5q0 3 0.5 6t1.5 7l95 357h-149l-75 -279q-10 -38 -25.5 -62.5t-32 -39.5t-31.5 -21t-24 -6q-13 0 -20.5 10.5t-7.5 36.5q0 15 3 36.5t11 49.5l76 291l-209 -26l-4 -16l56 7z" />
    <glyph glyph-name="uacute" unicode="&#xfa;" horiz-adv-x="598" 
d="M473 660l-112 -154l22 -11l191 165h-101zM101 202q-13 -49 -13 -89t11 -65t27 -38.5t35 -18t35 -4.5q37 0 64 9t46 23t31.5 31t21.5 33q0 -18 3.5 -34.5t13 -30t26 -21.5t41.5 -8q36 0 62.5 9.5t48 27t39 43t34.5 58.5q1 2 1 6q0 10 -8 10q-6 0 -10 -10
q-29 -56 -53.5 -77.5t-41.5 -21.5q-10 0 -16 7.5t-6 18.5q0 3 0.5 6t1.5 7l95 357h-149l-75 -279q-10 -38 -25.5 -62.5t-32 -39.5t-31.5 -21t-24 -6q-13 0 -20.5 10.5t-7.5 36.5q0 15 3 36.5t11 49.5l76 291l-209 -26l-4 -16l56 7z" />
    <glyph glyph-name="ucircumflex" unicode="&#xfb;" horiz-adv-x="598" 
d="M513 518l-88 134h-43l-135 -134l10 -9l139 76l107 -74zM101 202q-13 -49 -13 -89t11 -65t27 -38.5t35 -18t35 -4.5q37 0 64 9t46 23t31.5 31t21.5 33q0 -18 3.5 -34.5t13 -30t26 -21.5t41.5 -8q36 0 62.5 9.5t48 27t39 43t34.5 58.5q1 2 1 6q0 10 -8 10q-6 0 -10 -10
q-29 -56 -53.5 -77.5t-41.5 -21.5q-10 0 -16 7.5t-6 18.5q0 3 0.5 6t1.5 7l95 357h-149l-75 -279q-10 -38 -25.5 -62.5t-32 -39.5t-31.5 -21t-24 -6q-13 0 -20.5 10.5t-7.5 36.5q0 15 3 36.5t11 49.5l76 291l-209 -26l-4 -16l56 7z" />
    <glyph glyph-name="udieresis" unicode="&#xfc;" horiz-adv-x="598" 
d="M376 599q0 25 -16.5 44.5t-51.5 19.5q-38 0 -58 -24t-20 -51q0 -25 16 -44t50 -19q40 0 60 23.5t20 50.5zM583 599q0 25 -16.5 44.5t-51.5 19.5q-38 0 -58 -24t-20 -51q0 -25 16 -44t50 -19q40 0 60 23.5t20 50.5zM101 202q-13 -49 -13 -89t11 -65t27 -38.5t35 -18
t35 -4.5q37 0 64 9t46 23t31.5 31t21.5 33q0 -18 3.5 -34.5t13 -30t26 -21.5t41.5 -8q36 0 62.5 9.5t48 27t39 43t34.5 58.5q1 2 1 6q0 10 -8 10q-6 0 -10 -10q-29 -56 -53.5 -77.5t-41.5 -21.5q-10 0 -16 7.5t-6 18.5q0 3 0.5 6t1.5 7l95 357h-149l-75 -279
q-10 -38 -25.5 -62.5t-32 -39.5t-31.5 -21t-24 -6q-13 0 -20.5 10.5t-7.5 36.5q0 15 3 36.5t11 49.5l76 291l-209 -26l-4 -16l56 7z" />
    <glyph glyph-name="yacute" unicode="&#xfd;" horiz-adv-x="597" 
d="M185 303l77 -365q-8 -18 -29 -48.5t-48 -60t-56.5 -51t-53.5 -21.5q14 6 27 21t13 38q0 27 -17.5 45.5t-47.5 18.5q-18 0 -31 -6.5t-21.5 -16.5t-12.5 -23t-4 -25q0 -32 23.5 -53.5t58.5 -21.5q39 0 77 24.5t74.5 68t71.5 102t67 126.5q21 43 42.5 94t41 95t34.5 73
t22 29q2 0 4 -3q8 -22 24.5 -32t34.5 -10q25 0 45.5 17.5t20.5 46.5q0 32 -16.5 49.5t-45.5 17.5q-27 0 -45 -13q-15 -11 -33 -40t-36.5 -68t-37 -82.5t-34.5 -82.5l-50 223q-9 40 -36.5 56t-72.5 16q-34 0 -63 -14.5t-53 -35.5t-43 -45.5t-34 -44.5q-3 -3 -3 -7q0 -9 8 -9
q5 0 8 6q10 15 24 31t28 29.5t28 22.5t24 9q11 0 18 -4t11.5 -13.5t8 -25t8.5 -37.5zM473 660l-112 -154l22 -11l191 165h-101z" />
    <glyph glyph-name="thorn" unicode="&#xfe;" horiz-adv-x="569" 
d="M171 645l-8 -16l57 9l-242 -891h-55l-5 -16h276l4 16h-65l80 300q8 -21 26.5 -37t60.5 -16q64 0 114.5 26.5t85.5 68t53 92t18 98.5q0 33 -9 62.5t-27 51t-45.5 34.5t-64.5 13q-44 0 -73 -20t-51 -43l81 300zM233 124l50 188q3 10 14 27t27.5 33t36 27.5t39.5 11.5
q29 0 29 -39q0 -14 -6.5 -43.5t-16 -66t-20 -75.5t-19.5 -71q-14 -54 -31 -76t-44 -22q-29 0 -46.5 20.5t-17.5 53.5q0 5 0.5 11.5t4.5 20.5z" />
    <glyph glyph-name="ydieresis" unicode="&#xff;" horiz-adv-x="597" 
d="M365 599q0 25 -16.5 44.5t-51.5 19.5q-38 0 -58 -24t-20 -51q0 -25 16 -44t50 -19q40 0 60 23.5t20 50.5zM572 599q0 25 -16.5 44.5t-51.5 19.5q-38 0 -58 -24t-20 -51q0 -25 16 -44t50 -19q40 0 60 23.5t20 50.5zM185 303l77 -365q-8 -18 -29 -48.5t-48 -60t-56.5 -51
t-53.5 -21.5q14 6 27 21t13 38q0 27 -17.5 45.5t-47.5 18.5q-18 0 -31 -6.5t-21.5 -16.5t-12.5 -23t-4 -25q0 -32 23.5 -53.5t58.5 -21.5q39 0 77 24.5t74.5 68t71.5 102t67 126.5q21 43 42.5 94t41 95t34.5 73t22 29q2 0 4 -3q8 -22 24.5 -32t34.5 -10q25 0 45.5 17.5
t20.5 46.5q0 32 -16.5 49.5t-45.5 17.5q-27 0 -45 -13q-15 -11 -33 -40t-36.5 -68t-37 -82.5t-34.5 -82.5l-50 223q-9 40 -36.5 56t-72.5 16q-34 0 -63 -14.5t-53 -35.5t-43 -45.5t-34 -44.5q-3 -3 -3 -7q0 -9 8 -9q5 0 8 6q10 15 24 31t28 29.5t28 22.5t24 9q11 0 18 -4
t11.5 -13.5t8 -25t8.5 -37.5z" />
    <glyph glyph-name="NUL" unicode="&#xe000;" horiz-adv-x="0" 
 />
    <glyph glyph-name="HT" unicode="&#xe001;" horiz-adv-x="0" 
 />
    <glyph glyph-name="nonmarkingreturn" unicode="&#xe002;" horiz-adv-x="0" 
 />
    <glyph glyph-name="minus" unicode="&#xe003;" horiz-adv-x="455" 
d="M400 298h-344v-54h344v54z" />
    <glyph glyph-name="notequal" unicode="&#xe004;" horiz-adv-x="392" 
d="M409 261h-140l47 81h114l13 54h-97l49 83h-61l-46 -83h-127l-13 -54h108l-45 -81h-85l-15 -53h67l-47 -84h59l48 84h158z" />
    <glyph glyph-name="infinity" unicode="&#xe005;" horiz-adv-x="899" 
d="M458 298q-24 -23 -50 -44.5t-53 -38.5t-54 -27t-52 -10q-29 0 -43.5 20.5t-14.5 54.5q0 30 8 61.5t23.5 57.5t39 43t53.5 17q27 0 49 -12t39 -31.5t30.5 -43t24.5 -47.5zM519 302q19 18 42 39t49 39t55.5 30t61.5 12q30 0 45 -21t15 -56q0 -29 -8 -60t-23.5 -57
t-39.5 -43t-55 -17q-27 0 -48.5 12t-39 31.5t-30.5 43t-24 47.5zM769 474q-38 0 -73.5 -11.5t-68.5 -31t-64.5 -44t-62.5 -49.5q-17 28 -34 52.5t-40 43t-54.5 29.5t-76.5 11q-51 0 -90 -20.5t-65.5 -53t-40 -73.5t-13.5 -81q0 -23 5.5 -45t18 -38.5t33.5 -26.5t52 -10
q45 0 84 12.5t73.5 32.5t65 44t59.5 47q18 -37 35.5 -63t40 -42t53.5 -23.5t77 -7.5q51 0 90 21.5t65 55t39 73.5t13 77q0 23 -6 45t-20 39t-37.5 27t-57.5 10z" />
    <glyph glyph-name="lessequal" unicode="&#xe006;" horiz-adv-x="430" 
d="M424 559l-307 -161l236 -178l15 48l-173 126l214 111zM340 180h-264l-20 -51h263z" />
    <glyph glyph-name="greaterequal" unicode="&#xe007;" horiz-adv-x="441" 
d="M131 282l-15 -56l308 161l-221 161l-13 -49l152 -110zM380 178h-280l-22 -48h279z" />
    <glyph glyph-name="partialdiff" unicode="&#xe008;" 
d="M70 379l-3 -18h291l3 18h-291zM206 665q3 0 5 1q38 7 65 25l-68 -256h-25l-1 -7h116l1 7h-23l78 295h-38q-23 -14 -51 -32t-55 -25q-9 -4 -9 -6t5 -2zM118 248q0 -33 34 -33q14 0 24.5 9.5t10.5 28.5q0 12 -6.5 20.5t-17.5 8.5q-3 0 -3 1q0 3 13 8.5t30 5.5q16 0 22 -9
t6 -26q0 -11 -3 -27t-11 -31t-21 -25.5t-32 -10.5h-39q-7 0 -7 -5q0 -3 6 -3h38q34 0 34 -40q0 -14 -3.5 -34t-11.5 -38.5t-20.5 -31.5t-31.5 -13q-28 0 -39 9t-11 14q0 3 2 3h1q6 -2 10 -2q14 0 26 7.5t12 24.5t-10 25t-23 8q-20 0 -30 -13.5t-10 -28.5q0 -23 18 -39
t53 -16q42 0 68 11.5t40.5 27.5t19 32.5t4.5 27.5q0 32 -17.5 48t-40.5 21q44 5 67.5 28t23.5 53q0 26 -18.5 44t-60.5 18q-47 0 -71.5 -19t-24.5 -39z" />
    <glyph glyph-name="summation" unicode="&#xe009;" 
d="M62 379l-3 -18h292l3 18h-292zM196 664q3 0 5 1q38 7 65 25l-68 -256h-25l-1 -7h116l1 7h-23l78 295h-38q-23 -14 -51 -32t-55 -25q-9 -4 -9 -6t5 -2zM268 303h-44q-18 -18 -42 -44.5t-49 -55t-49 -57.5t-41 -52l-2 -10h101l-21 -76h-24l-2 -8h116l2 8h-24l20 76h42l7 27
h-41zM149 111h-81q12 16 27.5 34.5t31.5 37t31 34.5t27 28z" />
    <glyph glyph-name="product" unicode="&#xe00a;" 
d="M47 379l-3 -18h291l4 18h-292zM245 658q0 20 -13.5 27t-30.5 7q7 9 23.5 18.5t38.5 9.5q16 0 25.5 -12t9.5 -41q0 -47 -18.5 -74.5t-41.5 -46.5q-12 -10 -30 -22.5t-36 -27t-33 -30t-19 -30.5l-4 -12h172l43 82q3 6 3 11q0 2 -1 2q-3 0 -7 -7q-5 -10 -16.5 -23t-34.5 -13
h-106q17 14 39 22.5t40 17.5q22 9 43 22t36.5 30.5t25 39t9.5 47.5q0 36 -25 55.5t-61 19.5q-23 0 -43 -6.5t-34.5 -17t-23 -24.5t-8.5 -28q0 -19 12 -28t26 -9q16 0 28 10.5t12 30.5zM95 248q0 -33 34 -33q14 0 24.5 9.5t10.5 28.5q0 12 -6.5 20.5t-17.5 8.5q-3 0 -3 1
q0 3 13 8.5t30 5.5q16 0 22 -9t6 -26q0 -11 -3 -27t-11 -31t-21 -25.5t-32 -10.5h-39q-7 0 -7 -5q0 -3 6 -3h38q34 0 34 -40q0 -14 -3.5 -34t-11.5 -38.5t-20.5 -31.5t-31.5 -13q-28 0 -39 9t-11 14q0 3 2 3h1q6 -2 10 -2q14 0 26 7.5t12 24.5t-10 25t-23 8q-20 0 -30 -13.5
t-10 -28.5q0 -23 18 -39t53 -16q42 0 68 11.5t40.5 27.5t19 32.5t4.5 27.5q0 32 -17.5 48t-40.5 21q44 5 67.5 28t23.5 53q0 26 -18.5 44t-60.5 18q-47 0 -71.5 -19t-24.5 -39z" />
    <glyph glyph-name="pi" unicode="&#xe00b;" 
d="M55 368l-3 -17h291l3 17h-291zM193 667q0 -33 34 -33q14 0 24.5 9.5t10.5 28.5q0 12 -6.5 20.5t-17.5 8.5q-3 0 -3 1q0 3 13 8.5t30 5.5q16 0 22 -9t6 -26q0 -11 -3 -27t-11 -31t-21 -25.5t-32 -10.5h-39q-7 0 -7 -5q0 -3 6 -3h38q34 0 34 -40q0 -14 -3.5 -34
t-11.5 -38.5t-20.5 -31.5t-31.5 -13q-28 0 -39 9t-11 14q0 3 2 3h1q6 -2 10 -2q14 0 26 7.5t12 24.5t-10 25t-23 8q-20 0 -30 -13.5t-10 -28.5q0 -23 18 -39t53 -16q42 0 68 11.5t40.5 27.5t19 32.5t4.5 27.5q0 32 -17.5 48t-40.5 21q44 5 67.5 28t23.5 53q0 26 -18.5 44
t-60.5 18q-47 0 -71.5 -19t-24.5 -39zM260 303h-44q-18 -18 -42 -44.5t-49 -55t-49 -57.5t-41 -52l-2 -10h101l-21 -76h-24l-2 -8h116l2 8h-24l20 76h42l7 27h-41zM141 111h-81q12 16 27.5 34.5t31.5 37t31 34.5t27 28z" />
    <glyph glyph-name="integral" unicode="&#xe00c;" horiz-adv-x="876" 
d="M860 645h-645l-150 -645h645zM833 624l-139 -602h-603l140 602h602z" />
    <glyph glyph-name="radical" unicode="&#xe00d;" horiz-adv-x="707" 
d="M97 242l-38 -98q18 -10 32 -22t26.5 -29t24.5 -41t25 -57q89 168 205 290.5t253 203.5l15 108q-41 -21 -88 -58t-95 -84t-94 -100t-85 -106t-67.5 -101.5t-42.5 -86.5q-7 58 -24.5 106.5t-46.5 74.5z" />
    <glyph glyph-name="approxequal" unicode="&#xe00e;" horiz-adv-x="835" 
d="M402 277l22 126h124l-22 -126h-124zM400 544l-16 -92h-92q-42 0 -63 20.5t-21 53.5q0 23 7.5 44t22.5 36.5t36.5 25t49.5 9.5q40 0 59 -21.5t19 -53.5q0 -5 -0.5 -11t-1.5 -11zM281 403h94l-22 -126h-94q-36 0 -67.5 -13t-55 -35t-37.5 -51.5t-14 -62.5q0 -56 33 -90.5
t92 -34.5q34 0 62.5 11t50 30.5t35.5 46t19 56.5l16 94h124l-16 -94q-3 -17 -3 -30q0 -56 35.5 -85t89.5 -29q34 0 64.5 13t53.5 34.5t36.5 51t13.5 62.5q0 26 -8.5 49t-24 40t-38.5 27t-51 10h-94l22 126h94q41 0 73 15t54.5 38.5t34.5 52.5t12 58q0 25 -8.5 47t-24.5 39
t-39.5 27t-52.5 10q-71 0 -113.5 -38t-53.5 -106l-16 -94h-124l16 94q2 7 2 14v14q0 51 -32 83.5t-92 32.5q-37 0 -68 -13t-53 -35.5t-34.5 -52.5t-12.5 -63q0 -56 33.5 -89.5t88.5 -33.5zM815 567q0 -24 -8.5 -44.5t-24 -36.5t-37 -25t-47.5 -9h-92l16 92q8 46 35.5 71.5
t74.5 25.5q38 0 60.5 -20.5t22.5 -53.5zM550 136l16 92h92q38 0 61 -22t23 -55q0 -26 -9 -46.5t-25 -35t-36.5 -22.5t-43.5 -8q-38 0 -59 19t-21 55q0 5 0.5 11t1.5 12zM135 115q0 27 10.5 48t27.5 35.5t38 22t41 7.5h92l-16 -92q-7 -41 -35 -69t-75 -28q-38 0 -60.5 20.5
t-22.5 55.5z" />
    <glyph glyph-name="nonbreakingspace" unicode="&#xe00f;" horiz-adv-x="280" 
 />
    <glyph glyph-name="lozenge" unicode="&#xe010;" horiz-adv-x="449" 
d="M332 418l115 -148l-182 -150l-116 149zM97 275l161 -207l242 199l-160 207z" />
    <glyph glyph-name="apple" unicode="&#xe011;" horiz-adv-x="828" 
d="M279 556q-42 0 -78 -13.5t-62.5 -40.5t-42 -66t-15.5 -90q0 -39 12 -80.5t31.5 -81.5t45.5 -76t53 -63t53.5 -43t48.5 -16q42 0 71 35q8 9 20 14.5t24 5.5q14 0 23 -6.5t16 -13.5q30 -35 76 -35q42 0 77 25t61 59.5t44 69t26 54.5q-18 6 -37 18.5t-34.5 31t-25.5 41.5
t-10 49q0 51 19.5 90.5t64.5 61.5q-4 12 -16 24.5t-30 22.5t-41 16.5t-50 6.5q-26 0 -51 -5.5t-43 -19.5q-20 -16 -36 -22t-33 -6q-16 0 -28 6.5t-35 21.5q-18 12 -45 18.5t-53 6.5zM550 702q-21 0 -43.5 -13t-40.5 -33.5t-30 -45.5t-12 -49q0 -7 3.5 -11.5t14.5 -4.5
q18 0 39 14t39.5 35t31 45.5t12.5 45.5q0 17 -14 17z" />
    </font>
</defs>
</svg>
