<?xml version="1.0" standalone="no"?>
<!DOCTYPE svg PUBLIC "-//W3C//DTD SVG 1.1//EN" "http://www.w3.org/Graphics/SVG/1.1/DTD/svg11.dtd" >
<svg xmlns="http://www.w3.org/2000/svg" xmlns:xlink="http://www.w3.org/1999/xlink" version="1.1">
<metadata>
Created by FontForge 20170104 at Tue Nov 16 05:20:24 2004
 By myTaste
4.1 (c)1986-92 by Richard A. Ware. All Rights Reserved.
</metadata>
<defs>
<font id="BodoniFLF-Roman" horiz-adv-x="376" >
  <font-face 
    font-family="BodoniFLF"
    font-weight="500"
    font-stretch="normal"
    units-per-em="1000"
    panose-1="2 0 6 6 9 0 0 2 0 3"
    ascent="800"
    descent="-200"
    x-height="392"
    cap-height="672"
    bbox="-16 -268 1060 873"
    underline-thickness="20"
    underline-position="-176"
    unicode-range="U+0005-E011"
  />
<missing-glyph horiz-adv-x="500" 
 />
    <glyph glyph-name=".notdef" horiz-adv-x="500" 
 />
    <glyph glyph-name="breve" horiz-adv-x="371" 
d="M196 517q32 0 60.5 13.5t48.5 41.5l-13 13q-19 -20 -44.5 -30.5t-53.5 -10.5t-54.5 10.5t-46.5 30.5l-13 -13q23 -28 53.5 -41.5t62.5 -13.5z" />
    <glyph glyph-name="dotaccent" horiz-adv-x="357" 
d="M234 545q0 23 -15.5 38.5t-38.5 15.5t-38.5 -15.5t-15.5 -38.5t15.5 -38.5t38.5 -15.5t38.5 15.5t15.5 38.5z" />
    <glyph glyph-name="ring" horiz-adv-x="382" 
d="M274 552q0 31 -22 53t-53 22t-53 -22t-22 -53t22 -53t53 -22t53 22t22 53zM140 552q0 25 17 42t42 17t42 -17t17 -42t-17 -42t-42 -17t-42 17t-17 42z" />
    <glyph glyph-name="hungarumlaut" unicode="&#xa;" horiz-adv-x="468" 
d="M141 730l-8 -174l9 -1l76 212zM244 730l-7 -174l8 -1l77 212z" />
    <glyph glyph-name="ogonek" horiz-adv-x="360" 
d="M175 -92q0 42 22 92h-19q-15 -21 -27 -44t-12 -50q0 -30 18 -45.5t45 -15.5q23 0 42.5 9t19.5 14q0 6 -8 6q-4 0 -12 -2q-5 -1 -11.5 -2t-15.5 -1q-26 0 -34 12.5t-8 26.5z" />
    <glyph glyph-name="caron" horiz-adv-x="428" 
d="M207 479h6l132 133l-6 3l-129 -67l-128 67l-7 -3z" />
    <glyph glyph-name="dotlessi" unicode="&#xd;" horiz-adv-x="294" 
d="M197 16v376h-161v-16h75v-360h-75v-16h236v16h-75z" />
    <glyph glyph-name="fraction" horiz-adv-x="575" 
d="M527 720l-532 -790h43l532 790h-43z" />
    <glyph glyph-name="fi" horiz-adv-x="516" 
d="M341 376v-360h-156v360h156zM24 16v-16h478v16h-75v376h-242v145q0 66 20.5 95.5t68.5 29.5q40 0 67.5 -10t27.5 -21q0 -3 -4 -4q-14 -5 -23.5 -18t-9.5 -32q0 -20 15.5 -35t40.5 -15q26 0 39 15t13 38q0 22 -14 40t-37 31t-53 20t-63 7q-86 0 -130 -52.5t-44 -150.5v-83
h-74v-16h74v-360h-75z" />
    <glyph glyph-name="fl" horiz-adv-x="516" 
d="M427 673l-86 -25v-8q-9 12 -32.5 25t-61.5 13q-45 0 -74 -19.5t-45.5 -50.5t-22.5 -70t-6 -78v-68h-75v-16h75v-360h-75v-16h478v16h-75v657zM185 376h75v16h-75v182q0 15 2 31t9.5 28.5t22 20.5t38.5 8q11 0 23.5 -4t12.5 -6t-4 -3q-11 -3 -18.5 -14.5t-7.5 -24.5
q0 -16 13 -28t30 -12q12 0 22 5t14 12l-1 -571h-156v360z" />
    <glyph glyph-name="Lslash" horiz-adv-x="599" 
d="M116 262l-73 -74v-24l73 74v-222h-83v-16h512q18 0 23.5 10.5t5.5 21.5v150q0 24 -8 24q-7 0 -11 -21q-8 -38 -17 -69t-24 -53.5t-38 -34.5t-58 -12h-205v294l129 129v24l-129 -129v323h93v16h-273v-16h83v-395z" />
    <glyph glyph-name="lslash" horiz-adv-x="285" 
d="M105 280l-79 -79v-24l79 79v-240h-68v-16h224v16h-70v315l77 77v24l-77 -77v317h-154v-16h68v-376z" />
    <glyph glyph-name="Zcaron" horiz-adv-x="509" 
d="M34 26v-26h449v201h-16q-2 -51 -13 -86.5t-30 -57t-45.5 -31.5t-60.5 -10h-191l349 632v24h-437v-174h14q1 46 12.5 76.5t30 48.5t41.5 25.5t49 7.5h193zM276 699l133 133l-7 4l-129 -68l-128 68l-6 -4l131 -133h6z" />
    <glyph glyph-name="zcaron" horiz-adv-x="402" 
d="M362 392h-292v-120h12q3 31 11 51t20 32t27.5 16.5t33.5 4.5h101l-223 -354v-22h320v131h-12q-4 -60 -28.5 -87.5t-72.5 -27.5h-117l220 352v24zM207 479h6l132 133l-6 3l-129 -67l-128 67l-7 -3z" />
    <glyph glyph-name="space" unicode=" " horiz-adv-x="269" 
 />
    <glyph glyph-name="exclam" unicode="!" horiz-adv-x="269" 
d="M134 167h12q3 44 7 105t15 122q3 15 8 36.5t10 46.5t8.5 51.5t3.5 50.5q0 27 -5.5 45t-13.5 28t-18 14t-20 4q-11 0 -21.5 -4t-18.5 -14t-13.5 -28t-5.5 -45q0 -24 3.5 -50.5t8.5 -51.5t10 -46.5t8 -36.5q11 -61 15 -122t7 -105zM196 50q0 23 -15.5 38.5t-38.5 15.5
t-38.5 -15.5t-15.5 -38.5t15.5 -38.5t38.5 -15.5t38.5 15.5t15.5 38.5z" />
    <glyph glyph-name="quotedbl" unicode="&#x22;" horiz-adv-x="325" 
d="M255 499q0 -17 -16 -17t-16 17q0 5 0.5 10.5t0.5 10.5q0 29 -4.5 50.5t-9.5 38.5q-5 18 -10 31.5t-5 25.5t9.5 28t34.5 16t34.5 -16t9.5 -28t-5 -25.5t-10 -31.5q-5 -17 -9.5 -38.5t-4.5 -50.5q0 -5 0.5 -10.5t0.5 -10.5zM115 499q0 -17 -16 -17t-16 17q0 5 0.5 10.5
t0.5 10.5q0 29 -4.5 50.5t-9.5 38.5q-5 18 -10 31.5t-5 25.5t9.5 28t34.5 16t34.5 -16t9.5 -28t-5 -25.5t-10 -31.5q-5 -17 -9.5 -38.5t-4.5 -50.5q0 -5 0.5 -10.5t0.5 -10.5z" />
    <glyph glyph-name="numbersign" unicode="#" horiz-adv-x="570" 
d="M233 428l33 132h-26l-32 -132h-146l-8 -26h147l-29 -120h-134l-9 -26h137l-33 -133h26l32 133h147l-34 -138h26l33 138h141l9 26h-143l29 120h135l9 26h-138l33 132h-26l-32 -132h-147zM198 282l29 120h146l-29 -120h-146z" />
    <glyph glyph-name="dollar" unicode="$" horiz-adv-x="581" 
d="M346 -70v67q48 7 82 25t56.5 44t33 59.5t10.5 71.5q0 42 -14 75t-38.5 56.5t-57.5 38t-72 20.5v265q14 -2 28.5 -6t26.5 -9.5t19.5 -11t7.5 -10.5q0 -8 -8 -12q-26 -13 -26 -43q0 -20 14 -32t34 -12q25 0 37.5 15t12.5 37q0 31 -35.5 59t-110.5 41v69h-16v-68q-9 2 -19 2
h-19q-28 0 -47 -3v69h-16v-72q-78 -19 -122 -70t-44 -120t43.5 -117.5t122.5 -59.5v-282q-23 3 -44 9.5t-37.5 14t-26.5 16t-10 15.5q0 5 11 10t18.5 16.5t7.5 25.5q0 16 -12 29.5t-34 13.5q-19 0 -32 -13t-13 -35q0 -23 14 -42.5t38 -34.5t55 -25.5t65 -16.5v-69h16v67
q25 -3 48 -3h18t19 2v-66h16zM330 285v-272q-21 -3 -41 -3q-11 0 -20.5 1t-23.5 3v281q19 -3 40 -5t45 -5zM346 284q76 -14 108 -44t32 -84q0 -36 -13 -61t-33 -41.5t-45 -25.5t-49 -12v268zM330 653v-264q-21 4 -44.5 5.5t-40.5 4.5v252q11 2 23 3t25 1q10 0 19.5 -0.5
t17.5 -1.5zM229 647v-246q-65 14 -93.5 39.5t-28.5 69.5q0 49 32.5 86.5t89.5 50.5z" />
    <glyph glyph-name="percent" unicode="%" horiz-adv-x="748" 
d="M166 -4l445 687h-35l-445 -687h35zM34 491q0 -36 10.5 -71t31 -62.5t51.5 -44.5t73 -17q40 0 69.5 16.5t49 44t29 62.5t9.5 72q0 36 -10 70.5t-30 61.5t-50 43.5t-71 16.5t-71 -16.5t-50.5 -43.5t-30.5 -61.5t-10 -70.5zM118 503q0 33 1.5 63t9 53t23 37t44.5 14
q28 0 43.5 -13.5t23 -36.5t9 -53.5t1.5 -63.5v-24q0 -36 -1.5 -67t-8.5 -54t-22 -36t-41 -13q-30 0 -47 14t-24.5 37t-9 54t-1.5 65v24zM387 184q0 -36 10.5 -71t31 -62.5t51.5 -44.5t73 -17q40 0 69.5 16.5t49 44t29 62.5t9.5 72q0 36 -10 70.5t-30 61.5t-50 43.5t-71 16.5
t-71 -16.5t-50.5 -43.5t-30.5 -61.5t-10 -70.5zM471 196q0 33 1.5 63t9 53t23 37t44.5 14q28 0 43.5 -13.5t23 -36.5t9 -53.5t1.5 -63.5v-24q0 -36 -1.5 -67t-8.5 -54t-22 -36t-41 -13q-30 0 -47 14t-24.5 37t-9 54t-1.5 65v24z" />
    <glyph glyph-name="ampersand" unicode="&#x26;" horiz-adv-x="753" 
d="M715 16h-105l-91 136q55 56 85 116t41 124h85v16h-195v-16h89q-9 -54 -38 -111t-81 -108l-168 256q36 19 60.5 35.5t39.5 33.5t21.5 36t6.5 43q0 50 -36 75.5t-90 25.5q-35 0 -63.5 -11t-48.5 -30t-30.5 -44t-10.5 -53q0 -16 4 -33t14 -31l47 -71q-114 -54 -170 -116.5
t-56 -138.5q0 -77 46.5 -119t123.5 -42q54 0 99.5 16t80 36t55.5 37.5t25 20.5l64 -99h196v16zM405 565q0 -27 -5 -45.5t-15 -32t-25 -23.5t-34 -19l-63 94q-10 14 -13 29t-3 29q0 34 23 50.5t54 16.5q23 0 38.5 -10t25 -24.5t13.5 -32t4 -32.5zM120 229q0 27 9 49t27 41
t44.5 36t61.5 34l179 -270q-17 -12 -37 -26t-42 -25t-45.5 -18.5t-45.5 -7.5q-34 0 -61.5 19t-47.5 47t-31 61t-11 60z" />
    <glyph glyph-name="quotesingle" unicode="'" horiz-adv-x="210" 
d="M125 499q0 -17 -16 -17t-16 17q0 5 0.5 10.5t0.5 10.5q0 29 -4.5 50.5t-9.5 38.5q-5 18 -10 31.5t-5 25.5t9.5 28t34.5 16t34.5 -16t9.5 -28t-5 -25.5t-10 -31.5q-5 -17 -9.5 -38.5t-4.5 -50.5q0 -5 0.5 -10.5t0.5 -10.5z" />
    <glyph glyph-name="parenleft" unicode="(" horiz-adv-x="231" 
d="M107 311q0 53 4.5 108.5t13.5 107.5t23 98t34 79q7 13 7 20q0 6 -4 6t-13 -9q-33 -34 -57.5 -81t-41 -101t-24.5 -112.5t-8 -115.5t8 -115.5t24.5 -112.5t41 -101t57.5 -81q4 -6 10 -6q5 0 5 7q0 8 -5 16q-20 33 -34 78.5t-23 97.5t-13.5 108t-4.5 109z" />
    <glyph glyph-name="parenright" unicode=")" horiz-adv-x="231" 
d="M127 311q0 -53 -4.5 -109t-13.5 -108t-23.5 -97.5t-33.5 -78.5q-5 -8 -5 -16q0 -7 5 -7t10 6q33 34 57.5 81t41 101t24.5 112.5t8 115.5t-8 115.5t-24.5 112.5t-41 101t-57.5 81q-9 9 -13 9t-4 -6q0 -7 7 -20q19 -33 33.5 -79t23.5 -98t13.5 -107.5t4.5 -108.5z" />
    <glyph glyph-name="asterisk" unicode="*" horiz-adv-x="409" 
d="M218 540q12 -8 41 -22t74 -21q21 -3 29.5 -13t8.5 -21q0 -13 -9 -23.5t-23 -10.5q-18 0 -33 19q-29 35 -55.5 54.5t-39.5 26.5q0 -28 4.5 -60t17.5 -62q5 -13 5 -22q0 -17 -10 -25t-23 -8q-12 0 -22.5 8t-10.5 25q0 10 5 22q13 30 17.5 62t4.5 60q-11 -6 -39 -24.5
t-57 -54.5q-15 -19 -34 -19q-14 0 -23 10t-9 23q0 11 9 20.5t29 12.5q47 8 76.5 22t40.5 21q-11 7 -40.5 21t-76.5 22q-20 3 -29 12.5t-9 20.5q0 13 9 23t23 10q19 0 34 -19q29 -36 57 -54.5t39 -24.5q0 28 -4.5 60t-17.5 62q-5 12 -5 22q0 17 10.5 25t22.5 8q13 0 23 -8
t10 -25q0 -9 -5 -22q-13 -30 -17.5 -62t-4.5 -60q13 7 39.5 26.5t55.5 54.5q15 19 33 19q14 0 23 -10.5t9 -23.5q0 -11 -8.5 -21t-29.5 -13q-45 -7 -74 -21t-41 -22z" />
    <glyph glyph-name="plus" unicode="+" horiz-adv-x="387" 
d="M170 304h-135v-54h135v-135h54v135h135v54h-135v135h-54v-135z" />
    <glyph glyph-name="comma" unicode="," horiz-adv-x="263" 
d="M217 49q0 31 -20.5 50.5t-49.5 19.5t-47 -15.5t-18 -41.5q0 -25 16 -38.5t40 -13.5q16 0 29 9t15 26q0 9 3 9q9 0 9 -24q0 -13 -5.5 -29.5t-17 -33.5t-29.5 -32.5t-43 -25.5q-5 -3 -5 -5q0 -3 5 -3q2 0 6 2q30 12 51 29t34.5 37t20 41t6.5 39z" />
    <glyph glyph-name="hyphen" unicode="-" horiz-adv-x="280" 
d="M235 298h-179v-54h179v54z" />
    <glyph glyph-name="period" unicode="." horiz-adv-x="215" 
d="M163 50q0 23 -15.5 38.5t-38.5 15.5t-38.5 -15.5t-15.5 -38.5t15.5 -38.5t38.5 -15.5t38.5 15.5t15.5 38.5z" />
    <glyph glyph-name="slash" unicode="/" horiz-adv-x="280" 
d="M247 720l-247 -790h27l247 790h-27z" />
    <glyph glyph-name="zero" unicode="0" horiz-adv-x="538" 
d="M31 328q0 -65 17.5 -126.5t49 -109.5t75.5 -77.5t97 -29.5t97 29.5t75.5 77.5t49 109.5t17.5 126.5q0 64 -17.5 126t-49 110t-75.5 77.5t-97 29.5t-97 -29.5t-75.5 -77.5t-49 -110t-17.5 -126zM270 1q-30 0 -54 11.5t-40.5 40.5t-25.5 77.5t-9 122.5v150q0 74 9 122.5
t25.5 77.5t40.5 40.5t54 11.5t54 -11t40.5 -39t25.5 -77t9 -125v-150q0 -74 -9 -122.5t-25.5 -77.5t-40.5 -40.5t-54 -11.5z" />
    <glyph glyph-name="one" unicode="1" horiz-adv-x="538" 
d="M336 659l-9 7l-194 -25v-16l106 13v-622h-101v-16h299v16h-101v643z" />
    <glyph glyph-name="two" unicode="2" horiz-adv-x="538" 
d="M136 568q-4 0 -7 -0.5t-7 -1.5q-2 0 -2.5 -0.5t-1.5 -0.5q-9 0 -9 11q0 15 13 28.5t33 23t44.5 15t48.5 5.5q69 0 100.5 -37.5t31.5 -110.5q0 -66 -22.5 -118t-72.5 -100l-245 -230v-52h443l11 186v8q0 24 -7 24q-5 0 -7 -6.5t-6 -23.5q-11 -49 -31.5 -77.5t-65.5 -28.5
h-281l212 184q36 31 67.5 61t55 60.5t37.5 62t14 64.5q0 43 -18.5 72.5t-48.5 48t-67.5 26.5t-74.5 8q-44 0 -83.5 -10t-69.5 -29.5t-47.5 -47.5t-17.5 -64q0 -30 18 -49t50 -19q25 0 46.5 15t21.5 46q0 20 -15.5 38.5t-39.5 18.5z" />
    <glyph glyph-name="three" unicode="3" horiz-adv-x="538" 
d="M92 560q0 -29 17 -45t41 -16q27 0 44 14.5t17 38.5t-12 37t-29 18q-9 3 -9 12q0 5 6 10q14 11 41 18.5t56 7.5q39 0 62 -13t34.5 -33t14.5 -44t3 -47q0 -41 -10.5 -70t-29.5 -47.5t-44 -27t-55 -8.5q-16 0 -35.5 2t-32.5 2q-12 0 -18 -4.5t-6 -10.5q0 -5 6 -9.5t18 -4.5
q13 0 32.5 1.5t35.5 1.5q45 0 74.5 -14.5t46.5 -38t23.5 -52.5t6.5 -57q0 -45 -10.5 -79t-29.5 -56.5t-44 -34t-55 -11.5q-26 0 -54.5 8.5t-46.5 23.5q-7 6 -7 14q0 3 2 7t7 6t13.5 5.5t16 10.5t13 17.5t5.5 26.5q0 34 -19 50t-45 16t-45 -18t-19 -51t17.5 -58t44.5 -41.5
t61 -25t67 -8.5q49 0 90 16t71 43.5t46.5 63.5t16.5 77q0 63 -39 107t-124 62q18 1 43.5 11.5t49.5 30t41 48.5t17 68q0 42 -17 72t-45.5 50t-65 29.5t-75.5 9.5q-50 0 -84 -12t-55 -29.5t-30.5 -36.5t-9.5 -33z" />
    <glyph glyph-name="four" unicode="4" horiz-adv-x="538" 
d="M371 689h-40l-11 -15.5t-34 -49.5t-58.5 -88t-85.5 -131q-22 -33 -41 -65t-33.5 -57t-22.5 -40.5l-8 -15.5v-21h239v-190h-88v-16h272v16h-89v190h117v-94h16v211h-16v-101h-117v467zM56 222q3 6 15 27t27.5 48.5t33.5 57.5t33 54q12 19 30 45.5t35 52t30 44.5t16 24
v-353h-220z" />
    <glyph glyph-name="five" unicode="5" horiz-adv-x="538" 
d="M382 657h-254q-20 0 -29 -10.5t-9 -28.5v-247q28 15 58 21.5t83 6.5q36 0 66.5 -13t53 -37.5t35 -60t12.5 -81.5q0 -103 -40.5 -154.5t-112.5 -51.5q-36 0 -64.5 10.5t-49.5 28.5q-7 6 -7 12q0 3 1 6t6 5q7 2 16 5t17 9t13.5 16t5.5 25q0 29 -17.5 43t-40.5 14t-41 -16.5
t-18 -46.5q0 -32 16.5 -56t42.5 -40t58 -24.5t62 -8.5q49 0 94.5 15.5t81 44.5t57 70.5t21.5 94.5q0 57 -23 97t-61 65.5t-86 37.5t-98 12q-53 0 -79.5 -6t-41.5 -12v169h244q25 0 41.5 10.5t26.5 25t14.5 30.5t4.5 27q0 23 -10 23q-5 0 -7.5 -3.5t-4.5 -10.5
q-2 -10 -10 -13t-27 -3z" />
    <glyph glyph-name="six" unicode="6" horiz-adv-x="538" 
d="M173 355q5 67 20 114t50 82q19 20 43 37t50 30.5t53 23.5t52 16v24q-24 -4 -56 -14t-69 -27t-75 -43.5t-74 -63.5q-56 -58 -87 -129.5t-31 -145.5q0 -61 20 -112.5t53 -89t76.5 -58.5t90.5 -21q48 0 88 18t69.5 49t45.5 71.5t16 85.5q0 41 -13.5 81t-40 72t-65.5 51.5
t-90 19.5q-43 0 -75.5 -18t-50.5 -53zM169 255q0 23 2.5 39t4.5 25q10 35 38.5 62t76.5 27q34 0 55.5 -11.5t33.5 -31.5t16 -47t4 -59v-91q0 -35 -3.5 -66.5t-15.5 -55t-34.5 -37t-59.5 -13.5q-36 0 -59 13t-36 36t-18 53.5t-5 66.5v90z" />
    <glyph glyph-name="seven" unicode="7" horiz-adv-x="538" 
d="M77 485h15q11 48 27.5 67t42.5 19h272l-166 -304q-39 -73 -54 -122.5t-15 -88.5q0 -30 11.5 -51.5t44.5 -21.5q14 0 24 6.5t16 16.5t9 23t3 26q0 15 -3 25t-7 23q-7 22 -12 38.5t-5 45.5q0 24 7 56t28 71l176 324l-13 18h-366z" />
    <glyph glyph-name="eight" unicode="8" horiz-adv-x="538" 
d="M289 349q34 4 65.5 16t55.5 32.5t38 49t14 64.5q0 35 -15.5 63.5t-41.5 48t-60.5 30t-72.5 10.5t-72.5 -10.5t-60.5 -30t-41.5 -47.5t-15.5 -63q0 -37 14 -65.5t38 -49t55 -32.5t66 -16l9 -2q0 -2 -9 -2q-23 0 -56.5 -9.5t-64.5 -30.5t-52.5 -55t-21.5 -83q0 -47 19 -81
t49 -56.5t68 -33.5t76 -11t76 11t68 33.5t49 57t19 81.5q0 48 -22 82t-52.5 55t-64 30.5t-56.5 9.5q-9 0 -9 2zM176 514q0 60 25 97t71 37t71 -37t25 -97q0 -46 -13 -76t-29.5 -48t-32.5 -25t-21 -7t-21 7t-32.5 25t-29.5 48t-13 76zM156 168q0 49 16.5 81.5t37 52t39 27.5
t23.5 8t23.5 -8t39 -27.5t37 -51.5t16.5 -80q0 -77 -27.5 -123.5t-88.5 -46.5t-88.5 46.5t-27.5 121.5z" />
    <glyph glyph-name="nine" unicode="9" horiz-adv-x="538" 
d="M385 293q-5 -67 -20 -114t-50 -82q-19 -20 -43 -37t-50 -30.5t-53 -23.5t-52 -16v-24q24 4 56 14t69 27t75 43.5t74 63.5q56 58 87 129.5t31 145.5q0 61 -20 112.5t-53 89t-76.5 58.5t-90.5 21q-48 0 -88 -18t-69.5 -49t-45.5 -71.5t-16 -85.5q0 -41 13.5 -81t40 -72
t65.5 -51.5t90 -19.5q43 0 75.5 18t50.5 53zM389 393q0 -23 -2.5 -39t-4.5 -25q-5 -18 -15 -34t-24 -28t-33 -19.5t-43 -7.5q-35 0 -56 11.5t-33 31.5t-16 47t-4 59v91q0 35 3.5 66.5t15.5 55t34 37t60 13.5q36 0 59 -13t36 -36t18 -53.5t5 -66.5v-90z" />
    <glyph glyph-name="colon" unicode=":" horiz-adv-x="226" 
d="M171 50q0 23 -15.5 38.5t-38.5 15.5t-38.5 -15.5t-15.5 -38.5t15.5 -38.5t38.5 -15.5t38.5 15.5t15.5 38.5zM171 324q0 23 -15.5 38.5t-38.5 15.5t-38.5 -15.5t-15.5 -38.5t15.5 -38.5t38.5 -15.5t38.5 15.5t15.5 38.5z" />
    <glyph glyph-name="semicolon" unicode=";" horiz-adv-x="242" 
d="M180 324q0 23 -15.5 38.5t-38.5 15.5t-38.5 -15.5t-15.5 -38.5t15.5 -38.5t38.5 -15.5t38.5 15.5t15.5 38.5zM196 49q0 31 -20.5 50.5t-49.5 19.5t-47 -15.5t-18 -41.5q0 -25 16 -38.5t40 -13.5q16 0 29 9t15 26q0 9 3 9q9 0 9 -24q0 -13 -5.5 -29.5t-17 -33.5
t-29.5 -32.5t-43 -25.5q-5 -3 -5 -5q0 -3 5 -3q2 0 6 2q30 12 51 29t34.5 37t20 41t6.5 39z" />
    <glyph glyph-name="less" unicode="&#x3c;" 
d="M317 430l-263 -161l263 -161v55l-177 106l177 107v54z" />
    <glyph glyph-name="equal" unicode="=" horiz-adv-x="392" 
d="M343 229h-282v-54h282v54zM343 364h-282v-54h282v54z" />
    <glyph glyph-name="greater" unicode="&#x3e;" 
d="M77 163v-55l264 161l-264 161v-54l178 -107z" />
    <glyph glyph-name="question" unicode="?" horiz-adv-x="403" 
d="M365 522q0 69 -41.5 104t-113.5 35q-38 0 -67.5 -8.5t-49.5 -22t-30.5 -31t-10.5 -35.5q0 -23 15.5 -38t38.5 -15q26 0 41 15t15 37q0 16 -10 29.5t-33 18.5q-4 1 -4 3q0 3 5 8t16.5 10t30 9t45.5 4q52 0 76 -23t24 -50q0 -20 -10 -40t-27 -41q-14 -17 -28 -31
t-27.5 -28.5t-26 -31t-22.5 -39.5q-5 -13 -7 -28.5t-2 -32.5q0 -30 4.5 -59t7.5 -45q1 -7 8 -7q8 0 8 7q0 5 -0.5 9.5t-1.5 11.5q-1 6 -1 15v21q0 16 14.5 35t36 40t45.5 43t42 44q21 26 30.5 53t9.5 54zM235 50q0 23 -15.5 38.5t-38.5 15.5t-38.5 -15.5t-15.5 -38.5
t15.5 -38.5t38.5 -15.5t38.5 15.5t15.5 38.5z" />
    <glyph glyph-name="at" unicode="@" horiz-adv-x="737" 
d="M371 10q61 0 113.5 18t84.5 45q7 6 7 14q0 12 -12 12q-4 0 -10 -3q-37 -26 -84.5 -42t-98.5 -16q-63 0 -117.5 22t-94.5 61t-62.5 92t-22.5 115q0 64 23 118t63 93.5t94.5 61.5t117.5 22q64 0 114.5 -21.5t86 -57t54.5 -82t19 -96.5q0 -52 -15 -88t-37.5 -58t-47.5 -31.5
t-44 -9.5q-22 0 -37 11t-15 33q0 5 2 15l60 264h-66l-7 -30q-10 18 -32.5 30.5t-51.5 12.5q-39 0 -70.5 -22t-53.5 -57.5t-33.5 -78.5t-11.5 -85q0 -33 7.5 -55.5t20 -36.5t28 -20t32.5 -6q36 0 62 19t46 37q2 -17 11 -28.5t23 -19t31 -11t34 -3.5q47 0 83 16.5t60.5 46
t37 69t12.5 85.5q0 57 -21 109t-60.5 91.5t-95.5 62.5t-125 23q-72 0 -131.5 -24t-103 -66.5t-67.5 -102t-24 -130.5q0 -69 24.5 -127.5t68 -101t103 -66t129.5 -23.5zM366 488q24 0 41.5 -11.5t24.5 -30.5l-51 -206q-16 -26 -41.5 -40.5t-45.5 -14.5q-41 0 -41 74
q0 37 9 77.5t24.5 74t36 55.5t43.5 22z" />
    <glyph glyph-name="A" unicode="A" horiz-adv-x="661" 
d="M22 16v-16h222v16h-118l63 193h201l65 -193h-103v-16h293v16h-87l-219 665h-12l-219 -665h-86zM289 511l96 -286h-190z" />
    <glyph glyph-name="B" unicode="B" horiz-adv-x="598" 
d="M525 516q0 37 -17 66.5t-45.5 49t-65.5 30t-77 10.5h-291v-16h86v-640h-86v-16h299q104 0 161.5 48t57.5 133q0 44 -17.5 77t-43.5 56t-57.5 35.5t-58.5 15.5q33 6 61.5 17.5t49 30t32.5 44t12 59.5zM212 371v285h108q25 0 45 -6.5t34 -22t22 -41t8 -62.5v-16
q0 -40 -8 -66.5t-22 -42t-34.5 -22t-44.5 -6.5h-108zM212 16v339h108q69 0 98.5 -42t29.5 -120v-24q0 -73 -28 -113t-100 -40h-108z" />
    <glyph glyph-name="C" unicode="C" horiz-adv-x="613" 
d="M571 203q-5 0 -10 -11q-18 -41 -39 -76.5t-48 -61.5t-60 -40.5t-73 -14.5q-91 0 -135 71t-44 208v112q0 132 45 203.5t139 71.5q39 0 71 -12.5t58 -34.5t45 -53t31 -67q3 -10 7 -10q5 0 5 12v163q0 9 -2 12t-6 3q-5 0 -13 -8l-39 -40q-32 26 -72 39.5t-85 13.5
q-66 0 -122.5 -30t-98 -79t-64.5 -111.5t-23 -126.5q0 -74 26.5 -138.5t69.5 -112.5t97 -76t110 -28q47 0 90 18.5t77 56.5l53 -58q5 -5 9 -5q6 0 6 7v193q0 10 -5 10z" />
    <glyph glyph-name="D" unicode="D" horiz-adv-x="662" 
d="M327 672h-295v-16h88v-640h-88v-16h295q70 0 128 24.5t99 69.5t63.5 108.5t22.5 141.5q0 73 -23 133.5t-64.5 104t-99 67t-126.5 23.5zM530 369v-50q0 -89 -16.5 -147.5t-44.5 -93t-65 -48.5t-79 -14h-108v640h108q41 0 78 -14.5t65.5 -48t45 -88.5t16.5 -136z" />
    <glyph glyph-name="E" unicode="E" horiz-adv-x="574" 
d="M216 346h79q22 0 35 -6.5t20.5 -18.5t11.5 -29t8 -38q3 -14 8 -14q6 0 6 13v203q0 12 -6 12q-5 0 -8 -14q-4 -21 -8 -38t-11.5 -29t-20.5 -18.5t-35 -6.5h-79v294h152q34 0 57 -16.5t37 -41t20.5 -52t7.5 -49.5q0 -14 8 -14q7 0 7 13v152q0 24 -25 24h-447v-16h86v-640
h-85v-16h470q29 0 29 32v150q0 24 -8 24q-7 0 -11 -21q-8 -38 -17 -69t-24 -53.5t-38 -34.5t-58 -12h-161v330z" />
    <glyph glyph-name="F" unicode="F" horiz-adv-x="548" 
d="M37 656h86v-640h-84v-16h267v16h-86v330h79q22 0 35 -6.5t20.5 -18.5t11.5 -29t8 -38q3 -14 8 -14q6 0 6 13v203q0 12 -6 12q-5 0 -8 -14q-4 -21 -8 -38t-11.5 -29t-20.5 -18.5t-35 -6.5h-79v294h152q34 0 57 -16.5t37 -41t20.5 -52t7.5 -49.5q0 -14 8 -14q7 0 7 13v152
q0 24 -25 24h-447v-16z" />
    <glyph glyph-name="G" unicode="G" horiz-adv-x="669" 
d="M343 683q-63 0 -119 -28t-97.5 -76t-66 -112t-24.5 -135t25 -135t67 -112t97 -76t115 -28q48 0 90.5 12.5t75 38.5t51 66.5t18.5 96.5v34h87v16h-297v-16h107v-94q0 -24 -5 -48t-19 -43.5t-39.5 -32t-66.5 -12.5q-87 0 -135 69t-48 205v123q0 71 13.5 122t38 83.5t58 48
t74.5 15.5q73 0 125 -42.5t84 -144.5q3 -9 9 -9t6 9v189q0 11 -8 11q-5 0 -7.5 -2t-6.5 -6l-43 -43q-29 26 -70.5 41t-88.5 15z" />
    <glyph glyph-name="H" unicode="H" horiz-adv-x="685" 
d="M302 672h-269v-16h86v-640h-86v-16h269v16h-86v333h265v-333h-86v-16h269v16h-86v640h86v16h-269v-16h86v-290h-265v290h86v16z" />
    <glyph glyph-name="I" unicode="I" horiz-adv-x="355" 
d="M312 656v16h-269v-16h86v-640h-86v-16h269v16h-86v640h86z" />
    <glyph glyph-name="J" unicode="J" horiz-adv-x="370" 
d="M356 672h-264v-16h92v-638q0 -54 -15 -77.5t-53 -23.5q-20 0 -37 7.5t-27 20.5q24 0 36 14.5t12 36.5q0 17 -11 30.5t-32 13.5q-23 0 -34 -14.5t-11 -37.5q0 -14 7 -29.5t21 -28.5t34.5 -22t47.5 -9q159 0 159 157v600h75v16z" />
    <glyph glyph-name="K" unicode="K" horiz-adv-x="672" 
d="M291 656v16h-257v-16h80v-640h-80v-16h257v16h-80v640h80zM506 656l-288 -288l247 -352h-87v-16h283v16h-80l-283 406l234 234h85v16h-197v-16h86z" />
    <glyph glyph-name="L" unicode="L" horiz-adv-x="599" 
d="M555 185q-8 -38 -17 -69t-24 -53.5t-38 -34.5t-58 -12h-205v640h95v16h-278v-16h86v-640h-86v-16h515q29 0 29 32v150q0 24 -8 24q-7 0 -11 -21z" />
    <glyph glyph-name="M" unicode="M" horiz-adv-x="797" 
d="M34 16v-16h176v16h-80v623l223 -639h13l223 643v-627h-80v-16h257v16h-80v640h80v16h-185l-178 -514l-184 514h-185v-16h80v-640h-80z" />
    <glyph glyph-name="N" unicode="N" horiz-adv-x="657" 
d="M27 16v-16h188v16h-86v611l387 -635h34v664h86v16h-188v-16h86v-491l-310 507h-197v-16h86v-640h-86z" />
    <glyph glyph-name="O" unicode="O" horiz-adv-x="691" 
d="M350 -19q64 0 120.5 29.5t98.5 78.5t66.5 112.5t24.5 131.5t-24.5 131.5t-66.5 112t-98.5 77.5t-120.5 29t-120.5 -29t-98.5 -77.5t-66.5 -112t-24.5 -131.5t24.5 -131.5t66.5 -112.5t98.5 -78.5t120.5 -29.5zM350 665q45 0 80 -14t58.5 -47t36 -87t12.5 -134v-100
q0 -145 -48 -214.5t-139 -69.5t-139 69.5t-48 214.5v100q0 78 12.5 131.5t36 87t58.5 48.5t80 15z" />
    <glyph glyph-name="P" unicode="P" horiz-adv-x="542" 
d="M306 672h-277v-16h86v-640h-86v-16h269v16h-86v293h104q44 0 80.5 13t62.5 37t40.5 57.5t14.5 74.5q0 40 -14.5 73.5t-41.5 57.5t-65.5 37t-86.5 13zM212 325v331h94q56 0 87.5 -33.5t31.5 -113.5v-36q0 -77 -31 -112.5t-78 -35.5h-104z" />
    <glyph glyph-name="Q" unicode="Q" horiz-adv-x="681" 
d="M350 665q45 0 80 -14t58.5 -47t36 -87t12.5 -134v-100q0 -145 -48 -214.5t-139 -69.5t-139 69.5t-48 214.5v100q0 78 12.5 131.5t36 87t58.5 48.5t80 15zM412 -11q53 13 98.5 46t78.5 79.5t52 102.5t19 116q0 68 -24.5 131.5t-66.5 112t-98.5 77.5t-120.5 29t-120.5 -29
t-98.5 -77.5t-66.5 -112t-24.5 -131.5q0 -60 19 -116t52 -102.5t78.5 -79.5t98.5 -46l2 -26q5 -64 27.5 -102t59 -57.5t86 -25t109.5 -5.5q9 0 9 6q0 7 -9 7q-31 0 -59.5 7t-51 26.5t-36 55t-13.5 92.5v22z" />
    <glyph glyph-name="R" unicode="R" horiz-adv-x="628" 
d="M528 43q-3 10 -4.5 28t-2 39t-1 43t-3.5 42q-6 40 -20 66t-34 42.5t-46 26t-56 17.5q78 14 120 55.5t42 104.5q0 39 -16.5 70t-44.5 52t-66.5 32t-81.5 11h-282v-16h86v-640h-86v-16h269v16h-86v327h83q16 0 34 -5.5t33.5 -21t27 -43t16.5 -70.5q3 -26 3.5 -53t3 -52
t9 -46t20.5 -36q13 -14 30.5 -19t37.5 -5q17 0 34 3.5t31.5 8.5t25 10.5t15.5 10.5q3 3 3 6t-3 3q-2 0 -6 -2q-20 -14 -45 -14q-31 0 -40 25zM215 359v297h99q114 0 114 -131v-36q0 -130 -114 -130h-99z" />
    <glyph glyph-name="S" unicode="S" horiz-adv-x="542" 
d="M451 679l-29 -37q-18 10 -34 18t-32.5 13t-35 7.5t-42.5 2.5q-49 0 -87.5 -16t-65.5 -43t-41 -62t-14 -74q0 -53 32.5 -97t101.5 -67q33 -11 56 -18t43 -13.5t40.5 -14t47.5 -20.5q34 -16 46 -44.5t12 -57.5q0 -36 -14 -65.5t-37 -49.5t-53 -31t-61 -11q-36 0 -69 12.5
t-61 35.5t-48.5 57t-31.5 76q-3 13 -11 13q-7 0 -7 -14v-179q0 -13 9 -13q6 0 13 10l36 52q12 -11 29.5 -23t39 -22t46 -16.5t50.5 -6.5q48 0 89 17.5t71 48.5t47.5 73.5t17.5 91.5q0 67 -31.5 113.5t-99.5 66.5q-23 7 -43 12t-41 11t-44 13.5t-51 18.5q-31 12 -47 37
t-16 58q0 31 13 54.5t33.5 38.5t47 22.5t53.5 7.5q41 0 72 -14t52 -37t33.5 -53t16.5 -62q1 -10 9 -10q7 0 7 10v178q0 10 -6 10q-5 0 -11 -8z" />
    <glyph glyph-name="T" unicode="T" horiz-adv-x="619" 
d="M361 16v640h86q46 0 80.5 -47t45.5 -128h21l-15 174q-1 17 -20 17h-493q-19 0 -20 -17l-15 -174h21q11 81 45.5 128t80.5 47h86v-640h-86v-16h269v16h-86z" />
    <glyph glyph-name="U" unicode="U" horiz-adv-x="638" 
d="M291 672h-269v-16h86v-489q0 -53 20.5 -88.5t53 -57.5t72.5 -31t79 -9q95 0 148 46.5t53 139.5v489h86v16h-188v-16h86v-489q0 -40 -12.5 -71.5t-34.5 -53t-51.5 -32.5t-63.5 -11q-70 0 -110.5 43.5t-40.5 124.5v489h86v16z" />
    <glyph glyph-name="V" unicode="V" horiz-adv-x="632" 
d="M281 672h-270v-16h86l225 -666h18l214 666h72v16h-179v-16h86l-166 -517l-176 517h90v16z" />
    <glyph glyph-name="W" unicode="W" horiz-adv-x="899" 
d="M656 656v16h-629v-16h74l233 -666h13l109 311l112 -311h13l234 666h69v16h-173v-16h86l-185 -525l-100 289l83 236h61zM577 656l-74 -210l-74 210h148zM379 133l-183 523h138l113 -328z" />
    <glyph glyph-name="X" unicode="X" horiz-adv-x="685" 
d="M315 656v16h-287v-16h86l190 -334l-191 -306h-87v-16h209v16h-100l180 287l163 -287h-81v-16h268v16h-77l-213 375l164 265h90v16h-210v-16h97l-152 -246l-140 246h91z" />
    <glyph glyph-name="Y" unicode="Y" horiz-adv-x="662" 
d="M311 672h-279v-16h80l194 -326v-314h-96v-16h289v16h-96v340l165 300h81v16h-204v-16h97l-155 -282l-168 282h92v16z" />
    <glyph glyph-name="Z" unicode="Z" horiz-adv-x="509" 
d="M34 26v-26h449v201h-16q-2 -51 -13 -86.5t-30 -57t-45.5 -31.5t-60.5 -10h-191l349 632v24h-437v-174h14q1 46 12.5 76.5t30 48.5t41.5 25.5t49 7.5h193z" />
    <glyph glyph-name="bracketleft" unicode="[" horiz-adv-x="215" 
d="M191 -70v16h-69v756h74v16h-156v-788h151z" />
    <glyph glyph-name="backslash" unicode="\" horiz-adv-x="296" 
d="M16 699l244 -769h27l-244 769h-27z" />
    <glyph glyph-name="bracketright" unicode="]" horiz-adv-x="215" 
d="M109 702v-756h-70v-16h152v788h-157v-16h75z" />
    <glyph glyph-name="asciicircum" unicode="^" horiz-adv-x="370" 
d="M310 336l-108 295h-26l-108 -295l14 -7l107 226l107 -226z" />
    <glyph glyph-name="underscore" unicode="_" horiz-adv-x="291" 
d="M0 -11v-21h298v21h-298z" />
    <glyph glyph-name="grave" unicode="`" horiz-adv-x="258" 
d="M54 629l159 -159l7 4l-80 155h-86z" />
    <glyph glyph-name="a" unicode="a" horiz-adv-x="443" 
d="M115 382q-32 -21 -32 -50q0 -14 9.5 -25.5t26.5 -11.5t27.5 10t10.5 25q0 7 -2.5 14.5t-9.5 14.5q-5 5 -8 7t-3 5q0 4 6 8t15 7t20.5 5t22.5 2q31 0 49 -12t18 -46v-118q-46 0 -86 -9.5t-70 -27.5t-47 -44.5t-17 -59.5q0 -24 8.5 -41.5t23.5 -28t34.5 -15.5t41.5 -5
q23 0 41.5 5.5t33 14t24.5 18t16 18.5q3 -21 19 -38.5t56 -17.5q26 0 43.5 8t28.5 19t15.5 22.5t4.5 17.5q0 5 -3 5t-7 -8q-8 -17 -20 -27.5t-26 -10.5q-20 0 -24 16.5t-4 45.5v242q0 43 -32 66.5t-98 23.5q-31 0 -59.5 -6.5t-46.5 -17.5zM265 207v-139q0 -9 -8.5 -19
t-21 -18.5t-26 -13.5t-22.5 -5q-31 0 -47 24t-16 65q0 33 12 53t31.5 31t45 15.5t52.5 6.5z" />
    <glyph glyph-name="b" unicode="b" horiz-adv-x="518" 
d="M194 348v324h-162v-16h76v-640h-76v-16h162v51q7 -10 17 -21.5t24 -21t31.5 -15.5t39.5 -6q37 0 71 19t59 49t40 67.5t15 75.5q0 45 -17.5 83.5t-45 66t-61 43t-64.5 15.5q-25 0 -42.5 -6t-30 -14.5t-21 -18.5t-15.5 -19zM194 82v235q7 12 16 24.5t21.5 23.5t29 18
t38.5 7q19 0 35 -5.5t28 -23.5t18.5 -51.5t6.5 -88.5v-45q0 -51 -7 -84.5t-19 -53t-27 -27.5t-31 -8q-20 0 -36.5 7t-30 18t-24 25t-18.5 29z" />
    <glyph glyph-name="c" unicode="c" horiz-adv-x="410" 
d="M137 173v44q0 49 6 82t18.5 53.5t31.5 29t45 8.5q37 0 50.5 -9.5t13.5 -13.5t-3 -7q-7 -8 -10.5 -16.5t-3.5 -21.5q0 -20 13 -30.5t30 -10.5q20 0 32 12t12 31t-13 34.5t-32.5 26t-42.5 16t-44 5.5q-39 0 -76 -15.5t-66 -43t-47 -66.5t-18 -86q0 -48 17.5 -86.5t46 -66
t65 -42t73.5 -14.5t65 11.5t47 29t30 37t16 35.5q2 6 2 8q0 9 -8 9q-6 0 -9 -10q-6 -19 -18 -37.5t-29.5 -33.5t-41 -24t-51.5 -9q-31 0 -50.5 9t-31 29.5t-15.5 53t-4 79.5z" />
    <glyph glyph-name="d" unicode="d" horiz-adv-x="518" 
d="M256 656h76v-304q-37 54 -109 54q-36 0 -70 -18t-60 -47.5t-42 -67t-16 -76.5q0 -42 17.5 -80.5t44.5 -67.5t60 -46t63 -17q40 0 67 20t45 46v-52h162v16h-76v656h-162v-16zM139 222q0 93 20 130.5t68 37.5q21 0 37.5 -7t29 -18.5t22 -24.5t16.5 -25v-234
q-22 -37 -48.5 -58t-59.5 -21q-21 0 -37 8.5t-26.5 28t-16 52.5t-5.5 82v49z" />
    <glyph glyph-name="e" unicode="e" horiz-adv-x="434" 
d="M393 243q-1 16 -10.5 44t-29.5 54t-53 45.5t-81 19.5q-40 0 -74.5 -19t-59.5 -49t-39 -68t-14 -77t14 -76t39 -66t60.5 -47t77.5 -18q34 0 62 9.5t49.5 26t36.5 38.5t24 46q3 7 3 14t-6 7q-5 0 -9 -10q-9 -21 -22.5 -42t-33 -37t-44.5 -26t-58 -10q-40 0 -64.5 30
t-24.5 96v102h241q16 0 16 13zM136 246v40q0 33 7.5 53.5t19.5 31.5t27 15t30 4q24 0 39.5 -8.5t24.5 -22.5t12 -31t3 -35q0 -47 -15 -47h-148z" />
    <glyph glyph-name="f" unicode="f" horiz-adv-x="342" 
d="M24 16v-16h236v16h-75v360h81v16h-81v196q0 75 52 75q20 0 32.5 -6t12.5 -10q0 -3 -2 -4q-10 -5 -15 -13.5t-5 -18.5q0 -16 10 -24.5t24 -8.5q17 0 24.5 10.5t7.5 24.5q0 24 -24.5 45t-66.5 21q-32 0 -64 -19t-52 -66q-14 -34 -17 -78t-3 -81v-43h-74v-16h74v-360h-75z
" />
    <glyph glyph-name="g" unicode="g" horiz-adv-x="426" 
d="M131 250v34q0 61 17 83.5t53 22.5t53 -22.5t17 -83.5v-34q0 -51 -14 -78t-56 -27t-56 27t-14 78zM144 137q9 -3 23.5 -5.5t33.5 -2.5q45 0 76 15t50 36.5t27 45.5t8 42q0 60 -47 102q23 27 43 36q-4 -8 -4 -16q0 -12 8.5 -20t23.5 -8q16 0 23 9.5t7 19.5q0 15 -11 23
t-26 8q-38 0 -76 -43q-14 12 -42 19.5t-60 7.5q-39 0 -69.5 -11.5t-50.5 -31t-30.5 -44.5t-10.5 -51q0 -44 25.5 -76t57.5 -48q-48 -14 -67.5 -36t-19.5 -57q0 -23 7.5 -40t20 -29t28 -18.5t30.5 -8.5q-42 -15 -65 -42t-23 -66q0 -28 13 -49t37 -34.5t57 -20.5t73 -7t75 11
t61.5 32.5t41.5 52.5t15 72q0 63 -33.5 92.5t-87.5 29.5h-161q-63 0 -63 43q0 29 23 43.5t59 24.5zM370 -137q0 -30 -14.5 -51t-36.5 -34.5t-49.5 -19.5t-52.5 -6q-41 0 -67 11t-41 27.5t-21 37t-6 38.5q0 19 6.5 35.5t16 28t20 18t18.5 6.5h127q24 0 42.5 -7.5t31.5 -20.5
t19.5 -29t6.5 -34z" />
    <glyph glyph-name="h" unicode="h" horiz-adv-x="539" 
d="M186 322v350h-156v-16h70v-640h-70v-16h226v16h-70v250q0 16 8.5 35.5t24.5 37t37 29.5t47 12q21 0 33 -7t18 -18t7.5 -24.5t1.5 -27.5v-287h-69v-16h225v16h-70v298q0 45 -30.5 68.5t-84.5 23.5q-59 0 -94.5 -25t-53.5 -59z" />
    <glyph glyph-name="i" unicode="i" horiz-adv-x="294" 
d="M197 392h-161v-16h75v-360h-75v-16h236v16h-75v376zM205 577q0 22 -15 37t-37 15t-37 -15t-15 -37t15 -37t37 -15t37 15t15 37z" />
    <glyph glyph-name="j" unicode="j" horiz-adv-x="274" 
d="M214 -31v423h-167v-16h81v-551q0 -39 -20 -55.5t-41 -16.5q-8 0 -14 1.5t-9 6.5q7 4 15.5 13.5t8.5 29.5q0 16 -10 30t-31 14q-20 0 -31.5 -14t-11.5 -33q0 -27 24.5 -45.5t59.5 -18.5q67 0 106.5 60t39.5 172zM217 577q0 22 -15 37t-37 15t-37 -15t-15 -37t15 -37
t37 -15t37 15t15 37z" />
    <glyph glyph-name="k" unicode="k" horiz-adv-x="540" 
d="M197 229v443h-166v-16h80v-640h-80v-16h236v16h-70v197h22l138 -197h-70v-16h242v16h-70l-179 243l116 117h79v16h-187v-16h85l-148 -147h-28z" />
    <glyph glyph-name="l" unicode="l" horiz-adv-x="285" 
d="M191 16v656h-156v-16h70v-640h-70v-16h226v16h-70z" />
    <glyph glyph-name="m" unicode="m" horiz-adv-x="762" 
d="M579 401q-60 0 -96 -25t-54 -60q-2 27 -11.5 44t-23 26t-29.5 12t-31 3q-18 0 -38.5 -3.5t-40.5 -13t-38.5 -26t-32.5 -42.5v76h-151v-16h65v-360h-65v-16h215v16h-64v252q0 12 8.5 30.5t23.5 36t34.5 29.5t40.5 12t31.5 -8.5t15 -20.5t5 -24.5t0.5 -21.5v-285h-65v-16
h216v16h-65v244q0 15 8 35t22.5 38t34 30.5t43.5 12.5q17 0 27 -6t15.5 -16.5t7 -24t1.5 -28.5v-285h-63v-16h214v16h-65v296q0 36 -21.5 62.5t-73.5 26.5z" />
    <glyph glyph-name="n" unicode="n" horiz-adv-x="531" 
d="M192 316v76h-156v-16h70v-360h-70v-16h226v16h-70v248q0 17 9 36.5t23.5 36.5t33 28t38.5 11q29 0 42.5 -18t13.5 -57v-285h-70v-16h226v16h-70v292q0 52 -29.5 72t-75.5 20q-55 0 -89.5 -25t-51.5 -59z" />
    <glyph glyph-name="o" unicode="o" horiz-adv-x="447" 
d="M227 -14q45 0 81.5 20.5t62 51.5t39.5 68t14 70t-14 70t-39.5 68t-62 51.5t-81.5 20.5t-81.5 -20.5t-62.5 -51.5t-40 -68t-14 -70t14 -70t40 -68t62.5 -51.5t81.5 -20.5zM133 218q0 42 3.5 74t13.5 54t28.5 33t48.5 11t48.5 -11t28 -33t13 -54t3.5 -74v-43
q0 -45 -3.5 -77.5t-13 -53.5t-28 -31.5t-48.5 -10.5t-48.5 10.5t-28.5 31.5t-13.5 53.5t-3.5 77.5v43z" />
    <glyph glyph-name="p" unicode="p" horiz-adv-x="500" 
d="M371 175q0 -56 -6 -89.5t-17.5 -51.5t-27.5 -24t-36 -6q-21 0 -40 8.5t-34 22t-24 29.5t-9 31v194q0 18 10 36t26 32.5t35.5 23.5t38.5 9q16 0 31 -5.5t27 -23t19 -51t7 -89.5v-46zM177 341v51h-151v-16h65v-628h-65v-16h216v16h-65v295q17 -25 44 -41t65 -16q36 0 70 17
t60.5 45.5t42.5 67t16 81.5t-16.5 81t-43.5 66.5t-60.5 45t-66.5 16.5q-42 0 -68.5 -21t-42.5 -44z" />
    <glyph glyph-name="q" unicode="q" horiz-adv-x="509" 
d="M488 376v16h-151v-53q-17 26 -46 45t-67 19q-35 0 -68.5 -17t-59.5 -45.5t-42.5 -65.5t-16.5 -78t16.5 -79t43 -67.5t60.5 -47t69 -17.5q44 0 69 17t42 40v-295h-65v-16h216v16h-65v628h65zM337 280v-169q0 -21 -8 -40.5t-22 -34.5t-34 -24t-45 -9q-20 0 -36 5.5
t-27.5 21t-17.5 44t-6 74.5v110q0 37 7 62t19 40.5t27 22.5t31 7q19 0 39 -9.5t36.5 -24.5t26.5 -35t10 -41z" />
    <glyph glyph-name="r" unicode="r" horiz-adv-x="400" 
d="M178 334v58h-156v-16h70v-360h-70v-16h226v16h-70v274q0 16 9.5 33t25 31t34.5 22.5t37 8.5q11 0 19.5 -1.5t8.5 -7.5q0 -5 -5 -7q-6 -4 -14 -13.5t-8 -29.5q0 -21 14 -34.5t37 -13.5q20 0 35 13.5t15 37.5q0 20 -8 33.5t-20.5 22t-29 12.5t-33.5 4q-24 0 -43 -7t-34 -17
t-25 -21.5t-15 -21.5z" />
    <glyph glyph-name="s" unicode="s" horiz-adv-x="356" 
d="M284 401l-23 -23q-31 28 -76 28q-32 0 -57 -10.5t-41.5 -28.5t-25 -41t-8.5 -47q0 -37 21.5 -65t64.5 -38q13 -3 29 -6.5t32.5 -8t32 -10t27.5 -12.5q20 -11 27.5 -26t7.5 -31q0 -21 -10.5 -36.5t-26.5 -25t-34 -14t-34 -4.5q-46 0 -81 25.5t-49 78.5q-3 9 -8 9
q-6 0 -6 -8v-107q0 -8 6 -8q4 0 7 5l21 31q18 -19 45.5 -30.5t67.5 -11.5q33 0 58 10.5t42.5 29t26.5 43t9 53.5q0 38 -19 72t-72 52q-9 3 -23 6.5t-29.5 7.5l-31 8t-25.5 7q-20 7 -28.5 17.5t-8.5 29.5q0 26 25 47t63 21q24 0 42.5 -9t31 -23t20 -31.5t10.5 -34.5
q1 -6 6 -6q4 0 4 6v107q0 7 -3 7q-2 0 -7 -5z" />
    <glyph glyph-name="t" unicode="t" horiz-adv-x="338" 
d="M177 392v157l-86 -43v-114h-68v-16h68v-270q0 -56 30 -88t87 -32q59 0 83.5 23.5t31.5 64.5q1 5 1 6v3q0 8 -6 8q-8 0 -9 -10q-5 -34 -23 -53.5t-44 -19.5q-35 0 -50 24t-15 72v272h97v16h-97z" />
    <glyph glyph-name="u" unicode="u" horiz-adv-x="540" 
d="M353 75v-75h156v16h-70v376h-156v-16h70v-249q0 -16 -9.5 -35t-25.5 -35.5t-37 -27.5t-43 -11q-35 0 -45 17t-10 55v302h-156v-16h70v-279q0 -32 8 -53t22 -33t32.5 -17t38.5 -5q53 0 92.5 22.5t62.5 63.5z" />
    <glyph glyph-name="v" unicode="v" horiz-adv-x="490" 
d="M25 392v-16h65l160 -380h8l152 380h59v16h-148v-16h71l-104 -261l-106 261h70v16h-227z" />
    <glyph glyph-name="w" unicode="w" horiz-adv-x="649" 
d="M27 392v-16h65l140 -387h9l87 265l105 -265h8l121 387h69v16h-168v-16h83l-78 -251l-105 267h-7l-86 -266l-91 250h66v16h-218z" />
    <glyph glyph-name="x" unicode="x" horiz-adv-x="503" 
d="M30 392v-16h56l136 -196l-121 -164h-67v-16h161v16h-74l111 149l103 -149h-75v-16h226v16h-60l-145 209l113 151h64v16h-150v-16h64l-101 -137l-95 137h65v16h-211z" />
    <glyph glyph-name="y" unicode="y" horiz-adv-x="506" 
d="M30 392v-16h66l167 -380l-58 -153q-13 -33 -28.5 -49t-29.5 -16q-8 0 -10.5 4t-5.5 10q-6 13 -15 19.5t-24 6.5q-17 0 -26 -11t-9 -26q0 -19 12.5 -30.5t38.5 -11.5q35 0 65 26.5t47 72.5l206 538h66v16h-158v-16h74l-104 -272l-116 272h77v16h-235z" />
    <glyph glyph-name="z" unicode="z" horiz-adv-x="402" 
d="M362 392h-292v-120h12q3 31 11 51t20 32t27.5 16.5t33.5 4.5h101l-223 -354v-22h320v131h-12q-4 -60 -28.5 -87.5t-72.5 -27.5h-117l220 352v24z" />
    <glyph glyph-name="braceleft" unicode="{" horiz-adv-x="274" 
d="M97 242v-188q0 -57 29.5 -83t74.5 -26q32 0 46.5 1t14.5 8q0 6 -10 7t-30 1q-15 0 -27.5 4.5t-22.5 16t-15.5 31.5t-5.5 51v180q0 21 -8 34t-20 20.5t-27.5 11t-30.5 6.5q15 3 30.5 6t27.5 10.5t20 20.5t8 36v200q0 30 5.5 50t15.5 31.5t22.5 16t27.5 4.5q20 0 30 1t10 7
q0 7 -14.5 8t-46.5 1q-45 0 -74.5 -25.5t-29.5 -82.5v-209q0 -20 -8 -33t-19.5 -21.5t-25.5 -13.5t-26 -7q12 -2 26 -6t26 -12.5t19.5 -22t7.5 -34.5z" />
    <glyph glyph-name="bar" unicode="|" horiz-adv-x="115" 
d="M46 699v-750h27v750h-27z" />
    <glyph glyph-name="braceright" unicode="}" horiz-adv-x="279" 
d="M79 -55q45 0 74.5 26t29.5 83v188q0 21 7.5 34.5t19.5 22t26 12.5t26 6q-12 2 -26 7t-25.5 13.5t-19.5 21.5t-8 33v209q0 57 -29.5 82.5t-74.5 25.5q-32 0 -46.5 -1t-14.5 -8q0 -6 10 -7t30 -1q15 0 27.5 -4.5t22.5 -16t15.5 -31.5t5.5 -50v-200q0 -23 8 -36t20 -20.5
t27.5 -10.5t30.5 -6q-15 -3 -30.5 -6.5t-27.5 -11t-20 -20.5t-8 -34v-180q0 -31 -5.5 -51t-15.5 -31.5t-22.5 -16t-27.5 -4.5q-20 0 -30 -1t-10 -7q0 -7 14.5 -8t46.5 -1z" />
    <glyph glyph-name="asciitilde" unicode="~" horiz-adv-x="425" 
d="M255 392q-26 11 -52.5 18t-52.5 7q-30 0 -51 -8.5t-34.5 -21t-20 -27t-6.5 -26.5q0 -19 12 -19q10 0 12 15q2 18 15 29t33 11q17 0 33.5 -9t37.5 -18q30 -13 54 -18t51 -5q33 0 54.5 8.5t34 20.5t17 25.5t4.5 24.5q0 17 -11 17q-12 0 -14 -16q-1 -14 -8.5 -22.5
t-32.5 -8.5q-18 0 -37 7.5t-38 15.5z" />
    <glyph glyph-name="quotesinglbase" unicode="&#x201a;" horiz-adv-x="235" 
d="M202 92q0 31 -20.5 50.5t-49.5 19.5t-47 -15.5t-18 -41.5q0 -25 16 -38.5t40 -13.5q16 0 29 9t15 26q0 9 3 9q9 0 9 -24q0 -13 -5.5 -29.5t-17 -33.5t-29.5 -32.5t-43 -25.5q-5 -3 -5 -5q0 -3 5 -3q2 0 6 2q30 12 51 29t34.5 37t20 41t6.5 39z" />
    <glyph glyph-name="florin" unicode="&#x192;" horiz-adv-x="628" 
d="M542 465h-465v-465h465v465z" />
    <glyph glyph-name="quotedblbase" unicode="&#x201e;" horiz-adv-x="453" 
d="M396 92q0 31 -20.5 50.5t-49.5 19.5t-47 -15.5t-18 -41.5q0 -25 16 -38.5t40 -13.5q16 0 29 9t15 26q0 9 3 9q9 0 9 -24q0 -13 -5.5 -29.5t-17 -33.5t-29.5 -32.5t-43 -25.5q-5 -3 -5 -5q0 -3 5 -3q2 0 6 2q30 12 51 29t34.5 37t20 41t6.5 39zM216 92q0 31 -20.5 50.5
t-49.5 19.5t-47 -15.5t-18 -41.5q0 -25 16 -38.5t40 -13.5q16 0 29 9t15 26q0 9 3 9q9 0 9 -24q0 -13 -5.5 -29.5t-17 -33.5t-29.5 -32.5t-43 -25.5q-5 -3 -5 -5q0 -3 5 -3q2 0 6 2q30 12 51 29t34.5 37t20 41t6.5 39z" />
    <glyph glyph-name="ellipsis" unicode="&#x2026;" horiz-adv-x="803" 
d="M219 50q0 23 -15.5 38.5t-38.5 15.5t-38.5 -15.5t-15.5 -38.5t15.5 -38.5t38.5 -15.5t38.5 15.5t15.5 38.5zM457 50q0 23 -15.5 38.5t-38.5 15.5t-38.5 -15.5t-15.5 -38.5t15.5 -38.5t38.5 -15.5t38.5 15.5t15.5 38.5zM695 50q0 23 -15.5 38.5t-38.5 15.5t-38.5 -15.5
t-15.5 -38.5t15.5 -38.5t38.5 -15.5t38.5 15.5t15.5 38.5z" />
    <glyph glyph-name="dagger" unicode="&#x2020;" horiz-adv-x="263" 
d="M146 472v72q0 9 3 17.5t6 16.5l6 16t3 18q0 8 -2 16t-5 18q-4 12 -6.5 22t-5.5 26q-5 24 -12 24q-8 0 -12 -24q-3 -16 -5.5 -26t-6.5 -22q-3 -10 -5 -18t-2 -16q0 -10 3 -18l6 -16t6 -16.5t3 -17.5v-72h-64v-26h64v-377h26v377h65v26h-65z" />
    <glyph glyph-name="daggerdbl" unicode="&#x2021;" horiz-adv-x="263" 
d="M145 210v236h65v26h-65v72q0 9 3 17.5t6 16.5l6 16t3 18q0 8 -2 16t-5 18q-4 12 -6.5 22t-5.5 26q-5 24 -12 24q-8 0 -12 -24q-3 -16 -5.5 -26t-6.5 -22q-3 -10 -5 -18t-2 -16q0 -10 3 -18l6 -16t6 -16.5t3 -17.5v-72h-64v-26h64v-236h-64v-26h64v-72q0 -9 -3 -17.5
t-6 -16.5l-6 -16t-3 -18q0 -8 2 -16t5 -18q4 -12 6.5 -22t5.5 -26q4 -24 12 -24q7 0 12 24q3 16 5.5 26t6.5 22q3 10 5 18t2 16q0 10 -3 18l-6 16t-6 16.5t-3 17.5v72h65v26h-65z" />
    <glyph glyph-name="circumflex" unicode="&#x2c6;" horiz-adv-x="328" 
d="M303 499l-132 133h-6l-132 -133l7 -3l128 67l129 -67z" />
    <glyph glyph-name="perthousand" unicode="&#x2030;" horiz-adv-x="1105" 
d="M166 -4l445 687h-35l-445 -687h35zM34 491q0 -36 10.5 -71t31 -62.5t51.5 -44.5t73 -17q40 0 69.5 16.5t49 44t29 62.5t9.5 72q0 36 -10 70.5t-30 61.5t-50 43.5t-71 16.5t-71 -16.5t-50.5 -43.5t-30.5 -61.5t-10 -70.5zM118 503q0 33 1.5 63t9 53t23 37t44.5 14
q28 0 43.5 -13.5t23 -36.5t9 -53.5t1.5 -63.5v-24q0 -36 -1.5 -67t-8.5 -54t-22 -36t-41 -13q-30 0 -47 14t-24.5 37t-9 54t-1.5 65v24zM387 184q0 -36 10.5 -71t31 -62.5t51.5 -44.5t73 -17q40 0 69.5 16.5t49 44t29 62.5t9.5 72q0 36 -10 70.5t-30 61.5t-50 43.5t-71 16.5
t-71 -16.5t-50.5 -43.5t-30.5 -61.5t-10 -70.5zM471 196q0 33 1.5 63t9 53t23 37t44.5 14q28 0 43.5 -13.5t23 -36.5t9 -53.5t1.5 -63.5v-24q0 -36 -1.5 -67t-8.5 -54t-22 -36t-41 -13q-30 0 -47 14t-24.5 37t-9 54t-1.5 65v24zM737 184q0 -36 10.5 -71t31 -62.5t51.5 -44.5
t73 -17q40 0 69.5 16.5t49 44t29 62.5t9.5 72q0 36 -10 70.5t-30 61.5t-50 43.5t-71 16.5t-71 -16.5t-50.5 -43.5t-30.5 -61.5t-10 -70.5zM821 196q0 33 1.5 63t9 53t23 37t44.5 14q28 0 43.5 -13.5t23 -36.5t9 -53.5t1.5 -63.5v-24q0 -36 -1.5 -67t-8.5 -54t-22 -36
t-41 -13q-30 0 -47 14t-24.5 37t-9 54t-1.5 65v24z" />
    <glyph glyph-name="Scaron" unicode="&#x160;" horiz-adv-x="542" 
d="M281 699l133 133l-7 4l-129 -68l-128 68l-6 -4l131 -133h6zM451 679l-29 -37q-18 10 -34 18t-32.5 13t-35 7.5t-42.5 2.5q-49 0 -87.5 -16t-65.5 -43t-41 -62t-14 -74q0 -53 32.5 -97t101.5 -67q33 -11 56 -18t43 -13.5t40.5 -14t47.5 -20.5q34 -16 46 -44.5t12 -57.5
q0 -36 -14 -65.5t-37 -49.5t-53 -31t-61 -11q-36 0 -69 12.5t-61 35.5t-48.5 57t-31.5 76q-3 13 -11 13q-7 0 -7 -14v-179q0 -13 9 -13q6 0 13 10l36 52q12 -11 29.5 -23t39 -22t46 -16.5t50.5 -6.5q48 0 89 17.5t71 48.5t47.5 73.5t17.5 91.5q0 67 -31.5 113.5t-99.5 66.5
q-23 7 -43 12t-41 11t-44 13.5t-51 18.5q-31 12 -47 37t-16 58q0 31 13 54.5t33.5 38.5t47 22.5t53.5 7.5q41 0 72 -14t52 -37t33.5 -53t16.5 -62q1 -10 9 -10q7 0 7 10v178q0 10 -6 10q-5 0 -11 -8z" />
    <glyph glyph-name="guilsinglleft" unicode="&#x2039;" horiz-adv-x="263" 
d="M204 425l-169 -156l169 -156h18l-122 156l122 156h-18z" />
    <glyph glyph-name="OE" unicode="&#x152;" horiz-adv-x="968" 
d="M527 672v-56q-38 32 -82.5 49.5t-94.5 17.5q-64 0 -120.5 -29t-98.5 -77.5t-66.5 -112t-24.5 -131.5t24.5 -131.5t66.5 -112.5t98.5 -78.5t120.5 -29.5q50 0 94.5 18.5t82.5 49.5v-49h385q17 0 23 7.5t6 24.5v150q0 24 -8 24q-7 0 -11 -21q-8 -38 -17 -69t-24 -53.5
t-38 -34.5t-58 -12h-161v330h79q22 0 35 -6.5t20.5 -18.5t11.5 -29t8 -38q3 -14 8 -14q6 0 6 13v203q0 12 -6 12q-5 0 -8 -14q-4 -21 -8 -38t-11.5 -29t-20.5 -18.5t-35 -6.5h-79v294h152q34 0 57 -16.5t37 -41t20.5 -52t7.5 -49.5q0 -14 8 -14q7 0 7 13v152q0 24 -25 24
h-361zM350 665q45 0 80 -14t58.5 -47t36 -87t12.5 -134v-100q0 -145 -47.5 -214.5t-138.5 -69.5q-93 0 -140.5 69.5t-47.5 214.5v100q0 78 12.5 131.5t36 87t58.5 48.5t80 15z" />
    <glyph glyph-name="quoteleft" unicode="&#x2018;" horiz-adv-x="253" 
d="M54 564q0 -31 20.5 -50.5t49.5 -19.5t47 15.5t18 41.5q0 25 -16 38.5t-40 13.5q-16 0 -29 -9t-15 -26q0 -9 -3 -9q-9 0 -9 24q0 13 5.5 29.5t17 33.5t29.5 32t43 26q5 2 5 5t-5 3q-2 0 -6 -2q-30 -12 -51.5 -29t-35 -37t-19.5 -41t-6 -39z" />
    <glyph glyph-name="quoteright" unicode="&#x2019;" horiz-adv-x="237" 
d="M202 630q0 31 -20.5 50.5t-49.5 19.5t-47 -15.5t-18 -41.5q0 -25 16 -38.5t40 -13.5q16 0 29 9t15 26q0 9 3 9q9 0 9 -24q0 -13 -5.5 -29.5t-17 -33.5t-29.5 -32.5t-43 -25.5q-5 -3 -5 -5q0 -3 5 -3q2 0 6 2q30 12 51 29t34.5 37t20 41t6.5 39z" />
    <glyph glyph-name="quotedblleft" unicode="&#x201c;" horiz-adv-x="446" 
d="M62 563q0 -31 20.5 -50.5t49.5 -19.5t47 15.5t18 41.5q0 25 -16 38.5t-40 13.5q-16 0 -29 -9t-15 -26q0 -9 -3 -9q-9 0 -9 24q0 13 5.5 29.5t17 33.5t29.5 32t43 26q5 2 5 5t-5 3q-2 0 -6 -2q-30 -12 -51.5 -29t-35 -37t-19.5 -41t-6 -39zM242 563q0 -31 20.5 -50.5
t49.5 -19.5t47 15.5t18 41.5q0 25 -16 38.5t-40 13.5q-16 0 -29 -9t-15 -26q0 -9 -3 -9q-9 0 -9 24q0 13 5.5 29.5t17 33.5t29.5 32t43 26q5 2 5 5t-5 3q-2 0 -6 -2q-30 -12 -51.5 -29t-35 -37t-19.5 -41t-6 -39z" />
    <glyph glyph-name="quotedblright" unicode="&#x201d;" horiz-adv-x="453" 
d="M394 630q0 31 -20.5 50.5t-49.5 19.5t-47 -15.5t-18 -41.5q0 -25 16 -38.5t40 -13.5q16 0 29 9t15 26q0 9 3 9q9 0 9 -24q0 -13 -5.5 -29.5t-17 -33.5t-29.5 -32.5t-43 -25.5q-5 -3 -5 -5q0 -3 5 -3q2 0 6 2q30 12 51 29t34.5 37t20 41t6.5 39zM214 630q0 31 -20.5 50.5
t-49.5 19.5t-47 -15.5t-18 -41.5q0 -25 16 -38.5t40 -13.5q16 0 29 9t15 26q0 9 3 9q9 0 9 -24q0 -13 -5.5 -29.5t-17 -33.5t-29.5 -32.5t-43 -25.5q-5 -3 -5 -5q0 -3 5 -3q2 0 6 2q30 12 51 29t34.5 37t20 41t6.5 39z" />
    <glyph glyph-name="bullet" unicode="&#x2022;" horiz-adv-x="457" 
d="M389 236q0 33 -13 62.5t-35 51.5t-51.5 35t-62.5 13t-62.5 -13t-51.5 -35t-35 -51.5t-13 -62.5t13 -62.5t35 -51.5t51.5 -35t62.5 -13t62.5 13t51.5 35t35 51.5t13 62.5z" />
    <glyph glyph-name="endash" unicode="&#x2013;" horiz-adv-x="360" 
d="M322 298h-276v-54h276v54z" />
    <glyph glyph-name="emdash" unicode="&#x2014;" horiz-adv-x="694" 
d="M644 298h-592v-54h592v54z" />
    <glyph glyph-name="tilde" unicode="&#x2dc;" horiz-adv-x="451" 
d="M273 583q-23 10 -47 16.5t-47 6.5q-27 0 -46 -8t-31 -19.5t-18 -24.5t-6 -23q0 -17 11 -17q10 0 10 14q2 16 14 26t30 10q15 0 29.5 -8.5t34.5 -16.5q27 -11 48.5 -15.5t45.5 -4.5q31 0 50 8t30 19t15 23t4 21q0 15 -10 15t-12 -14q-1 -11 -7.5 -19.5t-29.5 -8.5
q-17 0 -34 6.5t-34 13.5z" />
    <glyph glyph-name="trademark" unicode="&#x2122;" horiz-adv-x="495" 
d="M138 491v172h26q29 0 33 -31h8l-3 40h-159l-4 -40h8q4 31 33 31h26v-172h-26v-8h86v8h-28zM235 491v-8h66v8h-28v149l59 -157h6l54 168v-160h-27v-8h84v8h-26v172h26v9h-59l-47 -143l-54 143h-54v-9h28v-172h-28z" />
    <glyph glyph-name="scaron" unicode="&#x161;" horiz-adv-x="356" 
d="M284 401l-23 -23q-31 28 -76 28q-32 0 -57 -10.5t-41.5 -28.5t-25 -41t-8.5 -47q0 -37 21.5 -65t64.5 -38q13 -3 29 -6.5t32.5 -8t32 -10t27.5 -12.5q20 -11 27.5 -26t7.5 -31q0 -21 -10.5 -36.5t-26.5 -25t-34 -14t-34 -4.5q-46 0 -81 25.5t-49 78.5q-3 9 -8 9
q-6 0 -6 -8v-107q0 -8 6 -8q4 0 7 5l21 31q18 -19 45.5 -30.5t67.5 -11.5q33 0 58 10.5t42.5 29t26.5 43t9 53.5q0 38 -19 72t-72 52q-9 3 -23 6.5t-29.5 7.5l-31 8t-25.5 7q-20 7 -28.5 17.5t-8.5 29.5q0 26 25 47t63 21q24 0 42.5 -9t31 -23t20 -31.5t10.5 -34.5
q1 -6 6 -6q4 0 4 6v107q0 7 -3 7q-2 0 -7 -5zM182 479h6l132 133l-6 3l-129 -67l-128 67l-7 -3z" />
    <glyph glyph-name="guilsinglright" unicode="&#x203a;" horiz-adv-x="263" 
d="M43 113h17l169 156l-169 156h-17l122 -156z" />
    <glyph glyph-name="oe" unicode="&#x153;" horiz-adv-x="708" 
d="M509 406q-42 0 -77 -20.5t-61 -52.5q-26 32 -62.5 52.5t-81.5 20.5t-81.5 -20t-62.5 -51t-40 -68t-14 -70t14 -70.5t40 -68.5t62.5 -51.5t81.5 -20.5t81 20.5t62 50.5q26 -32 62 -51.5t81 -19.5q34 0 61.5 9.5t49.5 26t37 38.5t24 46q3 7 3 14t-6 7q-5 0 -9 -10
q-9 -21 -22.5 -42t-32.5 -37t-44.5 -26t-58.5 -10q-40 0 -64.5 30t-24.5 96v102h241q18 0 16 13q-1 16 -10.5 44t-29.5 54t-53 45.5t-81 19.5zM133 218q0 42 3.5 74t13.5 54t28.5 33t48.5 11q31 0 49 -11.5t28 -33t13 -53.5t3 -74v-43q0 -45 -3.5 -77.5t-13.5 -53.5
t-28 -31.5t-48 -10.5t-48 10.5t-28.5 31.5t-14 53.5t-3.5 77.5v43zM426 246v40q0 33 7.5 53.5t19.5 31.5t27 15t30 4q24 0 39.5 -8.5t24.5 -22.5t12 -31t3 -35q0 -47 -15 -47h-148z" />
    <glyph glyph-name="Ydieresis" unicode="&#x178;" horiz-adv-x="662" 
d="M330 781q0 20 -13.5 33.5t-33.5 13.5t-33.5 -13.5t-13.5 -33.5t13.5 -33.5t33.5 -13.5t33.5 13.5t13.5 33.5zM482 781q0 20 -13.5 33.5t-33.5 13.5t-33.5 -13.5t-13.5 -33.5t13.5 -33.5t33.5 -13.5t33.5 13.5t13.5 33.5zM311 672h-279v-16h80l194 -326v-314h-96v-16h289
v16h-96v340l165 300h81v16h-204v-16h97l-155 -282l-168 282h92v16z" />
    <glyph glyph-name="exclamdown" unicode="&#xa1;" horiz-adv-x="269" 
d="M134 359q-3 -44 -7 -105t-15 -122q-3 -15 -8 -36.5t-10 -46.5t-8.5 -51.5t-3.5 -50.5q0 -27 5.5 -45t13.5 -28t18.5 -14t21.5 -4q10 0 20 4t18 14t13.5 28t5.5 45q0 24 -3.5 50.5t-8.5 51.5t-10 46.5t-8 36.5q-11 61 -15 122t-7 105h-12zM196 476q0 23 -15.5 38.5
t-38.5 15.5t-38.5 -15.5t-15.5 -38.5t15.5 -38.5t38.5 -15.5t38.5 15.5t15.5 38.5z" />
    <glyph glyph-name="cent" unicode="&#xa2;" horiz-adv-x="344" 
d="M184 441q-69 -10 -107.5 -52t-38.5 -107q0 -33 12 -61t32 -48.5t46.5 -33t55.5 -14.5v-52h16v51q30 2 51 12.5t34.5 24t20.5 28t10 25.5q1 3 1 7q0 7 -6 7t-7 -6q-7 -34 -35.5 -58.5t-68.5 -25.5v292q23 0 34 -8t11 -14q0 -3 -1 -4q-10 -12 -10 -28q0 -14 9 -23t23 -9
t23.5 9.5t9.5 24.5q0 12 -8.5 23.5t-22 20.5t-31.5 14t-37 5v39h-16v-39zM184 430v-292q-42 5 -54.5 33.5t-12.5 88.5v44q0 33 3 55.5t10.5 37t20.5 22.5t33 11z" />
    <glyph glyph-name="sterling" unicode="&#xa3;" horiz-adv-x="543" 
d="M330 685q-43 0 -86 -8t-77.5 -27.5t-56.5 -52.5t-22 -83q0 -21 2 -37t6.5 -32.5t11 -36.5t15.5 -48h-85v-18h92l53 -161q-24 6 -43 6t-40.5 -6.5t-39.5 -20t-30 -33.5t-12 -47q0 -16 5.5 -31.5t16 -27.5t27 -19t37.5 -7q50 0 72 18t34 41q24 -30 61 -47.5t81 -17.5
q38 0 65.5 20t46.5 49.5t31 64t19 63.5q1 3 1 7q0 10 -7 10q-5 0 -8 -6q-19 -44 -42.5 -71t-64.5 -27q-23 0 -47.5 7.5t-47.5 19t-44 24t-37 22.5v170h79v18h-79v170q0 41 8 68t23 42.5t35.5 22t46.5 6.5q19 0 38 -5.5t34 -14t24.5 -19.5t9.5 -22q0 -8 -6 -10t-13 -2
q-11 0 -21.5 -2.5t-19.5 -8.5t-14.5 -16.5t-5.5 -27.5q0 -24 17 -37t41 -13q35 0 50 24.5t15 56.5q0 25 -12.5 46t-33.5 36t-48 23t-55 8zM104 13q-32 0 -50 21t-18 46q0 16 5 27t12.5 18.5t16.5 11t16 3.5q27 0 55.5 -21.5t51.5 -50.5q-9 -22 -28.5 -38.5t-60.5 -16.5z" />
    <glyph glyph-name="yen" unicode="&#xa5;" horiz-adv-x="654" 
d="M395 333v23l165 300h81v16h-204v-16h97l-155 -282l-168 282h92v16h-279v-16h80l192 -323h-96v-16h98v-51h-98v-16h98v-234h-96v-16h289v16h-96v234h97v16h-97v51h97v16h-97z" />
    <glyph glyph-name="brokenbar" unicode="&#xa6;" horiz-adv-x="115" 
d="M73 270h-27v-270h27v270zM46 377h27v297h-27v-297z" />
    <glyph glyph-name="section" unicode="&#xa7;" 
d="M331 609q0 13 -7 28t-23.5 28t-44 21.5t-67.5 8.5q-35 0 -62.5 -13t-47 -34t-30 -48.5t-10.5 -57.5q0 -46 22 -78t70 -45q-36 -8 -63.5 -41t-27.5 -88q0 -58 35 -98t110 -51q63 -10 91 -37t28 -62q0 -42 -31.5 -70t-88.5 -28q-24 0 -44 7.5t-34 18t-22 20.5t-8 15t9 5
q17 0 27 10t10 25q0 18 -10 27t-24 9q-18 0 -27.5 -13.5t-9.5 -32.5q0 -20 9.5 -39t27 -34t42 -24.5t54.5 -9.5q77 0 121 45.5t44 120.5q0 19 -3.5 38t-12.5 36t-24 31t-37 23q38 14 59 45t21 82q0 32 -9 60t-29 49.5t-52 37t-78 22.5q-47 7 -74.5 25t-27.5 53q0 19 9.5 34
t24.5 26t34 17t39 6q25 0 45 -5t34 -11t21 -12t7 -8q0 -1 -1 -1q-17 -1 -25.5 -12t-8.5 -25q0 -16 11 -24.5t26 -8.5q14 0 23.5 9t9.5 28zM324 313q0 -28 -21 -50.5t-51 -33.5q-49 10 -81.5 21.5t-52 24.5t-27.5 28.5t-8 33.5q0 34 21.5 51t53.5 24q21 -3 49.5 -11.5
t54.5 -21t44 -29t18 -37.5z" />
    <glyph glyph-name="dieresis" unicode="&#xa8;" horiz-adv-x="419" 
d="M186 577q0 20 -13.5 33.5t-33.5 13.5t-33.5 -13.5t-13.5 -33.5t13.5 -33.5t33.5 -13.5t33.5 13.5t13.5 33.5zM338 577q0 20 -13.5 33.5t-33.5 13.5t-33.5 -13.5t-13.5 -33.5t13.5 -33.5t33.5 -13.5t33.5 13.5t13.5 33.5z" />
    <glyph glyph-name="copyright" unicode="&#xa9;" horiz-adv-x="618" 
d="M594 372q0 57 -22 107.5t-59.5 88t-88 59.5t-107.5 22t-107.5 -22t-88 -59.5t-59.5 -88t-22 -107.5t22 -107.5t59.5 -88t88 -59.5t107.5 -22t107.5 22t88 59.5t59.5 88t22 107.5zM63 373q0 53 20 99.5t54.5 81t81 54.5t99.5 20t99.5 -20t81 -54.5t54.5 -81t20 -99.5
t-20 -99.5t-54.5 -81t-81 -54.5t-99.5 -20t-99.5 20t-81 54.5t-54.5 81t-20 99.5zM409 333q-5 0 -6 -5q-15 -34 -36 -55t-52 -21q-73 0 -73 111v45q0 111 75 111q32 0 52 -18t30 -49q2 -4 4 -4q3 0 3 5v68q0 5 -3 5q-4 0 -6 -3l-16 -17q-13 11 -29 17t-35 6q-27 0 -50 -12.5
t-40 -33t-26.5 -46t-9.5 -51.5q0 -30 11 -56t28.5 -45.5t39.5 -31t45 -11.5q21 0 38 8.5t29 21.5l23 -24q2 -2 3 -2q3 0 3 3v80q0 4 -2 4z" />
    <glyph glyph-name="ordfeminine" unicode="&#xaa;" horiz-adv-x="344" 
d="M47 327v-31h262v31h-262zM117 611q-19 -13 -19 -30q0 -9 5.5 -16t15.5 -7q11 0 17 6t6 15q0 10 -7 18q-3 3 -5 4t-2 3q0 4 12.5 7.5t26.5 3.5q18 0 29 -6.5t11 -26.5v-70q-28 0 -52 -6t-42 -17t-28 -26.5t-10 -35.5q0 -29 19.5 -41.5t45.5 -12.5q27 0 44 11.5t25 22.5
q2 -13 11.5 -23.5t33.5 -10.5q15 0 25.5 5t17 11.5t9.5 13t3 10.5q0 3 -2 3t-4 -5q-5 -10 -12 -16t-16 -6q-11 0 -13.5 10t-2.5 27v145q0 26 -19.5 40t-58.5 14q-19 0 -36 -3.5t-28 -10.5zM207 506v-82q0 -6 -5 -12t-12 -11t-15.5 -8.5t-14.5 -3.5q-18 0 -28 14.5t-10 38.5
q0 19 7 31.5t19 19t27 9.5t32 4z" />
    <glyph glyph-name="guillemotleft" unicode="&#xab;" horiz-adv-x="425" 
d="M199 425l-169 -156l169 -156h17l-121 156l121 156h-17zM345 425l-169 -156l169 -156h17l-121 156l121 156h-17z" />
    <glyph glyph-name="logicalnot" unicode="&#xac;" 
d="M44 360v-21h291v21h-291zM228 698l-4 3l-89 -11v-9l47 5v-275h-45v-10h136v10h-45v287zM205 157q33 5 56.5 24.5t23.5 48.5q0 32 -27 50.5t-60 18.5q-35 0 -60.5 -18.5t-25.5 -49.5q0 -34 23.5 -52t55.5 -22q4 0 4 -1l-1 -0.5t-3 -0.5q-11 0 -26 -4t-29 -13.5t-23.5 -25
t-9.5 -37.5q0 -21 8.5 -36t22 -25.5t30.5 -15.5t34 -5t34 5t31 15.5t22.5 26t8.5 36.5q0 22 -10 37t-24 24.5t-29.5 13.5t-25.5 4q-2 0 -2.5 0.5l-0.5 0.5q0 1 3 1zM154 231q0 27 11.5 42.5t32.5 15.5q42 0 42 -58q0 -20 -5.5 -33.5t-13 -21.5t-14.5 -11.5t-9 -3.5t-9.5 3.5
t-15 11.5t-13.5 21.5t-6 33.5zM145 76q0 21 7.5 35.5t17 23.5t18 13t10.5 4t10.5 -3.5t17.5 -12.5t16.5 -23.5t7.5 -35.5q0 -35 -12.5 -54.5t-39.5 -19.5t-40 19t-13 54z" />
    <glyph glyph-name="registered" unicode="&#xae;" horiz-adv-x="435" 
d="M51 495q0 34 13 63.5t35 51.5t51.5 34.5t63.5 12.5q33 0 62.5 -12.5t51.5 -34.5t35 -51.5t13 -63.5t-13 -63.5t-35 -51.5t-51.5 -34.5t-62.5 -12.5q-34 0 -63.5 12.5t-51.5 34.5t-35 51.5t-13 63.5zM397 495q0 38 -14.5 71.5t-39.5 58.5t-58.5 39.5t-71.5 14.5
t-71.5 -14.5t-58.5 -39.5t-39.5 -58.5t-14.5 -71.5t14.5 -71.5t39.5 -58.5t58.5 -39.5t71.5 -14.5t71.5 14.5t58.5 39.5t39.5 58.5t14.5 71.5zM287 401q-2 6 -2 21t-2 27q-4 26 -17 35t-33 14q52 9 52 51q0 26 -19 39.5t-48 13.5h-90v-10h28v-195h-28v-10h86v10h-27v100h25
q11 0 22.5 -8.5t14.5 -36.5q2 -17 2.5 -33.5t9.5 -26.5q5 -7 21 -7q11 0 21 3.5t13 6.5q1 1 1 2h-1h-2q-5 -4 -14 -4q-10 0 -13 8zM187 507v85h31q37 0 37 -37v-12q0 -20 -9.5 -28t-27.5 -8h-31z" />
    <glyph glyph-name="macron" unicode="&#xaf;" horiz-adv-x="441" 
d="M108 566v-29h237v29h-237z" />
    <glyph glyph-name="degree" unicode="&#xb0;" horiz-adv-x="224" 
d="M192 606q0 31 -22 53t-53 22t-53 -22t-22 -53t22 -53t53 -22t53 22t22 53zM58 606q0 25 17 42t42 17t42 -17t17 -42t-17 -42t-42 -17t-42 17t-17 42z" />
    <glyph glyph-name="plusminus" unicode="&#xb1;" horiz-adv-x="398" 
d="M343 185h-292v-54h292v54zM170 417h-135v-54h135v-135h54v135h135v54h-135v135h-54v-135z" />
    <glyph glyph-name="twosuperior" unicode="&#xb2;" horiz-adv-x="350" 
d="M130 647q-4 0 -6 -1h-2q-4 0 -4 5q0 14 20.5 23t41.5 9q60 0 60 -66q0 -30 -10 -53.5t-33 -44.5l-110 -104v-23h199l5 83v4q0 11 -3 11t-6 -14q-5 -22 -14.5 -34.5t-29.5 -12.5h-126l95 82q32 28 55.5 55t23.5 57q0 19 -8.5 32.5t-22 22t-30.5 12t-33 3.5q-40 0 -69 -18
t-29 -50q0 -14 8 -22.5t22 -8.5q11 0 21 7t10 21q0 9 -7 17t-18 8z" />
    <glyph glyph-name="threesuperior" unicode="&#xb3;" horiz-adv-x="325" 
d="M88 654q0 -14 7.5 -21t18.5 -7q12 0 19.5 6.5t7.5 17.5t-5 17t-13 8q-4 1 -4 4t3 5q6 5 18 7.5t25 2.5q18 0 28 -5.5t15.5 -14t7 -19t1.5 -20.5q0 -37 -18 -53t-45 -16q-7 0 -16 1t-15 1q-10 0 -10 -7q0 -6 10 -6q6 0 15 0.5t16 0.5q20 0 33.5 -6.5t21 -17t10.5 -23.5
t3 -26q0 -41 -18 -60t-45 -19q-11 0 -24 3t-21 10q-3 3 -3 6q0 4 4 5q5 2 13 7.5t8 19.5q0 16 -8.5 23t-19.5 7q-12 0 -20.5 -8t-8.5 -23t8 -26.5t20 -19t27 -11t30 -3.5q22 0 40.5 7.5t32 19.5t21 28.5t7.5 34.5q0 29 -17.5 48.5t-55.5 27.5q8 1 20 5.5t23 13.5t19 22t8 30
q0 19 -8 32.5t-21.5 22.5t-30 13.5t-34.5 4.5q-22 0 -37.5 -5.5t-25 -13t-13.5 -16.5t-4 -15z" />
    <glyph glyph-name="acute" unicode="&#xb4;" horiz-adv-x="392" 
d="M263 648l-80 -154l7 -5l159 159h-86z" />
    <glyph glyph-name="mu" unicode="&#xb5;" 
d="M49 365v-22h292v22h-292zM228 698l-4 3l-89 -11v-9l47 5v-275h-45v-10h136v10h-45v287zM145 255q-4 0 -6 -1h-2q-4 0 -4 5q0 11 20.5 20.5t41.5 9.5q60 0 60 -64q0 -30 -10 -53.5t-33 -44.5l-110 -104v-23h199l5 83v4q0 11 -3 11t-6 -14q-5 -22 -14.5 -34.5t-29.5 -12.5
h-126l95 82q32 28 55.5 55t23.5 57q0 19 -8.5 32.5t-22 22t-30.5 12t-33 3.5q-40 0 -69 -18t-29 -50q0 -14 8 -22.5t22 -8.5q11 0 21 7t10 21q0 9 -7 17t-18 8z" />
    <glyph glyph-name="paragraph" unicode="&#xb6;" horiz-adv-x="645" 
d="M462 656v-764h54v764h86v16h-347q-45 0 -85 -11t-69.5 -33.5t-46.5 -57t-17 -80.5q0 -47 17 -81t46.5 -56.5t69.5 -33.5t85 -11h68v-416h53v764h86z" />
    <glyph glyph-name="periodcentered" unicode="&#xb7;" horiz-adv-x="224" 
d="M163 322q0 23 -15.5 38.5t-38.5 15.5t-38.5 -15.5t-15.5 -38.5t15.5 -38.5t38.5 -15.5t38.5 15.5t15.5 38.5z" />
    <glyph glyph-name="periodcentered" unicode="&#x2219;" horiz-adv-x="224" 
d="M163 322q0 23 -15.5 38.5t-38.5 15.5t-38.5 -15.5t-15.5 -38.5t15.5 -38.5t38.5 -15.5t38.5 15.5t15.5 38.5z" />
    <glyph glyph-name="cedilla" unicode="&#xb8;" horiz-adv-x="349" 
d="M216 0h-24l-12 -54q11 -5 22 -15t11 -29q0 -18 -12 -26.5t-27 -8.5q-11 0 -21.5 4.5t-18.5 14.5q-8 8 -12 8q-3 0 -3 -4t4 -11q11 -17 27.5 -29.5t37.5 -12.5q30 0 48 16t18 40q0 13 -5 23t-12.5 17.5t-16 12t-14.5 6.5z" />
    <glyph glyph-name="onesuperior" unicode="&#xb9;" horiz-adv-x="280" 
d="M178 698l-4 3l-89 -11v-9l47 5v-275h-45v-10h136v10h-45v287z" />
    <glyph glyph-name="ordmasculine" unicode="&#xba;" horiz-adv-x="317" 
d="M30 327v-31h261v31h-261zM162 371q27 0 49 12t37 31t23.5 41.5t8.5 42.5t-8.5 42t-23.5 40.5t-37 30.5t-49 12t-49 -12t-37.5 -30.5t-24 -40.5t-8.5 -42t8.5 -42.5t24 -41.5t37.5 -31t49 -12zM105 510q0 51 10.5 77t46.5 26q37 0 46 -26t9 -77v-26q0 -54 -10 -78.5
t-45 -24.5q-36 0 -46.5 24.5t-10.5 78.5v26z" />
    <glyph glyph-name="guillemotright" unicode="&#xbb;" horiz-adv-x="414" 
d="M217 113h17l169 156l-169 156h-17l122 -156zM66 113h17l169 156l-169 156h-17l121 -156z" />
    <glyph glyph-name="onequarter" unicode="&#xbc;" 
d="M57 371v-22h291v22h-291zM228 698l-4 3l-89 -11v-9l47 5v-275h-45v-10h136v10h-45v287zM251 309h-18l-20 -29t-65 -99q-20 -30 -33.5 -55l-13.5 -25v-11h107v-80h-39v-11h122v11h-40v80h52v-42h10v98h-10v-46h-52v209zM111 100q1 3 6.5 12.5t12.5 21.5t14.5 25t14.5 24
q6 9 13.5 20.5l15 23t13.5 20t7 10.5v-157h-97z" />
    <glyph glyph-name="onehalf" unicode="&#xbd;" 
d="M49 365v-22h292v22h-292zM228 698l-4 3l-89 -11v-9l47 5v-276h-45v-9h136v9h-45v288zM145 255q-4 0 -6 -1h-2q-4 0 -4 5q0 14 20.5 23t41.5 9q60 0 60 -66q0 -30 -10 -53.5t-33 -44.5l-110 -104v-23h199l5 83v4q0 11 -3 11t-6 -14q-5 -22 -14.5 -34.5t-29.5 -12.5h-126
l95 82q32 28 55.5 55t23.5 57q0 19 -8.5 32.5t-22 22t-30.5 12t-33 3.5q-40 0 -69 -18t-29 -50q0 -14 8 -22.5t22 -8.5q11 0 21 7t10 21q0 9 -7 17t-18 8z" />
    <glyph glyph-name="threequarters" unicode="&#xbe;" 
d="M49 359v-21h292v21h-292zM123 654q0 -14 7.5 -21t18.5 -7q12 0 19.5 6.5t7.5 17.5t-5 17t-13 8q-4 1 -4 4t3 5q6 5 18 7.5t25 2.5q18 0 28 -5.5t15.5 -14t7 -19t1.5 -20.5q0 -37 -18 -53t-45 -16q-7 0 -16 1t-15 1q-10 0 -10 -7q0 -6 10 -6q6 0 15 0.5t16 0.5
q20 0 33.5 -6.5t21 -17t10.5 -23.5t3 -26q0 -41 -18 -60t-45 -19q-11 0 -24 3t-21 10q-3 3 -3 6q0 4 4 5q5 2 13 7.5t8 19.5q0 16 -8.5 23t-19.5 7q-12 0 -20.5 -8t-8.5 -23t8 -26.5t20 -19t27 -11t30 -3.5q22 0 40.5 7.5t32 19.5t21 28.5t7.5 34.5q0 29 -17.5 48.5
t-55.5 27.5q8 1 20 5.5t23 13.5t19 22t8 30q0 19 -8 32.5t-21.5 22.5t-30 13.5t-34.5 4.5q-22 0 -37.5 -5.5t-25 -13t-13.5 -16.5t-4 -15zM251 309h-18l-20 -29t-65 -99q-20 -30 -33.5 -55l-13.5 -25v-11h107v-80h-39v-11h122v11h-40v80h52v-42h10v98h-10v-46h-52v209z
M111 100q1 3 6.5 12.5t12.5 21.5t14.5 25t14.5 24q6 9 13.5 20.5l15 23t13.5 20t7 10.5v-157h-97z" />
    <glyph glyph-name="questiondown" unicode="&#xbf;" horiz-adv-x="403" 
d="M41 -1q0 -69 41.5 -104t113.5 -35q38 0 67.5 8.5t49.5 22t30.5 31t10.5 35.5q0 23 -15.5 38t-38.5 15q-26 0 -41 -15t-15 -37q0 -16 10 -29.5t33 -18.5q4 -1 4 -3q0 -3 -5 -8t-16.5 -10t-30 -9t-45.5 -4q-52 0 -76 23t-24 50q0 20 10 40t27 41q13 17 27.5 31t28 28.5
t26 31t22.5 39.5q5 13 7 28.5t2 32.5q0 30 -4.5 59t-7.5 45q-1 7 -8 7q-8 0 -8 -7q0 -5 0.5 -9.5t1.5 -11.5q1 -6 1 -16v-20q0 -16 -14.5 -35t-36 -40t-45.5 -43t-42 -44q-21 -26 -30.5 -53t-9.5 -54zM171 471q0 -23 15.5 -38.5t38.5 -15.5t38.5 15.5t15.5 38.5t-15.5 38.5
t-38.5 15.5t-38.5 -15.5t-15.5 -38.5z" />
    <glyph glyph-name="Agrave" unicode="&#xc0;" horiz-adv-x="661" 
d="M209 853l143 -143l6 4l-72 139h-77zM22 16v-16h222v16h-118l63 193h201l65 -193h-103v-16h293v16h-87l-219 665h-12l-219 -665h-86zM289 511l96 -286h-190z" />
    <glyph glyph-name="Aacute" unicode="&#xc1;" horiz-adv-x="661" 
d="M381 853l-72 -139l6 -4l143 143h-77zM22 16v-16h222v16h-118l63 193h201l65 -193h-103v-16h293v16h-87l-219 665h-12l-219 -665h-86zM289 511l96 -286h-190z" />
    <glyph glyph-name="Acircumflex" unicode="&#xc2;" horiz-adv-x="661" 
d="M465 725l-133 133h-6l-131 -133l6 -4l128 68l129 -68zM22 16v-16h222v16h-118l63 193h201l65 -193h-103v-16h293v16h-87l-219 665h-12l-219 -665h-86zM289 511l96 -286h-190z" />
    <glyph glyph-name="Atilde" unicode="&#xc3;" horiz-adv-x="661" 
d="M369 805q-23 10 -47 16.5t-47 6.5q-27 0 -46 -8t-31 -19.5t-18 -24.5t-6 -23q0 -17 11 -17q10 0 10 14q2 16 14 26t30 10q15 0 29.5 -8.5t34.5 -16.5q27 -11 48.5 -15.5t45.5 -4.5q31 0 50 8t30 19t15 23t4 21q0 15 -10 15t-12 -14q-1 -11 -7.5 -19.5t-29.5 -8.5
q-17 0 -34 6.5t-34 13.5zM22 16v-16h222v16h-118l63 193h201l65 -193h-103v-16h293v16h-87l-219 665h-12l-219 -665h-86zM289 511l96 -286h-190z" />
    <glyph glyph-name="Adieresis" unicode="&#xc4;" horiz-adv-x="661" 
d="M302 781q0 20 -13.5 33.5t-33.5 13.5t-33.5 -13.5t-13.5 -33.5t13.5 -33.5t33.5 -13.5t33.5 13.5t13.5 33.5zM454 781q0 20 -13.5 33.5t-33.5 13.5t-33.5 -13.5t-13.5 -33.5t13.5 -33.5t33.5 -13.5t33.5 13.5t13.5 33.5zM22 16v-16h222v16h-118l63 193h201l65 -193h-103
v-16h293v16h-87l-219 665h-12l-219 -665h-86zM289 511l96 -286h-190z" />
    <glyph glyph-name="Aring" unicode="&#xc5;" horiz-adv-x="661" 
d="M405 798q0 31 -22 53t-53 22t-53 -22t-22 -53t22 -53t53 -22t53 22t22 53zM271 798q0 25 17 42t42 17t42 -17t17 -42t-17 -42t-42 -17t-42 17t-17 42zM22 16v-16h222v16h-118l63 193h201l65 -193h-103v-16h293v16h-87l-219 665h-12l-219 -665h-86zM289 511l96 -286h-190z
" />
    <glyph glyph-name="AE" unicode="&#xc6;" horiz-adv-x="957" 
d="M317 301l199 316v-316h-199zM905 648q0 12 -7.5 18t-25.5 6h-440v-16h86l-408 -640h-84v-16h218v16h-109l171 269h210v-269h-83v-16h470q19 0 24.5 10.5t5.5 21.5v150q0 24 -8 24q-7 0 -11 -21q-8 -38 -17 -69t-24 -53.5t-38 -34.5t-58 -12h-161v330h79q22 0 35 -6.5
t20.5 -18.5t11.5 -29t8 -38q3 -14 8 -14q6 0 6 13v203q0 12 -6 12q-5 0 -8 -14q-4 -21 -8 -38t-11.5 -29t-20.5 -18.5t-35 -6.5h-79v294h152q34 0 57 -16.5t37 -41t20.5 -52t7.5 -49.5q0 -14 8 -14q7 0 7 13v152z" />
    <glyph glyph-name="Ccedilla" unicode="&#xc7;" horiz-adv-x="613" 
d="M38 336q0 -72 25 -135.5t66 -111.5t93 -77t106 -32l-10 -43q11 -5 22 -15t11 -29q0 -18 -12 -26.5t-27 -8.5q-11 0 -21.5 4.5t-18.5 14.5q-8 8 -12 8q-3 0 -3 -4t4 -11q11 -17 27.5 -29.5t37.5 -12.5q30 0 48 16t18 40q0 13 -5 23t-12.5 17.5t-16 12t-14.5 6.5l7 37
q44 2 84.5 21t72.5 54l53 -58q5 -5 9 -5q6 0 6 7v193q0 10 -5 10t-10 -11q-18 -41 -39.5 -76t-48.5 -60t-60 -39t-73 -14q-91 0 -134.5 69.5t-43.5 206.5v112q0 132 44.5 202.5t138.5 70.5q41 0 76 -12.5t61 -37.5q23 -23 40.5 -53t28.5 -62q3 -10 7 -10q5 0 5 12v163
q0 9 -2 12t-6 3q-5 0 -13 -8l-39 -40q-32 26 -72 39.5t-85 13.5q-66 0 -122.5 -30t-98 -79t-64.5 -111.5t-23 -126.5z" />
    <glyph glyph-name="Egrave" unicode="&#xc8;" horiz-adv-x="574" 
d="M163 853l143 -143l7 4l-72 139h-78zM216 346h79q22 0 35 -6.5t20.5 -18.5t11.5 -29t8 -38q3 -14 8 -14q6 0 6 13v203q0 12 -6 12q-5 0 -8 -14q-4 -21 -8 -38t-11.5 -29t-20.5 -18.5t-35 -6.5h-79v294h152q34 0 57 -16.5t37 -41t20.5 -52t7.5 -49.5q0 -14 8 -14q7 0 7 13
v152q0 24 -25 24h-447v-16h86v-640h-85v-16h470q29 0 29 32v150q0 24 -8 24q-7 0 -11 -21q-8 -38 -17 -69t-24 -53.5t-38 -34.5t-58 -12h-161v330z" />
    <glyph glyph-name="Eacute" unicode="&#xc9;" horiz-adv-x="574" 
d="M358 853l-72 -139l6 -4l143 143h-77zM216 346h79q22 0 35 -6.5t20.5 -18.5t11.5 -29t8 -38q3 -14 8 -14q6 0 6 13v203q0 12 -6 12q-5 0 -8 -14q-4 -21 -8 -38t-11.5 -29t-20.5 -18.5t-35 -6.5h-79v294h152q34 0 57 -16.5t37 -41t20.5 -52t7.5 -49.5q0 -14 8 -14q7 0 7 13
v152q0 24 -25 24h-447v-16h86v-640h-85v-16h470q29 0 29 32v150q0 24 -8 24q-7 0 -11 -21q-8 -38 -17 -69t-24 -53.5t-38 -34.5t-58 -12h-161v330z" />
    <glyph glyph-name="Ecircumflex" unicode="&#xca;" horiz-adv-x="574" 
d="M439 725l-133 133h-6l-131 -133l6 -4l128 68l129 -68zM216 346h79q22 0 35 -6.5t20.5 -18.5t11.5 -29t8 -38q3 -14 8 -14q6 0 6 13v203q0 12 -6 12q-5 0 -8 -14q-4 -21 -8 -38t-11.5 -29t-20.5 -18.5t-35 -6.5h-79v294h152q34 0 57 -16.5t37 -41t20.5 -52t7.5 -49.5
q0 -14 8 -14q7 0 7 13v152q0 24 -25 24h-447v-16h86v-640h-85v-16h470q29 0 29 32v150q0 24 -8 24q-7 0 -11 -21q-8 -38 -17 -69t-24 -53.5t-38 -34.5t-58 -12h-161v330z" />
    <glyph glyph-name="Edieresis" unicode="&#xcb;" horiz-adv-x="574" 
d="M271 781q0 20 -13.5 33.5t-33.5 13.5t-33.5 -13.5t-13.5 -33.5t13.5 -33.5t33.5 -13.5t33.5 13.5t13.5 33.5zM423 781q0 20 -13.5 33.5t-33.5 13.5t-33.5 -13.5t-13.5 -33.5t13.5 -33.5t33.5 -13.5t33.5 13.5t13.5 33.5zM216 346h79q22 0 35 -6.5t20.5 -18.5t11.5 -29
t8 -38q3 -14 8 -14q6 0 6 13v203q0 12 -6 12q-5 0 -8 -14q-4 -21 -8 -38t-11.5 -29t-20.5 -18.5t-35 -6.5h-79v294h152q34 0 57 -16.5t37 -41t20.5 -52t7.5 -49.5q0 -14 8 -14q7 0 7 13v152q0 24 -25 24h-447v-16h86v-640h-85v-16h470q29 0 29 32v150q0 24 -8 24
q-7 0 -11 -21q-8 -38 -17 -69t-24 -53.5t-38 -34.5t-58 -12h-161v330z" />
    <glyph glyph-name="Igrave" unicode="&#xcc;" horiz-adv-x="355" 
d="M37 853l143 -143l6 4l-72 139h-77zM312 656v16h-269v-16h86v-640h-86v-16h269v16h-86v640h86z" />
    <glyph glyph-name="Iacute" unicode="&#xcd;" horiz-adv-x="355" 
d="M242 853l-72 -139l6 -4l143 143h-77zM312 656v16h-269v-16h86v-640h-86v-16h269v16h-86v640h86z" />
    <glyph glyph-name="Icircumflex" unicode="&#xce;" horiz-adv-x="355" 
d="M306 725l-132 133h-6l-131 -133l6 -4l128 68l129 -68zM312 656v16h-269v-16h86v-640h-86v-16h269v16h-86v640h86z" />
    <glyph glyph-name="Idieresis" unicode="&#xcf;" horiz-adv-x="355" 
d="M145 781q0 20 -13.5 33.5t-33.5 13.5t-33.5 -13.5t-13.5 -33.5t13.5 -33.5t33.5 -13.5t33.5 13.5t13.5 33.5zM297 781q0 20 -13.5 33.5t-33.5 13.5t-33.5 -13.5t-13.5 -33.5t13.5 -33.5t33.5 -13.5t33.5 13.5t13.5 33.5zM312 656v16h-269v-16h86v-640h-86v-16h269v16h-86
v640h86z" />
    <glyph glyph-name="Eth" unicode="&#xd0;" horiz-adv-x="662" 
d="M217 342v314h110q41 0 78 -14.5t64.5 -48t44 -88.5t16.5 -136v-50q0 -89 -16.5 -147.5t-44.5 -93t-65 -48.5t-79 -14h-108v302h138v24h-138zM120 318v-302h-88v-16h295q70 0 128 24.5t99 69.5t63.5 108.5t22.5 141.5q0 73 -23 133.5t-64.5 104t-99 67t-126.5 23.5h-295
v-16h88v-314h-109v-24h109z" />
    <glyph glyph-name="Ntilde" unicode="&#xd1;" horiz-adv-x="657" 
d="M369 805q-23 10 -47 16.5t-47 6.5q-27 0 -46 -8t-31 -19.5t-18 -24.5t-6 -23q0 -17 11 -17q10 0 10 14q2 16 14 26t30 10q15 0 29.5 -8.5t34.5 -16.5q27 -11 48.5 -15.5t45.5 -4.5q31 0 50 8t30 19t15 23t4 21q0 15 -10 15t-12 -14q-1 -11 -7.5 -19.5t-29.5 -8.5
q-17 0 -34 6.5t-34 13.5zM27 16v-16h188v16h-86v611l387 -635h34v664h86v16h-188v-16h86v-491l-310 507h-197v-16h86v-640h-86z" />
    <glyph glyph-name="Ograve" unicode="&#xd2;" horiz-adv-x="691" 
d="M209 853l143 -143l6 4l-72 139h-77zM350 -19q64 0 120.5 29.5t98.5 78.5t66.5 112.5t24.5 131.5t-24.5 131.5t-66.5 112t-98.5 77.5t-120.5 29t-120.5 -29t-98.5 -77.5t-66.5 -112t-24.5 -131.5t24.5 -131.5t66.5 -112.5t98.5 -78.5t120.5 -29.5zM350 665q45 0 80 -14
t58.5 -47t36 -87t12.5 -134v-100q0 -145 -48 -214.5t-139 -69.5t-139 69.5t-48 214.5v100q0 78 12.5 131.5t36 87t58.5 48.5t80 15z" />
    <glyph glyph-name="Oacute" unicode="&#xd3;" horiz-adv-x="691" 
d="M397 853l-72 -139l6 -4l143 143h-77zM350 -19q64 0 120.5 29.5t98.5 78.5t66.5 112.5t24.5 131.5t-24.5 131.5t-66.5 112t-98.5 77.5t-120.5 29t-120.5 -29t-98.5 -77.5t-66.5 -112t-24.5 -131.5t24.5 -131.5t66.5 -112.5t98.5 -78.5t120.5 -29.5zM350 665q45 0 80 -14
t58.5 -47t36 -87t12.5 -134v-100q0 -145 -48 -214.5t-139 -69.5t-139 69.5t-48 214.5v100q0 78 12.5 131.5t36 87t58.5 48.5t80 15z" />
    <glyph glyph-name="Ocircumflex" unicode="&#xd4;" horiz-adv-x="691" 
d="M488 725l-132 133h-7l-131 -133l7 -4l128 68l129 -68zM350 -19q64 0 120.5 29.5t98.5 78.5t66.5 112.5t24.5 131.5t-24.5 131.5t-66.5 112t-98.5 77.5t-120.5 29t-120.5 -29t-98.5 -77.5t-66.5 -112t-24.5 -131.5t24.5 -131.5t66.5 -112.5t98.5 -78.5t120.5 -29.5z
M350 665q45 0 80 -14t58.5 -47t36 -87t12.5 -134v-100q0 -145 -48 -214.5t-139 -69.5t-139 69.5t-48 214.5v100q0 78 12.5 131.5t36 87t58.5 48.5t80 15z" />
    <glyph glyph-name="Otilde" unicode="&#xd5;" horiz-adv-x="691" 
d="M381 805q-23 10 -47 16.5t-47 6.5q-27 0 -46 -8t-31 -19.5t-18 -24.5t-6 -23q0 -17 11 -17q10 0 10 14q2 16 14 26t30 10q15 0 29.5 -8.5t34.5 -16.5q27 -11 48.5 -15.5t45.5 -4.5q31 0 50 8t30 19t15 23t4 21q0 15 -10 15t-12 -14q-1 -11 -7.5 -19.5t-29.5 -8.5
q-17 0 -34 6.5t-34 13.5zM350 -19q64 0 120.5 29.5t98.5 78.5t66.5 112.5t24.5 131.5t-24.5 131.5t-66.5 112t-98.5 77.5t-120.5 29t-120.5 -29t-98.5 -77.5t-66.5 -112t-24.5 -131.5t24.5 -131.5t66.5 -112.5t98.5 -78.5t120.5 -29.5zM350 665q45 0 80 -14t58.5 -47t36 -87
t12.5 -134v-100q0 -145 -48 -214.5t-139 -69.5t-139 69.5t-48 214.5v100q0 78 12.5 131.5t36 87t58.5 48.5t80 15z" />
    <glyph glyph-name="Odieresis" unicode="&#xd6;" horiz-adv-x="691" 
d="M323 781q0 20 -13.5 33.5t-33.5 13.5t-33.5 -13.5t-13.5 -33.5t13.5 -33.5t33.5 -13.5t33.5 13.5t13.5 33.5zM475 781q0 20 -13.5 33.5t-33.5 13.5t-33.5 -13.5t-13.5 -33.5t13.5 -33.5t33.5 -13.5t33.5 13.5t13.5 33.5zM350 -19q64 0 120.5 29.5t98.5 78.5t66.5 112.5
t24.5 131.5t-24.5 131.5t-66.5 112t-98.5 77.5t-120.5 29t-120.5 -29t-98.5 -77.5t-66.5 -112t-24.5 -131.5t24.5 -131.5t66.5 -112.5t98.5 -78.5t120.5 -29.5zM350 665q45 0 80 -14t58.5 -47t36 -87t12.5 -134v-100q0 -145 -48 -214.5t-139 -69.5t-139 69.5t-48 214.5v100
q0 78 12.5 131.5t36 87t58.5 48.5t80 15z" />
    <glyph glyph-name="multiply" unicode="&#xd7;" horiz-adv-x="564" 
d="M38 449l196 -196l-196 -197l48 -48l196 197l197 -197l48 48l-197 197l197 196l-48 48l-197 -197l-196 197z" />
    <glyph glyph-name="Oslash" unicode="&#xd8;" horiz-adv-x="718" 
d="M456 636q40 -28 60.5 -88t20.5 -165v-100q0 -145 -48 -214.5t-139 -69.5q-78 0 -124 51zM210 70q-47 73 -47 213v100q0 78 12.5 131.5t36 87t58.5 48.5t80 15q25 0 47 -4t41 -14zM195 31l-43 -109l20 -9l42 106q31 -18 65 -28t71 -10q64 0 120.5 29.5t98.5 78.5
t66.5 112.5t24.5 131.5q0 52 -14.5 101.5t-40.5 92.5t-62 76.5t-79 53.5l27 67l-20 7l-26 -66q-45 18 -95 18q-64 0 -120.5 -29t-98.5 -77.5t-66.5 -112t-24.5 -131.5q0 -46 11 -90t31.5 -83t49 -72t63.5 -57z" />
    <glyph glyph-name="Ugrave" unicode="&#xd9;" horiz-adv-x="638" 
d="M212 853l143 -143l6 4l-72 139h-77zM291 672h-269v-16h86v-489q0 -53 20.5 -88.5t53 -57.5t72.5 -31t79 -9q95 0 148 46.5t53 139.5v489h86v16h-188v-16h86v-489q0 -40 -12.5 -71.5t-34.5 -53t-51.5 -32.5t-63.5 -11q-70 0 -110.5 43.5t-40.5 124.5v489h86v16z" />
    <glyph glyph-name="Uacute" unicode="&#xda;" horiz-adv-x="638" 
d="M410 853l-72 -139l6 -4l143 143h-77zM291 672h-269v-16h86v-489q0 -53 20.5 -88.5t53 -57.5t72.5 -31t79 -9q95 0 148 46.5t53 139.5v489h86v16h-188v-16h86v-489q0 -40 -12.5 -71.5t-34.5 -53t-51.5 -32.5t-63.5 -11q-70 0 -110.5 43.5t-40.5 124.5v489h86v16z" />
    <glyph glyph-name="Ucircumflex" unicode="&#xdb;" horiz-adv-x="638" 
d="M475 725l-132 133h-6l-132 -133l7 -4l128 68l129 -68zM291 672h-269v-16h86v-489q0 -53 20.5 -88.5t53 -57.5t72.5 -31t79 -9q95 0 148 46.5t53 139.5v489h86v16h-188v-16h86v-489q0 -40 -12.5 -71.5t-34.5 -53t-51.5 -32.5t-63.5 -11q-70 0 -110.5 43.5t-40.5 124.5v489
h86v16z" />
    <glyph glyph-name="Udieresis" unicode="&#xdc;" horiz-adv-x="638" 
d="M309 781q0 20 -13.5 33.5t-33.5 13.5t-33.5 -13.5t-13.5 -33.5t13.5 -33.5t33.5 -13.5t33.5 13.5t13.5 33.5zM461 781q0 20 -13.5 33.5t-33.5 13.5t-33.5 -13.5t-13.5 -33.5t13.5 -33.5t33.5 -13.5t33.5 13.5t13.5 33.5zM291 672h-269v-16h86v-489q0 -53 20.5 -88.5
t53 -57.5t72.5 -31t79 -9q95 0 148 46.5t53 139.5v489h86v16h-188v-16h86v-489q0 -40 -12.5 -71.5t-34.5 -53t-51.5 -32.5t-63.5 -11q-70 0 -110.5 43.5t-40.5 124.5v489h86v16z" />
    <glyph glyph-name="Yacute" unicode="&#xdd;" horiz-adv-x="662" 
d="M438 853l-72 -139l6 -4l143 143h-77zM311 672h-279v-16h80l194 -326v-314h-96v-16h289v16h-96v340l165 300h81v16h-204v-16h97l-155 -282l-168 282h92v16z" />
    <glyph glyph-name="Thorn" unicode="&#xde;" horiz-adv-x="542" 
d="M212 526v130h86v16h-268q-1 1 -1 -8v-8h86v-640h-85v-16h268v16h-86v146h104q44 0 80.5 13.5t62.5 37.5t40.5 57.5t14.5 74.5q0 40 -14.5 73.5t-41.5 57.5t-65.5 37t-86.5 13h-94zM212 178v332h94q56 0 87.5 -33.5t31.5 -113.5v-36q0 -77 -31 -113t-78 -36h-104z" />
    <glyph glyph-name="germandbls" unicode="&#xdf;" horiz-adv-x="566" 
d="M34 16v-16h237v16h-75v507q0 76 25 104.5t70 28.5q63 0 99.5 -37.5t36.5 -101.5q0 -28 -8 -50t-21.5 -41t-31.5 -35.5t-39 -33.5q-13 -11 -19.5 -20.5t-6.5 -25.5q0 -32 37 -44q24 -8 53 -21t54.5 -32t42.5 -43t17 -54q0 -26 -10.5 -46.5t-28.5 -34.5t-41 -22t-48 -8
t-39 4.5t-14 6.5q0 3 5 5q7 3 13.5 10t6.5 21q0 18 -9.5 27t-21.5 9q-14 0 -24.5 -10t-10.5 -30q0 -32 25 -45.5t68 -13.5q34 0 63.5 10t51 32t34 55t12.5 80q0 40 -14 70t-37.5 51t-53.5 35t-62 22q-5 2 -8.5 4t-3.5 7q0 8 11 17q14 12 27 25.5t23.5 30.5t17 38.5t6.5 49.5
q0 73 -40 114t-112 41q-81 0 -131 -50t-50 -159v-71h-76v-16h76v-360h-76z" />
    <glyph glyph-name="agrave" unicode="&#xe0;" horiz-adv-x="443" 
d="M60 639l159 -159l8 4l-81 155h-86zM115 382q-32 -21 -32 -50q0 -14 9.5 -25.5t26.5 -11.5t27.5 10t10.5 25q0 7 -2.5 14.5t-9.5 14.5q-5 5 -8 7t-3 5q0 4 6 8t15 7t20.5 5t22.5 2q31 0 49 -12t18 -46v-118q-46 0 -86 -9.5t-70 -27.5t-47 -44.5t-17 -59.5q0 -24 8.5 -41.5
t23.5 -28t34.5 -15.5t41.5 -5q23 0 41.5 5.5t33 14t24.5 18t16 18.5q3 -21 19 -38.5t56 -17.5q26 0 43.5 8t28.5 19t15.5 22.5t4.5 17.5q0 5 -3 5t-7 -8q-8 -17 -20 -27.5t-26 -10.5q-20 0 -24 16.5t-4 45.5v242q0 43 -32 66.5t-98 23.5q-31 0 -59.5 -6.5t-46.5 -17.5z
M265 207v-139q0 -9 -8.5 -19t-21 -18.5t-26 -13.5t-22.5 -5q-31 0 -47 24t-16 65q0 33 12 53t31.5 31t45 15.5t52.5 6.5z" />
    <glyph glyph-name="aacute" unicode="&#xe1;" horiz-adv-x="443" 
d="M259 639l-81 -155l8 -4l159 159h-86zM115 382q-32 -21 -32 -50q0 -14 9.5 -25.5t26.5 -11.5t27.5 10t10.5 25q0 7 -2.5 14.5t-9.5 14.5q-5 5 -8 7t-3 5q0 4 6 8t15 7t20.5 5t22.5 2q31 0 49 -12t18 -46v-118q-46 0 -86 -9.5t-70 -27.5t-47 -44.5t-17 -59.5
q0 -24 8.5 -41.5t23.5 -28t34.5 -15.5t41.5 -5q23 0 41.5 5.5t33 14t24.5 18t16 18.5q3 -21 19 -38.5t56 -17.5q26 0 43.5 8t28.5 19t15.5 22.5t4.5 17.5q0 5 -3 5t-7 -8q-8 -17 -20 -27.5t-26 -10.5q-20 0 -24 16.5t-4 45.5v242q0 43 -32 66.5t-98 23.5q-31 0 -59.5 -6.5
t-46.5 -17.5zM265 207v-139q0 -9 -8.5 -19t-21 -18.5t-26 -13.5t-22.5 -5q-31 0 -47 24t-16 65q0 33 12 53t31.5 31t45 15.5t52.5 6.5z" />
    <glyph glyph-name="acircumflex" unicode="&#xe2;" horiz-adv-x="443" 
d="M348 499l-132 133h-6l-132 -133l7 -3l128 67l129 -67zM115 382q-32 -21 -32 -50q0 -14 9.5 -25.5t26.5 -11.5t27.5 10t10.5 25q0 7 -2.5 14.5t-9.5 14.5q-5 5 -8 7t-3 5q0 4 6 8t15 7t20.5 5t22.5 2q31 0 49 -12t18 -46v-118q-46 0 -86 -9.5t-70 -27.5t-47 -44.5
t-17 -59.5q0 -24 8.5 -41.5t23.5 -28t34.5 -15.5t41.5 -5q23 0 41.5 5.5t33 14t24.5 18t16 18.5q3 -21 19 -38.5t56 -17.5q26 0 43.5 8t28.5 19t15.5 22.5t4.5 17.5q0 5 -3 5t-7 -8q-8 -17 -20 -27.5t-26 -10.5q-20 0 -24 16.5t-4 45.5v242q0 43 -32 66.5t-98 23.5
q-31 0 -59.5 -6.5t-46.5 -17.5zM265 207v-139q0 -9 -8.5 -19t-21 -18.5t-26 -13.5t-22.5 -5q-31 0 -47 24t-16 65q0 33 12 53t31.5 31t45 15.5t52.5 6.5z" />
    <glyph glyph-name="atilde" unicode="&#xe3;" horiz-adv-x="443" 
d="M249 583q-23 10 -47 16.5t-47 6.5q-27 0 -46 -8t-31 -19.5t-18 -24.5t-6 -23q0 -17 11 -17q10 0 10 14q2 16 14 26t30 10q15 0 29.5 -8.5t34.5 -16.5q27 -11 48.5 -15.5t45.5 -4.5q31 0 50 8t30 19t15 23t4 21q0 15 -10 15t-12 -14q-1 -11 -7.5 -19.5t-29.5 -8.5
q-17 0 -34 6.5t-34 13.5zM115 382q-32 -21 -32 -50q0 -14 9.5 -25.5t26.5 -11.5t27.5 10t10.5 25q0 7 -2.5 14.5t-9.5 14.5q-5 5 -8 7t-3 5q0 4 6 8t15 7t20.5 5t22.5 2q31 0 49 -12t18 -46v-118q-46 0 -86 -9.5t-70 -27.5t-47 -44.5t-17 -59.5q0 -24 8.5 -41.5t23.5 -28
t34.5 -15.5t41.5 -5q23 0 41.5 5.5t33 14t24.5 18t16 18.5q3 -21 19 -38.5t56 -17.5q26 0 43.5 8t28.5 19t15.5 22.5t4.5 17.5q0 5 -3 5t-7 -8q-8 -17 -20 -27.5t-26 -10.5q-20 0 -24 16.5t-4 45.5v242q0 43 -32 66.5t-98 23.5q-31 0 -59.5 -6.5t-46.5 -17.5zM265 207v-139
q0 -9 -8.5 -19t-21 -18.5t-26 -13.5t-22.5 -5q-31 0 -47 24t-16 65q0 33 12 53t31.5 31t45 15.5t52.5 6.5z" />
    <glyph glyph-name="adieresis" unicode="&#xe4;" horiz-adv-x="443" 
d="M184 577q0 20 -13.5 33.5t-33.5 13.5t-33.5 -13.5t-13.5 -33.5t13.5 -33.5t33.5 -13.5t33.5 13.5t13.5 33.5zM336 577q0 20 -13.5 33.5t-33.5 13.5t-33.5 -13.5t-13.5 -33.5t13.5 -33.5t33.5 -13.5t33.5 13.5t13.5 33.5zM115 382q-32 -21 -32 -50q0 -14 9.5 -25.5
t26.5 -11.5t27.5 10t10.5 25q0 7 -2.5 14.5t-9.5 14.5q-5 5 -8 7t-3 5q0 4 6 8t15 7t20.5 5t22.5 2q31 0 49 -12t18 -46v-118q-46 0 -86 -9.5t-70 -27.5t-47 -44.5t-17 -59.5q0 -24 8.5 -41.5t23.5 -28t34.5 -15.5t41.5 -5q23 0 41.5 5.5t33 14t24.5 18t16 18.5
q3 -21 19 -38.5t56 -17.5q26 0 43.5 8t28.5 19t15.5 22.5t4.5 17.5q0 5 -3 5t-7 -8q-8 -17 -20 -27.5t-26 -10.5q-20 0 -24 16.5t-4 45.5v242q0 43 -32 66.5t-98 23.5q-31 0 -59.5 -6.5t-46.5 -17.5zM265 207v-139q0 -9 -8.5 -19t-21 -18.5t-26 -13.5t-22.5 -5q-31 0 -47 24
t-16 65q0 33 12 53t31.5 31t45 15.5t52.5 6.5z" />
    <glyph glyph-name="aring" unicode="&#xe5;" horiz-adv-x="435" 
d="M290 552q0 31 -22 53t-53 22t-53 -22t-22 -53t22 -53t53 -22t53 22t22 53zM156 552q0 25 17 42t42 17t42 -17t17 -42t-17 -42t-42 -17t-42 17t-17 42zM115 382q-32 -21 -32 -50q0 -14 9.5 -25.5t26.5 -11.5t27.5 10t10.5 25q0 7 -2.5 14.5t-9.5 14.5q-5 5 -8 7t-3 5
q0 4 6 8t15 7t20.5 5t22.5 2q31 0 49 -12t18 -46v-118q-46 0 -86 -9.5t-70 -27.5t-47 -44.5t-17 -59.5q0 -24 8.5 -41.5t23.5 -28t34.5 -15.5t41.5 -5q23 0 41.5 5.5t33 14t24.5 18t16 18.5q3 -21 19 -38.5t56 -17.5q26 0 43.5 8t28.5 19t15.5 22.5t4.5 17.5q0 5 -3 5t-7 -8
q-8 -17 -20 -27.5t-26 -10.5q-20 0 -24 16.5t-4 45.5v242q0 43 -32 66.5t-98 23.5q-31 0 -59.5 -6.5t-46.5 -17.5zM265 207v-139q0 -9 -8.5 -19t-21 -18.5t-26 -13.5t-22.5 -5q-31 0 -47 24t-16 65q0 33 12 53t31.5 31t45 15.5t52.5 6.5z" />
    <glyph glyph-name="ae" unicode="&#xe6;" horiz-adv-x="652" 
d="M441 406q-30 0 -56.5 -10.5t-48.5 -29.5q-31 40 -115 40q-31 0 -59.5 -6.5t-46.5 -17.5q-32 -21 -32 -50q0 -14 9.5 -25.5t26.5 -11.5t27.5 10t10.5 25q0 7 -2.5 14.5t-9.5 14.5q-5 5 -8 7t-3 5q0 4 6 8t15 7t20.5 5t22.5 2q31 0 49 -12t18 -46v-118q-46 0 -86 -9.5
t-70 -27.5t-47 -44.5t-17 -59.5q0 -24 8.5 -41.5t23.5 -28t34.5 -15.5t41.5 -5q23 0 42 6t34 15t26 19.5t17 19.5q25 -29 65.5 -44.5t107.5 -15.5q34 0 62 9.5t49.5 26t36.5 38.5t24 46q3 7 3 14t-6 7q-5 0 -9 -10q-9 -21 -22.5 -42t-32.5 -37t-44.5 -26t-58.5 -10
q-40 0 -64.5 30t-24.5 96v102h241q18 0 16 13q-1 16 -10.5 44t-29.5 54t-53 45.5t-81 19.5zM265 207v-139q0 -9 -8.5 -19t-21 -18.5t-26 -13.5t-22.5 -5q-31 0 -47 24t-16 65q0 33 12 53t31.5 31t45 15.5t52.5 6.5zM358 246v40q0 33 7.5 53.5t19.5 31.5t27 15t30 4
q24 0 39.5 -8.5t24.5 -22.5t12 -31t3 -35q0 -47 -15 -47h-148z" />
    <glyph glyph-name="ccedilla" unicode="&#xe7;" horiz-adv-x="412" 
d="M246 -14q35 2 60.5 14.5t43.5 29.5t28 35.5t15 33.5q2 6 2 8q0 9 -8 9q-6 0 -9 -10q-6 -19 -18 -37.5t-29.5 -33.5t-41 -24t-51.5 -9q-31 0 -50.5 9t-31 29.5t-15.5 53t-4 79.5v44q0 49 6 82t18.5 53.5t31.5 29t45 8.5q37 0 50.5 -9.5t13.5 -13.5t-3 -7
q-7 -8 -10.5 -16.5t-3.5 -21.5q0 -20 13 -30.5t30 -10.5q20 0 32 12t12 31t-13 34.5t-32.5 26t-42.5 16t-44 5.5q-39 0 -76 -15.5t-66 -43t-47 -66.5t-18 -86q0 -46 16.5 -83.5t43 -64.5t60.5 -43t70 -18l-9 -40q11 -5 22 -15t11 -29q0 -18 -12 -26.5t-27 -8.5
q-11 0 -21.5 4.5t-18.5 14.5q-8 8 -12 8q-3 0 -3 -4t4 -11q11 -17 27.5 -29.5t37.5 -12.5q30 0 48 16t18 40q0 13 -5 23t-12.5 17.5t-16 12t-14.5 6.5z" />
    <glyph glyph-name="egrave" unicode="&#xe8;" horiz-adv-x="434" 
d="M80 639l159 -159l7 4l-80 155h-86zM393 243q-1 16 -10.5 44t-29.5 54t-53 45.5t-81 19.5q-40 0 -74.5 -19t-59.5 -49t-39 -68t-14 -77t14 -76t39 -66t60.5 -47t77.5 -18q34 0 62 9.5t49.5 26t36.5 38.5t24 46q3 7 3 14t-6 7q-5 0 -9 -10q-9 -21 -22.5 -42t-33 -37
t-44.5 -26t-58 -10q-40 0 -64.5 30t-24.5 96v102h241q16 0 16 13zM136 246v40q0 33 7.5 53.5t19.5 31.5t27 15t30 4q24 0 39.5 -8.5t24.5 -22.5t12 -31t3 -35q0 -47 -15 -47h-148z" />
    <glyph glyph-name="eacute" unicode="&#xe9;" horiz-adv-x="434" 
d="M285 639l-81 -155l8 -4l159 159h-86zM393 243q-1 16 -10.5 44t-29.5 54t-53 45.5t-81 19.5q-40 0 -74.5 -19t-59.5 -49t-39 -68t-14 -77t14 -76t39 -66t60.5 -47t77.5 -18q34 0 62 9.5t49.5 26t36.5 38.5t24 46q3 7 3 14t-6 7q-5 0 -9 -10q-9 -21 -22.5 -42t-33 -37
t-44.5 -26t-58 -10q-40 0 -64.5 30t-24.5 96v102h241q16 0 16 13zM136 246v40q0 33 7.5 53.5t19.5 31.5t27 15t30 4q24 0 39.5 -8.5t24.5 -22.5t12 -31t3 -35q0 -47 -15 -47h-148z" />
    <glyph glyph-name="ecircumflex" unicode="&#xea;" horiz-adv-x="434" 
d="M366 499l-133 133h-6l-131 -133l6 -3l128 67l129 -67zM393 243q-1 16 -10.5 44t-29.5 54t-53 45.5t-81 19.5q-40 0 -74.5 -19t-59.5 -49t-39 -68t-14 -77t14 -76t39 -66t60.5 -47t77.5 -18q34 0 62 9.5t49.5 26t36.5 38.5t24 46q3 7 3 14t-6 7q-5 0 -9 -10
q-9 -21 -22.5 -42t-33 -37t-44.5 -26t-58 -10q-40 0 -64.5 30t-24.5 96v102h241q16 0 16 13zM136 246v40q0 33 7.5 53.5t19.5 31.5t27 15t30 4q24 0 39.5 -8.5t24.5 -22.5t12 -31t3 -35q0 -47 -15 -47h-148z" />
    <glyph glyph-name="edieresis" unicode="&#xeb;" horiz-adv-x="434" 
d="M196 577q0 20 -13.5 33.5t-33.5 13.5t-33.5 -13.5t-13.5 -33.5t13.5 -33.5t33.5 -13.5t33.5 13.5t13.5 33.5zM348 577q0 20 -13.5 33.5t-33.5 13.5t-33.5 -13.5t-13.5 -33.5t13.5 -33.5t33.5 -13.5t33.5 13.5t13.5 33.5zM393 243q-1 16 -10.5 44t-29.5 54t-53 45.5
t-81 19.5q-40 0 -74.5 -19t-59.5 -49t-39 -68t-14 -77t14 -76t39 -66t60.5 -47t77.5 -18q34 0 62 9.5t49.5 26t36.5 38.5t24 46q3 7 3 14t-6 7q-5 0 -9 -10q-9 -21 -22.5 -42t-33 -37t-44.5 -26t-58 -10q-40 0 -64.5 30t-24.5 96v102h241q16 0 16 13zM136 246v40
q0 33 7.5 53.5t19.5 31.5t27 15t30 4q24 0 39.5 -8.5t24.5 -22.5t12 -31t3 -35q0 -47 -15 -47h-148z" />
    <glyph glyph-name="igrave" unicode="&#xec;" horiz-adv-x="294" 
d="M-8 639l160 -159l7 4l-81 155h-86zM198 16v376h-161v-16h75v-360h-75v-16h236v16h-75z" />
    <glyph glyph-name="iacute" unicode="&#xed;" horiz-adv-x="294" 
d="M208 639l-81 -155l7 -4l160 159h-86zM198 16v376h-161v-16h75v-360h-75v-16h236v16h-75z" />
    <glyph glyph-name="icircumflex" unicode="&#xee;" horiz-adv-x="294" 
d="M284 499l-132 133h-7l-131 -133l6 -3l128 67l129 -67zM198 16v376h-161v-16h75v-360h-75v-16h236v16h-75z" />
    <glyph glyph-name="idieresis" unicode="&#xef;" horiz-adv-x="294" 
d="M122 577q0 20 -13.5 33.5t-33.5 13.5t-33.5 -13.5t-13.5 -33.5t13.5 -33.5t33.5 -13.5t33.5 13.5t13.5 33.5zM274 577q0 20 -13.5 33.5t-33.5 13.5t-33.5 -13.5t-13.5 -33.5t13.5 -33.5t33.5 -13.5t33.5 13.5t13.5 33.5zM198 16v376h-161v-16h75v-360h-75v-16h236v16h-75
z" />
    <glyph glyph-name="eth" unicode="&#xf0;" horiz-adv-x="447" 
d="M133 219q0 42 3.5 74t13.5 54t28.5 33t48.5 11q31 0 49 -11t28 -33t13 -54t3 -74v-44q0 -45 -3.5 -77.5t-13.5 -53.5t-28 -31.5t-48 -10.5t-48 10.5t-28.5 31.5t-14 53.5t-3.5 77.5v44zM298 391q-16 7 -33.5 11t-37.5 4q-45 0 -81.5 -20t-62.5 -51t-40 -68t-14 -70
t14 -70.5t40 -68.5t62.5 -51.5t81.5 -20.5t81.5 20.5t62 51.5t39.5 68.5t14 70.5v28q0 17 -2 34q-10 102 -54.5 179t-117.5 125l40 59l-38 22l-41 -60q-20 9 -41.5 16t-45.5 12l-16 -26q50 -16 80 -37l-38 -57l38 -22l35 52q29 -26 46.5 -59.5t28.5 -71.5z" />
    <glyph glyph-name="ntilde" unicode="&#xf1;" horiz-adv-x="531" 
d="M295 583q-23 10 -47 16.5t-47 6.5q-27 0 -46 -8t-31 -19.5t-18 -24.5t-6 -23q0 -17 11 -17q10 0 10 14q2 16 14 26t30 10q15 0 29.5 -8.5t34.5 -16.5q27 -11 48.5 -15.5t45.5 -4.5q31 0 50 8t30 19t15 23t4 21q0 15 -10 15t-12 -14q-1 -11 -7.5 -19.5t-29.5 -8.5
q-17 0 -34 6.5t-34 13.5zM192 316v76h-156v-16h70v-360h-70v-16h226v16h-70v248q0 17 9 36.5t23.5 36.5t33 28t38.5 11q29 0 42.5 -18t13.5 -57v-285h-70v-16h226v16h-70v292q0 52 -29.5 72t-75.5 20q-55 0 -89.5 -25t-51.5 -59z" />
    <glyph glyph-name="ograve" unicode="&#xf2;" horiz-adv-x="447" 
d="M82 639l159 -159l7 4l-80 155h-86zM227 -14q45 0 81.5 20.5t62 51.5t39.5 68t14 70t-14 70t-39.5 68t-62 51.5t-81.5 20.5t-81.5 -20.5t-62.5 -51.5t-40 -68t-14 -70t14 -70t40 -68t62.5 -51.5t81.5 -20.5zM133 218q0 42 3.5 74t13.5 54t28.5 33t48.5 11t48.5 -11t28 -33
t13 -54t3.5 -74v-43q0 -45 -3.5 -77.5t-13 -53.5t-28 -31.5t-48.5 -10.5t-48.5 10.5t-28.5 31.5t-13.5 53.5t-3.5 77.5v43z" />
    <glyph glyph-name="oacute" unicode="&#xf3;" horiz-adv-x="447" 
d="M304 639l-80 -155l7 -4l159 159h-86zM227 -14q45 0 81.5 20.5t62 51.5t39.5 68t14 70t-14 70t-39.5 68t-62 51.5t-81.5 20.5t-81.5 -20.5t-62.5 -51.5t-40 -68t-14 -70t14 -70t40 -68t62.5 -51.5t81.5 -20.5zM133 218q0 42 3.5 74t13.5 54t28.5 33t48.5 11t48.5 -11
t28 -33t13 -54t3.5 -74v-43q0 -45 -3.5 -77.5t-13 -53.5t-28 -31.5t-48.5 -10.5t-48.5 10.5t-28.5 31.5t-13.5 53.5t-3.5 77.5v43z" />
    <glyph glyph-name="ocircumflex" unicode="&#xf4;" horiz-adv-x="447" 
d="M362 499l-132 133h-6l-132 -133l7 -3l128 67l129 -67zM227 -14q45 0 81.5 20.5t62 51.5t39.5 68t14 70t-14 70t-39.5 68t-62 51.5t-81.5 20.5t-81.5 -20.5t-62.5 -51.5t-40 -68t-14 -70t14 -70t40 -68t62.5 -51.5t81.5 -20.5zM133 218q0 42 3.5 74t13.5 54t28.5 33
t48.5 11t48.5 -11t28 -33t13 -54t3.5 -74v-43q0 -45 -3.5 -77.5t-13 -53.5t-28 -31.5t-48.5 -10.5t-48.5 10.5t-28.5 31.5t-13.5 53.5t-3.5 77.5v43z" />
    <glyph glyph-name="otilde" unicode="&#xf5;" horiz-adv-x="447" 
d="M263 583q-23 10 -47 16.5t-47 6.5q-27 0 -46 -8t-31 -19.5t-18 -24.5t-6 -23q0 -17 11 -17q10 0 10 14q2 16 14 26t30 10q15 0 29.5 -8.5t34.5 -16.5q27 -11 48.5 -15.5t45.5 -4.5q31 0 50 8t30 19t15 23t4 21q0 15 -10 15t-12 -14q-1 -11 -7.5 -19.5t-29.5 -8.5
q-17 0 -34 6.5t-34 13.5zM227 -14q45 0 81.5 20.5t62 51.5t39.5 68t14 70t-14 70t-39.5 68t-62 51.5t-81.5 20.5t-81.5 -20.5t-62.5 -51.5t-40 -68t-14 -70t14 -70t40 -68t62.5 -51.5t81.5 -20.5zM133 218q0 42 3.5 74t13.5 54t28.5 33t48.5 11t48.5 -11t28 -33t13 -54
t3.5 -74v-43q0 -45 -3.5 -77.5t-13 -53.5t-28 -31.5t-48.5 -10.5t-48.5 10.5t-28.5 31.5t-13.5 53.5t-3.5 77.5v43z" />
    <glyph glyph-name="odieresis" unicode="&#xf6;" horiz-adv-x="447" 
d="M202 577q0 20 -13.5 33.5t-33.5 13.5t-33.5 -13.5t-13.5 -33.5t13.5 -33.5t33.5 -13.5t33.5 13.5t13.5 33.5zM354 577q0 20 -13.5 33.5t-33.5 13.5t-33.5 -13.5t-13.5 -33.5t13.5 -33.5t33.5 -13.5t33.5 13.5t13.5 33.5zM227 -14q45 0 81.5 20.5t62 51.5t39.5 68t14 70
t-14 70t-39.5 68t-62 51.5t-81.5 20.5t-81.5 -20.5t-62.5 -51.5t-40 -68t-14 -70t14 -70t40 -68t62.5 -51.5t81.5 -20.5zM133 218q0 42 3.5 74t13.5 54t28.5 33t48.5 11t48.5 -11t28 -33t13 -54t3.5 -74v-43q0 -45 -3.5 -77.5t-13 -53.5t-28 -31.5t-48.5 -10.5t-48.5 10.5
t-28.5 31.5t-13.5 53.5t-3.5 77.5v43z" />
    <glyph glyph-name="divide" unicode="&#xf7;" horiz-adv-x="371" 
d="M322 291h-266v-53h266v53zM243 404q0 23 -15.5 38.5t-38.5 15.5t-38.5 -15.5t-15.5 -38.5t15.5 -38.5t38.5 -15.5t38.5 15.5t15.5 38.5zM244 117q0 23 -15.5 38.5t-38.5 15.5t-38.5 -15.5t-15.5 -38.5t15.5 -38.5t38.5 -15.5t38.5 15.5t15.5 38.5zM244 403
q0 23 -15.5 38.5t-38.5 15.5t-38.5 -15.5t-15.5 -38.5t15.5 -38.5t38.5 -15.5t38.5 15.5t15.5 38.5zM243 118q0 23 -15.5 38.5t-38.5 15.5t-38.5 -15.5t-15.5 -38.5t15.5 -38.5t38.5 -15.5t38.5 15.5t15.5 38.5z" />
    <glyph glyph-name="oslash" unicode="&#xf8;" horiz-adv-x="449" 
d="M148 47q-9 22 -12 53.5t-3 74.5v43q0 42 3.5 74t13.5 54t28.5 33t48.5 11q34 0 51 -13zM292 365q17 -20 22.5 -57t5.5 -90v-43q0 -45 -3.5 -77.5t-13 -53.5t-28 -31.5t-48.5 -10.5q-47 0 -68 27zM301 389l25 64l-16 5l-25 -62q-14 5 -28 7.5t-30 2.5q-45 0 -81.5 -20.5
t-62.5 -51.5t-40 -68t-14 -70q0 -24 7 -49.5t20.5 -50.5t33 -46.5t44.5 -37.5l-4 -10.5t-9 -23.5t-9 -23.5l-4 -10.5l16 -5l25 65q18 -8 37.5 -13t40.5 -5q45 0 81.5 20.5t62 51.5t39.5 68t14 70q0 26 -8.5 54.5t-24 54.5t-38.5 48t-52 36z" />
    <glyph glyph-name="ugrave" unicode="&#xf9;" horiz-adv-x="540" 
d="M102 639l159 -159l8 4l-81 155h-86zM353 75v-75h156v16h-70v376h-156v-16h70v-249q0 -16 -9.5 -35t-25.5 -35.5t-37 -27.5t-43 -11q-35 0 -45 17t-10 55v302h-156v-16h70v-279q0 -32 8 -53t22 -33t32.5 -17t38.5 -5q53 0 92.5 22.5t62.5 63.5z" />
    <glyph glyph-name="uacute" unicode="&#xfa;" horiz-adv-x="540" 
d="M320 639l-80 -155l7 -4l159 159h-86zM353 75v-75h156v16h-70v376h-156v-16h70v-249q0 -16 -9.5 -35t-25.5 -35.5t-37 -27.5t-43 -11q-35 0 -45 17t-10 55v302h-156v-16h70v-279q0 -32 8 -53t22 -33t32.5 -17t38.5 -5q53 0 92.5 22.5t62.5 63.5z" />
    <glyph glyph-name="ucircumflex" unicode="&#xfb;" horiz-adv-x="540" 
d="M387 499l-132 133h-7l-131 -133l7 -3l128 67l129 -67zM353 75v-75h156v16h-70v376h-156v-16h70v-249q0 -16 -9.5 -35t-25.5 -35.5t-37 -27.5t-43 -11q-35 0 -45 17t-10 55v302h-156v-16h70v-279q0 -32 8 -53t22 -33t32.5 -17t38.5 -5q53 0 92.5 22.5t62.5 63.5z" />
    <glyph glyph-name="udieresis" unicode="&#xfc;" horiz-adv-x="540" 
d="M234 577q0 20 -13.5 33.5t-33.5 13.5t-33.5 -13.5t-13.5 -33.5t13.5 -33.5t33.5 -13.5t33.5 13.5t13.5 33.5zM386 577q0 20 -13.5 33.5t-33.5 13.5t-33.5 -13.5t-13.5 -33.5t13.5 -33.5t33.5 -13.5t33.5 13.5t13.5 33.5zM353 75v-75h156v16h-70v376h-156v-16h70v-249
q0 -16 -9.5 -35t-25.5 -35.5t-37 -27.5t-43 -11q-35 0 -45 17t-10 55v302h-156v-16h70v-279q0 -32 8 -53t22 -33t32.5 -17t38.5 -5q53 0 92.5 22.5t62.5 63.5z" />
    <glyph glyph-name="yacute" unicode="&#xfd;" horiz-adv-x="506" 
d="M362 648l-80 -154l7 -5l159 159h-86zM30 392v-16h66l167 -380l-58 -153q-13 -33 -28.5 -49t-29.5 -16q-8 0 -10.5 4t-5.5 10q-6 13 -15 19.5t-24 6.5q-17 0 -26 -11t-9 -26q0 -19 12.5 -30.5t38.5 -11.5q35 0 65 26.5t47 72.5l206 538h66v16h-158v-16h74l-104 -272
l-116 272h77v16h-235z" />
    <glyph glyph-name="thorn" unicode="&#xfe;" horiz-adv-x="518" 
d="M186 83v233q7 12 16 24.5t21.5 23.5t29 18t38.5 7q20 0 36 -5.5t27.5 -23.5t18 -51.5t6.5 -88.5v-44q0 -51 -7 -84.5t-19 -53t-27 -27t-31 -7.5q-20 0 -36.5 7t-30 18t-24 25t-18.5 29zM186 -252v303q7 -10 17 -21.5t24 -21t31.5 -15.5t39.5 -6q39 0 73 18t59.5 47.5
t40.5 67.5t15 78q0 48 -18 86.5t-46 65.5t-62 41.5t-65 14.5q-25 0 -42.5 -6t-30 -14.5t-21 -18.5t-15.5 -19v324h-142v-16h56v-908h-56v-16h207v16h-65z" />
    <glyph glyph-name="ydieresis" unicode="&#xff;" horiz-adv-x="506" 
d="M250 577q0 20 -13.5 33.5t-33.5 13.5t-33.5 -13.5t-13.5 -33.5t13.5 -33.5t33.5 -13.5t33.5 13.5t13.5 33.5zM402 577q0 20 -13.5 33.5t-33.5 13.5t-33.5 -13.5t-13.5 -33.5t13.5 -33.5t33.5 -13.5t33.5 13.5t13.5 33.5zM30 392v-16h66l167 -380l-58 -153
q-13 -33 -28.5 -49t-29.5 -16q-8 0 -10.5 4t-5.5 10q-6 13 -15 19.5t-24 6.5q-17 0 -26 -11t-9 -26q0 -19 12.5 -30.5t38.5 -11.5q35 0 65 26.5t47 72.5l206 538h66v16h-158v-16h74l-104 -272l-116 272h77v16h-235z" />
    <glyph glyph-name="NUL" unicode="&#xe000;" horiz-adv-x="0" 
 />
    <glyph glyph-name="HT" unicode="&#xe001;" horiz-adv-x="0" 
 />
    <glyph glyph-name="nonmarkingreturn" unicode="&#xe002;" horiz-adv-x="0" 
 />
    <glyph glyph-name="minus" unicode="&#xe003;" horiz-adv-x="455" 
d="M400 298h-344v-54h344v54z" />
    <glyph glyph-name="notequal" unicode="&#xe004;" horiz-adv-x="392" 
d="M343 229h-137l34 81h103v53h-80l35 83h-48l-36 -83h-153v-53h131l-35 -81h-96v-54h74l-36 -84h49l36 84h159v54z" />
    <glyph glyph-name="infinity" unicode="&#xe005;" horiz-adv-x="899" 
d="M425 303q-17 -17 -43 -41.5t-56 -46.5t-61.5 -37.5t-59.5 -15.5q-24 0 -40.5 12.5t-26.5 33t-14.5 46.5t-4.5 54q0 25 6 51t18.5 47t31 34.5t44.5 13.5q27 0 57 -15.5t57.5 -38.5t51.5 -49.5t40 -47.5zM483 308q20 19 46.5 43.5t56 46t59.5 36t57 14.5q25 0 41.5 -12.5
t26.5 -32.5t14.5 -46.5t4.5 -53.5q0 -26 -6 -52t-18.5 -47t-31.5 -34t-45 -13q-27 0 -56.5 15.5t-57 39t-51.5 49.5t-40 47zM700 480q-33 0 -67 -14.5t-66.5 -35.5t-61 -45t-49.5 -43q-27 28 -51 53t-51.5 44t-61 30t-78.5 11q-35 0 -64 -14.5t-50 -38.5t-33 -56t-12 -67
q0 -33 11 -64.5t31.5 -55.5t48.5 -38.5t62 -14.5q33 0 68 15t67 36.5t60.5 45.5t49.5 42q19 -23 44.5 -48t55.5 -45t65.5 -33t75.5 -13q34 0 63.5 14.5t50.5 38.5t33 55.5t12 66.5q0 34 -11.5 65.5t-31.5 55.5t-48.5 38.5t-61.5 14.5z" />
    <glyph glyph-name="lessequal" unicode="&#xe006;" horiz-adv-x="419" 
d="M361 185h-277v-48h277v48zM343 558l-263 -161l263 -161v55l-177 106l177 107v54z" />
    <glyph glyph-name="greaterequal" unicode="&#xe007;" horiz-adv-x="398" 
d="M61 185v-48h277v48h-277zM79 558v-54l177 -107l-177 -106v-55l263 161z" />
    <glyph glyph-name="partialdiff" unicode="&#xe008;" 
d="M57 362v-21h291v21h-291zM228 698l-4 3l-89 -11v-9l47 5v-275h-45v-10h136v10h-45v287zM127 249q0 -14 7.5 -21t18.5 -7q12 0 19.5 6.5t7.5 17.5t-5 17t-13 8q-4 1 -4 4t3 5q6 5 18 7.5t25 2.5q18 0 28 -5.5t15.5 -14t7 -19t1.5 -20.5q0 -37 -18 -53t-45 -16q-7 0 -16 1
t-15 1q-10 0 -10 -7q0 -6 10 -6q6 0 15 0.5t16 0.5q20 0 33.5 -6.5t21 -17t10.5 -23.5t3 -26q0 -41 -18 -60t-45 -19q-11 0 -24 3t-21 10q-3 3 -3 6q0 4 4 5q5 2 13 7.5t8 19.5q0 16 -8.5 23t-19.5 7q-12 0 -20.5 -8t-8.5 -23t8 -26.5t20 -19t27 -11t30 -3.5q22 0 40.5 7.5
t32 19.5t21 28.5t7.5 34.5q0 29 -17.5 48.5t-55.5 27.5q8 1 20 5.5t23 13.5t19 22t8 30q0 19 -8 32.5t-21.5 22.5t-30 13.5t-34.5 4.5q-22 0 -37.5 -5.5t-25 -13t-13.5 -16.5t-4 -15z" />
    <glyph glyph-name="summation" unicode="&#xe009;" 
d="M57 371v-22h291v22h-291zM228 698l-4 3l-89 -11v-9l47 5v-275h-45v-10h136v10h-45v287zM251 309h-18l-20 -29t-65 -99q-20 -30 -33.5 -55l-13.5 -25v-11h107v-80h-39v-11h122v11h-40v80h52v-42h10v98h-10v-46h-52v209zM111 100q1 3 6.5 12.5t12.5 21.5t14.5 25t14.5 24
q6 9 13.5 20.5l15 23t13.5 20t7 10.5v-157h-97z" />
    <glyph glyph-name="product" unicode="&#xe00a;" 
d="M49 357v-22h292v22h-292zM145 648q-4 0 -6 -1h-2q-4 0 -4 5q0 13 20.5 22t41.5 9q60 0 60 -65q0 -30 -10 -53.5t-33 -44.5l-110 -104v-23h199l5 83v4q0 11 -3 11t-6 -14q-5 -22 -14.5 -34.5t-29.5 -12.5h-126l95 82q32 28 55.5 55t23.5 57q0 19 -8.5 32.5t-22 22
t-30.5 12t-33 3.5q-40 0 -69 -18t-29 -50q0 -14 8 -22.5t22 -8.5q11 0 21 7t10 21q0 9 -7 17t-18 8zM120 249q0 -14 7.5 -21t18.5 -7q12 0 19.5 6.5t7.5 17.5t-5 17t-13 8q-4 1 -4 4t3 5q6 5 18 7.5t25 2.5q18 0 28 -5.5t15.5 -14t7 -19t1.5 -20.5q0 -37 -18 -53t-45 -16
q-7 0 -16 1t-15 1q-10 0 -10 -7q0 -6 10 -6q6 0 15 0.5t16 0.5q20 0 33.5 -6.5t21 -17t10.5 -23.5t3 -26q0 -41 -18 -60t-45 -19q-11 0 -24 3t-21 10q-3 3 -3 6q0 4 4 5q5 2 13 7.5t8 19.5q0 16 -8.5 23t-19.5 7q-12 0 -20.5 -8t-8.5 -23t8 -26.5t20 -19t27 -11t30 -3.5
q22 0 40.5 7.5t32 19.5t21 28.5t7.5 34.5q0 29 -17.5 48.5t-55.5 27.5q8 1 20 5.5t23 13.5t19 22t8 30q0 19 -8 32.5t-21.5 22.5t-30 13.5t-34.5 4.5q-22 0 -37.5 -5.5t-25 -13t-13.5 -16.5t-4 -15z" />
    <glyph glyph-name="pi" unicode="&#xe00b;" 
d="M49 359v-21h292v21h-292zM123 654q0 -14 7.5 -21t18.5 -7q12 0 19.5 6.5t7.5 17.5t-5 17t-13 8q-4 1 -4 5q0 3 3 5q6 5 18 8.5t25 3.5q18 0 28 -6t15.5 -15t7 -20t1.5 -21q0 -37 -18 -53t-45 -16q-7 0 -16 1t-15 1q-10 0 -10 -7q0 -6 10 -6q6 0 15 0.5t16 0.5
q20 0 33.5 -6.5t21 -17t10.5 -23.5t3 -26q0 -41 -18 -61t-45 -20q-11 0 -24 3.5t-21 10.5q-3 3 -3 7t4 5q5 2 13 7.5t8 19.5q0 16 -8.5 23t-19.5 7q-12 0 -20.5 -8t-8.5 -23t8 -26.5t20 -19t27 -11t30 -3.5q22 0 40.5 7.5t32 19.5t21 28.5t7.5 34.5q0 29 -17.5 48.5
t-55.5 27.5q8 1 20 5.5t23 13.5t19 22t8 30q0 19 -8 32.5t-21.5 22.5t-30 13.5t-34.5 4.5q-22 0 -37.5 -5.5t-25 -13t-13.5 -16.5t-4 -15zM251 309h-18l-20 -29t-65 -99q-20 -30 -33.5 -55l-13.5 -25v-11h107v-80h-39v-11h122v11h-40v80h52v-42h10v98h-10v-46h-52v209z
M111 100q1 3 6.5 12.5t12.5 21.5t14.5 25t14.5 24q6 9 13.5 20.5l15 23t13.5 20t7 10.5v-157h-97z" />
    <glyph glyph-name="integral" unicode="&#xe00c;" horiz-adv-x="785" 
d="M710 645h-645v-645h645v645zM688 624v-602h-602v602h602z" />
    <glyph glyph-name="radical" unicode="&#xe00d;" horiz-adv-x="681" 
d="M83 266l-53 -80q38 -29 73.5 -73.5t63.5 -92.5q34 78 84.5 153.5t111 140.5t128 116.5t135.5 83.5v108q-53 -28 -104 -67.5t-98 -86t-88 -97t-74.5 -101t-57.5 -97.5t-36 -87q-20 59 -38.5 100t-46.5 80z" />
    <glyph glyph-name="approxequal" unicode="&#xe00e;" horiz-adv-x="820" 
d="M342 273v126h124v-126h-124zM301 541v-101h-101q-51 0 -79 28.5t-28 73.5q0 50 29.5 77.5t76.5 27.5q51 0 76.5 -31t25.5 -75zM199 399h102v-126h-102q-30 0 -56.5 -10.5t-46.5 -30t-31.5 -46t-11.5 -57.5t11 -57t30 -45t45 -29.5t57 -10.5q36 0 63.5 11t46 30.5t27.5 46
t9 56.5v102h124v-102q0 -30 9.5 -56.5t28 -46t45.5 -30.5t63 -11q31 0 57 11t45 30t30 45t11 56q0 31 -11.5 57.5t-31.5 46t-46.5 30t-56.5 10.5h-102v126h102q30 0 56.5 11t46.5 30.5t31.5 46t11.5 57.5t-11 57.5t-30 45.5t-45.5 29.5t-56.5 10.5q-36 0 -63 -11.5
t-45.5 -31t-28 -46t-9.5 -56.5v-102h-124v102q0 30 -9 56.5t-27.5 46t-46 31t-63.5 11.5q-30 0 -56.5 -11.5t-45.5 -31t-30 -45.5t-11 -55q0 -32 11 -58.5t30.5 -45.5t46 -30t58.5 -11zM608 440h-101v101q0 44 25.5 75t76.5 31q46 0 76 -27.5t30 -77.5q0 -45 -28.5 -73.5
t-78.5 -28.5zM200 233h101v-101q0 -45 -25.5 -75.5t-76.5 -30.5q-47 0 -76.5 27t-29.5 78q0 45 28 73.5t79 28.5zM507 132v101h101q50 0 78.5 -28.5t28.5 -73.5q0 -51 -30 -78t-76 -27q-51 0 -76.5 30.5t-25.5 75.5z" />
    <glyph glyph-name="nonbreakingspace" unicode="&#xe00f;" horiz-adv-x="269" 
 />
    <glyph glyph-name="lozenge" unicode="&#xe010;" horiz-adv-x="449" 
d="M227 434l164 -164l-165 -166l-165 165zM28 269l198 -198l199 199l-198 198z" />
    <glyph glyph-name="apple" unicode="&#xe011;" horiz-adv-x="827" 
d="M279 556q-42 0 -78 -13.5t-62.5 -40.5t-42 -66t-15.5 -90q0 -39 12 -80.5t31.5 -81.5t45.5 -76t53 -63t53.5 -43t48.5 -16q42 0 71 35q8 9 20 14.5t24 5.5q14 0 23 -6.5t16 -13.5q30 -35 76 -35q42 0 77 25t61 59.5t44 69t26 54.5q-18 6 -37 18.5t-34.5 31t-25.5 41.5
t-10 49q0 51 19.5 90.5t64.5 61.5q-4 12 -16 24.5t-30 22.5t-41 16.5t-50 6.5q-26 0 -51 -5.5t-43 -19.5q-20 -16 -36 -22t-33 -6q-16 0 -28 6.5t-35 21.5q-18 12 -45 18.5t-53 6.5zM550 702q-21 0 -43.5 -13t-40.5 -33.5t-30 -45.5t-12 -49q0 -7 3.5 -11.5t14.5 -4.5
q18 0 39 14t39.5 35t31 45.5t12.5 45.5q0 17 -14 17z" />
    </font>
</defs>
</svg>
