<svg id="Layer_1" data-name="Layer 1" xmlns="http://www.w3.org/2000/svg" viewBox="0 0 423.44 45.77"><title>logo</title><path d="M83.28,110.28a9,9,0,0,1-3,6.82,16.1,16.1,0,0,1-8.38,3.81,55.31,55.31,0,0,1-8,.9q-3.75.13-22,.13-2.55,0-3-.06c-.32,0-.48-.19-.48-.45s.86-.58,2.6-.58,2.8-.2,3.23-.61.64-1.39.64-3V80.69q0-1.85-3.71-1.92-2.83-.06-2.83-.54T40,77.69H62.45q18.43,0,18.43,10.11,0,8.39-13.72,10.37l-.16.26q8.06,1.35,11.17,3.39Q83.28,105.22,83.28,110.28ZM70.51,110q0-9-6.39-10.47a34.73,34.73,0,0,0-7.26-.58v3.7q0,1.6-.16,4.53-.08,1.47-.08,5.49,0,6.89.48,7.34.64.7,3.59.7Q70.51,120.71,70.51,110ZM69,88.16q0-9.26-7-9.26a18.91,18.91,0,0,0-3.36.19,2,2,0,0,0-1.72,2V97.93q7,0,9.54-2T69,88.16Z" transform="translate(-38.28 -77.12)" style="fill:#fff"/><path d="M143.84,111c0,.81,0,1.49-.08,2a29.91,29.91,0,0,0-.24,4.53l.08,4.53q-10.22-.32-36.94-.32h-3.35q-3.51,0-3.51-.54t1.12-.54q4-.06,5.11-.89.72-.51.72-3.06V82.22a4.54,4.54,0,0,0-.48-2.68,3.94,3.94,0,0,0-3-.89h-2q-.89,0-.89-.48c0-.32.37-.48,1.12-.48h22.42c.53,0,.8.17.8.51s-.69.57-2.07.57q-3,0-3.47.57t-.52,5V99.58q0,4.66.32,20.87,1.52.06,3.43.06a86.5,86.5,0,0,0,11.57-.51q5-.83,6.86-4.09a19.72,19.72,0,0,0,1.76-5.3c.16-.68.4-1,.72-1S143.84,110.08,143.84,111Z" transform="translate(-38.28 -77.12)" style="fill:#fff"/><path d="M211.74,121.16c0,.34-.2.54-.6.61a27.46,27.46,0,0,1-3.07.1l-3.59-.06q-5.91-.13-8.14-.13-2.63,0-4.63.07-4,.13-5.43.13-2.15,0-2.15-.64t4.55-.7a8.11,8.11,0,0,0,1.68-.13c.85-.09,1.28-.34,1.28-.77a15.93,15.93,0,0,0-1-2.68L189,112.8q-.48-1.4-2.07-5.17h-7.66q-3.35-.06-7.1.06-.72,1.28-2.71,5.75l-1.76,4.15a4.22,4.22,0,0,0-.4,1.53q0,1.09,1.75,1.4.4.06,3.91.26c.75,0,1.12.22,1.12.54s-.48.54-1.44.54h-14.2q-1.12,0-1.12-.64,0-.38,2.47-.51,3.19-.13,4.07-1t2.87-5.36q1.51-3.19,4.39-9.45l9.66-21.26q.72-1.4,2-4.4c.59-1.44,1-2.17,1.36-2.17s.9,1,1.76,2.94q1.6,3.77,14,29.75,1.6,3.32,3.19,6.76,1.35,2.94,2.71,3.58,1,.51,4.94.45C211.42,120.59,211.74,120.78,211.74,121.16Zm-25.37-14.94c-.05-.13-.24-.53-.55-1.21q-3.21-7.4-4.65-10.4-.38-.84-1.07-2.44L179.56,91q-1.43,2.74-3.5,7.59-2.3,5.42-3.34,7.59h13.64Z" transform="translate(-38.28 -77.12)" style="fill:#fff"/><path d="M275.49,119.31q0,3.57-5.83,3.57-7.34,0-11.73-3.71-3.43-2.88-3.91-6.14l-.8-5.25q-.8-5-2.91-7t-6.82-1.92v14.53q0,5.06.08,5.44a1.51,1.51,0,0,0,1.11,1.51,14.14,14.14,0,0,0,4.23.42q1.91,0,1.92.57c0,.34-.32.51-1,.51h-24.1q-1.12,0-1.12-.46t3.27-.63q2.71-.13,3.19-1a8.17,8.17,0,0,0,.24-2.69v-33a25.46,25.46,0,0,0-.16-3.94,1.47,1.47,0,0,0-1-.93,12,12,0,0,0-3.59-.38q-1.76,0-1.76-.58c0-.3.24-.48.72-.54s1.76-.1,3.83-.1h16q11.17,0,15.24,1.4a11.4,11.4,0,0,1,5.11,3.32,7.38,7.38,0,0,1,1.91,4.91q0,6.13-8,9.06a44.12,44.12,0,0,1-10.37,1.92l-.08.38q8.7.45,12.61,3.67t4.71,10.44q.64,5.74,2,7.18a3.89,3.89,0,0,0,2.79,1.44q1.2,0,1.2-.51c0-.17-.31-.4-.92-.7a1.39,1.39,0,0,1-.92-1.28c0-1.15.8-1.72,2.4-1.72S275.49,117.86,275.49,119.31ZM255.31,87.07q0-8.23-8.14-8.23-2.63,0-3.27,1.4-.41.89-.4,7V97.8q6.22.06,9-2.49T255.31,87.07Z" transform="translate(-38.28 -77.12)" style="fill:#fff"/><path d="M340.84,78.33q0,.32-.59.38c-.39,0-1.78.11-4.18.19-1.41,0-2.21.28-2.42.7q-.31.38-.24,4.08v37.6q0,1.09-.56,1.09-.88,0-11.61-10.56T297.68,87.65v31a1.52,1.52,0,0,0,1,1.66,13.69,13.69,0,0,0,3.95.51q2.66,0,3,.32a.31.31,0,0,1,.08.26q0,.51-1.19.51a9.56,9.56,0,0,1-1.2-.06q-4.79-.13-6-.13-2.8,0-7.34.13l-1.92.06q-1.2,0-1.2-.51c0-.3,1.17-.51,3.51-.64q4.07-.25,4.71-1,.4-.51.4-4.59V88.91a39.84,39.84,0,0,0-.16-4.84A5.43,5.43,0,0,0,292.57,80q-1.75-1-6.54-1.08c-.85,0-1.28-.25-1.28-.61s.37-.61,1.12-.61q.48,0,3.43.13c1,0,2.39.07,4.31.07q5.9,0,9.57-.19l28,28.85V81.21q0-1.53-.64-2a6.07,6.07,0,0,0-2.71-.48l-3.43-.13c-.64,0-1-.19-1-.45s.48-.51,1.44-.51h5.19q8.05,0,9.42.06C340.39,77.8,340.84,78,340.84,78.33Z" transform="translate(-38.28 -77.12)" style="fill:#fff"/><path d="M398.61,110.63q0,.13-.08,5.94-.08,3.07-.12,4.41c0,.89,0,1.32,0,1.28q-21.06-.76-36.86-.45h-6.7q-1.44,0-1.44-.48a.38.38,0,0,1,.36-.42c.24,0,1.05-.1,2.44-.18q3.74-.19,4.07-1.72a9.84,9.84,0,0,0,.16-1.85V84.83c0-2.55,0-4-.08-4.21a1.59,1.59,0,0,0-.8-1.4,7.32,7.32,0,0,0-3-.38q-2.47,0-2.47-.58t2.19-.64q2.19,0,6.11-.06,14.67-.26,24-.13h5.42q1.75,0,4.31-.19l.72,7q.4,3.32.4,4.08c0,.43-.27.64-.8.64s-.88-.55-1-1.66A8.43,8.43,0,0,0,391,80.85q-3.72-2-11-2-2.24,0-7.68.19V97.86q8.82.07,11.1-1t3.09-5.46q.4-2.36,1.2-2.36c.48,0,.72.38.72,1.15s-.08,2.34-.24,4.72q-.08,1.21-.08,3.25,0,5.49.16,8.3a4.82,4.82,0,0,1,.08,1c0,.51-.24.77-.72.77s-.62-.1-.72-.29a10.78,10.78,0,0,1-.48-2.07q-.8-4.53-2.2-5.65t-6.45-1.12h-5.45v21.45h5.12q8.8-.13,10.73-.32a13.13,13.13,0,0,0,4.64-1.4,7.56,7.56,0,0,0,2.76-2.74,25.32,25.32,0,0,0,1.64-5.43q.24-1,.8-1T398.61,110.63Z" transform="translate(-38.28 -77.12)" style="fill:#fff"/><path d="M461.72,78.29c0,.28-.35.44-1,.48q-4.71.19-5.66.9-.88.13-6.06,9.55-1.12,2.05-3.35,5.9a40.61,40.61,0,0,0-3.2,5.86,17.91,17.91,0,0,0-.47,5v12.86a1.42,1.42,0,0,0,1.16,1.44,20.26,20.26,0,0,0,4.59.41q1.75,0,1.76.6c0,.32-.51.48-1.52.48l-1.84-.06c-1.23,0-2.94,0-5.12-.07l-6.4-.07-2.08.07q-2.24.07-4,.07l-5,.06q-1.28,0-1.28-.51c0-.34.37-.51,1.11-.51q5.67-.07,6.23-.83c.37-.3.56-1,.56-2v-15.1a101.91,101.91,0,0,0-7.79-13.13q-2.3-3.89-6.52-9.75-1.12-1.15-3.9-1.15h-1.67q-1.59,0-1.59-.7t1.68-.58c-.16,0,.07,0,.68.07s1.64.06,3.07.06l9.42.06h1.75a27.29,27.29,0,0,1,3.51-.19h7.18c1.06,0,1.59.17,1.59.51a.4.4,0,0,1-.36.45q-.36.06-2.83.13-4.39.13-4.39,1.54a4.43,4.43,0,0,0,.56,2.08q.56,1.06,3.74,6.24,2.79,4.48,6.69,10.5,2.46-3.52,7-11.63,3.48-6.09,3.48-7.18,0-1.41-2.32-1.41-3.51.06-3.51-.58c0-.47.51-.68,1.52-.64l2.24.1q2.23.09,7.58.09h3C461.11,77.69,461.72,77.89,461.72,78.29Z" transform="translate(-38.28 -77.12)" style="fill:#fff"/></svg>