<?xml version="1.0" encoding="utf-8"?>
<!-- Generator: Adobe Illustrator 17.0.0, SVG Export Plug-In . SVG Version: 6.00 Build 0)  -->
<!DOCTYPE svg PUBLIC "-//W3C//DTD SVG 1.1//EN" "http://www.w3.org/Graphics/SVG/1.1/DTD/svg11.dtd">
<svg version="1.1" id="Layer_1" xmlns="http://www.w3.org/2000/svg" xmlns:xlink="http://www.w3.org/1999/xlink" x="0px" y="0px"
	 width="199px" height="85.5px" viewBox="0 0 199 85.5" enable-background="new 0 0 199 85.5" xml:space="preserve">
<rect y="0" fill="#54630F" width="199" height="85.5"/>
<g>
	<path fill="#FFFFFF" d="M31.456,30.505c0,1.072-0.409,1.992-1.228,2.76c-0.818,0.769-1.949,1.283-3.392,1.543
		c-1.142,0.207-2.219,0.328-3.23,0.363c-1.013,0.034-3.984,0.051-8.916,0.051c-0.689,0-1.099-0.009-1.228-0.025
		c-0.13-0.017-0.194-0.078-0.194-0.181c0-0.155,0.35-0.233,1.051-0.233c0.698,0,1.135-0.082,1.308-0.246
		c0.172-0.164,0.258-0.564,0.258-1.203V18.528c0-0.5-0.501-0.759-1.504-0.776c-0.763-0.016-1.145-0.089-1.145-0.22
		c0-0.146,0.237-0.22,0.711-0.22c0.452,0,0.894,0,1.324,0h7.753c4.976,0,7.463,1.366,7.463,4.095c0,2.264-1.853,3.663-5.557,4.199
		l-0.064,0.104c2.175,0.364,3.683,0.822,4.522,1.375C30.767,28,31.456,29.141,31.456,30.505z M26.287,30.39
		c0-2.429-0.861-3.841-2.586-4.238c-0.682-0.155-1.66-0.233-2.938-0.233v1.499c0,0.431-0.021,1.043-0.064,1.835
		c-0.022,0.397-0.033,1.137-0.033,2.223c0,1.86,0.065,2.851,0.194,2.972c0.172,0.189,0.656,0.284,1.453,0.284
		C24.963,34.731,26.287,33.284,26.287,30.39z M25.674,21.552c0-2.499-0.95-3.748-2.852-3.748c-0.676,0-1.13,0.026-1.361,0.077
		c-0.466,0.121-0.697,0.388-0.697,0.801v6.823c1.88,0,3.167-0.267,3.864-0.801C25.325,24.17,25.674,23.119,25.674,21.552z"/>
	<path fill="#FFFFFF" d="M55.976,30.803c0,0.328-0.012,0.604-0.032,0.827c-0.086,0.759-0.119,1.37-0.098,1.836l0.033,1.835
		c-2.758-0.087-7.743-0.129-14.957-0.129h-1.357c-0.947,0-1.421-0.073-1.421-0.219c0-0.146,0.15-0.22,0.452-0.22
		c1.076-0.017,1.766-0.137,2.067-0.361c0.194-0.137,0.291-0.55,0.291-1.239V19.146c0-0.584-0.066-0.946-0.196-1.084
		c-0.263-0.258-0.666-0.378-1.211-0.361H38.73c-0.24,0-0.36-0.065-0.36-0.194c0-0.129,0.15-0.194,0.453-0.194
		c0.172,0,0.344,0,0.517,0h8.205c0.108,0,0.227,0,0.356,0c0.215,0,0.323,0.069,0.323,0.207c0,0.155-0.28,0.232-0.84,0.232
		c-0.797,0-1.266,0.078-1.405,0.232c-0.141,0.156-0.21,0.837-0.21,2.042v6.15c0,1.258,0.042,4.075,0.129,8.452
		c0.409,0.017,0.872,0.025,1.389,0.025c2.262,0,3.823-0.068,4.684-0.206c1.356-0.224,2.282-0.776,2.778-1.654
		c0.259-0.448,0.495-1.164,0.711-2.146c0.064-0.275,0.161-0.413,0.29-0.413C55.9,30.235,55.976,30.424,55.976,30.803z"/>
	<path fill="#FFFFFF" d="M83.467,34.912c0,0.138-0.081,0.22-0.242,0.245c-0.161,0.026-0.576,0.039-1.244,0.039
		c-0.172,0-0.657-0.009-1.453-0.026c-1.595-0.034-2.692-0.052-3.295-0.052c-0.711,0-1.336,0.009-1.874,0.026
		c-1.077,0.034-1.81,0.051-2.197,0.051c-0.581,0-0.872-0.086-0.872-0.258c0-0.172,0.614-0.268,1.842-0.285
		c0.302,0,0.527-0.017,0.679-0.051c0.344-0.035,0.517-0.138,0.517-0.311c0-0.086-0.129-0.447-0.388-1.085l-0.679-1.68
		c-0.129-0.378-0.409-1.076-0.84-2.093h-0.581h-2.52c-0.905-0.017-1.863-0.008-2.876,0.025c-0.193,0.345-0.56,1.121-1.098,2.327
		l-0.711,1.68c-0.108,0.258-0.161,0.465-0.161,0.62c0,0.293,0.236,0.482,0.71,0.568c0.108,0.017,0.636,0.052,1.583,0.104
		c0.302,0.016,0.452,0.089,0.452,0.219c0,0.146-0.193,0.22-0.581,0.22h-5.33c-0.13,0-0.269,0-0.42,0
		c-0.302,0-0.452-0.086-0.452-0.258c0-0.104,0.333-0.172,1.001-0.207c0.861-0.034,1.41-0.164,1.647-0.388
		c0.236-0.224,0.625-0.947,1.163-2.171c0.408-0.861,1.001-2.136,1.776-3.825l3.909-8.606c0.194-0.379,0.463-0.973,0.808-1.783
		c0.237-0.585,0.42-0.879,0.549-0.879c0.13,0,0.366,0.397,0.711,1.189c0.431,1.017,2.325,5.031,5.686,12.043
		c0.431,0.896,0.862,1.81,1.293,2.739c0.365,0.793,0.731,1.275,1.099,1.448c0.279,0.138,0.947,0.198,2.002,0.181
		C83.338,34.68,83.467,34.758,83.467,34.912z M73.194,28.865c-0.021-0.051-0.096-0.215-0.225-0.491
		c-0.866-1.997-1.493-3.4-1.883-4.21c-0.103-0.226-0.247-0.555-0.433-0.988l-0.217-0.459c-0.387,0.74-0.858,1.766-1.416,3.074
		c-0.622,1.464-1.073,2.489-1.352,3.074c0.194,0,0.431,0,0.71,0c0.259,0,0.496,0,0.712,0h1.809
		C71.396,28.865,72.16,28.865,73.194,28.865z"/>
	<path fill="#FFFFFF" d="M109.279,34.163c0,0.965-0.787,1.447-2.359,1.447c-1.981,0-3.564-0.501-4.748-1.503
		c-0.926-0.777-1.454-1.606-1.583-2.488l-0.323-2.124c-0.215-1.348-0.608-2.289-1.18-2.825c-0.57-0.536-1.49-0.795-2.762-0.777
		v5.883c0,1.365,0.012,2.1,0.033,2.203c0,0.294,0.15,0.497,0.451,0.609c0.303,0.112,0.873,0.169,1.713,0.169
		c0.517,0,0.775,0.077,0.775,0.232c0,0.138-0.13,0.207-0.388,0.207h-3.134h-0.518c-0.387,0-0.754,0-1.098,0h-2.326
		c-0.215,0-0.463,0-0.742,0c-0.238,0-0.389,0-0.453,0h-1.486c-0.302,0-0.452-0.062-0.452-0.185c0-0.138,0.441-0.224,1.325-0.254
		c0.732-0.034,1.162-0.173,1.291-0.415c0.065-0.121,0.098-0.484,0.098-1.089V19.905c0-0.899-0.021-1.43-0.064-1.594
		c-0.043-0.164-0.184-0.29-0.42-0.375c-0.303-0.104-0.787-0.156-1.453-0.156c-0.475,0-0.712-0.078-0.712-0.233
		c0-0.121,0.097-0.194,0.291-0.22c0.194-0.026,0.711-0.04,1.551-0.04h0.581c0.389,0,0.765,0,1.131,0h1.066c0.021,0,0.247,0,0.678,0
		c0.41,0,0.797,0,1.164,0H97.1c3.016,0,5.072,0.19,6.171,0.568c0.86,0.294,1.55,0.741,2.067,1.345
		c0.517,0.602,0.774,1.266,0.774,1.99c0,1.654-1.076,2.877-3.229,3.669c-0.948,0.345-2.348,0.604-4.2,0.776l-0.032,0.155
		c2.348,0.121,4.049,0.617,5.104,1.486c1.055,0.87,1.69,2.278,1.905,4.225c0.172,1.55,0.441,2.52,0.808,2.907
		c0.366,0.388,0.743,0.582,1.131,0.582c0.323,0,0.485-0.069,0.485-0.208c0-0.068-0.124-0.163-0.372-0.284
		c-0.248-0.121-0.372-0.293-0.372-0.517c0-0.465,0.324-0.698,0.97-0.698S109.279,33.578,109.279,34.163z M101.106,21.112
		c0-2.222-1.098-3.333-3.295-3.333c-0.711,0-1.152,0.189-1.324,0.568c-0.109,0.241-0.162,1.18-0.162,2.817v4.291
		c1.68,0.017,2.896-0.319,3.65-1.008C100.729,23.757,101.106,22.646,101.106,21.112z"/>
	<path fill="#FFFFFF" d="M135.736,17.571c0,0.086-0.079,0.138-0.237,0.155c-0.159,0.017-0.722,0.043-1.692,0.077
		c-0.569,0.017-0.895,0.112-0.98,0.285c-0.085,0.103-0.116,0.655-0.096,1.654v2.998c0,1.999,0,4.609,0,7.83v4.393
		c0,0.293-0.075,0.44-0.226,0.44c-0.238,0-1.805-1.425-4.7-4.277c-2.897-2.851-6.079-6.111-9.546-9.781v1.912
		c0,0.655,0,1.224,0,1.706c0,0.483,0,0.775,0,0.878v8.038c0,0.361,0.141,0.585,0.424,0.671c0.457,0.138,0.99,0.208,1.599,0.208
		c0.718,0,1.12,0.042,1.207,0.129c0.022,0.017,0.032,0.052,0.032,0.104c0,0.138-0.161,0.207-0.483,0.207
		c-0.194,0-0.357-0.009-0.485-0.026c-1.292-0.034-2.1-0.052-2.422-0.052c-0.755,0-1.745,0.018-2.973,0.052
		c-0.604,0.017-0.862,0.026-0.775,0.026c-0.323,0-0.484-0.069-0.484-0.207c0-0.121,0.473-0.208,1.422-0.259
		c1.098-0.068,1.732-0.207,1.905-0.413c0.108-0.138,0.161-0.757,0.161-1.858V21.855c0-1.083-0.021-1.738-0.064-1.961
		c-0.129-0.756-0.506-1.307-1.131-1.651c-0.474-0.258-1.356-0.404-2.648-0.438c-0.344-0.018-0.518-0.101-0.518-0.246
		c0-0.163,0.151-0.245,0.453-0.245c0.129,0,0.592,0.017,1.389,0.052c0.389,0.018,0.969,0.026,1.745,0.026
		c1.593,0,2.886-0.026,3.876-0.078l11.34,11.682V18.737c0-0.414-0.087-0.678-0.26-0.79c-0.172-0.112-0.538-0.177-1.098-0.195
		l-1.389-0.051c-0.26-0.017-0.389-0.078-0.389-0.182c0-0.138,0.193-0.208,0.582-0.208h0.711c0.129,0,0.344,0,0.645,0
		c0.28,0,0.528,0,0.743,0c2.174,0,3.445,0.009,3.813,0.026C135.553,17.356,135.736,17.433,135.736,17.571z"/>
	<path fill="#FFFFFF" d="M159.125,30.648c0,0.035-0.011,0.836-0.033,2.403c-0.021,0.828-0.037,1.421-0.048,1.784
		c-0.011,0.362-0.017,0.534-0.017,0.517c-5.685-0.206-10.66-0.267-14.925-0.181h-2.713c-0.388,0-0.581-0.065-0.581-0.195
		c0-0.098,0.047-0.154,0.145-0.17c0.098-0.017,0.426-0.041,0.986-0.074c1.011-0.052,1.561-0.284,1.646-0.696
		c0.043-0.224,0.065-0.473,0.065-0.749V20.203c0-1.032-0.012-1.6-0.032-1.704c-0.021-0.275-0.129-0.464-0.323-0.567
		c-0.193-0.104-0.592-0.155-1.195-0.155c-0.668,0-1.001-0.077-1.001-0.233c0-0.171,0.296-0.258,0.888-0.258
		c0.592,0,1.416-0.008,2.473-0.025c3.961-0.069,7.203-0.086,9.724-0.052h2.196c0.473,0,1.055-0.026,1.744-0.078l0.291,2.817
		c0.107,0.896,0.162,1.447,0.162,1.654c0,0.172-0.109,0.258-0.324,0.258c-0.217,0-0.357-0.224-0.422-0.672
		c-0.195-1.189-0.795-2.055-1.799-2.597c-1.004-0.543-2.49-0.814-4.456-0.814c-0.605,0-1.642,0.025-3.11,0.077v7.625
		c2.381,0.018,3.879-0.117,4.496-0.4c0.615-0.285,1.033-1.021,1.249-2.21c0.108-0.638,0.271-0.957,0.487-0.957
		c0.195,0,0.292,0.155,0.292,0.465c0,0.31-0.032,0.948-0.097,1.913c-0.021,0.328-0.032,0.767-0.032,1.318
		c0,1.483,0.021,2.602,0.064,3.36c0.021,0.103,0.032,0.233,0.032,0.388c0,0.206-0.098,0.31-0.292,0.31
		c-0.151,0-0.249-0.04-0.292-0.117c-0.044-0.077-0.108-0.358-0.195-0.84c-0.217-1.223-0.514-1.985-0.893-2.287
		c-0.379-0.301-1.25-0.453-2.613-0.453h-2.207v8.684h2.073c2.376-0.034,3.823-0.077,4.343-0.129
		c0.646-0.068,1.273-0.258,1.879-0.568c0.539-0.345,0.912-0.714,1.117-1.111c0.205-0.396,0.427-1.128,0.664-2.197
		c0.064-0.258,0.173-0.388,0.324-0.388C159.038,30.26,159.125,30.39,159.125,30.648z"/>
	<path fill="#FFFFFF" d="M184.678,17.556c0,0.115-0.141,0.18-0.42,0.196c-1.271,0.052-2.035,0.173-2.293,0.364
		c-0.238,0.035-1.057,1.323-2.455,3.865c-0.303,0.554-0.756,1.349-1.358,2.387c-0.738,1.209-1.171,1.999-1.296,2.371
		c-0.127,0.372-0.19,1.049-0.19,2.034v5.208c0,0.294,0.155,0.488,0.468,0.583c0.313,0.095,0.932,0.151,1.858,0.168
		c0.474,0,0.711,0.082,0.711,0.244c0,0.13-0.206,0.195-0.616,0.195c-0.087,0-0.335-0.008-0.745-0.025
		c-0.496,0-1.19-0.009-2.074-0.026l-2.592-0.026c-0.065,0-0.346,0.009-0.842,0.026c-0.605,0.018-1.145,0.026-1.619,0.026
		l-2.042,0.025c-0.346,0-0.518-0.069-0.518-0.207c0-0.138,0.15-0.206,0.451-0.206c1.529-0.018,2.37-0.129,2.521-0.336
		c0.15-0.121,0.226-0.396,0.226-0.826v-6.115c-0.601-1.308-1.651-3.08-3.154-5.316c-0.622-1.049-1.503-2.365-2.639-3.948
		c-0.302-0.309-0.827-0.465-1.577-0.465h-0.355c-0.086,0-0.192,0-0.322,0c-0.429,0-0.644-0.095-0.644-0.284
		c0-0.155,0.227-0.233,0.68-0.233c-0.065,0,0.027,0.01,0.273,0.027c0.248,0.017,0.662,0.025,1.244,0.025l3.812,0.026
		c0.149,0,0.387,0,0.71,0c0.388-0.051,0.861-0.078,1.421-0.078h1.906c0.215,0,0.441,0,0.678,0c0.237,0,0.346,0,0.324,0
		c0.43,0,0.646,0.069,0.646,0.208c0,0.103-0.048,0.164-0.146,0.181c-0.097,0.017-0.479,0.034-1.146,0.051
		c-1.185,0.035-1.776,0.242-1.776,0.622c0,0.277,0.075,0.557,0.226,0.842c0.15,0.286,0.656,1.128,1.516,2.527
		c0.752,1.209,1.655,2.626,2.709,4.25c0.664-0.949,1.607-2.518,2.83-4.709c0.939-1.644,1.41-2.613,1.41-2.907
		c0-0.38-0.313-0.571-0.938-0.571c-0.947,0.017-1.422-0.061-1.422-0.233c0-0.191,0.205-0.277,0.614-0.261l0.905,0.04
		c0.602,0.025,1.625,0.038,3.068,0.038h1.229C184.43,17.313,184.678,17.395,184.678,17.556z"/>
</g>
<g>
	<path fill="#FFFFFF" d="M57.595,40.212c0,0.094-0.109,0.146-0.329,0.158c-0.659,0.024-1.074,0.085-1.25,0.185
		c-0.175,0.099-0.373,0.394-0.592,0.885c-0.132,0.27-0.329,0.68-0.593,1.229c-0.19,0.456-0.491,1.158-0.9,2.104
		c-0.206,0.444-0.515,1.118-0.928,2.018l-1.083,2.404c-0.751,1.698-1.172,2.675-1.259,2.934c-0.058,0.152-0.123,0.228-0.197,0.228
		c-0.087,0-0.16-0.057-0.22-0.167c-0.058-0.109-0.226-0.511-0.504-1.2c-0.366-0.914-0.901-2.049-1.604-3.405l-0.746-1.439
		c-1.463,2.503-2.513,4.492-3.157,5.965c-0.072,0.165-0.152,0.247-0.24,0.247c-0.06,0-0.241-0.311-0.549-0.931l-2.676-5.591
		c-0.643-1.405-1.47-3.081-2.479-5.026c-0.102-0.21-0.271-0.339-0.504-0.386c-0.132-0.036-0.389-0.054-0.768-0.054
		c-0.382,0-0.57-0.051-0.57-0.158c0-0.094,0.102-0.14,0.307-0.14c-0.014,0,0.227,0,0.724,0c0.512,0,0.951,0,1.317,0h0.833h2.216
		c0.072,0,0.197,0,0.372,0c0.146,0,0.25,0,0.308,0c0.19,0,0.285,0.06,0.285,0.175c0,0.104-0.234,0.152-0.702,0.139
		c-0.248,0-0.372,0.052-0.372,0.158c0,0.045,0.013,0.096,0.044,0.156c0.321,0.709,0.809,1.768,1.466,3.176l2.253,4.637l1.535-2.811
		c-0.216-0.511-0.631-1.429-1.249-2.757c-0.118-0.206-0.278-0.524-0.484-0.951c-0.045-0.104-0.118-0.265-0.221-0.485
		c-0.25-0.531-0.455-0.851-0.617-0.959c-0.162-0.111-0.501-0.165-1.016-0.165c-0.147-0.011-0.22-0.064-0.22-0.156
		c0-0.102,0.139-0.156,0.417-0.156c-0.044,0,0.033,0,0.23,0c0.197,0,0.522,0,0.975,0h7.657c0.278-0.011,0.417,0.043,0.417,0.156
		c0,0.095-0.109,0.139-0.329,0.139c-1.039-0.01-1.637,0.129-1.799,0.42c-0.248,0.315-0.768,1.206-1.557,2.67
		c0.507,1.053,1.317,2.717,2.431,4.996c0.237-0.478,0.488-1.01,0.755-1.595c0.236-0.491,0.619-1.327,1.148-2.507
		c0.339-0.783,0.626-1.42,0.861-1.913c0.397-0.83,0.596-1.368,0.596-1.612c0-0.236-0.146-0.38-0.438-0.44
		c-0.102-0.023-0.366-0.035-0.789-0.035c-0.236,0-0.352-0.045-0.352-0.139c0-0.094,0.109-0.14,0.329-0.14h1.734
		c0.745,0.011,1.308,0.011,1.689,0h0.175C57.522,40.072,57.595,40.119,57.595,40.212z M50.07,40.841c0-0.314-0.35-0.471-1.053-0.471
		c-0.717,0-1.074,0.105-1.074,0.315c0,0.29,0.351,1.033,1.053,2.231C49.711,41.729,50.07,41.038,50.07,40.841z"/>
	<path fill="#FFFFFF" d="M75.189,46.145c0,1.755-0.684,3.237-2.052,4.447c-1.368,1.212-3.045,1.818-5.034,1.818
		c-1.945,0-3.613-0.614-5.002-1.843c-1.389-1.227-2.083-2.709-2.083-4.441c0-1.777,0.691-3.262,2.072-4.457
		c1.382-1.192,3.098-1.789,5.145-1.789c1.974,0,3.627,0.599,4.958,1.799C74.523,42.877,75.189,44.366,75.189,46.145z M71.328,46.416
		c0-2.324-0.343-4.043-1.032-5.152c-0.454-0.724-1.169-1.086-2.15-1.086c-0.995,0-1.786,0.509-2.379,1.524
		c-0.593,1.017-0.888,2.377-0.888,4.082c0,2.478,0.526,4.328,1.579,5.555c0.439,0.515,1.076,0.77,1.909,0.77
		c0.965,0,1.645-0.369,2.039-1.104C71.02,49.863,71.328,48.333,71.328,46.416z"/>
	<path fill="#FFFFFF" d="M94.274,46.145c0,1.755-0.684,3.237-2.052,4.447c-1.368,1.212-3.045,1.818-5.033,1.818
		c-1.945,0-3.614-0.614-5.002-1.843c-1.391-1.227-2.086-2.709-2.086-4.441c0-1.777,0.691-3.262,2.074-4.457
		c1.382-1.192,3.096-1.789,5.144-1.789c1.974,0,3.627,0.599,4.956,1.799C93.607,42.877,94.274,44.366,94.274,46.145z M90.411,46.416
		c0-2.324-0.342-4.043-1.03-5.152c-0.453-0.724-1.169-1.086-2.15-1.086c-0.995,0-1.788,0.509-2.38,1.524
		c-0.593,1.017-0.89,2.377-0.89,4.082c0,2.478,0.528,4.328,1.581,5.555c0.439,0.515,1.074,0.77,1.907,0.77
		c0.966,0,1.646-0.369,2.042-1.104C90.105,49.863,90.411,48.333,90.411,46.416z"/>
	<path fill="#FFFFFF" d="M110.727,49.233c0,0.221-0.007,0.409-0.023,0.562c-0.058,0.515-0.079,0.931-0.065,1.246l0.023,1.246
		c-1.873-0.06-5.259-0.087-10.158-0.087h-0.921c-0.644,0-0.965-0.05-0.965-0.149c0-0.101,0.102-0.15,0.308-0.15
		c0.729-0.011,1.198-0.094,1.403-0.247c0.132-0.091,0.197-0.372,0.197-0.84v-9.497c0-0.397-0.044-0.643-0.133-0.736
		c-0.177-0.175-0.453-0.257-0.822-0.244h-0.556c-0.163,0-0.244-0.045-0.244-0.13c0-0.088,0.102-0.133,0.308-0.133
		c0.116,0,0.233,0,0.35,0h5.572c0.072,0,0.153,0,0.241,0c0.146,0,0.22,0.047,0.22,0.14c0,0.106-0.192,0.158-0.57,0.158
		c-0.542,0-0.86,0.053-0.955,0.159c-0.095,0.105-0.143,0.568-0.143,1.386v4.176c0,0.854,0.03,2.767,0.088,5.738
		c0.278,0.013,0.592,0.02,0.944,0.02c1.535,0,2.597-0.048,3.181-0.142c0.921-0.153,1.551-0.526,1.886-1.124
		c0.176-0.302,0.338-0.789,0.482-1.456c0.044-0.187,0.111-0.282,0.197-0.282C110.674,48.845,110.727,48.976,110.727,49.233z"/>
	<path fill="#FFFFFF" d="M126.608,49.233c0,0.221-0.006,0.409-0.021,0.562c-0.058,0.515-0.081,0.931-0.065,1.246l0.021,1.246
		c-1.872-0.06-5.257-0.087-10.157-0.087h-0.921c-0.643,0-0.965-0.05-0.965-0.149c0-0.101,0.101-0.15,0.307-0.15
		c0.731-0.011,1.199-0.094,1.403-0.247c0.133-0.091,0.199-0.372,0.199-0.84v-9.497c0-0.397-0.045-0.643-0.133-0.736
		c-0.177-0.175-0.453-0.257-0.823-0.244h-0.553c-0.165,0-0.245-0.045-0.245-0.13c0-0.088,0.102-0.133,0.306-0.133
		c0.118,0,0.236,0,0.35,0h5.574c0.072,0,0.153,0,0.241,0c0.146,0,0.219,0.047,0.219,0.14c0,0.106-0.19,0.158-0.57,0.158
		c-0.541,0-0.858,0.053-0.954,0.159c-0.095,0.105-0.143,0.568-0.143,1.386v4.176c0,0.854,0.03,2.767,0.088,5.738
		c0.278,0.013,0.592,0.02,0.944,0.02c1.535,0,2.595-0.048,3.181-0.142c0.921-0.153,1.55-0.526,1.886-1.124
		c0.176-0.302,0.336-0.789,0.482-1.456c0.044-0.187,0.109-0.282,0.199-0.282C126.558,48.845,126.608,48.976,126.608,49.233z"/>
	<path fill="#FFFFFF" d="M142.798,49.128c0,0.023-0.009,0.568-0.023,1.633c-0.014,0.561-0.026,0.964-0.031,1.209
		c-0.009,0.247-0.011,0.365-0.011,0.351c-3.862-0.139-7.24-0.18-10.134-0.121h-1.845c-0.261,0-0.394-0.045-0.394-0.133
		c0-0.065,0.034-0.106,0.099-0.116c0.065-0.011,0.288-0.027,0.67-0.05c0.687-0.034,1.059-0.193,1.118-0.474
		c0.028-0.15,0.044-0.321,0.044-0.508v-8.884c0-0.7-0.007-1.087-0.023-1.156c-0.014-0.186-0.086-0.315-0.22-0.385
		c-0.131-0.071-0.403-0.106-0.812-0.106c-0.453,0-0.678-0.051-0.678-0.158c0-0.115,0.2-0.175,0.602-0.175
		c0.403,0,0.962-0.006,1.679-0.017c2.692-0.047,4.891-0.06,6.604-0.037h1.491c0.321,0,0.715-0.017,1.183-0.052l0.199,1.914
		c0.074,0.607,0.111,0.982,0.111,1.124c0,0.115-0.074,0.173-0.221,0.173s-0.243-0.15-0.287-0.454
		c-0.13-0.809-0.539-1.396-1.22-1.765c-0.684-0.369-1.691-0.553-3.027-0.553c-0.41,0-1.114,0.018-2.113,0.054v5.176
		c1.618,0.011,2.635-0.079,3.054-0.272c0.419-0.192,0.701-0.692,0.849-1.498c0.074-0.433,0.185-0.65,0.332-0.65
		c0.131,0,0.197,0.105,0.197,0.315c0,0.21-0.021,0.644-0.067,1.3c-0.014,0.221-0.02,0.519-0.02,0.894
		c0,1.006,0.014,1.768,0.043,2.28c0.016,0.072,0.023,0.159,0.023,0.265c0,0.141-0.065,0.21-0.199,0.21
		c-0.102,0-0.169-0.026-0.199-0.079c-0.028-0.051-0.074-0.243-0.133-0.57c-0.145-0.831-0.349-1.348-0.606-1.552
		c-0.257-0.206-0.849-0.308-1.775-0.308h-1.498v5.899h1.408c1.615-0.024,2.597-0.054,2.95-0.089
		c0.439-0.045,0.864-0.174,1.276-0.386c0.366-0.234,0.62-0.485,0.759-0.754c0.141-0.27,0.291-0.769,0.45-1.493
		c0.045-0.176,0.119-0.264,0.221-0.264C142.739,48.864,142.798,48.952,142.798,49.128z"/>
	<path fill="#FFFFFF" d="M161.466,40.248c0,0.058-0.054,0.094-0.159,0.104c-0.111,0.013-0.492,0.031-1.149,0.054
		c-0.387,0.011-0.61,0.077-0.667,0.193c-0.058,0.069-0.079,0.444-0.064,1.122v2.038c0,1.357,0,3.129,0,5.317v2.984
		c0,0.199-0.052,0.298-0.155,0.298c-0.162,0-1.223-0.968-3.193-2.905c-1.967-1.937-4.126-4.15-6.482-6.644v1.298
		c0,0.446,0,0.832,0,1.158c0,0.329,0,0.528,0,0.599v5.457c0,0.244,0.096,0.399,0.288,0.457c0.311,0.092,0.673,0.141,1.086,0.141
		c0.488,0,0.761,0.027,0.82,0.089c0.014,0.009,0.023,0.034,0.023,0.068c0,0.094-0.111,0.141-0.331,0.141
		c-0.129,0-0.24-0.007-0.328-0.017c-0.877-0.024-1.426-0.035-1.645-0.035c-0.512,0-1.185,0.011-2.019,0.035
		c-0.409,0.01-0.585,0.017-0.525,0.017c-0.219,0-0.332-0.047-0.332-0.141c0-0.082,0.324-0.141,0.966-0.176
		c0.746-0.045,1.178-0.141,1.294-0.28c0.075-0.095,0.111-0.515,0.111-1.263v-7.201c0-0.736-0.016-1.181-0.044-1.332
		c-0.088-0.514-0.343-0.887-0.768-1.12c-0.322-0.176-0.921-0.277-1.799-0.299c-0.234-0.013-0.35-0.068-0.35-0.166
		c0-0.112,0.102-0.167,0.306-0.167c0.088,0,0.404,0.011,0.942,0.034c0.264,0.013,0.659,0.02,1.186,0.02
		c1.083,0,1.96-0.02,2.632-0.054l7.699,7.932V41.04c0-0.281-0.058-0.46-0.175-0.536c-0.118-0.077-0.366-0.119-0.746-0.133
		l-0.942-0.034c-0.176-0.011-0.264-0.054-0.264-0.124c0-0.094,0.131-0.14,0.395-0.14h0.483c0.088,0,0.234,0,0.44,0
		c0.19,0,0.358,0,0.505,0c1.476,0,2.339,0.006,2.588,0.017C161.341,40.102,161.466,40.153,161.466,40.248z"/>
</g>
<g>
	<path fill="#FFFFFF" d="M79.413,68.356c0,0.117-0.148,0.175-0.442,0.175h-0.154c-0.322,0-0.892,0-1.707,0c-0.815,0-1.422,0-1.816,0
		c-0.162,0-0.502,0-1.015,0c-0.499,0-1.176,0-2.028,0h-0.549c-0.208,0-0.308-0.048-0.308-0.15c0-0.098,0.1-0.15,0.308-0.15h0.747
		c0.676,0.013,1.086-0.083,1.234-0.282c0.044-0.059,0.067-0.411,0.067-1.059V57.32c-0.476,0.976-1.102,2.527-1.874,4.653
		l-1.916,5.395c-0.237,0.657-0.426,0.988-0.573,0.988c-0.163,0-0.308-0.165-0.44-0.493c-0.046-0.107-0.514-1.236-1.411-3.385
		c-0.338-0.812-1.256-3.086-2.755-6.823V66.8c0,0.53,0.009,0.844,0.023,0.945c0.014,0.101,0.081,0.185,0.198,0.257
		c0.221,0.153,0.594,0.224,1.125,0.214c0.529-0.013,0.792,0.053,0.792,0.194c0,0.081-0.111,0.123-0.331,0.123l-1.961-0.07
		c-0.339-0.012-0.727-0.004-1.166,0.024c-0.59,0.03-0.986,0.046-1.192,0.046c-0.309,0-0.463-0.051-0.463-0.158
		c0-0.094,0.126-0.141,0.375-0.141c0.587,0,0.941-0.007,1.058-0.017c0.456-0.048,0.72-0.184,0.792-0.408
		c0.044-0.14,0.067-0.435,0.067-0.882v-8.419c0-0.942-0.07-1.494-0.209-1.652c-0.14-0.158-0.664-0.238-1.576-0.238
		c-0.234,0-0.352-0.053-0.352-0.16c0-0.115,0.124-0.17,0.375-0.158h0.593h4.148c0.046,0,0.128,0.006,0.245,0.021
		c1.253,3.25,2.313,5.948,3.184,8.094l2.977-8.117l0.462,0.001h2.91c0.046,0,0.17,0,0.375,0c0.22,0,0.419,0,0.596,0h1.015
		c0.294,0,0.439,0.05,0.439,0.15c0,0.113-0.086,0.162-0.264,0.15H78.51c-0.617-0.021-1.032,0.024-1.244,0.141
		c-0.214,0.118-0.321,0.346-0.321,0.688c0,0.093,0,0.299,0,0.616c0,0.319,0,1.793,0,4.425v4.919c0,0.422,0.137,0.667,0.415,0.731
		c0.278,0.064,0.688,0.093,1.236,0.08C79.141,68.185,79.413,68.239,79.413,68.356z"/>
	<path fill="#FFFFFF" d="M90.077,68.347c0,0.1-0.094,0.15-0.286,0.15c-0.101,0-0.198-0.007-0.286-0.017
		c-0.881-0.036-1.636-0.053-2.269-0.053c-0.661,0-1.631,0.017-2.909,0.053c-0.426,0.01-0.743,0.017-0.948,0.017
		c-0.22,0-0.328-0.053-0.328-0.158c0-0.059,0.039-0.094,0.12-0.107c0.08-0.011,0.363-0.021,0.847-0.034
		c0.458-0.07,0.72-0.181,0.795-0.328c0.073-0.147,0.11-0.619,0.11-1.418v-8.479c0-0.224,0-0.44,0-0.653
		c-0.016-0.211-0.023-0.309-0.023-0.299c0-0.294-0.369-0.442-1.102-0.442c-0.41,0-0.616-0.039-0.616-0.123
		c0-0.081,0.029-0.128,0.088-0.141c0.058-0.011,0.248-0.017,0.573-0.017c-0.148,0,0.117,0,0.792,0c0.674,0,1.254,0,1.742,0H87.5
		c0.234,0,0.569,0,1.002,0c0.432,0,0.74,0,0.914,0h0.22c0.194,0,0.288,0.046,0.288,0.134c0,0.067-0.033,0.108-0.1,0.125
		c-0.066,0.017-0.289,0.028-0.673,0.04c-0.456,0.024-0.733,0.1-0.835,0.23l-0.066,0.332v9.947c0,0.505,0.068,0.805,0.208,0.897
		c0.14,0.094,0.613,0.16,1.421,0.195C90.011,68.211,90.077,68.259,90.077,68.347z"/>
	<path fill="#FFFFFF" d="M106.097,65.5c0,0.222-0.009,0.41-0.023,0.564c-0.059,0.517-0.08,0.935-0.066,1.251l0.021,1.251
		c-1.88-0.06-5.279-0.087-10.201-0.087h-0.925c-0.647,0-0.971-0.05-0.971-0.15c0-0.101,0.103-0.151,0.309-0.151
		c0.734-0.011,1.203-0.094,1.408-0.248c0.133-0.091,0.201-0.373,0.201-0.844v-9.539c0-0.399-0.046-0.646-0.137-0.74
		c-0.177-0.175-0.453-0.258-0.824-0.245h-0.559c-0.163,0-0.245-0.046-0.245-0.131c0-0.088,0.103-0.134,0.309-0.134
		c0.115,0,0.232,0,0.352,0h5.596c0.074,0,0.154,0,0.244,0c0.147,0,0.221,0.047,0.221,0.141c0,0.107-0.191,0.158-0.573,0.158
		c-0.545,0-0.864,0.053-0.961,0.16c-0.096,0.106-0.143,0.57-0.143,1.392v4.195c0,0.858,0.031,2.779,0.088,5.764
		c0.279,0.013,0.596,0.02,0.949,0.02c1.539,0,2.605-0.048,3.195-0.142c0.924-0.154,1.555-0.529,1.893-1.129
		c0.177-0.304,0.339-0.792,0.486-1.462c0.044-0.188,0.11-0.284,0.198-0.284C106.046,65.111,106.097,65.242,106.097,65.5z"/>
	<path fill="#FFFFFF" d="M122.049,65.5c0,0.222-0.009,0.41-0.023,0.564c-0.057,0.517-0.08,0.935-0.064,1.251l0.023,1.251
		c-1.883-0.06-5.282-0.087-10.203-0.087h-0.924c-0.647,0-0.972-0.05-0.972-0.15c0-0.101,0.106-0.151,0.309-0.151
		c0.734-0.011,1.204-0.094,1.411-0.248c0.133-0.091,0.198-0.373,0.198-0.844v-9.539c0-0.399-0.046-0.646-0.133-0.74
		c-0.181-0.175-0.455-0.258-0.828-0.245h-0.556c-0.164,0-0.248-0.046-0.248-0.131c0-0.088,0.105-0.134,0.309-0.134
		c0.118,0,0.235,0,0.353,0h5.597c0.074,0,0.154,0,0.241,0c0.147,0,0.221,0.047,0.221,0.141c0,0.107-0.189,0.158-0.573,0.158
		c-0.543,0-0.864,0.053-0.958,0.16c-0.097,0.106-0.142,0.57-0.142,1.392v4.195c0,0.858,0.028,2.779,0.087,5.764
		c0.278,0.013,0.594,0.02,0.948,0.02c1.542,0,2.608-0.048,3.196-0.142c0.926-0.154,1.556-0.529,1.896-1.129
		c0.175-0.304,0.338-0.792,0.483-1.462c0.044-0.188,0.11-0.284,0.198-0.284C121.999,65.111,122.049,65.242,122.049,65.5z"/>
	<path fill="#FFFFFF" d="M136.108,65.007c0,1.069-0.475,1.954-1.42,2.652c-0.949,0.701-2.158,1.051-3.626,1.051
		c-0.895,0-2.131-0.242-3.703-0.724c-0.117-0.036-0.218-0.054-0.308-0.054c-0.251,0-0.44,0.214-0.573,0.636
		c-0.044,0.128-0.103,0.194-0.177,0.194c-0.115,0-0.174-0.083-0.174-0.247c0-0.151,0.034-0.423,0.108-0.811
		c0.059-0.316,0.087-0.688,0.087-1.11c0-0.341-0.007-0.612-0.021-0.811c-0.029-0.399-0.043-0.636-0.043-0.706
		c0-0.187,0.073-0.281,0.219-0.281c0.147,0,0.279,0.251,0.396,0.755c0.207,0.872,0.67,1.546,1.388,2.03
		c0.78,0.516,1.616,0.775,2.511,0.775c0.794,0,1.462-0.201,2.007-0.6c0.542-0.399,0.815-0.888,0.815-1.464
		c0-0.492-0.175-0.886-0.53-1.181c-0.264-0.21-1.117-0.627-2.554-1.249c-1.602-0.684-2.69-1.364-3.262-2.047
		c-0.529-0.621-0.794-1.363-0.794-2.22c0-1.011,0.449-1.849,1.345-2.513c0.895-0.661,2.028-0.995,3.394-0.995
		c0.734,0,1.521,0.14,2.356,0.422c0.281,0.094,0.478,0.141,0.596,0.141c0.222,0,0.368-0.151,0.442-0.458
		c0.028-0.106,0.094-0.16,0.198-0.16c0.147,0,0.221,0.077,0.221,0.231c0,0.059-0.017,0.224-0.044,0.493
		c-0.03,0.269-0.046,0.493-0.046,0.67c0,0.61,0.03,1.129,0.09,1.551c0.014,0.036,0.02,0.083,0.02,0.141
		c0,0.107-0.06,0.158-0.177,0.158c-0.131,0-0.262-0.187-0.395-0.563c-0.133-0.378-0.364-0.751-0.694-1.12
		c-0.332-0.369-0.666-0.637-1.003-0.801c-0.44-0.214-0.955-0.318-1.542-0.318c-0.822,0-1.477,0.158-1.961,0.476
		c-0.485,0.316-0.727,0.753-0.727,1.303c0,0.485,0.228,0.909,0.684,1.28c0.455,0.369,1.328,0.844,2.623,1.419
		c1.586,0.703,2.635,1.267,3.15,1.692C135.736,63.268,136.108,64.054,136.108,65.007z"/>
</g>
</svg>
