<svg id="Layer_1" data-name="Layer 1" xmlns="http://www.w3.org/2000/svg" viewBox="0 0 290 460.33"><defs><style>.cls-1{opacity:0.6;}.cls-2{opacity:0.78;}.cls-3{opacity:0.7;}.cls-4{opacity:0.23;}</style></defs><title>watermark</title><g class="cls-1"><path d="M262,47.55a8.79,8.79,0,1,1-8.79,8.79A8.8,8.8,0,0,1,262,47.55m0-3a11.79,11.79,0,1,0,11.79,11.79A11.79,11.79,0,0,0,262,44.55Z" transform="translate(-11.95 -5.67)"/></g><g class="cls-2"><path d="M164.95,115a23.67,23.67,0,1,1-23.67,23.67A23.69,23.69,0,0,1,164.95,115m0-5a28.67,28.67,0,1,0,28.67,28.67A28.67,28.67,0,0,0,164.95,110Z" transform="translate(-11.95 -5.67)"/></g><g class="cls-1"><path d="M228.67,389A20.67,20.67,0,1,1,208,409.67,20.69,20.69,0,0,1,228.67,389m0-5a25.67,25.67,0,1,0,25.67,25.67A25.67,25.67,0,0,0,228.67,384Z" transform="translate(-11.95 -5.67)"/></g><g class="cls-1"><path d="M77,276.67a8.79,8.79,0,1,1-8.79,8.79A8.8,8.8,0,0,1,77,276.67m0-3a11.79,11.79,0,1,0,11.79,11.79A11.79,11.79,0,0,0,77,273.67Z" transform="translate(-11.95 -5.67)"/></g><g class="cls-1"><path d="M264.67,262A11.67,11.67,0,1,1,253,273.67,11.68,11.68,0,0,1,264.67,262m0-5a16.67,16.67,0,1,0,16.67,16.67A16.67,16.67,0,0,0,264.67,257Z" transform="translate(-11.95 -5.67)"/></g><g class="cls-3"><path d="M184,215.67l5.2,9.17,5.2,9.17H173.61l5.2-9.17,5.2-9.17m0-10-9.53,16.67L164.95,239h38.11l-9.53-16.67L184,205.67Z" transform="translate(-11.95 -5.67)"/></g><g class="cls-3"><path d="M31,250.67l5.2,9.17,5.2,9.17H20.61l5.2-9.17,5.2-9.17m0-10-9.53,16.67L11.95,274H50.05l-9.53-16.67L31,240.67Z" transform="translate(-11.95 -5.67)"/></g><g class="cls-3"><path d="M119,402.67l5.2,9.17,5.2,9.17H108.61l5.2-9.17,5.2-9.17m0-10-9.53,16.67L99.95,426h38.11l-9.53-16.67L119,392.67Z" transform="translate(-11.95 -5.67)"/></g><g class="cls-3"><path d="M262,115.67l5.2,9.17,5.2,9.17H251.61l5.2-9.17,5.2-9.17m0-10-9.53,16.67L242.95,139h38.11l-9.53-16.67L262,105.67Z" transform="translate(-11.95 -5.67)"/></g><g class="cls-3"><path d="M117,15.67l5.2,9.17,5.2,9.17H106.61l5.2-9.17,5.2-9.17m0-10-9.53,16.67L97.95,39h38.11l-9.53-16.67L117,5.67Z" transform="translate(-11.95 -5.67)"/></g><g class="cls-4"><path d="M73.33,167v20.67H52.67V167H73.33m5-5H47.67v30.67H78.33V162Z" transform="translate(-11.95 -5.67)"/></g><path d="M51.67,83.67v8h-8v-8h8m3-3h-14v14h14v-14Z" transform="translate(-11.95 -5.67)"/><path d="M197.05,15v8h-8V15h8m3-3h-14V26h14V12Z" transform="translate(-11.95 -5.67)"/><path d="M194.61,313.67v40h-40v-40h40m5-5h-50v50h50v-50Z" transform="translate(-11.95 -5.67)"/><path d="M64.28,378v20.67H43.61V378H64.28m5-5H38.61v30.67H69.28V373Z" transform="translate(-11.95 -5.67)"/><path d="M296.95,440.33V461H276.28V440.33h20.67m5-5H271.28V466h30.67V435.33Z" transform="translate(-11.95 -5.67)"/></svg>